<svg width="512" height="512" viewBox="0 0 20 20" fill="none" xmlns="http://www.w3.org/2000/svg">
<circle cx="10" cy="10" r="10" fill="#4446EF"/>
<path d="M10 17C10 17 9.99294 17 10 17C9.99294 17 9.99294 17 9.99294 17C9.93647 17 9.88706 16.9853 9.83765 16.9558L7.72706 15.8505C7.55059 15.7621 7.48 15.5411 7.57176 15.3568C7.65647 15.1726 7.86824 15.0989 8.04471 15.1947L9.64706 16.0347V14.0526C9.64706 13.8463 9.80235 13.6842 10 13.6842C10.1976 13.6842 10.3529 13.8463 10.3529 14.0526V16.0347L11.9624 15.1947C12.1388 15.1063 12.3506 15.18 12.4353 15.3568C12.52 15.5411 12.4494 15.7621 12.28 15.8505L10.1694 16.9558C10.12 16.9853 10.0635 17 10.0071 17C10.0071 17 10.0071 17 10 17C10 17 10.0071 17 10 17ZM13.5294 15.1579C13.4024 15.1579 13.2753 15.0842 13.2118 14.9516C13.1271 14.7674 13.1976 14.5463 13.3671 14.4579L14.8565 13.6842L13.3671 12.9105C13.1906 12.8221 13.12 12.6011 13.2118 12.4168C13.2965 12.2326 13.5082 12.1589 13.6847 12.2547L15.2941 13.0874V11.1053C15.2941 10.8989 15.4494 10.7368 15.6471 10.7368C15.8447 10.7368 16 10.8989 16 11.1053V13.6768C16 13.7284 15.9929 13.7874 15.9718 13.8316C15.9718 13.8389 15.9647 13.8463 15.9576 13.8537C15.9224 13.9274 15.8659 13.9789 15.8024 14.0084L13.6847 15.1137C13.6353 15.1432 13.5859 15.1579 13.5294 15.1579ZM6.47059 15.1579C6.41412 15.1579 6.36471 15.1432 6.31529 15.1211L4.20471 14.0158C4.14118 13.9863 4.08471 13.9274 4.04941 13.8611C4.04235 13.8537 4.04235 13.8463 4.03529 13.8389C4.00706 13.78 4 13.7284 4 13.6768V11.1053C4 10.8989 4.15529 10.7368 4.35294 10.7368C4.55059 10.7368 4.70588 10.8989 4.70588 11.1053V13.0874L6.31529 12.2474C6.49176 12.1589 6.70353 12.2326 6.78824 12.4095C6.87294 12.5937 6.80235 12.8147 6.63294 12.9032L5.14353 13.6842L6.63294 14.4579C6.80941 14.5463 6.88 14.7674 6.78824 14.9516C6.72471 15.0842 6.59765 15.1579 6.47059 15.1579ZM10 11.8421C9.80235 11.8421 9.64706 11.68 9.64706 11.4737V9.49158L7.72706 8.48947C7.55059 8.39368 7.48 8.17263 7.56471 7.99579C7.64941 7.81158 7.86118 7.73789 8.03765 7.83368L10 8.85053L11.9624 7.82632C12.1388 7.73789 12.3506 7.81158 12.4353 7.98842C12.52 8.17263 12.4494 8.39368 12.28 8.48211L10.3529 9.49158V11.4737C10.3529 11.68 10.1976 11.8421 10 11.8421ZM15.6471 9.26316C15.4494 9.26316 15.2941 9.10105 15.2941 8.89474V6.91263L13.6847 7.75263C13.5082 7.84105 13.2965 7.76737 13.2118 7.59053C13.1271 7.41368 13.1976 7.18526 13.3671 7.09684L14.8565 6.32316L13.3671 5.54947C13.1906 5.46105 13.12 5.24 13.2118 5.05579C13.3035 4.87158 13.5082 4.79789 13.6847 4.89368L15.7953 5.99895C15.8588 6.02842 15.9153 6.08737 15.9506 6.15368C15.9576 6.16105 15.9576 6.16842 15.9647 6.17579C15.9929 6.22 16 6.27158 16 6.32316V8.89474C16 9.10105 15.8447 9.26316 15.6471 9.26316ZM4.35294 9.26316C4.15529 9.26316 4 9.10105 4 8.89474V6.32316C4 6.27158 4.00706 6.22 4.02824 6.16842C4.02824 6.16105 4.03529 6.15368 4.04235 6.14632C4.07765 6.07263 4.13412 6.02105 4.19765 5.99158L6.31529 4.88632C6.49176 4.79789 6.70353 4.87158 6.78824 5.04842C6.87294 5.23263 6.80235 5.45368 6.63294 5.54211L5.14353 6.31579L6.63294 7.08947C6.80941 7.17789 6.88 7.39895 6.78824 7.58316C6.69647 7.76737 6.48471 7.84105 6.31529 7.75263L4.70588 6.91263V8.89474C4.70588 9.10105 4.55059 9.26316 4.35294 9.26316ZM10 6.31579C9.80235 6.31579 9.64706 6.15368 9.64706 5.94737V3.96526L8.03765 4.80526C7.86824 4.89368 7.65647 4.82 7.56471 4.63579C7.48 4.45895 7.55059 4.23789 7.72706 4.14211L9.83765 3.03684C9.88 3.01474 9.93647 3 9.99294 3C10 3 10 3 10.0071 3C10.0635 3 10.1129 3.01474 10.1624 3.04421L12.2729 4.14947C12.4494 4.23789 12.52 4.45895 12.4282 4.64316C12.3435 4.82737 12.1318 4.90105 11.9553 4.80526L10.3529 3.96526V5.94737C10.3529 6.15368 10.1976 6.31579 10 6.31579Z" fill="white"/>
</svg>
