<svg clip-rule="evenodd" fill-rule="evenodd" stroke-linejoin="round" stroke-miterlimit="2" viewBox="0 0 678 500" xmlns="http://www.w3.org/2000/svg" xmlns:xlink="http://www.w3.org/1999/xlink"><radialGradient id="a" cx="0" cy="0" gradientTransform="matrix(-198.219 198.219 -198.219 -198.219 250 25)" gradientUnits="userSpaceOnUse" r="1"><stop offset="0" stop-color="#2ca9b7"/><stop offset="1" stop-color="#2ca9b7" stop-opacity="0"/></radialGradient><g fill="url(#a)" transform="matrix(.707107 .707107 -.707107 .707107 339 -103.602)"><path d="m254.23 499.965c-1.418.023-2.823.035-4.23.035s-2.812-.012-4.23-.035zm-4.23-499.965c13.798 0 25 11.202 25 25s-11.202 25-25 25c-110.383 0-200 89.617-200 200h-50c0-137.979 112.021-250 250-250z" transform="matrix(-1 0 0 -1 500 500)"/><path d="m254.23 499.965c-1.418.023-2.823.035-4.23.035s-2.812-.012-4.23-.035zm-4.23-499.965c13.798 0 25 11.202 25 25s-11.202 25-25 25c-110.383 0-200 89.617-200 200h-50c0-137.979 112.021-250 250-250z" transform="matrix(0 1 -1 0 500 0)"/><path d="m254.23 499.965c-1.418.023-2.823.035-4.23.035s-2.812-.012-4.23-.035zm-4.23-499.965c13.798 0 25 11.202 25 25s-11.202 25-25 25c-110.383 0-200 89.617-200 200h-50c0-137.979 112.021-250 250-250z"/><path d="m254.23 499.965c-1.418.023-2.823.035-4.23.035s-2.812-.012-4.23-.035zm-4.23-499.965c13.798 0 25 11.202 25 25s-11.202 25-25 25c-110.383 0-200 89.617-200 200h-50c0-137.979 112.021-250 250-250z" transform="matrix(0 -1 1 0 0 500)"/></g><g fill="#fff"><path d="m680 25.006c0-13.801-11.205-25.006-25.006-25.006h-24.994v50h25.226c13.673 0 24.774-11.101 24.774-24.774zm-7-.013c0-11.034-8.959-19.993-19.993-19.993h-16.007v40h15.993c11.042 0 20.007-8.965 20.007-20.007z" transform="translate(-2 224.497207)"/><path d="m540 0v50h50c0-2.76-2.24-5-5-5h-37v-17h27v-5h-27v-18h37c2.76 0 5-2.24 5-5z" transform="translate(-2 224.497207)"/><path d="m499.499 30c-2.319 11.406-12.413 20-24.499 20-13.798 0-25-11.202-25-25s11.202-25 25-25c12.086 0 22.18 8.594 24.499 20h-7.204c-2.168-7.505-9.095-13-17.295-13-9.934 0-18 8.066-18 18s8.066 18 18 18c8.2 0 15.127-5.495 17.295-13z" transform="translate(-1 224.497207)"/><path d="m403 39.842-36-39.982-.156.14h-6.844v50c3.863 0 7-3.137 7-7v-32.679l36 39.982.337-.303h6.663v-50c-3.863 0-7 3.137-7 7z" transform="translate(-1 224.637328)"/><path d="m90.208 50 24.83-50.908 3.867 7.928-.008.016 20.955 42.964h-7.788l-2.439-5h-29.244l-2.439 5zm12.611-10h24.368l-12.184-24.98z" transform="translate(178.792 225.405)"/><path d="m180 50h50c0-2.76-2.24-5-5-5h-38v-38c0-3.863-3.137-7-7-7z" transform="translate(-1 224.497207)"/><path d="m90.208 50 24.83-50.908 3.867 7.928-.008.016 20.955 42.964h-7.788l-2.439-5h-29.244l-2.439 5zm12.611-10h24.368l-12.184-24.98z" transform="translate(-.208447 225.405)"/><path d="m37.558 25h-.109c6.927 0 12.551-5.624 12.551-12.551v-.007c0-6.867-5.575-12.442-12.442-12.442h-37.558v50h37.449c6.927 0 12.551-5.624 12.551-12.551v-.007c0-6.867-5.575-12.442-12.442-12.442zm5.442 11.526c0-4.706-3.82-8.526-8.526-8.526h-27.474v17h27.526c4.677 0 8.474-3.797 8.474-8.474zm0-22.499c0-4.982-4.045-9.027-9.027-9.027h-26.973v18h27.027c4.952 0 8.973-4.021 8.973-8.973z" transform="translate(0 224.497207)"/></g></svg>