<?xml version="1.0" encoding="utf-8"?>
<!-- Generator: Adobe Illustrator 25.3.1, SVG Export Plug-In . SVG Version: 6.00 Build 0)  -->
<svg version="1.1" id="Layer_1" xmlns="http://www.w3.org/2000/svg" xmlns:xlink="http://www.w3.org/1999/xlink" x="0px" y="0px"
	 viewBox="0 0 512 512" style="enable-background:new 0 0 512 512;" xml:space="preserve">
<style type="text/css">
	.st0{fill:#001716;}
	.st1{fill:#FFA7AB;}
	.st2{fill:#1834DB;}
	.st3{fill:#FF4C00;}
	.st4{fill:#FDA0FD;}
	.st5{fill:#6CC4DF;}
	.st6{fill:#00B439;}
	.st7{fill:#EEB900;}
	.st8{fill:#FFFFFF;}
</style>
<rect class="st0" width="512" height="512"/>
<g>
	<path class="st1" d="M396.6,277c-0.2-5-0.6-10-1.4-14.8c-0.8-4.8-1.8-9.4-3.1-14L343,261.5c0.8,2.7,1.4,5.5,1.9,8.3
		c0.5,3,0.8,6,0.9,9c0,0.9,0.1,1.8,0.1,2.7c0,2-0.1,3.9-0.3,5.8c-0.2,3-0.6,6.1-1.3,9c-0.6,2.8-1.3,5.5-2.2,8.2
		c-1,2.9-2.1,5.7-3.4,8.4c-1.2,2.6-2.6,5-4.1,7.4l43.7,26.1c2.5-4.1,4.8-8.3,6.8-12.6c2.1-4.5,3.9-9.1,5.5-13.9
		c1.5-4.5,2.7-9.2,3.7-13.9c1-4.8,1.6-9.8,2-14.8c0.2-3.2,0.4-6.4,0.4-9.7C396.7,280,396.6,278.5,396.6,277z"/>
	<path class="st2" d="M334.7,320.3c-1.6,2.5-3.4,5-5.3,7.3c-1.8,2.2-3.7,4.2-5.7,6.2c-2.1,2.1-4.4,4-6.8,5.8
		c-2.2,1.7-4.5,3.2-6.9,4.7c-2.5,1.5-5.2,2.9-7.9,4.1c-2.5,1.1-5.1,2.1-7.7,2.9l17.1,47.9c4.5-1.5,8.9-3.2,13.1-5.2
		c4.5-2.1,8.8-4.4,13-6.9c4-2.5,7.9-5.2,11.6-8.1c3.9-3,7.6-6.3,11.1-9.8c3.4-3.4,6.5-6.9,9.5-10.6c3.1-3.9,5.9-7.9,8.5-12.1
		L334.7,320.3z"/>
	<path class="st3" d="M294.5,351.3c-2.8,0.9-5.6,1.5-8.5,2.1c-2.6,0.5-5.3,0.8-8.1,1c-1.7,0.1-3.3,0.2-5,0.2h-3.7h-3.2
		c-1.7,0-3.3-0.1-4.9-0.2c-2.9-0.2-5.8-0.6-8.7-1.1c-2.7-0.5-5.4-1.2-8-2c-2.8-0.9-5.6-1.9-8.2-3.1l-22.6,45.3
		c4.4,2.1,8.9,4,13.6,5.5c4.4,1.5,8.9,2.7,13.6,3.7c4.7,1,9.5,1.7,14.4,2.2c3.6,0.3,7.2,0.5,10.8,0.5h3.1h3.8
		c3.6,0,7.2-0.2,10.7-0.5c4.7-0.4,9.3-1,13.9-2c4.8-1,9.6-2.3,14.2-3.8L294.5,351.3z"/>
	<path class="st4" d="M316.4,165.6c-4.6-1.7-9.2-3.1-14-4.3c-4.5-1.1-9.1-1.9-13.8-2.5c-4.8-0.6-9.6-0.9-14.5-1c-0.4,0-0.8,0-1.2,0
		h-6.9c-1.9,0-3.9,0.1-5.8,0.2c-4.9,0.2-9.7,0.8-14.5,1.6c-4.7,0.8-9.2,1.9-13.7,3.2l15.3,48.4c2.6-0.7,5.3-1.2,8-1.6
		c2.8-0.4,5.8-0.7,8.7-0.7c0.7,0,1.3-0.1,2-0.1h6.2h0.8c2.7,0,5.3,0.2,7.9,0.4c2.7,0.3,5.4,0.8,8.1,1.4c2.9,0.6,5.7,1.5,8.4,2.4
		c2.6,0.9,5.2,2,7.6,3.2l24.4-44.7C325.1,169.2,320.8,167.2,316.4,165.6z"/>
	<path class="st5" d="M228.7,344.3c-2.6-1.5-5-3.2-7.4-5c-2.2-1.7-4.3-3.5-6.3-5.5c-2.2-2.1-4.2-4.3-6.1-6.7
		c-1.8-2.2-3.4-4.5-4.9-6.9c-1.6-2.5-3-5.2-4.3-7.9L153.6,333c2.1,4.5,4.4,8.9,7,13.1c2.5,4.1,5.2,7.9,8.2,11.7
		c3,3.9,6.3,7.5,9.8,11c3.3,3.3,6.9,6.5,10.6,9.4c1.2,0.9,2.3,1.8,3.5,2.7c2.8,2,5.6,4,8.5,5.8c4,2.5,8.1,4.8,12.4,6.8l22.6-45.3
		C233.6,347,231.1,345.8,228.7,344.3z"/>
	<path class="st6" d="M387.2,234c-1.8-4.4-3.9-8.7-6.3-12.9c-2.4-4.3-5.1-8.5-8-12.5c-2.8-3.8-5.8-7.5-9-11
		c-3.3-3.6-6.9-7-10.6-10.2c-3.6-3.1-7.3-6-11.3-8.6c-4.1-2.7-8.3-5.2-12.7-7.5L304.9,216c2.7,1.3,5.2,2.8,7.7,4.4
		c2.3,1.5,4.6,3.2,6.7,4.9c2.3,1.9,4.5,4,6.5,6.1c1.9,2,3.8,4.2,5.4,6.4c1.8,2.4,3.4,4.9,4.9,7.5c1.4,2.4,2.7,5,3.8,7.6
		c1.2,2.7,2.2,5.6,3,8.5l49.1-13.4C390.7,243.3,389.1,238.6,387.2,234z"/>
	<path class="st7" d="M196.6,304.5c-0.9-2.8-1.7-5.7-2.3-8.7c-0.5-2.8-0.9-5.6-1.2-8.4l-0.1-14.8l-50.7-5.8c0,11.3,0,18.3,0,18.6
		c0.1,1.9,0.2,3.8,0.3,5.7c0.4,4.8,1,9.5,1.9,14.2c1,4.9,2.2,9.7,3.7,14.4c1.5,4.6,3.2,9,5.2,13.3l46.2-20.6
		C198.6,309.9,197.5,307.2,196.6,304.5z"/>
	<path class="st8" d="M192.6,81.1h-50.2c0,0,0,135.3,0,185.7l50.7,5.8L192.6,81.1z"/>
	<polygon class="st8" points="193.1,272.6 142.4,266.8 193.1,272.6 	"/>
</g>
</svg>
