<svg width="258" height="251" viewBox="0 0 258 251" fill="none" xmlns="http://www.w3.org/2000/svg">
<g clip-path="url(#clip0_114_5407)">
<path d="M133.187 250.899C87.6884 252.845 51.7028 236.761 28.7465 196.498C19.5433 203.567 9.82304 201.621 4.03226 191.785C1.34368 187.278 0.309611 182.258 0.102798 177.135C-0.62105 158.797 0.930053 140.868 9.40941 124.169C10.5469 122.018 10.2367 119.866 10.2367 117.715C10.2367 99.0691 11.9946 80.6283 19.9569 63.5193C35.985 29.3014 63.4912 8.60668 100.614 1.12791C111.989 -1.12597 124.294 0.92301 136.186 0.513214C156.868 -0.10148 175.894 5.63566 193.991 14.7536C218.808 27.1499 230.7 47.9471 232.355 74.8912C233.492 94.254 229.046 113.002 225.633 131.853C223.772 142.098 222.324 152.343 223.048 162.69C221.187 161.051 220.98 158.899 220.98 156.645C221.083 150.908 221.497 145.171 221.807 139.434C222.944 122.735 227.391 106.65 228.632 89.9512C229.666 76.8377 229.563 63.9291 224.496 51.6353C222.634 47.0251 220.98 41.6977 215.809 39.1365C212.397 34.7312 209.295 30.0185 204.331 27.0475C202.78 25.8181 201.229 24.4863 199.471 23.3593C181.478 11.4753 161.417 6.14791 140.012 4.20138C114.471 1.9475 90.377 6.14791 67.8343 17.9295C49.8415 27.4573 36.502 41.4928 28.7465 60.3434C27.7124 60.7532 27.8158 61.6753 27.8158 62.4948L27.609 62.5973V62.9046C26.1613 65.261 25.2307 67.9246 24.817 70.6908C24.6102 71.3055 24.4034 71.9202 24.1966 72.6373C23.4727 73.252 23.5761 74.0716 23.783 74.7887C23.6796 75.4034 23.5761 75.9157 23.4727 76.5303C23.2659 76.9401 23.0591 77.3499 22.8523 77.7597C22.6455 79.3989 22.4387 81.1406 22.2319 82.7797C21.0944 89.5414 20.2671 96.303 20.5773 103.167C20.5773 104.089 20.3705 105.421 21.8182 105.523C23.4727 105.728 23.783 104.601 23.6796 103.27C23.5761 102.245 23.5761 101.221 23.4727 100.196C23.4727 99.1716 23.4727 98.1471 23.4727 97.2251C23.4727 92.205 25.3341 87.5948 26.7818 82.9846C26.9886 82.6773 27.2988 82.2675 27.5056 81.9602C29.5737 78.5793 31.9521 75.6083 35.0543 73.1495C45.0848 65.261 60.6992 62.4948 68.1445 76.8377C68.0411 77.5548 68.1445 78.1695 68.8683 78.4769C68.9717 80.321 69.0751 82.0626 69.282 83.9067C68.8683 84.8287 69.5922 85.9557 68.5581 86.6728C66.2832 71.9202 49.3244 67.0026 39.1906 76.6328C30.7112 84.7263 28.8499 94.5614 30.2976 105.831C31.0214 111.363 35.1577 115.666 34.9509 121.301C32.0555 122.427 31.1248 119.969 29.6772 118.534C29.4703 118.227 29.1601 117.92 28.9533 117.51C28.5397 116.793 28.126 116.178 27.7124 115.461C27.8158 114.846 27.5056 114.539 26.8852 114.334C26.8852 114.027 26.8852 113.719 26.6784 113.412C26.7818 112.797 26.4715 112.387 25.9545 112.183C26.0579 111.875 25.9545 111.568 25.7477 111.363C25.3341 109.724 25.0238 108.187 24.6102 106.548C24.3 105.421 23.6796 104.806 22.4387 104.909C21.1978 105.011 20.6808 105.728 20.6808 106.855C20.6808 107.982 20.7842 109.212 20.7842 110.339C20.7842 112.08 20.7842 113.719 20.7842 115.461C20.7842 118.227 20.7842 120.891 20.7842 123.657C20.7842 123.964 20.7842 124.272 20.7842 124.681C20.5774 126.73 20.5773 128.882 21.508 130.828C21.4046 131.853 21.4046 132.877 21.3012 133.902C18.5092 133.902 20.3705 130.726 18.5092 129.804C18.199 141.688 18.8194 153.47 20.2671 165.149C20.8876 170.374 22.9557 175.496 21.7148 180.823C15.2002 165.149 12.098 148.654 10.7537 130.316C6.2038 144.249 4.13566 156.85 3.82544 169.861C2.79138 173.037 1.96412 176.316 2.06753 179.696C2.48115 193.527 12.3048 199.879 24.7136 194.347C28.2295 192.81 30.6078 193.015 32.8828 196.498C36.7088 202.543 40.3281 208.587 45.1882 214.017C57.08 227.233 71.9705 235.326 88.9293 240.346C91.6178 241.166 94.203 243.215 97.2018 241.268C104.337 242.908 111.472 244.854 118.814 245.571C117.78 247.005 115.815 245.776 114.367 247.21C116.849 247.723 119.227 247.723 121.296 248.542C125.122 250.079 129.672 247.825 133.187 250.899Z" fill="#191819"/>
<path d="M227.393 167.402C231.426 168.632 235.149 167.71 238.871 166.07C244.042 163.817 248.902 164.021 253.245 167.812C257.485 171.5 258.725 176.315 257.485 181.643C255.106 192.195 249.522 201.108 241.974 208.689C220.775 229.999 194.406 241.473 165.142 247.312C163.798 247.62 162.454 247.722 161.109 248.03C161.42 246.493 162.66 246.595 163.798 246.186C168.658 244.546 173.415 242.702 178.275 240.961C180.033 240.346 180.446 239.526 178.689 238.399C179.102 238.297 179.412 238.297 179.826 238.195C180.136 237.99 180.446 237.785 180.757 237.682C181.067 237.58 181.377 237.375 181.687 237.272C201.541 230.818 219.638 221.7 233.391 205.513C235.045 205.718 236.39 205.308 237.527 204.079C243.111 197.727 248.281 190.966 250.556 182.667C251.59 178.979 251.797 174.984 249.626 171.398C247.764 168.324 244.972 167.71 242.697 169.759C240.939 170.476 239.182 171.09 237.424 171.808C232.563 172.525 227.703 173.549 223.153 170.476C224.705 169.656 226.876 169.656 227.393 167.402Z" fill="#191819"/>
<path d="M227.394 167.4C226.98 169.757 224.705 169.654 223.154 170.474C221.707 170.064 220.776 168.937 219.845 167.912C216.33 160.639 217.26 152.648 218.294 145.476C220.879 127.957 223.465 110.336 225.016 92.7149C226.67 74.2741 224.395 56.243 215.812 39.4414C221.086 42.0026 222.637 47.2275 224.499 51.9402C229.566 64.2341 229.566 77.0402 228.635 90.2561C227.394 106.955 222.948 123.04 221.81 139.739C221.396 145.476 221.086 151.213 220.983 156.95C220.983 159.204 221.19 161.356 223.051 162.995C224.188 164.532 225.223 166.478 227.394 167.4Z" fill="#1E2536"/>
<path d="M178.686 238.398C180.444 239.525 180.03 240.345 178.272 240.96C173.412 242.701 168.656 244.545 163.796 246.185C162.658 246.594 161.417 246.492 161.107 248.029C151.904 249.873 142.597 250.795 133.187 250.897C129.671 247.824 125.121 250.078 121.192 248.541C119.124 247.721 116.745 247.619 114.264 247.209C115.711 245.775 117.676 247.004 118.71 245.57C120.778 245.57 122.95 245.16 124.811 246.389C123.57 246.799 122.019 245.877 120.468 247.414C127.293 247.414 133.601 247.414 139.909 247.414C141.356 247.414 143.114 247.721 143.528 245.57C144.252 245.57 144.975 245.57 145.596 245.57C147.871 246.389 150.249 247.824 151.8 244.545C152.524 244.545 153.145 244.545 153.868 244.545C154.799 245.467 155.833 245.775 156.971 244.853C156.557 244.648 156.143 244.545 155.73 244.34C163.382 242.291 171.034 240.345 178.686 238.398Z" fill="#1E2536"/>
<path d="M219.843 167.913C220.774 168.938 221.705 170.065 223.152 170.474C227.702 173.548 232.562 172.523 237.423 171.806C232.976 179.797 227.392 187.174 220.981 193.73C200.3 215.245 173.621 223.44 144.563 224.875C126.364 225.797 108.784 222.109 91.8258 215.654C78.3829 210.634 66.1809 203.668 55.6334 193.833C41.3632 180.719 31.8498 164.635 25.6454 146.501C25.1284 144.965 25.3352 142.506 22.6466 142.301C21.9227 140.662 21.7159 139.023 21.9227 137.281C22.5432 137.178 23.3704 137.076 23.3704 136.256C23.3704 135.437 22.5432 135.334 21.9227 135.232C21.8193 134.925 21.6125 134.515 21.5091 134.207C21.6125 133.183 21.6125 132.158 21.7159 131.134C23.9909 127.548 22.3364 123.655 22.75 119.865C22.9568 118.328 23.3704 116.279 20.8887 115.869C20.8887 114.127 20.8887 112.488 20.8887 110.747C22.5432 111.054 24.0943 111.464 25.7488 111.771C25.9556 111.976 26.059 112.283 25.9556 112.591C26.1624 113 26.4726 113.41 26.6795 113.82C26.8863 114.127 26.9897 114.332 26.8863 114.742C27.1965 115.152 27.4033 115.459 27.7135 115.869C28.1271 116.586 28.5408 117.201 28.9544 117.918C29.1612 118.225 29.4714 118.533 29.6783 118.943C31.1259 120.377 32.0566 122.938 34.952 121.709C41.3632 130.109 55.9436 130.314 62.9753 122.631C70.0069 114.947 74.2466 93.6376 69.8001 84.4172C69.8001 84.3148 69.4899 84.3148 69.2831 84.3148C69.1797 82.4707 69.0762 80.729 68.8694 78.885C68.6626 78.3727 68.3524 77.758 68.1456 77.2458C60.5969 62.9029 45.0859 65.669 35.0554 73.5576C31.9532 76.0164 29.5748 79.0899 27.5067 82.3682C27.2999 82.6756 26.9897 83.0854 26.7829 83.3927C25.2318 85.0319 23.6807 85.9539 22.233 83.2903C22.4398 81.6511 22.6466 79.9095 22.8534 78.2703C23.0602 77.8605 23.267 77.4507 23.4738 77.0409C23.5772 76.4262 23.6807 75.9139 23.7841 75.2992C25.542 74.8895 26.1624 74.2748 24.1977 73.1478C24.4045 72.5331 24.6113 71.9184 24.8181 71.2013C28.1271 69.4597 27.8169 66.3862 27.6101 63.4152V63.1078L27.8169 63.0054C28.6442 62.4931 28.7476 61.6735 28.7476 60.8539C36.6065 41.696 49.946 27.6605 67.9388 18.1327C90.4815 6.24863 114.679 2.15067 140.117 4.40454C161.522 6.24863 181.583 11.6784 199.576 23.5625C201.23 24.6894 202.781 26.0213 204.436 27.2507C204.332 29.1972 204.953 30.7339 206.09 32.4756C210.02 38.6225 213.639 44.9743 214.983 52.2482C217.568 65.8739 217.568 79.3972 216.017 93.1254C214.156 109.21 210.123 124.987 209.193 141.174C208.779 149.063 209.503 156.746 213.019 163.815C214.156 165.967 215.5 169.86 219.843 167.913ZM164.417 187.174C164.314 186.559 164.211 185.842 164.107 185.227C164.107 184.817 164.004 184.51 164.004 184.1C161.419 170.987 161.419 157.361 157.696 144.452C156.558 144.862 156.765 145.579 156.765 146.194C157.592 162.278 158.213 178.363 159.35 194.447C159.661 198.955 161.005 203.565 166.279 205.307C166.589 205.409 167.003 205.614 167.313 205.717C170.415 211.659 173.31 213.093 178.687 211.044C186.96 207.868 193.061 202.336 197.714 194.755C204.332 183.895 203.919 171.806 205.47 159.922C205.677 158.488 204.849 157.771 203.402 157.566C203.402 152.341 204.332 147.116 202.471 141.994C202.264 141.379 201.851 140.662 201.334 140.559C200.196 140.252 199.886 141.379 199.782 142.096C199.162 144.862 198.748 147.731 198.231 150.497C197.301 151.931 196.06 153.16 195.439 154.697C191.303 164.225 185.512 172.728 179.515 181.231C175.482 186.764 171.242 189.632 164.417 187.174ZM109.405 88.3103C107.957 88.6176 106.923 88.925 108.578 90.3592C108.578 91.3837 108.578 92.3058 108.474 93.3303C106.82 94.5597 106.613 96.4037 106.199 98.2478C104.441 106.444 106.303 113.923 110.439 120.991C117.264 132.773 131.224 140.969 145.184 130.827C148.389 130.827 149.94 128.47 151.491 126.421C159.971 115.562 159.971 98.965 151.595 87.798C141.875 74.787 119.539 72.2258 110.439 86.2613C110.129 86.7735 109.922 87.2858 109.612 87.6956C109.715 88.0029 109.715 88.2078 109.405 88.3103ZM80.0374 133.9C79.4169 139.535 78.8999 145.272 80.5544 150.907C81.4851 153.98 82.0021 157.258 86.2418 157.771C90.3781 158.283 93.0666 156.439 95.1348 153.058C98.237 147.936 99.4779 142.506 99.1676 136.666C99.0642 135.539 99.5813 134.105 97.8233 133.9C96.1688 133.695 96.1688 135.129 95.8586 136.256C94.4109 140.662 93.5837 145.374 90.8951 149.37C89.7576 151.111 88.3099 152.751 85.9316 152.238C83.8634 151.829 83.1396 150.087 82.5191 148.243C80.8646 143.633 81.8987 138.613 80.0374 133.9ZM144.873 56.8584C154.283 61.5711 154.283 61.5711 160.074 71.3037C160.488 72.0209 161.005 73.0454 161.832 72.5331C162.866 71.9184 163.176 70.689 163.176 69.4597C163.28 61.776 153.353 54.5021 144.873 56.8584ZM42.1905 58.3952C46.2233 52.2482 50.8766 49.2772 56.9776 48.5601C58.2185 48.4576 59.7696 48.0478 59.6662 46.716C59.5628 45.1792 57.9083 45.4866 56.7708 45.3841C50.2562 45.0768 43.845 50.3017 42.1905 58.3952Z" fill="#F2F9FD"/>
<path d="M22.6445 142.301C25.3331 142.506 25.1263 144.862 25.6433 146.501C31.8477 164.635 41.3612 180.617 55.6313 193.833C66.1788 203.565 78.4842 210.532 91.8237 215.654C108.782 222.006 126.465 225.694 144.561 224.875C173.618 223.44 200.297 215.244 220.979 193.73C227.287 187.173 232.871 179.797 237.42 171.806C239.178 171.089 240.936 170.474 242.694 169.757C247.451 171.499 248.692 173.753 247.348 179.49C245.073 189.427 238.972 197.418 233.284 205.512C219.531 221.699 201.435 230.817 181.581 237.271C181.271 237.373 180.96 237.578 180.65 237.681C180.34 237.886 180.03 238.091 179.719 238.193C179.306 238.295 178.996 238.295 178.582 238.398C170.93 240.344 163.278 242.291 155.626 244.237C155.005 244.34 154.385 244.34 153.764 244.442C153.041 244.442 152.42 244.442 151.696 244.442C149.628 244.75 147.56 245.16 145.492 245.467C144.768 245.467 144.044 245.467 143.424 245.467C137.219 246.594 131.015 246.389 124.707 246.286C122.846 244.955 120.674 245.467 118.606 245.467C111.264 244.852 104.129 242.803 96.994 241.164C96.2702 240.857 95.5463 240.344 94.7191 240.14C48.186 223.645 27.4012 190.759 22.6445 142.301Z" fill="#C1CEE1"/>
<path d="M69.3865 84.2126C69.5933 84.2126 69.8001 84.2126 69.9035 84.3151C74.2466 93.5355 70.1103 114.947 63.0786 122.529C55.9436 130.212 41.4666 130.007 35.0554 121.606C35.2622 115.972 31.126 111.669 30.4021 106.137C28.9544 94.9697 30.8157 85.0322 39.2951 76.9387C49.429 67.2061 66.3877 72.2261 68.6626 86.9787C69.6967 86.2616 68.9728 85.1346 69.3865 84.2126ZM64.0093 105.624C64.0093 104.293 64.2161 102.961 64.0093 101.629C62.9752 94.9697 55.4265 90.9742 50.2562 94.3551C43.5348 98.6579 43.0177 112.386 49.429 117.201C52.6346 119.558 55.9436 119.353 59.1492 116.996C63.0786 114.128 64.5263 110.235 64.0093 105.624Z" fill="#FEFFFF"/>
<path d="M219.845 167.912C215.502 169.961 214.054 165.966 213.02 163.814C209.505 156.746 208.677 149.164 209.194 141.173C210.125 124.986 214.158 109.209 216.019 93.1247C217.57 79.3965 217.467 65.8733 214.985 52.2476C213.641 44.8712 210.022 38.6218 206.092 32.4749C205.058 30.8357 204.334 29.1965 204.438 27.25C209.401 30.221 212.4 34.9337 215.916 39.339C224.499 56.1406 226.773 74.1716 225.119 92.6125C223.568 110.234 220.983 127.855 218.398 145.374C217.26 152.648 216.329 160.639 219.845 167.912Z" fill="#C1CEE1"/>
<path d="M22.6472 142.302C27.404 190.76 48.2922 223.646 94.9286 240.14C95.7559 240.448 96.4797 240.858 97.2036 241.165C94.2048 243.111 91.6196 241.062 88.931 240.243C71.9723 235.223 57.0817 227.129 45.1899 213.914C40.3298 208.586 36.7106 202.439 32.8845 196.395C30.6096 192.809 28.2312 192.604 24.7154 194.243C12.3066 199.776 2.48292 193.424 2.06929 179.593C1.96589 176.212 2.79314 172.934 3.82721 169.758C3.93062 170.783 4.03402 171.807 4.13743 172.831C3.51699 178.261 4.44765 183.384 7.23963 187.994C9.7214 192.194 13.444 194.756 18.6144 194.448C23.6813 194.141 25.8529 190.658 23.7847 186.047C23.0609 184.306 22.2336 182.667 21.5098 180.925L21.82 181.027C23.0609 175.7 20.9927 170.475 20.3723 165.353C18.9246 153.674 18.3042 141.892 18.6144 130.008C20.4757 130.93 18.6144 134.003 21.4064 134.106C21.5098 134.413 21.7166 134.823 21.82 135.13C21.82 135.847 21.82 136.462 21.82 137.179C21.7166 138.921 21.9234 140.662 22.6472 142.302Z" fill="#1E2536"/>
<path d="M4.13835 172.831C4.03494 171.806 3.93153 170.782 3.82812 169.757C4.13835 156.849 6.30989 144.145 10.9632 130.52C12.3075 148.858 15.3063 165.352 21.9243 181.027L21.6141 180.924C20.9937 181.129 20.2698 181.334 19.7528 181.642C13.1347 185.227 9.41209 183.895 6.82692 176.929C6.10307 175.495 5.89626 173.651 4.13835 172.831Z" fill="#F2F9FD"/>
<path d="M22.3355 83.0859C23.7832 85.7496 25.3343 84.8276 26.8854 83.1884C25.4377 87.901 23.5763 92.4088 23.5763 97.4288C22.4389 98.4533 22.4389 99.4778 23.5763 100.4C23.6798 101.424 23.6798 102.449 23.7832 103.473C23.8866 104.805 23.5764 105.932 21.9218 105.727C20.4741 105.522 20.7844 104.293 20.681 103.371C20.3707 96.6092 21.198 89.8476 22.3355 83.0859Z" fill="#FEFFFF"/>
<path d="M20.7852 115.768C23.267 116.28 22.75 118.329 22.6466 119.763C22.2329 123.554 23.8874 127.447 21.6125 131.032C20.6818 129.086 20.6818 127.037 20.8886 124.886C20.992 124.783 21.1989 124.681 21.1989 124.578C21.0954 124.373 20.992 124.066 20.8886 123.861C20.7852 121.3 20.7852 118.534 20.7852 115.768Z" fill="#FEFFFF"/>
<path d="M25.6452 111.773C23.9907 111.465 22.4396 111.055 20.785 110.748C20.785 109.621 20.6816 108.392 20.6816 107.265C20.6816 106.138 21.0953 105.318 22.4396 105.318C23.6804 105.216 24.3009 105.933 24.6111 106.958C24.9213 108.494 25.3349 110.133 25.6452 111.773Z" fill="#FEFFFF"/>
<path d="M27.7139 63.1094C27.9207 66.0804 28.2309 69.1538 24.9219 70.8955C25.2321 68.1294 26.1628 65.5681 27.7139 63.1094Z" fill="#FEFFFF"/>
<path d="M24.299 72.8418C26.2638 73.9687 25.6433 74.5834 23.8854 74.9932C23.6786 74.2761 23.6786 73.4565 24.299 72.8418Z" fill="#FEFFFF"/>
<path d="M23.5777 100.5C22.4402 99.4758 22.4402 98.4513 23.5777 97.5293C23.5777 98.4513 23.5777 99.4758 23.5777 100.5Z" fill="#F2F9FD"/>
<path d="M28.8534 60.6484C28.8534 61.468 28.75 62.2876 27.9228 62.7999C27.9228 61.8778 27.8194 61.0582 28.8534 60.6484Z" fill="#FEFFFF"/>
<path d="M29.6789 118.841C29.4721 118.534 29.1619 118.226 28.9551 117.816C29.1619 118.124 29.3687 118.534 29.6789 118.841Z" fill="#FEFFFF"/>
<path d="M27.712 115.766C27.4018 115.356 27.195 115.048 26.8848 114.639C27.4018 114.844 27.8154 115.151 27.712 115.766Z" fill="#FEFFFF"/>
<path d="M26.6789 113.72C26.4721 113.31 26.1619 112.9 25.9551 112.49C26.4721 112.695 26.7823 113.105 26.6789 113.72Z" fill="#FEFFFF"/>
<path d="M26.8848 83.1885C27.0916 82.8812 27.4018 82.4714 27.6086 82.1641C27.2984 82.5739 27.0916 82.8812 26.8848 83.1885Z" fill="#FEFFFF"/>
<path d="M68.248 77.041C68.4549 77.5533 68.7651 78.168 68.9719 78.6802C68.3515 78.3729 68.1446 77.7582 68.248 77.041Z" fill="#FEFFFF"/>
<path d="M23.5775 76.7344C23.3707 77.1442 23.1638 77.554 22.957 77.9638C23.1638 77.554 23.3707 77.1442 23.5775 76.7344Z" fill="#FEFFFF"/>
<path d="M20.7832 123.963C20.8866 124.168 21.0934 124.373 21.0934 124.68C21.0934 124.782 20.8866 124.885 20.7832 124.987C20.8866 124.68 20.7832 124.27 20.7832 123.963Z" fill="#F2F9FD"/>
<path d="M233.391 205.513C239.078 197.317 245.179 189.429 247.454 179.491C248.798 173.754 247.557 171.5 242.801 169.758C245.076 167.709 247.764 168.324 249.729 171.398C251.901 174.983 251.59 178.979 250.66 182.667C248.488 190.965 243.318 197.727 237.63 204.079C236.389 205.308 234.942 205.718 233.391 205.513Z" fill="#1E2536"/>
<path d="M179.822 238.194C180.132 237.989 180.443 237.784 180.753 237.682C180.443 237.887 180.132 237.989 179.822 238.194Z" fill="#1E2536"/>
<path d="M124.917 246.39C131.122 246.39 137.43 246.595 143.634 245.57C143.22 247.722 141.566 247.414 140.015 247.414C133.707 247.414 127.399 247.414 120.574 247.414C122.125 245.775 123.676 246.697 124.917 246.39Z" fill="#191819"/>
<path d="M145.697 245.466C147.765 245.159 149.834 244.749 151.902 244.441C150.247 247.72 147.869 246.285 145.697 245.466Z" fill="#191819"/>
<path d="M153.873 244.441C154.493 244.339 155.114 244.339 155.734 244.236C156.148 244.441 156.562 244.544 156.975 244.749C155.941 245.671 154.907 245.363 153.873 244.441Z" fill="#191819"/>
<path d="M145.289 130.827C131.329 140.867 117.369 132.773 110.544 120.992C106.511 113.923 104.547 106.444 106.304 98.248C106.718 96.4039 106.925 94.5599 108.579 93.3305C108.89 93.0231 109.2 92.6133 109.51 92.306C114.991 83.9052 122.85 79.3974 132.777 80.5243C143.221 81.7537 149.425 88.5154 152.321 98.248C155.526 108.903 151.286 118.021 146.013 126.934C145.289 128.163 143.945 129.085 145.289 130.827ZM121.919 112.079C121.919 113.103 121.919 114.128 122.126 115.152C122.953 119.967 125.642 123.553 130.502 124.782C134.741 125.807 137.637 123.041 139.705 119.865C142.911 115.05 142.187 106.546 138.464 102.346C134.741 98.0431 128.227 98.6578 124.711 103.37C122.643 106.034 121.919 108.903 121.919 112.079Z" fill="#FEFFFF"/>
<path d="M164.004 184.101C164.004 184.51 164.108 184.818 164.108 185.228C162.557 186.969 163.281 188.916 163.384 190.862C163.384 191.784 164.004 191.067 164.211 190.76C164.418 190.452 164.418 190.145 164.521 189.838C164.832 191.17 165.038 192.501 165.349 193.731C166.176 198.648 168.347 199.878 172.174 196.599C186.237 184.305 196.474 169.655 198.336 150.497C198.853 147.731 199.266 144.863 199.887 142.096C199.99 141.379 200.404 140.252 201.438 140.56C201.955 140.662 202.368 141.482 202.575 141.994C204.437 147.116 203.402 152.341 203.506 157.566C203.196 158.488 202.782 159.41 202.679 160.435C199.473 177.032 192.235 191.272 178.275 201.722C175.069 204.181 171.657 205.82 167.52 205.717C167.21 205.615 166.796 205.41 166.486 205.308C165.245 201.824 161.419 199.673 161.419 195.677C161.419 191.989 161.006 188.301 160.489 184.613C159.972 181.232 160.385 177.646 160.385 174.163C162.04 177.441 160.489 181.539 164.004 184.101Z" fill="#1E2536"/>
<path d="M167.314 205.717C171.451 205.82 174.863 204.078 178.069 201.722C192.029 191.272 199.267 177.032 202.473 160.435C202.68 159.513 203.093 158.591 203.3 157.566C204.748 157.771 205.575 158.488 205.368 159.923C203.817 171.704 204.231 183.896 197.613 194.755C193.063 202.337 186.962 207.869 178.586 211.045C173.312 213.094 170.417 211.659 167.314 205.717Z" fill="#C1CEE1"/>
<path d="M145.288 130.827C143.943 129.188 145.288 128.164 146.115 126.832C151.389 118.021 155.628 108.801 152.423 98.1461C149.527 88.4135 143.22 81.6518 132.879 80.4225C122.848 79.2955 114.989 83.8033 109.612 92.2041C109.405 92.6139 108.992 92.9212 108.682 93.2286C108.682 92.2041 108.682 91.282 108.785 90.2576C109.819 89.8478 109.612 88.9257 109.612 88.2086C109.923 88.1061 110.026 87.9012 109.819 87.6963C110.129 87.1841 110.336 86.6718 110.646 86.262C119.85 72.2265 142.082 74.7878 151.802 87.7988C160.178 98.9657 160.178 115.46 151.699 126.422C149.941 128.369 148.39 130.827 145.288 130.827Z" fill="#191819"/>
<path d="M198.228 150.498C196.367 169.656 186.129 184.306 172.066 196.6C168.24 199.878 166.068 198.752 165.241 193.732C165.034 192.4 164.724 191.068 164.414 189.838C164.414 188.916 164.414 188.097 164.311 187.175C171.135 189.634 175.478 186.765 179.305 181.233C185.302 172.729 191.093 164.226 195.229 154.698C196.056 153.162 197.194 151.83 198.228 150.498Z" fill="#C1CEE1"/>
<path d="M80.0399 133.902C81.9012 138.615 80.8672 143.635 82.5217 148.348C83.1421 150.192 83.866 152.036 85.9341 152.343C88.3124 152.753 89.6567 151.216 90.8976 149.475C93.5862 145.479 94.31 140.766 95.8611 136.361C96.2748 135.234 96.1714 133.8 97.8259 134.005C99.5838 134.21 99.1702 135.644 99.1702 136.771C99.4804 142.611 98.2395 148.04 95.1373 153.163C93.0692 156.544 90.3806 158.285 86.2443 157.875C82.0046 157.363 81.4876 154.085 80.5569 151.011C78.9024 145.274 79.4195 139.537 80.0399 133.902Z" fill="#191819"/>
<path d="M164.001 184.099C160.589 181.538 162.036 177.44 160.175 174.161C160.175 177.645 159.762 181.23 160.279 184.611C160.796 188.299 161.209 191.987 161.209 195.676C161.209 199.671 165.035 201.823 166.276 205.306C161.002 203.564 159.658 199.056 159.348 194.446C158.314 178.362 157.59 162.277 156.763 146.193C156.763 145.578 156.556 144.861 157.693 144.451C161.416 157.36 161.313 170.985 164.001 184.099Z" fill="#191819"/>
<path d="M144.875 56.8599C153.354 54.5035 163.281 61.675 163.178 69.4611C163.178 70.793 162.868 72.0223 161.834 72.5346C160.903 73.0468 160.489 71.9199 160.076 71.3052C154.285 61.5725 154.285 61.5725 144.875 56.8599Z" fill="#191819"/>
<path d="M42.1934 58.3959C43.9513 50.3024 50.2591 45.0775 56.7737 45.4873C57.9112 45.5898 59.5657 45.2824 59.6691 46.8192C59.7725 48.151 58.3248 48.4583 56.9805 48.6632C50.8795 49.2779 46.1228 52.249 42.1934 58.3959Z" fill="#191819"/>
<path d="M164.418 187.173C164.418 188.095 164.418 188.915 164.521 189.837C164.418 190.144 164.418 190.451 164.211 190.759C164.004 191.066 163.487 191.783 163.384 190.861C163.28 189.017 162.556 186.968 164.107 185.227C164.107 185.841 164.314 186.456 164.418 187.173Z" fill="#191819"/>
<path d="M21.8184 137.178C21.8184 136.461 21.8184 135.846 21.8184 135.129C22.4388 135.231 23.2661 135.334 23.2661 136.153C23.2661 136.973 22.5422 137.075 21.8184 137.178Z" fill="#FEFFFF"/>
<path d="M109.406 88.3105C109.406 89.1301 109.613 89.9497 108.579 90.3595C106.821 88.9252 107.959 88.5154 109.406 88.3105Z" fill="#FEFFFF"/>
<path d="M110.439 86.2637C110.128 86.7759 109.922 87.2882 109.611 87.6979C109.922 87.1857 110.128 86.7759 110.439 86.2637Z" fill="#FEFFFF"/>
<path d="M64.0106 105.623C64.5277 110.234 63.08 114.127 59.1505 116.995C55.9449 119.351 52.6359 119.556 49.4303 117.2C43.019 112.385 43.5361 98.6568 50.2575 94.3539C55.4279 90.9731 62.9766 94.8662 64.0106 101.628C64.2174 102.96 64.0106 104.291 64.0106 105.623Z" fill="#191819"/>
<path d="M4.13685 172.83C5.99817 173.65 6.10158 175.494 6.72202 177.03C9.30719 183.997 13.0298 185.329 19.6479 181.743C20.2683 181.436 20.8888 181.231 21.5092 181.026C22.233 182.768 23.0603 184.407 23.7841 186.148C25.8523 190.759 23.7841 194.139 18.6138 194.549C13.4435 194.857 9.72082 192.193 7.23905 188.095C4.44707 183.382 3.51641 178.26 4.13685 172.83Z" fill="#C1CEE1"/>
<path d="M121.919 112.077C121.815 108.901 122.643 105.93 124.607 103.267C128.123 98.554 134.638 97.9393 138.36 102.242C142.083 106.443 142.807 115.048 139.601 119.761C137.43 122.937 134.638 125.703 130.398 124.678C125.641 123.449 122.953 119.863 122.022 115.048C121.919 114.126 122.022 113.102 121.919 112.077Z" fill="#191819"/>
</g>
<defs>
<clipPath id="clip0_114_5407">
<rect width="258" height="251" fill="white"/>
</clipPath>
</defs>
</svg>
