<?xml version="1.0" encoding="utf-8"?>
<!-- Generator: Adobe Illustrator 25.4.1, SVG Export Plug-In . SVG Version: 6.00 Build 0)  -->
<svg version="1.1" id="Warstwa_1" xmlns="http://www.w3.org/2000/svg" xmlns:xlink="http://www.w3.org/1999/xlink" x="0px" y="0px"
	 viewBox="0 0 500 500" style="enable-background:new 0 0 500 500;" xml:space="preserve">
<style type="text/css">
	
		.st0{clip-path:url(#SVGID_00000042709022546096524050000002738608015536705422_);fill:url(#SVGID_00000091708125487886737110000012108208921821803955_);}
	
		.st1{clip-path:url(#SVGID_00000055697353373628373170000004903736046462941592_);fill:url(#SVGID_00000075872688045044916150000017492878416365512112_);}
	
		.st2{clip-path:url(#SVGID_00000090290100531812081210000018405747989668933772_);fill:url(#SVGID_00000010276986426445042630000012557139950814116234_);}
	
		.st3{clip-path:url(#SVGID_00000151503846236005825970000001957383418334694844_);fill:url(#SVGID_00000138546305256548847660000002954827745102089111_);}
	
		.st4{clip-path:url(#SVGID_00000000935191109746107540000003344099075626799282_);fill:url(#SVGID_00000115495507296700636370000002258373964602400175_);}
	
		.st5{clip-path:url(#SVGID_00000155109458710033126090000009110978947658708613_);fill:url(#SVGID_00000033331892376722351430000004419946952580956584_);}
</style>
<g>
	<defs>
		<path id="SVGID_1_" d="M116,250c0-74.01,59.99-134,133.99-134c74,0,133.99,59.99,133.99,134c0,74-59.99,133.99-133.99,133.99
			C176,383.99,116,324,116,250 M250,0C111.93,0,0,111.93,0,250c0,138.07,111.93,250,250,250c138.07,0,250-111.93,250-250
			C500,111.93,388.07,0,250,0z"/>
	</defs>
	<clipPath id="SVGID_00000165943814561545672760000017654432674327180958_">
		<use xlink:href="#SVGID_1_"  style="overflow:visible;"/>
	</clipPath>
	
		<linearGradient id="SVGID_00000139975752467644460160000006630510946327023271_" gradientUnits="userSpaceOnUse" x1="0" y1="500" x2="1" y2="500" gradientTransform="matrix(221.0961 790.269 790.269 -221.0961 -394998.0625 110392.1406)">
		<stop  offset="0" style="stop-color:#FF79F4"/>
		<stop  offset="0.1399" style="stop-color:#FF79F4"/>
		<stop  offset="0.301" style="stop-color:#C09AF4"/>
		<stop  offset="0.4903" style="stop-color:#7CBEF5"/>
		<stop  offset="0.6618" style="stop-color:#47DAF5"/>
		<stop  offset="0.8093" style="stop-color:#20EEF6"/>
		<stop  offset="0.9269" style="stop-color:#09FAF6"/>
		<stop  offset="1" style="stop-color:#00FFF6"/>
	</linearGradient>
	
		<polygon style="clip-path:url(#SVGID_00000165943814561545672760000017654432674327180958_);fill:url(#SVGID_00000139975752467644460160000006630510946327023271_);" points="
		463.7,-129.73 629.73,463.7 36.3,629.73 -129.73,36.3 	"/>
</g>
<g>
	<defs>
		<path id="SVGID_00000072263431002488892910000003288409675655489676_" d="M383.99,250c0,60.91,21.8,116.71,58,160.08
			c35.5-42.53,57.09-97.03,57.91-156.57c-0.03-1.18-0.18-2.32-0.18-3.51s0.15-2.33,0.18-3.51C499.09,186.96,477.5,132.45,442,89.92
			C405.8,133.29,383.99,189.09,383.99,250"/>
	</defs>
	<clipPath id="SVGID_00000145767019142822666750000006959872629386148772_">
		<use xlink:href="#SVGID_00000072263431002488892910000003288409675655489676_"  style="overflow:visible;"/>
	</clipPath>
	
		<linearGradient id="SVGID_00000039115445347622588600000017649454619045594013_" gradientUnits="userSpaceOnUse" x1="0" y1="500" x2="1" y2="500" gradientTransform="matrix(0 321.3491 321.3491 0 -160232.6094 88.998)">
		<stop  offset="0" style="stop-color:#8773EB"/>
		<stop  offset="1" style="stop-color:#00C4F0"/>
	</linearGradient>
	
		<rect x="383.99" y="89.92" style="clip-path:url(#SVGID_00000145767019142822666750000006959872629386148772_);fill:url(#SVGID_00000039115445347622588600000017649454619045594013_);" width="115.92" height="320.16"/>
</g>
<g>
	<defs>
		<path id="SVGID_00000072249238353737566840000014916387287968724612_" d="M0.09,246.49c0.03,1.18,0.18,2.32,0.18,3.51
			s-0.15,2.33-0.18,3.51C0.91,313.04,22.5,367.55,58,410.08c36.2-43.37,58-99.17,58-160.08c0-60.91-21.81-116.71-58-160.08
			C22.5,132.45,0.91,186.96,0.09,246.49"/>
	</defs>
	<clipPath id="SVGID_00000041976250790231372290000000938134601346192282_">
		<use xlink:href="#SVGID_00000072249238353737566840000014916387287968724612_"  style="overflow:visible;"/>
	</clipPath>
	
		<linearGradient id="SVGID_00000124859632433241508030000004273433509171750558_" gradientUnits="userSpaceOnUse" x1="0" y1="500" x2="1" y2="500" gradientTransform="matrix(0 305.9077 305.9077 0 -152895.8125 90.7164)">
		<stop  offset="0" style="stop-color:#8773EB"/>
		<stop  offset="1" style="stop-color:#00C4F0"/>
	</linearGradient>
	
		<rect x="0.09" y="89.92" style="clip-path:url(#SVGID_00000041976250790231372290000000938134601346192282_);fill:url(#SVGID_00000124859632433241508030000004273433509171750558_);" width="115.92" height="320.16"/>
</g>
<g>
	<defs>
		<path id="SVGID_00000010298261125680200140000015180550712923422100_" d="M250,0.27c-1.18,0-2.33-0.15-3.51-0.18
			C186.96,0.91,132.45,22.5,89.92,58c43.37,36.2,99.17,58,160.08,58c60.91,0,116.71-21.8,160.08-58
			C367.55,22.5,313.04,0.91,253.51,0.09C252.33,0.12,251.18,0.27,250,0.27"/>
	</defs>
	<clipPath id="SVGID_00000034079431838309442220000011516882131773119931_">
		<use xlink:href="#SVGID_00000010298261125680200140000015180550712923422100_"  style="overflow:visible;"/>
	</clipPath>
	
		<linearGradient id="SVGID_00000025426207081779214870000005292296095308732047_" gradientUnits="userSpaceOnUse" x1="0" y1="500" x2="1" y2="500" gradientTransform="matrix(-246.1183 0 0 246.1183 403.6113 -123001.1016)">
		<stop  offset="0" style="stop-color:#008DEE"/>
		<stop  offset="1" style="stop-color:#A26DEA"/>
	</linearGradient>
	
		<rect x="89.92" y="0.09" style="clip-path:url(#SVGID_00000034079431838309442220000011516882131773119931_);fill:url(#SVGID_00000025426207081779214870000005292296095308732047_);" width="320.16" height="115.92"/>
</g>
<g>
	<defs>
		<path id="SVGID_00000171704163577433709630000008760504983180119711_" d="M90.21,442.24C133.53,478.3,189.23,500,250,500
			c60.77,0,116.47-21.7,159.79-57.76c-43.33-36.05-99.02-57.75-159.79-57.75C189.23,384.49,133.53,406.19,90.21,442.24"/>
	</defs>
	<clipPath id="SVGID_00000010988838855521072650000004246271617466147460_">
		<use xlink:href="#SVGID_00000171704163577433709630000008760504983180119711_"  style="overflow:visible;"/>
	</clipPath>
	
		<linearGradient id="SVGID_00000155860906847232746130000013853420271400163459_" gradientUnits="userSpaceOnUse" x1="1.432363e-07" y1="500" x2="1" y2="500" gradientTransform="matrix(319.588 0 0 -319.588 90.206 160236.2188)">
		<stop  offset="0" style="stop-color:#009BEE"/>
		<stop  offset="1" style="stop-color:#00CAF0"/>
	</linearGradient>
	
		<rect x="90.21" y="384.49" style="clip-path:url(#SVGID_00000010988838855521072650000004246271617466147460_);fill:url(#SVGID_00000155860906847232746130000013853420271400163459_);" width="319.59" height="115.51"/>
</g>
<g>
	<defs>
		<path id="SVGID_00000152958955220778438780000015145318644774429881_" d="M187.51,250c0,34.51,27.98,62.49,62.49,62.49
			c34.51,0,62.48-27.98,62.48-62.49c0-34.51-27.97-62.49-62.48-62.49C215.49,187.51,187.51,215.49,187.51,250"/>
	</defs>
	<clipPath id="SVGID_00000026864653449686880480000004799632982249914010_">
		<use xlink:href="#SVGID_00000152958955220778438780000015145318644774429881_"  style="overflow:visible;"/>
	</clipPath>
	
		<linearGradient id="SVGID_00000039100667455176450930000018189356322287302060_" gradientUnits="userSpaceOnUse" x1="0" y1="500" x2="1" y2="500" gradientTransform="matrix(0 -177.1736 -177.1736 0 88836.7734 388.0637)">
		<stop  offset="0" style="stop-color:#FF79F4"/>
		<stop  offset="1" style="stop-color:#00FFF6"/>
	</linearGradient>
	
		<rect x="187.51" y="187.51" style="clip-path:url(#SVGID_00000026864653449686880480000004799632982249914010_);fill:url(#SVGID_00000039100667455176450930000018189356322287302060_);" width="124.97" height="124.97"/>
</g>
</svg>
