<svg width="69" height="69" viewBox="0 0 69 69" fill="none" xmlns="http://www.w3.org/2000/svg">
<rect x="0.551599" y="0.551599" width="67.8968" height="67.8968" rx="33.9484" fill="black" stroke="#FFB404" stroke-width="1.1032"/>
<path d="M17.021 35.1438C17.021 35.1438 12.9132 38.078 17.021 40.6455C21.1287 43.2129 25.2734 46.9975 23.8796 53.2326C23.8796 53.2326 30.9584 51.7954 29.4179 46.0737C27.8774 40.352 22.7427 40.2786 20.9821 38.4447C19.2215 36.6109 20.9089 32.3563 20.9089 32.3563L17.021 35.1438Z" fill="#FCC201"/>
<path d="M42.4523 23.5692C42.4523 23.5692 48.2262 31.4777 47.3189 35.969C46.4116 40.4603 37.593 38.3123 38.3129 47.9783C38.3129 47.9783 35.8945 43.9752 35.8945 36.5552C35.8945 29.1352 45.6019 34.2115 42.4523 23.5692Z" fill="#FFB404"/>
<path d="M27.3836 23.5692C27.3836 23.5692 21.6097 31.4777 22.517 35.969C23.4243 40.4603 32.2429 38.3123 31.523 47.9783C31.523 47.9783 33.9414 43.9752 33.9414 36.5552C33.9414 29.1352 24.234 34.2115 27.3836 23.5692Z" fill="#FFB404"/>
<path d="M34.834 15.7583C31.0135 19.5786 26.6302 26.9084 29.638 28.6686C31.4695 29.7437 33.2076 30.9706 34.834 32.3364C36.4603 30.9706 38.1983 29.7437 40.0298 28.6686C43.0376 26.9082 38.6543 19.5786 34.834 15.7583Z" fill="#FCC201"/>
<path d="M52.837 35.1813C52.837 35.1813 56.9449 38.1155 52.837 40.6829C48.729 43.2504 44.5845 47.035 45.9784 53.27C45.9784 53.27 38.8995 51.8328 40.44 46.1111C41.9806 40.3894 47.1153 40.316 48.8758 38.4822C50.6364 36.6484 48.9493 32.3938 48.9493 32.3938L52.837 35.1813Z" fill="#FCC201"/>
</svg>
