<?xml version="1.0" encoding="UTF-8"?>
<svg width="1086px" height="604px" viewBox="0 0 1086 604" version="1.1" xmlns="http://www.w3.org/2000/svg" xmlns:xlink="http://www.w3.org/1999/xlink">
    <title>编组 4</title>
    <defs>
        <linearGradient x1="15.9352778%" y1="25.2257588%" x2="85.4735648%" y2="71.8946154%" id="linearGradient-1">
            <stop stop-color="#08E6A0" offset="0%"></stop>
            <stop stop-color="#2C9DE1" offset="100%"></stop>
        </linearGradient>
    </defs>
    <g id="页面-1" stroke="none" stroke-width="1" fill="none" fill-rule="evenodd">
        <g id="编组-4" transform="translate(0.019472, 0.000000)">
            <path d="M559.910325,458.833198 L319.629881,49.5442935 C317.214093,45.3860721 312.385158,43.0097606 307.554903,43.0097606 L211.562656,43.0097606 C206.733721,43.0097606 201.903466,45.3860721 199.488998,49.5442935 L-40.1891495,458.833198 C-42.6036168,462.991419 -42.6036168,468.337149 -40.1891495,472.49537 L8.10944267,554.47229 C10.52391,558.630512 15.3541655,561.006823 20.1831001,561.006823 L500.141692,561.006823 C504.971947,561.006823 509.802203,558.630512 512.21667,554.47229 L560.513942,472.49537 C562.326113,468.337149 562.326113,462.991419 559.910325,458.833198 Z M220.015933,70.3354006 L284.009884,70.3354006 L104.100369,376.856278 C101.685901,381.014499 101.685901,386.361524 104.100369,390.519745 C106.516157,394.677966 111.345091,397.054278 116.175347,397.054278 L300.31018,397.054278 L332.307155,451.704263 L-3.96553558,451.704263 L220.015933,70.3354006 Z M259.861248,329.333932 L284.009884,370.321745 L235.712612,370.321745 L259.861248,329.333932 Z M-3.96553558,479.029903 L355.852174,479.029903 C360.682429,479.029903 365.512685,476.653592 367.927152,472.49537 C370.34162,468.337149 370.34162,462.991419 367.927152,458.833198 L276.161544,302.008292 L308.158519,247.357012 L475.993056,533.681183 L28.0314397,533.681183 L-3.96553558,479.029903 Z M500.141692,520.019011 L319.629881,213.496839 C317.214093,209.338617 312.385158,206.963601 307.554903,206.963601 C302.724647,206.963601 297.895712,209.338617 295.479924,213.496839 L203.714316,370.321745 L139.720366,370.321745 L308.158519,83.9975732 L532.139988,465.960837 L500.141692,520.019011 Z" id="形状" fill="url(#linearGradient-1)" fill-rule="nonzero" transform="translate(259.902862, 302.008292) rotate(90.000000) translate(-259.902862, -302.008292) "></path>
            <path d="M643.423887,0 C683.774237,0 716.484659,32.7035854 716.484659,73.0455025 C716.484659,113.38742 683.774237,146.091005 643.423887,146.091005 L565.81711,146.091005 L565.81711,0 L643.423887,0 Z M872.12708,0 L872.12708,26.0876795 L768.365466,26.0853605 L768.365466,62.6081118 L851.374758,62.6104307 L851.374758,88.6981101 L768.365466,88.6934723 L768.365466,119.997528 L872.12708,120.003325 L872.12708,146.091005 L742.425063,146.091005 L742.425063,0 L872.12708,0 Z M1084.98053,0 L1084.98053,146.091005 L1058.68478,146.091005 L1058.68478,0 L1084.98053,0 Z M988.6408,0 C1013.19478,0 1033.09972,19.8557483 1033.09972,44.3490551 C1033.09972,63.4688148 1020.97056,79.7626574 1003.96899,85.9917589 C1006.72279,89.137598 1009.08723,92.8629903 1011.05982,97.1643352 L1012.01345,99.362987 L1033.09972,143.208909 L1002.15545,143.208909 L997.678155,132.729939 C990.26444,115.619535 985.063866,104.955054 982.076434,100.736496 L981.062263,99.362987 L981.062263,99.362987 C977.253896,93.4294966 969.806982,89.8717499 958.721523,88.6897469 L923.740074,88.6934723 L923.74821,146.091005 L897.712136,146.091005 L897.712136,0 L988.6408,0 Z M643.541635,25.9480374 L591.757514,25.9480374 L591.757514,119.787515 L643.541635,119.787515 C669.500466,119.787515 690.544256,98.7808324 690.544256,72.8677762 C690.544256,46.95472 669.500466,25.9480374 643.541635,25.9480374 Z M988.611471,25.9480374 L924.007887,25.9480374 L924.007887,62.5596518 L988.611471,62.5596518 C998.658911,62.5596518 1006.80397,54.3638627 1006.80397,44.2538446 C1006.80397,34.1438264 998.658911,25.9480374 988.611471,25.9480374 Z" id="形状" fill="#0FDAAC"></path>
        </g>
    </g>
</svg>