<svg width="48" height="48" viewBox="0 0 48 48" fill="none" xmlns="http://www.w3.org/2000/svg">
<circle cx="24" cy="24" r="24" fill="#060A0A"/>
<path d="M8.04352 19.8307L8.64946 14.0706C8.72724 13.3313 9.07549 12.6468 9.62721 12.1488L9.62721 12.1488C9.90335 11.8996 10.3449 12.0818 10.3652 12.4533L10.7688 19.8307H8.04352V19.8307Z" fill="white"/>
<g opacity="0.35">
<path d="M10.3476 12.13C10.322 11.6628 9.62727 11.6818 9.62727 12.1497V12.1497C9.5872 12.1859 9.54854 12.2233 9.51065 12.2614L9.73965 16.4471C9.787 17.3126 9.09833 18.0405 8.232 18.0405H8.232L8.04358 19.8316H10.7689L10.3476 12.13V12.13Z" fill="#1F1E1C"/>
</g>
<path d="M10.7688 20.2081H8.04351C7.93673 20.2081 7.83488 20.1628 7.76346 20.0833C7.69195 20.0039 7.65754 19.8978 7.66878 19.7916L8.2748 14.0315C8.36239 13.1984 8.75303 12.4304 9.37488 11.8692C9.61144 11.6558 9.94147 11.5986 10.2358 11.7201C10.5303 11.8416 10.7241 12.1148 10.7415 12.4331L11.1451 19.8105C11.1507 19.9138 11.1137 20.0151 11.0425 20.0903C10.9713 20.1655 10.8723 20.2081 10.7688 20.2081V20.2081ZM8.46208 19.454H10.3708L9.98894 12.4743C9.98842 12.4641 9.98669 12.433 9.94847 12.4173C9.91034 12.4015 9.88726 12.4223 9.87965 12.4292C9.39615 12.8656 9.0924 13.4626 9.02427 14.1105L8.46208 19.454Z" fill="#1F1E1C"/>
<path d="M11.3038 29.0221C10.7973 29.0991 10.2981 29.1276 9.83233 29.1267C8.32209 29.1236 7.07806 27.9467 6.95574 26.4405C6.78405 24.3265 6.84633 22.534 6.95567 21.2501C7.07172 19.8872 8.12134 18.79 9.47672 18.6124C9.87096 18.5607 10.2352 18.5275 10.5405 18.5062C11.0419 18.4711 11.4764 18.8493 11.513 19.3509L12.1426 27.9694C12.1803 28.4854 11.8149 28.9443 11.3038 29.0221Z" fill="white"/>
<g opacity="0.35">
<path d="M12.1427 27.9689L11.9566 25.4214C11.9475 25.8989 11.596 26.309 11.1154 26.3821C10.6089 26.4591 10.1097 26.4877 9.64396 26.4867C8.30709 26.484 7.17948 25.5612 6.85321 24.3047C6.86331 24.9699 6.89439 25.684 6.95579 26.44C7.07811 27.9462 8.32214 29.1231 9.83238 29.1262C10.2982 29.1271 10.7973 29.0986 11.3038 29.0216C11.815 28.9439 12.1804 28.4849 12.1427 27.9689V27.9689Z" fill="#1F1E1C"/>
</g>
<path d="M9.85455 29.5037H9.83155C8.1462 29.5003 6.718 28.1682 6.58018 26.471C6.43535 24.6875 6.43535 22.9202 6.58018 21.218C6.71022 19.6907 7.90782 18.4376 9.42785 18.2384C9.7814 18.1921 10.147 18.1556 10.5144 18.1299C11.2209 18.082 11.8372 18.6159 11.8889 19.3233L12.5185 27.9419C12.5702 28.65 12.0615 29.2882 11.3603 29.3948C10.8851 29.4671 10.3785 29.5037 9.85455 29.5037V29.5037ZM10.6042 18.881C10.5918 18.881 10.5794 18.8814 10.5668 18.8823C10.2145 18.9069 9.86423 18.9418 9.52573 18.9862C8.35432 19.1397 7.43132 20.1052 7.3312 21.282C7.18983 22.9427 7.18992 24.668 7.33137 26.4099C7.43772 27.7192 8.53659 28.7469 9.83311 28.7496C9.8402 28.7496 9.84746 28.7496 9.85463 28.7496C10.3408 28.7496 10.8092 28.7159 11.2471 28.6492C11.5618 28.6014 11.79 28.3148 11.7668 27.9969L11.1371 19.3783C11.1166 19.0969 10.8813 18.881 10.6042 18.881V18.881Z" fill="#1F1E1C"/>
<path d="M39.9766 20.2789L39.3706 14.5189C39.2928 13.7795 38.9446 13.095 38.3929 12.5971L38.3929 12.5971C38.1167 12.3479 37.6752 12.5301 37.6549 12.9016L37.2512 20.2789H39.9766V20.2789Z" fill="white"/>
<g opacity="0.35">
<path d="M37.6725 12.5782C37.6981 12.1111 38.3928 12.1301 38.3928 12.598V12.598C38.4329 12.6341 38.4715 12.6715 38.5094 12.7096L38.2804 16.8953C38.2331 17.7609 38.9218 18.4887 39.7881 18.4887H39.7881L39.9765 20.2798H37.2512L37.6725 12.5782V12.5782Z" fill="#1F1E1C"/>
</g>
<path d="M37.2512 20.6564H39.9766C40.0834 20.6564 40.1852 20.611 40.2566 20.5316C40.3281 20.4521 40.3625 20.3461 40.3513 20.2398L39.7453 14.4798C39.6577 13.6466 39.267 12.8787 38.6452 12.3174C38.4086 12.104 38.0786 12.0469 37.7843 12.1683C37.4898 12.2898 37.296 12.563 37.2786 12.8814L36.875 20.2587C36.8693 20.3621 36.9064 20.4633 36.9776 20.5385C37.0487 20.6138 37.1477 20.6564 37.2512 20.6564V20.6564ZM39.558 19.9022H37.6492L38.0311 12.9225C38.0317 12.9123 38.0334 12.8813 38.0716 12.8655C38.1097 12.8498 38.1328 12.8706 38.1404 12.8774C38.6239 13.3138 38.9277 13.9109 38.9958 14.5587L39.558 19.9022Z" fill="#1F1E1C"/>
<path d="M36.7163 29.4703C37.2227 29.5473 37.7219 29.5759 38.1877 29.5749C39.6979 29.5718 40.942 28.395 41.0643 26.8888C41.236 24.7747 41.1737 22.9823 41.0644 21.6983C40.9483 20.3354 39.8987 19.2382 38.5433 19.0606C38.1491 19.0089 37.7849 18.9757 37.4795 18.9544C36.9782 18.9194 36.5437 19.2976 36.507 19.7991L35.8774 28.4177C35.8397 28.9336 36.2051 29.3926 36.7163 29.4703Z" fill="white"/>
<g opacity="0.35">
<path d="M35.8774 28.4182L36.0635 25.8706C36.0726 26.3482 36.4241 26.7582 36.9047 26.8313C37.4112 26.9083 37.9103 26.9369 38.3761 26.9359C39.713 26.9332 40.8406 26.0104 41.1669 24.7539C41.1568 25.4192 41.1257 26.1332 41.0643 26.8893C40.942 28.3955 39.6979 29.5723 38.1877 29.5754C37.7219 29.5764 37.2227 29.5478 36.7163 29.4708C36.2051 29.3931 35.8397 28.9341 35.8774 28.4182V28.4182Z" fill="#1F1E1C"/>
</g>
<path d="M38.1655 29.952H38.1885C39.8738 29.9485 41.302 28.6164 41.4398 26.9192C41.5847 25.1358 41.5847 23.3684 41.4398 21.6662C41.3098 20.1389 40.1122 18.8858 38.5922 18.6867C38.2386 18.6404 37.8731 18.6039 37.5057 18.5782C36.7991 18.5302 36.1829 19.0642 36.1312 19.7716L35.5015 28.3902C35.4498 29.0983 35.9585 29.7364 36.6597 29.843C37.1349 29.9153 37.6415 29.952 38.1655 29.952V29.952ZM37.4158 19.3292C37.4282 19.3292 37.4406 19.3296 37.4532 19.3305C37.8055 19.3551 38.1558 19.3901 38.4943 19.4344C39.6657 19.5879 40.5887 20.5535 40.6888 21.7303C40.8302 23.391 40.8301 25.1162 40.6886 26.8582C40.5823 28.1675 39.4834 29.1952 38.1869 29.1978C38.1798 29.1978 38.1726 29.1978 38.1654 29.1978C37.6792 29.1978 37.2108 29.1641 36.7729 29.0974C36.4583 29.0496 36.23 28.7631 36.2532 28.4451L36.8829 19.8265C36.9035 19.5451 37.1387 19.3292 37.4158 19.3292V19.3292Z" fill="#1F1E1C"/>
<path fill-rule="evenodd" clip-rule="evenodd" d="M22.6767 15.2076C22.5979 15.2143 22.2324 15.242 21.8645 15.2691C21.0747 15.3271 19.7344 15.4542 19.1732 15.5242C16.5147 15.8559 13.9669 16.6808 12.2044 17.7805C11.4736 18.2365 11.2206 18.4219 10.94 18.7074C10.4923 19.1627 10.319 19.5608 10.1006 20.6351C9.47913 23.6918 9.46763 26.1211 10.0635 28.4573C10.1321 28.7258 10.2549 29.1148 10.3365 29.3218C10.4182 29.5288 10.5262 29.8182 10.5765 29.9651C10.6996 30.324 10.928 30.7449 11.322 31.3387C11.9804 32.3311 12.631 33.0627 13.5199 33.8105C15.3682 35.3655 17.967 36.4322 21.2275 36.9741C23.2804 37.3153 24.8135 37.3162 26.8343 36.9774C28.6553 36.672 30.283 36.1574 31.8654 35.3868C33.121 34.7753 34.0142 34.1869 34.8885 33.3957C35.3463 32.9814 35.7315 32.5248 36.5622 31.412C36.7378 31.1767 37.1563 30.399 37.2507 30.1327C37.2981 29.9988 37.4012 29.7389 37.4797 29.5552C37.9857 28.371 38.207 27.1405 38.2419 25.3178C38.2738 23.6463 38.1105 21.9993 37.7539 20.3962C37.4878 19.2002 37.3492 18.9751 36.4726 18.3166C35.2451 17.3944 33.7226 16.6695 31.9791 16.1771C29.8767 15.5833 26.9578 15.2231 24.094 15.2038C23.3933 15.1991 22.7555 15.2008 22.6767 15.2076Z" fill="#1F1E1C"/>
<path d="M26.3501 16.4344C25.5576 16.3773 24.7818 16.3302 24.6262 16.33C23.4793 16.3284 23.9633 16.3293 23.2369 16.3298C22.6092 16.3305 20.1055 16.545 19.0294 16.6905C16.6513 17.012 14.2874 17.7817 12.7989 18.7192C11.3975 19.6018 11.4003 19.5981 11.1189 20.9777C10.7739 22.6681 10.6158 24.4647 10.6988 25.7507C10.7764 26.9535 11.063 28.3985 11.3542 29.0542C11.4602 29.2929 11.577 29.6078 11.6138 29.754C11.6505 29.9001 11.9422 30.407 12.2619 30.8804C13.9748 33.4166 16.6057 34.9813 20.4839 35.7704C22.6844 36.2182 24.1276 36.2896 26.0103 36.0438C29.8819 35.5385 33.4906 33.7924 35.0587 31.6657C35.3604 31.2566 35.6342 30.8989 35.6674 30.8708C35.7653 30.7874 36.2927 29.8895 36.2927 29.7909C36.2927 29.741 36.373 29.4444 36.4851 29.2056C37.2987 27.4725 37.4242 24.2121 36.799 21.0556C36.6844 20.477 36.5449 19.9187 36.4891 19.815C36.3238 19.5076 35.1617 18.6932 34.223 18.2268C32.2389 17.2413 29.7812 16.6817 26.3501 16.4344Z" fill="white"/>
<path d="M12.7456 25.8718C12.5767 24.8951 12.6429 21.1347 12.6429 21.1347C12.6429 21.1347 12.6002 19.5 12.8865 18.5385C12.9008 18.5294 12.9536 18.5008 12.9682 18.4915C14.4541 17.5453 16.79 16.868 19.1642 16.5435C20.2385 16.3966 22.738 16.1801 23.3647 16.1795C23.6 16.1793 23.7081 16.1791 23.7859 16.1789C23.9477 16.1786 23.9783 16.1785 24.7517 16.1797C24.907 16.1799 25.6815 16.2273 26.4726 16.285C29.8981 16.5346 32.3517 17.0994 34.3325 18.094C34.5621 18.2093 34.805 18.4226 35.0434 18.5673C35.349 19.822 35.5415 21.2045 35.5415 23.4248C35.5413 25.1978 35.3921 25.8419 35.1935 26.6525C34.2433 30.5318 31.8094 32.8151 27.2919 34.0656C25.7014 34.5059 23.5401 34.578 21.8111 34.2488C18.8597 33.6866 16.4249 32.4774 15.0119 30.872C13.8081 29.5043 13.1056 27.9544 12.7456 25.8718Z" fill="#1F1E1C"/>
<rect x="31.2213" y="27.6299" width="5.08846" height="6.54014" rx="2.54423" transform="rotate(180 31.2213 27.6299)" fill="white"/>
<rect x="21.7877" y="27.6299" width="5.08846" height="6.54014" rx="2.54423" transform="rotate(180 21.7877 27.6299)" fill="white"/>
<path d="M13.6917 19.0122C16.765 17.0181 26.6616 14.721 34.3297 19.0122C28.2082 17.2623 22.9459 16.7934 13.6917 19.0122Z" fill="#767676" fill-opacity="0.76"/>
<path d="M34.2423 28.9883C28.4706 38.0884 15.6155 34.0636 13.6917 28.9882C18.1426 31.6615 21.3525 32.7574 24.5354 32.4047C27.5141 32.4128 30.3287 31.2943 34.2423 28.9883Z" fill="#262626"/>
<path d="M37.1941 25.3331C37.1843 26.0265 37.1266 27.0543 36.89 28.2956C36.8632 28.4362 36.8133 28.698 36.7556 28.9334C36.2844 30.8571 34.9828 32.2903 34.4994 32.7818C34.2007 33.0855 33.2568 34.0033 31.3096 34.9221C29.9374 35.5696 27.4801 36.4945 24.0671 36.5592C20.9246 36.5593 18.6045 35.7493 17.2914 35.1701C16.194 34.6862 14.9428 34.12 13.6914 32.8668C13.2715 32.4463 11.837 30.9324 11.1594 28.5365C10.5987 26.5542 10.708 24.7523 10.7146 24.752C10.7188 24.7517 10.7772 25.4805 10.9224 26.4564C10.9554 26.6781 11.2273 28.4374 11.9374 29.8689C12.9686 31.9479 14.781 33.0469 15.8981 33.7244C19.0966 35.664 22.3606 35.8398 24.0883 35.7938C27.3792 35.6987 29.7754 34.8523 31.1611 34.2346C33.023 33.4047 33.9321 32.5994 34.2872 32.2644C34.8222 31.7598 35.9551 30.6674 36.5646 28.9334C37.1369 27.3054 37.1741 25.3217 37.193 25.3241C37.194 25.3243 37.1941 25.3291 37.1941 25.3331Z" fill="#B1B0B0"/>
</svg>
