<?xml version="1.0" encoding="utf-8"?>
<!-- Generator: Adobe Illustrator 22.0.0, SVG Export Plug-In . SVG Version: 6.00 Build 0)  -->
<svg version="1.1" id="图层_1" xmlns="http://www.w3.org/2000/svg" xmlns:xlink="http://www.w3.org/1999/xlink" x="0px" y="0px"
	 viewBox="0 0 1000 1400" style="enable-background:new 0 0 1000 1400;" xml:space="preserve">
<style type="text/css">
	.st0{fill:#20A3FF;}
	.st1{fill:#E6CB8D;stroke:#7F1351;stroke-width:8;stroke-miterlimit:10;}
	.st2{fill:#CFB989;}
	.st3{fill:#CFB989;stroke:#7F1351;stroke-width:8;stroke-miterlimit:10;}
	.st4{fill:#A7E285;}
	.st5{fill:#69B043;}
	.st6{fill:#EBFEE1;stroke:#7F1351;stroke-width:8;stroke-miterlimit:10;}
	.st7{fill:#FFFFFF;}
	.st8{fill:#C8F0B1;}
	.st9{fill:#8DCD6A;stroke:#7F1351;stroke-width:8;stroke-miterlimit:10;}
	.st10{fill:#FBC66F;stroke:#7F1351;stroke-width:3;stroke-miterlimit:10;}
	.st11{fill:#70B648;}
	.st12{fill:#FEFFFF;stroke:#7F1351;stroke-width:5;stroke-miterlimit:10;}
	.st13{fill:#A6E183;stroke:#7F1351;stroke-width:8;stroke-miterlimit:10;}
	.st14{fill:#7F1351;}
	.st15{fill:#CFB989;stroke:#7F1351;stroke-width:5;stroke-miterlimit:10;}
	.st16{fill:#67AE41;}
	.st17{fill:#AAE588;stroke:#7F1351;stroke-width:8;stroke-miterlimit:10;}
	.st18{fill:#ABE589;}
	.st19{fill:#85C85B;}
	.st20{fill:#CEEFBA;}
	.st21{fill:#72B749;}
	.st22{fill:#7E1350;}
	.st23{fill:#78BD50;}
	.st24{fill:#FBC66F;stroke:#7F1351;stroke-width:4;stroke-miterlimit:10;}
	.st25{fill:#54A522;}
	.st26{fill:#FFEDA5;stroke:#7F1351;stroke-width:8;stroke-miterlimit:10;}
	.st27{fill:#58ADD1;}
	.st28{opacity:0.42;fill:#FFFFFF;enable-background:new    ;}
	.st29{fill:#E6CB8D;stroke:#7F1351;stroke-width:5;stroke-miterlimit:10;}
	.st30{opacity:0.5;fill:#AFA57B;enable-background:new    ;}
</style>
<g>
	<ellipse class="st0" cx="508.9" cy="1124.4" rx="352.4" ry="88.3"/>
	<g>
		<polygon class="st1" points="128.7,714.8 185.1,707.3 233.7,664.4 320.8,730.2 246.2,838.3 		"/>
		<polygon class="st2" points="219.5,684 254,744.5 245,832 315.5,732 234.5,670 		"/>
		<path class="st3" d="M865.4,686.6c0,0-4,16.3-13,29.7l39.3-21.7v-3.3l-26-8.3L865.4,686.6z"/>
	</g>
	<g>
		<path class="st4" d="M255.3,887.1c0,0-12.2,255.9,299.7,210.9c0,0,323-106.3,212.8-478.5C767.9,619.5,302,688.1,255.3,887.1z"/>
		<path class="st5" d="M497.9,930.5c0,0,45.8-7.5,50.5-86.5c0,0-4.7-28.9-27.6-33c0,0,4.6-23.8-15-33.9c0,0,70.5,3.4,118.1-22.6
			c0,0,65.3-32.7,63-61.9v-6.3c0,0-53.9,39-84.4,51.6c0,0-66.1,28.6-129,36.4L497.9,930.5z"/>
		<path class="st6" d="M332.4,749.6c0,0-17.1-5.1-32.3,18.3c0,0,63.1,89.6,200.3,45.1c0,0,11.2-25.2-27.4-39.6
			C473.1,773.4,409.7,780,332.4,749.6z"/>
		<path class="st7" d="M337,771.3c0,0,7,0.4,11.8,4.1l10.3,6c0,0,4.5,7.4-5.8,9.4l-19.1-8.4C334.1,782.4,328.5,775.4,337,771.3z"/>
		<path class="st8" d="M440.3,777.8c0,0,34.7,14.3-11.9,44.1c0,0,36.9-0.6,69.1-11.9c0,0,6.6-21.5-25.1-32.1L440.3,777.8
			L440.3,777.8z"/>
		<path class="st6" d="M296,772.3c0,0-35.6,13.5-33,53.8c0,0,126.8,92.2,261.8,28.6c0,0,3.4-28.3-25.2-38.7c0,0-41.8,16.6-106.6,7.7
			C393.1,823.7,346.9,821.2,296,772.3z"/>
		<path class="st7" d="M310.9,809c0,0,7,0.4,11.8,4.1l10.3,6c0,0,4.5,7.4-5.8,9.4l-19.1-8.4C308,820.1,302.4,813.1,310.9,809z"/>
		<path class="st8" d="M450.3,829.8c0,0,31.6,20.6-2.1,42.5c0,0,43.3-4.8,72.6-20.1c0,0,2.3-21.9-20.8-31.8L450.3,829.8z"/>
		<path class="st6" d="M525,861.3c0,0,1,59-43.8,77.7c0,0-98.5,40.3-220.1-49.7c0,0-19.7-21.8,2-63.2c0,0,66.5,44.7,125.9,48.5
			C448.3,878.3,471.6,879,525,861.3z"/>
		<path class="st8" d="M414.7,880.2c0,0,19.3,53.8-91.3,41.5c0,0,85,42.8,161.2,11.5c0,0,30.5-11.8,36.3-65.8
			C520.8,867.3,475.7,884.2,414.7,880.2z"/>
	</g>
	<g>
		<path class="st9" d="M239.2,495c0,0,33.8-36.3,62.1-10.9c28.4,25.4,71.9,238.3,71.9,238.3s-21.6,37.1-64.8,38.6
			c0,0-78-56-89.3-133.5C219,627.5,202,542.7,239.2,495z"/>
		<path class="st10" d="M223,534.6c0,0,19.8-0.4,24.6,16.8c0,0,0.9,4.4-5.5,5.9c0,0-16.5,1.8-22.9-1.6
			C219.3,554.8,221.4,539.9,223,534.6z"/>
		<path class="st10" d="M218.4,594.5c0,0,11.8,0,16.9,1.6c5,1.8,6.6,2.1,9.7,6.8c0,0,0.6,4.2-2.3,6.4c0,0-9.9,7.2-22.6,5.8
			L218.4,594.5z"/>
		<path class="st11" d="M264.7,504.3c0,0-20.7,82.8,19.7,160.9c0,0-10.5,30.8,0,69.8c0,0,15.3,15.2,25.2,21.8
			c5.3,0,38.5-2.1,58.5-35.1c0,0-31-165.3-66.3-232.1C301.7,489.5,272.6,473.7,264.7,504.3z"/>
		<path class="st12" d="M274.9,479.8c-0.3-2.6,4.3-33.8,25.5-38.3c0,0,12.3-4,11.1,25.1c-0.8,27.3-20.6,22.7-20.6,22.7
			S276.2,487.8,274.9,479.8z"/>
		<path class="st12" d="M238.1,493.3c-0.4-3.2,5.2-40.4,30.5-45.9c0,0,14.7-4.7,13.3,30c-1,32.7-24.7,27.2-24.7,27.2
			S239.6,502.8,238.1,493.3z"/>
	</g>
	<g>
		<path class="st13" d="M308.7,663.2c0,0-19.3,9.4,0,61.4c0,0,36,55.3,178,42c0,0,98.7-8,190.7-77c0,0,83.4-59.9,90.5-70.1
			c7.1-10.2,6.6-47.3,18.9-99.8C786.7,519.7,511.4,779.8,308.7,663.2z"/>
		<path class="st5" d="M308.7,666.2c0,0,26.6,24.8,29,25.4c0,0,6.2,26,6.1,30.3s140.6,73,313.6-21.4c0,0-68.7,47.7-157.4,62
			c0,0-135.3,22.3-189.3-40C310.7,722.7,294.1,680.6,308.7,666.2z"/>
		<g>
			<path class="st14" d="M679.2,716.2c-17.2,4.7-33.5,9.5-51.5,10c-2.4,0.1-3.6-1.5-3.7-3.5c-0.2,0,0,0,0,0c-0.1-2,1.1-3.8,3.5-3.9
				c17.5-0.5,33.3-5.2,50-9.7c2.2-0.6,3.9,0.8,4.3,2.8c0.2-0.1,0,0,0,0C682.2,713.6,681.5,715.6,679.2,716.2z"/>
		</g>
		<g>
			<path class="st14" d="M570.4,768.1c-30.5,9.3-54,10.6-85.4,6.2c-4.2-0.6-3.8-1.9-3.5-4.1c-0.5-0.1-0.4-0.1,0,0
				c0.4-2.2,0.7-3.7,4.7-3.2c30,3.9,52.7,2.8,81.8-5.9c3.9-1.2,4.6,0.2,5.2,2.4c0.5-0.1,0.4-0.1,0,0
				C573.8,765.8,574.4,766.8,570.4,768.1z"/>
		</g>
	</g>
	<g>
		<path class="st15" d="M352.7,340.8l49.4-40.4l13.7,7.7l-25.7,31.7l-31.1,9.9C359,349.6,320.3,373.1,352.7,340.8z"/>
		<path class="st16" d="M516.3,679.6l31.8-34.8c0,0,20.8-10,37.3-10c0,0,35,2.3,50.8-18.8c0,0,6.8-13.5,14.8-16c0,0,10.3-0.5,17.5,5
			l15.8-7.3c0,0,8.9-4.3,13.7,8c0,0,10.3,15.3-26.5,28.3c0,0-34.3,29.1-55.3,32.1c0,0-8.5,2.2-32.5,0.4c0,0-22.8,11.2-25,11.7
			s-10.5-0.5-10.5-0.5l-42.3,14.8L516.3,679.6z"/>
		<path class="st12" d="M636,628.8c0,0,3.6,25,17.3,25s13-35.5,13-35.5S643.3,608.9,636,628.8z"/>
		<path class="st17" d="M796.3,532.8c0,0,30-83.3,4-158.7c0,0,12.4-143.3-177.6-164S412,300.4,412,300.4s-14,2.5-19,27.8
			c0,0-4,42.9,9.5,58.1c0,0-21.5,24.2-43.5,38.2s-95,54-79,177c0,0,5.5,82.5,95.5,100s120.5-5,185-47.5c0,0,17-8,69.5-7
			c0,0,14.3-4.2,25-39.5c0,0,15.8,5,42.4-3.1"/>
		<g>
			<path class="st18" d="M424.5,344.7c0,0-0.1-0.3-0.4-0.8c-3.4-6.5-29.1-51-58.9,20.8c0,0-10.6,30.7-2.7,57c0,0,20.3-12,37.8-31.1
				C411.9,378,422.2,362.2,424.5,344.7z"/>
			<path class="st19" d="M362.3,390.8c0,0-0.8,19.6,1.9,27c0,0,21.6-13.7,30.5-24.6c0,0-0.6-7.4-16.2-11.7
				C378.4,381.5,367.4,383.3,362.3,390.8z"/>
		</g>
		<g>
			<g>
				<path class="st14" d="M733.1,428.6C732.8,428.7,733.1,428.6,733.1,428.6c-1.1-1.2-1.7-2.9,0.5-4.2c6.9-3.9,8.9-7.8,8.4-15.5
					c-0.2-2.4,1.5-3,3.1-2.8c0-0.3,0,0,0,0c1.6,0.2,2.6,0.4,2.7,3.2c0.1,8.9-2.6,14.8-10.3,19.6C735,430.5,734.2,429.8,733.1,428.6z
					"/>
			</g>
			<g>
				<path class="st19" d="M772.2,441.3c-8.7-9.3-15.2-7.9-21.5,3c-1.2,2.1-2.9,1.4-4,0.4c-0.1,0.3,0,0,0,0c-1.1-1-2-1.6-0.4-4
					c8.5-12.6,18.3-14.6,29.5-3.7c2.2,2.1,1.3,2.7,0.4,3.9c0.2,0.3,0,0,0,0C775.4,442.1,773.9,443.1,772.2,441.3z"/>
			</g>
			<g>
				<path class="st14" d="M769,437.3c-8.7-9.3-15.2-7.9-21.5,3c-1.2,2.1-2.9,1.4-4,0.4c-0.1,0.3,0,0,0,0c-1.1-1-2-1.6-0.4-4
					c8.5-12.6,18.3-14.6,29.5-3.7c2.2,2.1,1.3,2.7,0.4,3.9c0.2,0.3,0,0,0,0C772.1,438.1,770.6,439.1,769,437.3z"/>
			</g>
			<g>
				<path class="st19" d="M757.8,398C757.8,397.7,757.8,398,757.8,398c1.4-0.7,3.3-0.8,3.8,1.7c1.7,7.7,4.9,10.8,12.4,12.5
					c2.4,0.6,2.5,2.3,1.8,3.7c0.3,0,0,0,0,0c-0.7,1.5-1.2,2.4-3.9,1.6c-8.6-2.5-13.4-6.8-15.8-15.6
					C755.5,399.3,756.4,398.7,757.8,398z"/>
			</g>
			<g>
				<path class="st14" d="M754.8,402.6C754.8,402.2,754.8,402.6,754.8,402.6c1.4-0.7,3.3-0.8,3.8,1.7c1.7,7.7,4.9,10.8,12.4,12.5
					c2.4,0.6,2.5,2.3,1.8,3.7c0.3,0,0,0,0,0c-0.7,1.5-1.2,2.4-3.9,1.6c-8.6-2.5-13.4-6.8-15.8-15.6
					C752.5,403.8,753.3,403.3,754.8,402.6z"/>
			</g>
		</g>
		<g>
			<g>
				<path class="st14" d="M718.8,397.1c-56.6-30.2-132.1,5.7-133.2,71.6c0,2.8,1.9,3.5,3.9,3.6c0,0.3,0,0,0,0c2,0.1,4.1-0.8,4.2-3.3
					c1.9-58.9,69.6-94.2,121.4-64.8c2.2,1.3,4.1-0.3,4.9-2c0.2,0.1,0,0,0,0C720.8,400.5,721.3,398.4,718.8,397.1z"/>
			</g>
			<path class="st19" d="M691.7,497.5l-55.7-11c-6-1.2-9.9-7-8.7-13l0,0c1.2-6,7-9.9,13-8.7l55.7,11c6,1.2,9.9,7,8.7,13l0,0
				C703.5,494.7,697.6,498.6,691.7,497.5z"/>
			<path class="st19" d="M672.1,462.4l-24.9,21.1c-4.6,3.9-11.7,3.4-15.6-1.3l0,0c-3.9-4.6-3.4-11.7,1.3-15.6l24.9-21.1
				c4.6-3.9,11.7-3.4,15.6,1.3l0,0C677.3,451.4,676.8,458.5,672.1,462.4z"/>
			<g>
				<path class="st14" d="M709.7,433c-34.6,10.6-56.5,21.7-81.9,47.8c-2.4,2.4-4.7,1.7-6.4,0c-0.3,0.3,0,0,0,0
					c-1.7-1.7-2.6-3.6,0-6.2c27-27.6,49.2-38.7,85.7-50.2c3.4-1.1,4.8,0.6,5.5,2.9c0.4-0.1,0,0,0,0C713.4,429.6,713,432,709.7,433z"
					/>
			</g>
			<g>
				<path class="st14" d="M707.8,467.8c-28.4-1.4-55.7,3.9-81.8,15.3c-2.4,1.1-4.6,0.2-5.6-2.4c-0.3,0.1-0.2,0.1,0,0
					c-1-2.5-0.4-4.6,2.2-5.8c27.4-11.9,56-17.3,85.8-16c2.8,0.1,4.1,1.9,3.9,4.6c0.3,0,0.2,0,0,0C712.2,466.3,710.5,468,707.8,467.8
					z"/>
			</g>
			<g>
				<path class="st14" d="M684.9,503.2c-20.1-10.3-41.2-11.1-62.3-20.1c-2-0.8-2.9-3.1-2-5.4c-0.2-0.1-0.1-0.1,0,0
					c0.9-2.3,3.2-3.8,5.2-2.9c21.5,9.5,42.5,9.9,63.3,20.7c1.9,1,2.4,3.5,1.2,5.7c0.2,0.1,0.1,0.1,0,0
					C689.3,503.4,686.8,504.1,684.9,503.2z"/>
			</g>
			<path class="st20" d="M687,405.2c0,0-38.3-0.5-46.8,6s-30.8,25.3-31,46.8c0,0,7.8,6.6,12.3-1.7
				C621.5,456.2,639.3,419.7,687,405.2z"/>
		</g>
		<path class="st20" d="M424.4,460.4c0,0-50.5,2.5-77.3,63c0,0-11.8,36.8,19,46.5c0,0,15,3.8,24-15.5c0,0,36.8-64,48-73.5
			C438.1,480.9,445.1,462.9,424.4,460.4z"/>
		<g>
			<g>
				
					<ellipse transform="matrix(0.9871 -0.1602 0.1602 0.9871 -98.1221 63.3125)" class="st21" cx="343.6" cy="640.2" rx="13.8" ry="22.4"/>
				<g>
					<path class="st22" d="M333.9,651.5C333.6,651.2,333.9,651.5,333.9,651.5c0.8-1.3,2.3-2.3,4-0.4c24.1,27,22.3-44.3,1-27.6
						c-1.5,1.2-3.1,0.7-3.7-0.7c-0.2,0.2,0,0,0,0c-0.7-1.4-1.5-2.3,0.7-4c31.2-23.4,34.8,69.7-1.4,36.9
						C331.9,653.4,333.2,652.9,333.9,651.5z"/>
				</g>
				<path class="st22" d="M333.3,623.3c0,0-3.1,1.7-3.7,13.8c0,0,3.5,0.9,3.4-6.8C332.9,630.3,332.5,628,333.3,623.3z"/>
			</g>
			<g>
				
					<ellipse transform="matrix(0.5979 -0.8016 0.8016 0.5979 -355.3402 616.4063)" class="st21" cx="436.7" cy="662.4" rx="22.4" ry="13.8"/>
				<g>
					<path class="st22" d="M440,677C440.4,676.8,440,677,440,677c0-1.5-1-3.1-3.3-2.2c-33.9,12.8,0.7-49.6,11.9-24.9
						c0.8,1.7,2.4,2,3.6,1.1c0.1,0.3,0,0,0,0c1.2-0.9,2.4-1.4,1.2-3.8c-16.9-35.2-63,45.7-15.8,33.4C440.9,679.6,440,678.5,440,677z
						"/>
				</g>
				<path class="st22" d="M453.6,652.3c0,0,1.9,2.9-3.1,13.9c0,0-3.5-0.8,0.2-7.6C450.7,658.6,452.2,656.8,453.6,652.3z"/>
				<path class="st22" d="M433.1,647.8c0,0,7.6,2.5,6.9,12.3c0,0-0.7,11.1-18.2,8.3C421.8,668.4,423.1,656.8,433.1,647.8z"/>
			</g>
			<path class="st22" d="M351.5,625.2c0,0-8.6,2.2-8.6,13.1c0,0-0.3,15.3,11.1,13C354,651.3,359.2,636.8,351.5,625.2z"/>
		</g>
		<path class="st12" d="M555,661.4c0,0,4.3,25,20.7,25s16.7-38.5,16.7-38.5S563.7,641.5,555,661.4z"/>
		<g>
			<path class="st14" d="M681.2,624.3c-14.7,1.8-25.7-7.6-34.2-18.9c-1.3-1.8-0.8-3.2,0.5-4.4c-0.1-0.1,0,0,0,0
				c1.3-1.1,3.3-1.3,4.5,0.3c7.5,9.9,15.7,18.8,28.8,16.5c2-0.4,3.2,1.4,3.3,3.1c0.2-0.1,0,0,0,0C684.1,622.5,683.5,624,681.2,624.3
				z"/>
		</g>
		<path class="st15" d="M406.8,568.4"/>
		<path class="st23" d="M290.2,511.6c0,0-12.1,68.1,19.1,148.6c0,0-23.2-22.2-26.3-65.4C283,594.7,276.9,553.4,290.2,511.6z"/>
		<g>
			<g>
				<path class="st14" d="M400.3,387.9C400.3,388.1,400.3,387.9,400.3,387.9c-2.3,0.2-4.2-1.4-4.4-3.8c-0.6-7.7-1.7-15.3-5.3-22.2
					c-1.1-2.2,0-4.3,2-5.3c-0.1-0.2,0,0,0,0c2-0.9,4.1-0.5,5.4,1.9c4,7.6,5.6,16.5,6,25C404.2,386.2,402.6,387.7,400.3,387.9z"/>
			</g>
			<g>
				<path class="st14" d="M398.9,388.5C399.1,388.6,398.9,388.5,398.9,388.5c-1.4,1.8-3.9,2.1-5.8,0.5c-5.9-4.9-12.1-9.5-19.6-11.8
					c-2.4-0.7-3.1-3-2.4-5.1c-0.2,0,0,0,0,0c0.8-2.1,2.5-3.3,5.1-2.5c8.2,2.4,15.7,7.5,22.1,13.2
					C400.4,384.5,400.3,386.7,398.9,388.5z"/>
			</g>
			<g>
				<path class="st14" d="M403,389.3C403.2,389.3,403,389.3,403,389.3c0,2.3-1.8,4.1-4.2,4c-7.7-0.1-15.4,0.3-22.6,3.2
					c-2.3,0.9-4.3-0.4-5-2.5c-0.2,0.1,0,0,0,0c-0.7-2.1-0.1-4.1,2.4-5.2c7.9-3.3,16.9-4,25.4-3.7C401.7,385.3,403,387,403,389.3z"/>
			</g>
		</g>
		<path class="st14" d="M423.3,346.3c0,0,1.1,2.6,4.3,1.6c0,0,3-1.5,2.4-4c0,0-6.4-19.5-23-21.6c0,0-28.9-4.7-42.8,35.2
			c0,0-15.3,38.7-6.4,65c0,0,3.1,5.2,7.4,4.2c0,0,28.7-20.9,39.3-36.4c0,0,1.4-2.1,4.2-3.4c0,0,1.9-6.7-3.2-7.7
			c0,0-9.2,3.4-15.9,19.5c0,0-16.6,14.7-22.8,17.8c0,0-3.4,2.4-4-5.8c0,0-1.1-25.1,8.9-51.2c0,0,9.8-29.1,33.2-30.1
			C404.8,329.4,417,328.8,423.3,346.3z"/>
		<g>
			
				<ellipse transform="matrix(0.9007 -0.4344 0.4344 0.9007 -162.7989 351.2546)" class="st24" cx="687" cy="531.8" rx="8.4" ry="13.5"/>
			
				<ellipse transform="matrix(0.8394 -0.5435 0.5435 0.8394 -166.2365 470.5084)" class="st24" cx="713.1" cy="516.6" rx="7.9" ry="12.7"/>
			<ellipse transform="matrix(0.5 -0.866 0.866 0.5 -62.674 883.2214)" class="st24" cx="733.6" cy="495.9" rx="7.9" ry="12.7"/>
		</g>
	</g>
	<g>
		<path class="st13" d="M703.2,781.1c0,0-37.3-87.7,36-213.2s120-10.8,120-10.8s61.3,92-45.3,224"/>
		<path class="st12" d="M807.2,546.2c-0.9-3.3-0.7-43.5,25.2-53.2c0,0,14.9-7.3,18.7,29.7c4,34.7-21.9,32.5-21.9,32.5
			S810.3,556.1,807.2,546.2z"/>
		<path class="st12" d="M781.5,549c-0.9-3.3-0.7-43.5,25.2-53.2c0,0,14.9-7.3,18.7,29.7c4,34.7-21.9,32.5-21.9,32.5
			S784.6,558.8,781.5,549z"/>
		<path class="st12" d="M745.6,557.1c-0.8-3.2-0.7-42,24.3-51.3c0,0,14.3-7,18,28.7c3.8,33.5-21.2,31.3-21.2,31.3
			S748.6,566.6,745.6,557.1z"/>
		<path class="st20" d="M739.3,576.4c0,0-6.1,28.7-23.1,83.7c0,0-15.6,66.7-17.9,73.3c0,0-3.1-46.2,11.6-89.8
			C709.9,643.6,725.8,595.6,739.3,576.4z"/>
		
			<ellipse transform="matrix(0.9733 -0.2296 0.2296 0.9733 -122.2907 203.5831)" class="st10" cx="813.7" cy="627.3" rx="53.5" ry="13.3"/>
		
			<ellipse transform="matrix(0.9733 -0.2296 0.2296 0.9733 -133.5285 203.7966)" class="st10" cx="809" cy="675.7" rx="48.7" ry="13.3"/>
		<path class="st25" d="M773.7,719.9c0,0-5.7,5.2-5.5,13.5c0,0,0.3,7.7,5.5,5c0,0,13-8.2,15.5-15.5c0,0,3-3.8-0.8-7.7
			c0,0-5.5-2-6.5-2C781.9,713.2,776.6,716.2,773.7,719.9z"/>
		<path class="st25" d="M777.2,745.4c0,0-0.3-2.5,6-6.4c0,0,5.8-4.4,9.2-1.9c0,0,2.3,1.8-4.7,8.3
			C787.7,745.4,779.4,750.7,777.2,745.4z"/>
		<path class="st25" d="M793.7,726.9v3.5c0,0,1.2,2.5,4.8,1.7c0,0,4.2-1,0-4.2C798.6,727.9,796.2,723.9,793.7,726.9z"/>
		<g>
			<path class="st14" d="M675.8,792.2c1.7-13,7.5-23,15.9-33c1.1-1.3,3.3-1.7,5-0.4c0.1-0.1,0,0,0,0c1.7,1.3,1.7,3.9,0.7,5.1
				c-7.7,9.3-12.7,18-14.4,29.9c-0.2,1.6-2.3,2.8-4.2,2.3c0,0.1,0,0.1,0,0C676.8,795.6,675.5,793.9,675.8,792.2z"/>
		</g>
	</g>
	<g>
		<path class="st26" d="M124.9,721.8l120.8,119.6l79.3,24.3l62.7,77.3l70-18.3l19.3-23.4l110-39.6l88,34.6L745.7,795
			c0,0,111.3-82,146.7-96.7c0,0,35.3,322.7-214.1,448.2c0,0-216.6,120-399.5-55.2C278.7,1091.4,136.6,982,124.9,721.8z"/>
		<g>
			<polygon class="st1" points="130.1,726.1 128.3,719.4 239.6,769.1 270.1,811.1 259.1,836.9 253.1,841.6 244,838.4 141.2,737.5 
							"/>
			<polygon class="st1" points="269.6,808.3 255.1,842.8 323.1,863.8 322.1,842.1 			"/>
			<polygon class="st3" points="322,841.8 329,845.4 395.3,934.8 382.3,936.5 324.5,863.3 			"/>
			<polygon class="st1" points="478,899.3 581,835.1 582.3,862.8 478,902.5 			"/>
			<polygon class="st3" points="685.6,877.6 674.8,896.4 583.3,860.8 579.2,836.3 584.3,832.1 			"/>
		</g>
		<g>
			<path class="st27" d="M129.5,732l73.7,72.9c0,0-24.8,33.7-64.3,7.8C138.8,812.8,131,769.5,129.5,732z"/>
			<path class="st27" d="M198.1,982.8c0,0,30.3-59.3,89.3-56.7c0,0,64.8-4.7,102.5,106.6c0,0,18.6,62,3.4,128.4
				C393.2,1161.1,265.6,1113.1,198.1,982.8z"/>
			<path class="st27" d="M439.6,933.6l20.4-5.3l17.6-21.3l108.4-41l34.1,13.4c0,0-5.4,88.5-56,131.7
				C564.1,1011,486.1,1076.5,439.6,933.6z"/>
			<path class="st27" d="M856.6,937.9c0,0-72.7-29.9-108,50.8c0,0-21.7,44.8-7.8,112.8C740.8,1101.4,815.6,1045.8,856.6,937.9z"/>
			<path class="st27" d="M650.6,1154.8c0,0-25.5-32.8-59.3-21c0,0-26.6,6.6-31.2,45.2C560.2,1179.1,604.6,1173.6,650.6,1154.8z"/>
			<path class="st28" d="M130,733.2l47.1,46.1c0,0,12.8,152.9,92.9,299.2C269.9,1078.5,147.3,981,130,733.2z"/>
		</g>
		<g>
			<g>
				<path class="st14" d="M383,989.8C382.9,990.1,383,989.8,383,989.8c-3-0.4-5.2-2.4-4.7-6.2c1.7-13.9,5.9-30,8.2-43.8
					c0.6-3.8,3.1-5.2,6.1-4.8c0.1-0.4,0,0,0,0c3.1,0.4,5.2,2.5,4.6,6.3c-2,13.8-6.2,29.8-8.1,43.7C388.5,988.7,386,990.1,383,989.8z
					"/>
			</g>
			<g>
				<path class="st14" d="M351.8,1015.6C351.5,1015.9,351.6,1015.8,351.8,1015.6c-2.4-2.2-2.3-5.3-0.4-7.6c6.8-8.4,14.9-13.2,23-20
					c2.3-1.9,5.2-1.8,7.4,0.4c0.2-0.2,0.1-0.1,0,0c2.2,2.2,2.1,5.5,0,7.5c-7.7,6.9-15.6,11.5-22.5,19.4
					C357.3,1017.5,354.1,1017.9,351.8,1015.6z"/>
			</g>
			<g>
				<path class="st14" d="M701,1042.4C700.7,1042.2,700.8,1042.3,701,1042.4c2-2.6,5.1-2.7,7.6-0.9c8.9,6.2,14.2,13.9,21.6,21.5
					c2.1,2.2,2.2,5.1,0.1,7.4c0.2,0.2,0.1,0.1,0,0c-2,2.4-5.3,2.5-7.5,0.5c-7.4-7.2-12.6-14.7-21-21.1
					C699.5,1048,698.8,1044.9,701,1042.4z"/>
			</g>
			<g>
				<path class="st14" d="M381.9,1063.5C381.9,1064,381.9,1063.9,381.9,1063.5c-3.4,0-5.2-1.4-5.3-5.8c-0.4-16,3.8-33.2,9.3-48.2
					c1.5-4.1,3.4-5.1,6.8-4.1c0.1-0.4,0.1-0.3,0,0c3.4,0.9,4.9,3.2,3.5,7.1c-4.9,14.3-8.9,30.1-8.9,45.2
					C387.3,1062,385.3,1063.6,381.9,1063.5z"/>
			</g>
			<g>
				<path class="st14" d="M387.4,1022.3C387.3,1022.6,387.3,1022.5,387.4,1022.3c-3.3-0.8-4.4-4.7-3.5-6.5c3-6.5,4.3-14.7-1.4-19.6
					c-1.6-1.3-2.2-4.7,0.5-6.9c-0.2-0.2-0.2-0.2,0,0c2.7-2.2,5.6-2.2,7.8,0.1c8,8.4,8.1,19.4,3.3,29.6
					C392.8,1021.9,390.5,1023.1,387.4,1022.3z"/>
			</g>
			<g>
				<path class="st14" d="M728.5,1096.3C728.3,1096.7,728.5,1096.3,728.5,1096.3c-2.7,0-4.8-1.2-4.9-5c-0.7-19.6,2.4-40.4,6.7-59.4
					c0.8-3.6,3-4.5,5.7-4c0.1-0.4,0,0,0,0c2.7,0.5,4.6,2.4,3.8,5.9c-4,18.5-7,38.4-6.5,57.4C733.3,1094.8,731.2,1096.3,728.5,1096.3
					z"/>
			</g>
		</g>
	</g>
	<g>
		<path class="st19" d="M414.7,302.4c0,0-8.5,6-10.8,9.8c0,0,41,19.9,46.2,24.4s31,15.5,41,9.2s22.8-9,22.8-9s72.3,49.5,85.5,54.5
			c0,0,1.3,2.5,34.5-13.8c0,0,20.8-10,26.7-11.5c0,0,19.2,18.7,33.7,22.8c0,0,56-16.8,61.5-19.8c0,0,33.4,12.5,48.1,113.5
			c0,0,10.6-69.6-6.8-109.6c0,0-35-58.7-111.7-60.7S414.7,302.4,414.7,302.4z"/>
		<g>
			<path class="st29" d="M527.1,331.4l16.3-4.3l82.5,51l-14.5,7c0,0-2.8,0.8-8.3-2.5S527.1,331.4,527.1,331.4z"/>
			<path class="st29" d="M674.8,357.4l8.8-2.7l24.2,19l-10.5,4.3c0,0-2.7,1-4.8-1C690.3,375.1,674.8,357.4,674.8,357.4z"/>
			<path class="st15" d="M806.6,381.9c0,0,28.5,20.7,30.8,26.8c0,0,0.7,2.6-8.5,0.5c-7.4-1.4-15.4-3.8-15.4-3.8L806.6,381.9z"/>
			<g>
				<path class="st26" d="M344.4,345.2c0,0,43.2-183.3,283-171.5c0,0,124,6.9,194.7,120.6c0,0,38,66.1,14.7,111.4l-64-53.1l-66,19.9
					l-23.3-19.9l-58,23.7l-82.7-52.5l-60,19.9l-76-46.7L344.4,345.2z"/>
				<path class="st27" d="M349.4,337.8c0,0,18.6-73.5,95.8-119.1c0,0,5.1,50.6-17,86.9l-21.5-11.8L349.4,337.8z"/>
				<path class="st27" d="M537.8,182.6c0,0,12.5,77.6,68.9,82.3c0,0,56.1,7.9,85.3-71.7C692,193.3,646.4,163.6,537.8,182.6z"/>
				<path class="st27" d="M577.6,341.2c0,0,21.3-22.9,51.8-20.5c0,0,29.3,0.9,49.3,29.5l-52.8,21.6L577.6,341.2z"/>
				<path class="st27" d="M829.9,320.9c0,0-23.6,18.1-33.9,45.7l39.6,32.8C835.6,399.3,849.2,367.5,829.9,320.9z"/>
				<path class="st28" d="M349.4,337.6c0,0,39.1-150.9,242.4-160.9C591.8,176.8,428.7,239.1,349.4,337.6z"/>
				<path class="st30" d="M730.5,210.8c0,0,60.4,32.7,92.7,93.9c13,27.5,23.4,63.9,12.4,94.6L796,366.6
					C796,366.6,820.2,328.3,730.5,210.8z"/>
			</g>
		</g>
	</g>
</g>
</svg>
