<svg width="600" height="600" viewBox="0 0 600 600" fill="none" xmlns="http://www.w3.org/2000/svg">
<circle cx="300" cy="300" r="300" fill="#092540"/>
<path d="M221.161 480.45C210.061 480.45 202.561 477.6 198.661 471.9C194.761 466.2 192.811 459.9 192.811 453V149.7C192.811 142.8 194.761 136.65 198.661 131.25C202.561 125.55 210.061 122.7 221.161 122.7H377.761C388.861 122.7 394.711 130.2 395.311 145.2C395.911 160.5 390.061 168.15 377.761 168.15H245.911V435H385.861C396.961 435 402.661 442.35 402.961 457.05C403.561 472.65 397.861 480.45 385.861 480.45H221.161ZM361.111 294.15C361.111 304.65 357.361 313.5 349.861 320.7C342.661 327.9 333.811 331.5 323.311 331.5C313.111 331.5 304.411 327.9 297.211 320.7C290.011 313.5 286.411 304.65 286.411 294.15C286.411 283.65 290.011 274.8 297.211 267.6C304.411 260.4 313.111 256.8 323.311 256.8C333.811 256.8 342.661 260.4 349.861 267.6C357.361 274.8 361.111 283.65 361.111 294.15Z" fill="#F9BE56"/>
</svg>
