<svg width="254" height="254" viewBox="0 0 254 254" fill="none" xmlns="http://www.w3.org/2000/svg">
<rect width="254" height="254" />
<circle cx="127" cy="127" r="127" fill="#343434"/>
<g clip-path="url(#clip0_1719_1952)">
<path d="M176 123.644V105.536H163.875V114.454H151.75H139.625H127.5H115.375H103.25H91.125V105.536H79V123.644H91.125H103.25H115.375V132.563V150.671H127.5H139.625V132.563V123.644H151.75H163.875H176Z" fill="#EDE6DA"/>
<path d="M139.625 101.009V82.9001L127.5 47L115.375 82.9001V101.009H127.5H139.625Z" fill="#EDE6DA"/>
<path d="M100.431 161.729L91.125 147.83V128.171H79V155.334L88.3059 169.232V181.388V188.891V207L100.431 188.891V161.729Z" fill="#EDE6DA"/>
<path d="M163.875 128.171V147.83L154.569 161.729V188.891L166.694 207V188.891V181.388V169.232L176 155.334V128.171H163.875Z" fill="#EDE6DA"/>
<path d="M127.5 161.729C120.801 161.729 115.375 167.523 115.375 174.665V207H139.625V174.665C139.625 167.523 134.199 161.729 127.5 161.729Z" fill="#EDE6DA"/>
<path d="M91.125 82.9L85.0625 65.1084L79 82.9V101.009H91.125V82.9Z" fill="#EDE6DA"/>
<path d="M176 82.7418L169.938 64.9502L163.875 82.7418V100.85H176V82.7418Z" fill="#EDE6DA"/>
</g>
<defs>
<clipPath id="clip0_1719_1952">
<rect width="97" height="160" fill="white" transform="translate(79 47)"/>
</clipPath>
</defs>
</svg>
