<?xml version="1.0" encoding="UTF-8"?>
<svg width="97px" height="97px" viewBox="0 0 97 97" version="1.1" xmlns="http://www.w3.org/2000/svg" xmlns:xlink="http://www.w3.org/1999/xlink">
    <!-- Generator: Sketch 54.1 (76490) - https://sketchapp.com -->
    <title>编组 2</title>
    <desc>Created with Sketch.</desc>
    <defs>
        <path d="M96.4775614,48.2390643 C96.4775614,74.8805965 74.8805965,96.4775614 48.2390643,96.4775614 C21.5975322,96.4775614 -1.05160325e-12,74.8805965 -1.05160325e-12,48.2390643 C-1.05160325e-12,21.5975322 21.5975322,-2.84217094e-14 48.2390643,-2.84217094e-14 C74.8805965,-2.84217094e-14 96.4775614,21.5975322 96.4775614,48.2390643" id="path-1"></path>
    </defs>
    <g id="页面3" stroke="none" stroke-width="1" fill="none" fill-rule="evenodd">
        <g id="画板复制-29" transform="translate(-476.000000, -453.000000)">
            <g id="编组-2" transform="translate(476.000000, 453.000000)">
                <mask id="mask-2" fill="white">
                    <use xlink:href="#path-1"></use>
                </mask>
                <use id="蒙版" fill="#FFFFFF" xlink:href="#path-1"></use>
                <polygon id="Fill-3" fill="#735CFF" mask="url(#mask-2)" points="17.676917 66.3934936 26.434145 66.3934936 26.434145 22.6056515 17.676917 22.6056515"></polygon>
                <polygon id="Fill-5" fill="#735CFF" mask="url(#mask-2)" points="40.8245772 22.6991912 40.8245772 40.2142146 28.9792322 40.2142146 28.9792322 48.9720099 40.8245772 48.9720099 40.8245772 66.4870333 49.5818053 66.4870333 49.5818053 22.6991912"></polygon>
                <path d="M59.2643906,74.0587058 C59.2643906,75.8353374 57.8235719,77.2761561 56.0469404,77.2761561 C54.2703088,77.2761561 52.8300573,75.8353374 52.8300573,74.0587058 C52.8300573,72.2820743 54.2703088,70.8418228 56.0469404,70.8418228 C57.8235719,70.8418228 59.2643906,72.2820743 59.2643906,74.0587058" id="Fill-6" fill="#735CFF" mask="url(#mask-2)"></path>
                <path d="M68.6415111,33.4126994 C59.9115111,33.4126994 52.8095228,40.515255 52.8095228,49.2446877 L52.8095228,70.4485474 C53.6689088,69.6770854 54.8017099,69.2039977 56.0468269,69.2039977 C57.2737918,69.2039977 58.3912772,69.6623368 59.2461251,70.4133778 L59.2461251,49.2446877 C59.2461251,44.0639801 63.4608035,39.8487345 68.6415111,39.8487345 C73.8222187,39.8487345 78.0374643,44.0639801 78.0374643,49.2446877 C78.0374643,54.4253953 73.8222187,58.6406409 68.6415111,58.6406409 C66.7582363,58.6406409 63.547593,58.0200678 61.7210433,55.7085181 L61.6637509,63.6279158 C63.7625813,64.6189041 66.2857158,65.076676 68.6415111,65.076676 C77.3715111,65.076676 84.4740667,57.9746877 84.4740667,49.2446877 C84.4740667,40.515255 77.3715111,33.4126994 68.6415111,33.4126994" id="Fill-7" fill="#735CFF" mask="url(#mask-2)"></path>
            </g>
        </g>
    </g>
</svg>