<svg width="560" height="112" viewBox="0 0 560 112" fill="none" xmlns="http://www.w3.org/2000/svg">
<path d="M77.4804 104.314C66.2963 105.048 58.1708 96.7814 58.0399 86.8775C58.0086 84.5574 58.4183 82.2971 59.2007 80.2104C60.5322 76.652 62.9591 73.6031 66.1683 71.6246C69.0305 69.8596 72.5186 68.9486 76.4135 69.2931C74.3992 68.8831 72.2227 68.6668 69.8954 68.6355C55.6927 68.4362 43.7233 79.9599 43.9083 91.5975C43.9822 96.2405 45.8088 100.266 48.8986 103.4V103.403C53.3426 107.907 60.4013 110.574 68.6436 110.577C69.5768 110.363 70.4986 110.127 71.4118 109.865C78.7863 107.767 85.5434 104.194 91.3389 99.4887L92.8497 98.1593C92.255 98.6375 85.7284 103.77 77.4804 104.314Z" fill="url(#paint0_radial)"/>
<path d="M80.5704 51.3673C72.863 45.0561 68.0719 46.1919 62.7857 44.6888C55.7014 44.8824 46.4377 47.0972 36.7104 54.7749C36.9266 54.6696 41.1885 52.6057 48.0452 53.491C48.8589 53.5992 49.7125 53.7444 50.5973 53.9408C38.2353 59.5973 29.3046 72.348 29.3046 84.8623C29.3046 90.5729 31.0657 95.9163 34.1327 100.483C37.0717 104.867 41.2113 108.536 46.1475 111.127C49.3597 111.702 52.6685 112.001 56.0485 112.001C56.4667 112.001 56.8821 111.995 57.2946 111.986H57.2975C61.1896 111.901 64.985 111.42 68.6437 110.577C60.4015 110.574 53.3428 107.907 48.8988 103.403V103.4C45.809 100.266 43.9824 96.2409 43.9085 91.5978C43.7235 79.9602 55.6929 68.4365 69.8956 68.6358C72.2229 68.6671 74.3994 68.8835 76.4137 69.2934C78.7382 69.7603 85.6034 72.2825 84.9632 75.1293C84.9632 75.1293 86.0529 74.8332 87.1739 73.4155C90.9635 68.633 89.6804 58.8259 80.5704 51.3673Z" fill="url(#paint1_radial)"/>
<path d="M80.5704 51.3673C72.863 45.0561 68.0719 46.1919 62.7857 44.6888C55.7014 44.8824 46.4377 47.0972 36.7104 54.7749C36.9266 54.6696 41.1885 52.6057 48.0452 53.491C48.8589 53.5992 49.7125 53.7444 50.5973 53.9408C38.2353 59.5973 29.3046 72.348 29.3046 84.8623C29.3046 90.5729 31.0657 95.9163 34.1327 100.483C37.0717 104.867 41.2113 108.536 46.1475 111.127C49.3597 111.702 52.6685 112.001 56.0485 112.001C56.4667 112.001 56.8821 111.995 57.2946 111.986H57.2975C61.1896 111.901 64.985 111.42 68.6437 110.577C60.4015 110.574 53.3428 107.907 48.8988 103.403V103.4C45.809 100.266 43.9824 96.2409 43.9085 91.5978C43.7235 79.9602 55.6929 68.4365 69.8956 68.6358C72.2229 68.6671 74.3994 68.8835 76.4137 69.2934C78.7382 69.7603 85.6034 72.2825 84.9632 75.1293C84.9632 75.1293 86.0529 74.8332 87.1739 73.4155C90.9635 68.633 89.6804 58.8259 80.5704 51.3673Z" fill="url(#paint2_radial)"/>
<path d="M56.0485 0C25.0938 0 0 24.9462 0 55.9189C0 71.7156 6.52666 85.9865 17.0308 96.1779C20.3994 99.4488 24.1748 102.296 28.2746 104.641V104.638C27.8734 104.194 27.4837 103.742 27.1024 103.281C27.9616 104.038 28.8664 104.772 29.8109 105.487C32.8154 107.084 35.9848 108.416 39.2851 109.447C41.5157 110.147 43.806 110.711 46.1475 111.126C41.2113 108.536 37.0716 104.866 34.1327 100.482C31.0656 95.9159 29.3045 90.5726 29.3045 84.862C29.3045 72.3476 38.2353 59.597 50.5972 53.9404C49.7124 53.744 48.8589 53.5988 48.0452 53.4907C41.1885 52.6053 36.9265 54.6692 36.7103 54.7745C46.4377 47.0968 55.7013 44.882 62.7856 44.6885C70.6381 44.4721 75.8077 46.741 75.9613 46.8065C72.7406 39.0291 68.2141 39.4988 68.2141 39.4988C70.2882 39.0661 71.9156 39.123 74.1148 39.123C91.7146 39.123 106.501 53.3682 106.501 71.2915C106.501 77.6853 103.636 84.842 100.503 89.8666C102.708 86.9543 104.651 83.8087 106.279 80.4751C109.915 73.0479 112 64.6898 112 55.9189C112 24.9462 87.0031 0 56.0485 0Z" fill="url(#paint3_radial)"/>
<path opacity="0.19" d="M56.0485 0C25.0938 0 0 24.9462 0 55.9189C0 71.7156 6.52666 85.9865 17.0308 96.1779C20.3994 99.4488 24.1748 102.296 28.2746 104.641V104.638C27.8734 104.194 27.4837 103.742 27.1024 103.281C27.9616 104.038 28.8664 104.772 29.8109 105.487C32.8154 107.084 35.9848 108.416 39.2851 109.447C41.5157 110.147 43.806 110.711 46.1475 111.126C41.2113 108.536 37.0716 104.866 34.1327 100.482C31.0656 95.9159 29.3045 90.5726 29.3045 84.862C29.3045 72.3476 38.2353 59.597 50.5972 53.9404C49.7124 53.744 48.8589 53.5988 48.0452 53.4907C41.1885 52.6053 36.9265 54.6692 36.7103 54.7745C46.4377 47.0968 55.7013 44.882 62.7856 44.6885C70.6381 44.4721 75.8077 46.741 75.9613 46.8065C72.7406 39.0291 68.2141 39.4988 68.2141 39.4988C70.2882 39.0661 71.9156 39.123 74.1148 39.123C91.7146 39.123 106.501 53.3682 106.501 71.2915C106.501 77.6853 103.636 84.842 100.503 89.8666C102.708 86.9543 104.651 83.8087 106.279 80.4751C109.915 73.0479 112 64.6898 112 55.9189C112 24.9462 87.0031 0 56.0485 0Z" fill="url(#paint4_radial)"/>
<path d="M110.248 61.8968C110.248 60.8293 110.211 59.7703 110.137 58.7198C108.498 35.4418 88.9839 17.0603 65.1533 17.0603C52.5353 17.0603 41.1265 22.2129 32.9411 30.5198C32.9411 30.5198 35.7748 29.5718 40.179 29.5007C41.8121 29.4722 43.6614 29.5661 45.6644 29.8736C28.0931 37.4517 15.8563 54.3728 14.9174 74.6275C14.3626 86.6636 18.7441 95.9441 27.103 103.28C27.9622 104.037 28.8669 104.772 29.8115 105.486C32.8159 107.083 35.9854 108.416 39.2857 109.446C41.5162 110.147 43.8065 110.71 46.1481 111.126C41.2118 108.535 37.0722 104.866 34.1332 100.482C31.0662 95.9156 29.3051 90.5722 29.3051 84.8616C29.3051 72.3473 38.2358 59.5966 50.5978 53.9401C49.713 53.7437 48.8594 53.5985 48.0457 53.4903C41.1891 52.605 36.9271 54.6689 36.7109 54.7742C46.4383 47.0965 55.7019 44.8817 62.7862 44.6881C70.6387 44.4718 75.8082 46.7406 75.9618 46.8061C72.7412 39.0288 68.2146 39.4985 68.2146 39.4985C70.2887 39.0658 71.9161 39.1227 74.1154 39.1227C91.7152 39.1227 106.501 53.3679 106.501 71.2911C106.501 77.6849 103.636 84.8417 100.504 89.8662C102.709 86.954 104.652 83.8083 106.279 80.4748L106.219 80.4463C108.809 74.7926 110.248 68.5127 110.248 61.8968Z" fill="url(#paint5_radial)"/>
<path d="M51.9228 94.6351C51.9228 102.82 57.7553 109.154 71.4118 109.865C70.4985 110.127 69.5767 110.363 68.6435 110.577C60.4012 110.574 53.3426 107.907 48.8985 103.403V103.4C47.1971 100.36 46.2327 96.8926 46.2327 93.2117C46.2327 82.1606 54.9159 73.0311 66.1683 71.6248C62.959 73.6033 60.5321 76.6521 59.2006 80.2106C54.9557 83.3022 51.9228 88.9928 51.9228 94.6351Z" fill="url(#paint6_radial)"/>
<path d="M76.4135 69.2931C72.5186 68.9486 69.0305 69.8596 66.1683 71.6246C54.916 73.0309 46.2327 82.1604 46.2327 93.2116C46.2327 96.8924 47.1972 100.36 48.8986 103.4C45.8088 100.266 43.9822 96.2405 43.9083 91.5975C43.7233 79.9599 55.6927 68.4362 69.8954 68.6355C72.2227 68.6668 74.3992 68.8831 76.4135 69.2931Z" fill="url(#paint7_radial)"/>
<path opacity="0.25" d="M84.4287 75.3496C85.0688 72.5029 82.7358 71.4723 82.7358 71.4723C80.8495 70.4874 78.7385 69.7614 76.414 69.2946C74.3997 68.8846 72.2232 68.6683 69.8959 68.637C55.6932 68.4377 43.7238 79.9614 43.9088 91.5989C43.9827 96.242 45.8093 100.267 48.8991 103.402V103.404C53.3431 107.908 60.4018 110.575 68.6441 110.578C64.9853 111.421 61.1899 111.902 57.2978 111.987H57.295C48.0825 108.235 41.6811 99.9656 41.6811 90.3663C41.6811 77.237 53.6561 66.5958 68.425 66.5958C75.7284 66.5958 82.3489 69.1978 87.1742 73.4167C86.1272 74.8913 84.4287 75.3496 84.4287 75.3496Z" fill="url(#paint8_radial)"/>
<path d="M30.8694 87.9454C30.8694 92.486 32.0501 96.6992 34.1725 100.454L34.1327 100.483C31.0657 95.9163 29.3046 90.573 29.3046 84.8624C29.3046 72.348 38.2353 59.5973 50.5973 53.9408C49.7125 53.7444 48.8589 53.5992 48.0452 53.491C41.1885 52.6057 36.9266 54.6696 36.7104 54.7749C46.4377 47.0972 55.7014 44.8824 62.7857 44.6888C68.0719 46.1919 72.1404 48.0053 75.2671 49.9212L75.2529 49.9411C66.7176 45.1016 53.7724 50.0835 53.7724 50.0835C65.4373 51.3645 66.7176 54.624 66.7176 54.624C46.8304 56.167 30.8694 71.2634 30.8694 87.9454Z" fill="url(#paint9_radial)"/>
<path d="M30.8694 87.9454C30.8694 92.486 32.0501 96.6992 34.1725 100.454L34.1327 100.483C31.0657 95.9163 29.3046 90.573 29.3046 84.8624C29.3046 72.348 38.2353 59.5973 50.5973 53.9408C49.7125 53.7444 48.8589 53.5992 48.0452 53.491C41.1885 52.6057 36.9266 54.6696 36.7104 54.7749C46.4377 47.0972 55.7014 44.8824 62.7857 44.6888C68.0719 46.1919 72.1404 48.0053 75.2671 49.9212L75.2529 49.9411C66.7176 45.1016 53.7724 50.0835 53.7724 50.0835C65.4373 51.3645 66.7176 54.624 66.7176 54.624C46.8304 56.167 30.8694 71.2634 30.8694 87.9454Z" fill="url(#paint10_radial)"/>
<path opacity="0.29" d="M26.8858 84.1026C26.8858 70.5178 35.5719 58.8319 48.0249 53.6479L48.0448 53.4913C48.8585 53.5995 49.712 53.7447 50.5968 53.9411C38.2349 59.5976 29.3041 72.3483 29.3041 84.8626C29.3041 90.5732 31.0652 95.9166 34.1323 100.483C37.0712 104.867 41.2109 108.536 46.1471 111.127C43.8056 110.711 41.5153 110.148 39.2847 109.447L39.3018 109.39C31.6997 103.281 26.8858 94.2171 26.8858 84.1026Z" fill="url(#paint11_radial)"/>
<path d="M40.179 29.5007C35.7748 29.5718 32.9411 30.5198 32.9411 30.5198C41.1265 22.2129 52.5353 17.0603 65.1533 17.0603C88.9839 17.0603 108.498 35.4418 110.137 58.7198C102.703 42.9203 85.584 31.8635 65.6512 31.8635C38.8987 31.8635 17.2134 51.7794 17.2134 76.3441C17.2134 86.4672 20.8978 95.8046 27.103 103.28C18.7441 95.9441 14.3626 86.6636 14.9174 74.6275C15.8563 54.3728 28.0931 37.4517 45.6644 29.8736C43.6614 29.5661 41.8121 29.4722 40.179 29.5007Z" fill="url(#paint12_radial)"/>
<path opacity="0.53" d="M40.179 29.5007C35.7748 29.5718 32.9411 30.5198 32.9411 30.5198C41.1265 22.2129 52.5353 17.0603 65.1533 17.0603C88.9839 17.0603 108.498 35.4418 110.137 58.7198C102.703 42.9203 85.584 31.8635 65.6512 31.8635C38.8987 31.8635 17.2134 51.7794 17.2134 76.3441C17.2134 86.4672 20.8978 95.8046 27.103 103.28C18.7441 95.9441 14.3626 86.6636 14.9174 74.6275C15.8563 54.3728 28.0931 37.4517 45.6644 29.8736C43.6614 29.5661 41.8121 29.4722 40.179 29.5007Z" fill="url(#paint13_radial)"/>
<path opacity="0.25" d="M40.178 29.5019C41.8111 29.4734 43.6604 29.5674 45.6633 29.8748C28.092 37.4529 15.8552 54.3741 14.9164 74.6288C14.3616 86.6649 18.743 95.9453 27.1019 103.281C27.4832 103.743 27.8729 104.195 28.2741 104.639V104.642C24.1743 102.296 20.3989 99.4497 17.0303 96.1788C13.5905 89.523 11.6644 82.0731 11.6644 74.2103C11.6644 54.989 23.1671 38.2472 40.178 29.5019Z" fill="url(#paint14_radial)"/>
<path d="M183.643 34.5183H192.972V77.3598H183.643V59.3663H166.129V77.3598H156.801V34.5183H166.129V50.4308H183.643V34.5183Z" fill="white"/>
<path d="M209.622 78.2778C206.492 78.2778 203.945 77.2986 201.979 75.3401C200.053 73.3408 199.09 70.4031 199.09 66.527V49.0844H208.478V64.5073C208.478 68.3019 210.003 70.1991 213.053 70.1991C216.543 70.1991 218.289 67.7102 218.289 62.7325V49.0844H227.376V77.3598H218.469V72.9532H218.349C216.182 76.503 213.273 78.2778 209.622 78.2778Z" fill="white"/>
<path d="M251.308 48.2275V57.4691H250.526C247.436 57.4691 245.23 58.1627 243.906 59.55C242.622 60.9372 241.98 63.4057 241.98 66.9554V77.3598H232.892V49.0844H241.799V54.8374H241.919C243.444 50.4308 246.513 48.2275 251.128 48.2275H251.308Z" fill="white"/>
<path d="M273.113 48.2275V57.4691H272.331C269.241 57.4691 267.035 58.1627 265.711 59.55C264.427 60.9372 263.785 63.4057 263.785 66.9554V77.3598H254.697V49.0844H263.604V54.8374H263.725C265.249 50.4308 268.319 48.2275 272.933 48.2275H273.113Z" fill="white"/>
<path d="M285.951 34.5795V43.8822H276.201V34.5795H285.951ZM276.562 77.3598V49.0844H285.65V77.3598H276.562Z" fill="white"/>
<path d="M305.158 78.2778C300.664 78.2778 296.953 76.8906 294.024 74.1161C291.135 71.3416 289.691 67.7102 289.691 63.2221C289.691 58.7339 291.135 55.1026 294.024 52.3281C296.953 49.5536 300.664 48.1663 305.158 48.1663C308.729 48.1663 312.079 49.0844 315.209 50.9204L311.478 58.3259C309.712 57.1835 307.746 56.6122 305.579 56.6122C303.694 56.6122 302.089 57.2039 300.765 58.3871C299.441 59.5704 298.779 61.182 298.779 63.2221C298.779 65.2622 299.441 66.8738 300.765 68.0571C302.089 69.2403 303.694 69.8319 305.579 69.8319C307.746 69.8319 309.712 69.2607 311.478 68.1183L315.209 75.5237C312.079 77.3598 308.729 78.2778 305.158 78.2778Z" fill="white"/>
<path d="M328.732 78.2778C324.92 78.2778 321.77 76.9722 319.283 74.3609C316.795 71.7088 315.551 67.9959 315.551 63.2221C315.551 58.4483 316.795 54.7558 319.283 52.1445C321.77 49.4924 324.92 48.1663 328.732 48.1663C332.864 48.1663 335.894 49.7576 337.82 52.9401H337.94V49.0844H347.028V77.3598H337.94V73.5041H337.82C335.894 76.6866 332.864 78.2778 328.732 78.2778ZM331.259 69.8319C333.145 69.8319 334.69 69.2403 335.894 68.0571C337.097 66.833 337.699 65.2214 337.699 63.2221C337.699 61.2228 337.097 59.6316 335.894 58.4483C334.69 57.2243 333.145 56.6122 331.259 56.6122C329.414 56.6122 327.889 57.2243 326.685 58.4483C325.482 59.6316 324.88 61.2228 324.88 63.2221C324.88 65.2214 325.482 66.833 326.685 68.0571C327.889 69.2403 329.414 69.8319 331.259 69.8319Z" fill="white"/>
<path d="M370.436 48.1663C373.646 48.1663 376.193 49.1456 378.079 51.104C379.965 53.0625 380.908 55.9798 380.908 59.856V77.3598H371.88V62.4265C371.88 58.3463 370.175 56.3062 366.764 56.3062C363.194 56.3062 361.408 58.5911 361.408 63.1609V77.3598H352.32V49.0844H361.228V53.3685H361.348C363.354 49.9004 366.383 48.1663 370.436 48.1663Z" fill="white"/>
<path d="M399.413 48.2275C403.706 48.2275 407.077 49.5128 409.524 52.0833C411.972 54.613 413.195 58.3667 413.195 63.3445V65.4254H393.274C393.836 68.8527 396.203 70.5663 400.376 70.5663C403.185 70.5663 405.873 69.7095 408.441 67.9959L411.751 74.9729C408.22 77.1762 404.388 78.2778 400.256 78.2778C395.601 78.2778 391.85 76.911 389.001 74.1773C386.153 71.4436 384.728 67.8326 384.728 63.3445C384.728 58.6523 386.072 54.9598 388.761 52.2669C391.489 49.574 395.04 48.2275 399.413 48.2275ZM399.112 54.7762C395.662 54.7762 393.736 56.5102 393.335 59.9784H404.408C404.368 58.3463 403.847 57.0815 402.844 56.1838C401.881 55.2454 400.637 54.7762 399.112 54.7762Z" fill="white"/>
<path d="M420.476 36.6603C422.763 34.6203 426.093 33.6002 430.467 33.6002C434.84 33.6002 439.394 34.6407 444.129 36.7215L440.217 45.1062C436.445 43.311 433.276 42.4133 430.708 42.4133C428.14 42.4133 426.856 43.2498 426.856 44.9226C426.856 45.5754 427.077 46.1671 427.518 46.6975C427.999 47.1871 428.842 47.7991 430.046 48.5336L437.027 53.0013C439.715 54.6742 441.721 56.4694 443.045 58.3871C444.37 60.3048 445.032 62.6917 445.032 65.5478C445.032 69.6687 443.707 72.8308 441.059 75.0341C438.411 77.1966 434.62 78.2778 429.684 78.2778C424.027 78.2778 418.791 76.8498 413.976 73.9937L418.189 65.4866C422.402 68.0979 426.354 69.4035 430.046 69.4035C433.496 69.4035 435.221 68.2611 435.221 65.9762C435.221 65.0786 434.901 64.3033 434.259 63.6505C433.617 62.9977 432.613 62.2428 431.249 61.386L424.81 57.2855C419.634 54.1438 417.046 50.0636 417.046 45.045C417.046 41.4953 418.189 38.7004 420.476 36.6603Z" fill="white"/>
<path d="M483.303 49.0844H492.271L482.16 77.3598H474.396L468.257 60.8352L462.178 77.3598H454.415L444.243 49.0844H453.271L458.447 65.6702L464.104 49.0844H472.47L478.067 65.6702L483.303 49.0844Z" fill="white"/>
<path d="M504.936 78.2778C501.124 78.2778 497.974 76.9722 495.487 74.3609C492.999 71.7088 491.755 67.9959 491.755 63.2221C491.755 58.4483 492.999 54.7558 495.487 52.1445C497.974 49.4924 501.124 48.1663 504.936 48.1663C509.068 48.1663 512.098 49.7576 514.024 52.9401H514.144V49.0844H523.232V77.3598H514.144V73.5041H514.024C512.098 76.6866 509.068 78.2778 504.936 78.2778ZM507.463 69.8319C509.349 69.8319 510.894 69.2403 512.098 68.0571C513.301 66.833 513.903 65.2214 513.903 63.2221C513.903 61.2228 513.301 59.6316 512.098 58.4483C510.894 57.2243 509.349 56.6122 507.463 56.6122C505.618 56.6122 504.093 57.2243 502.889 58.4483C501.686 59.6316 501.084 61.2228 501.084 63.2221C501.084 65.2214 501.686 66.833 502.889 68.0571C504.093 69.2403 505.618 69.8319 507.463 69.8319Z" fill="white"/>
<path d="M528.524 89.6002V49.0844H537.612V52.9401H537.732C539.658 49.7576 542.688 48.1663 546.82 48.1663C550.632 48.1663 553.782 49.4924 556.269 52.1445C558.757 54.7558 560.001 58.4483 560.001 63.2221C560.001 67.9959 558.757 71.7088 556.269 74.3609C553.782 76.9722 550.632 78.2778 546.82 78.2778C542.688 78.2778 539.658 76.6866 537.732 73.5041H537.612V89.6002H528.524ZM544.293 69.8319C546.138 69.8319 547.663 69.2403 548.867 68.0571C550.07 66.833 550.672 65.2214 550.672 63.2221C550.672 61.2228 550.07 59.6316 548.867 58.4483C547.663 57.2243 546.138 56.6122 544.293 56.6122C542.407 56.6122 540.862 57.2243 539.658 58.4483C538.455 59.6316 537.853 61.2228 537.853 63.2221C537.853 65.2214 538.455 66.833 539.658 68.0571C540.862 69.2403 542.407 69.8319 544.293 69.8319Z" fill="white"/>
<defs>
<radialGradient id="paint0_radial" cx="0" cy="0" r="1" gradientUnits="userSpaceOnUse" gradientTransform="translate(84.8795 103.265) scale(49.327 54.6616)">
<stop stop-color="#867BC4"/>
<stop offset="1" stop-color="#5F2E86"/>
</radialGradient>
<radialGradient id="paint1_radial" cx="0" cy="0" r="1" gradientUnits="userSpaceOnUse" gradientTransform="translate(71.977 76.1313) scale(71.314 71.3557)">
<stop stop-color="#998FDF"/>
<stop offset="0.4863" stop-color="#6E5CBE"/>
<stop offset="1" stop-color="#000009"/>
</radialGradient>
<radialGradient id="paint2_radial" cx="0" cy="0" r="1" gradientUnits="userSpaceOnUse" gradientTransform="translate(36.5616 85.5284) rotate(120.104) scale(68.5218 137.44)">
<stop stop-color="#9564AC"/>
<stop offset="0.6435" stop-color="#5C3B9C" stop-opacity="0"/>
</radialGradient>
<radialGradient id="paint3_radial" cx="0" cy="0" r="1" gradientUnits="userSpaceOnUse" gradientTransform="translate(100.432 37.6175) scale(121.37 121.441)">
<stop stop-color="#998FDF"/>
<stop offset="0.4275" stop-color="#6E5CBE"/>
<stop offset="0.8446" stop-color="#8C4192"/>
</radialGradient>
<radialGradient id="paint4_radial" cx="0" cy="0" r="1" gradientUnits="userSpaceOnUse" gradientTransform="translate(39.5453 36.2748) rotate(49.3152) scale(25.9609 36.464)">
<stop stop-color="white"/>
<stop offset="1" stop-color="white" stop-opacity="0"/>
</radialGradient>
<radialGradient id="paint5_radial" cx="0" cy="0" r="1" gradientUnits="userSpaceOnUse" gradientTransform="translate(35.8488 100.043) scale(107.456 107.519)">
<stop stop-color="#51339D"/>
<stop offset="0.4171" stop-color="#9E84D5" stop-opacity="0.5725"/>
<stop offset="0.9259" stop-color="#9489DB" stop-opacity="0"/>
</radialGradient>
<radialGradient id="paint6_radial" cx="0" cy="0" r="1" gradientUnits="userSpaceOnUse" gradientTransform="translate(66.0061 82.1094) scale(31.1301 31.1483)">
<stop offset="0.0181" stop-color="#4B338C"/>
<stop offset="1" stop-color="#4B338C" stop-opacity="0"/>
</radialGradient>
<radialGradient id="paint7_radial" cx="0" cy="0" r="1" gradientUnits="userSpaceOnUse" gradientTransform="translate(63.7301 73.2842) scale(38.6452 38.6678)">
<stop stop-color="#352086"/>
<stop offset="1" stop-color="#352086" stop-opacity="0"/>
</radialGradient>
<radialGradient id="paint8_radial" cx="0" cy="0" r="1" gradientUnits="userSpaceOnUse" gradientTransform="translate(55.1953 99.1913) scale(30.7916 30.8095)">
<stop stop-color="white"/>
<stop offset="1" stop-color="white" stop-opacity="0"/>
</radialGradient>
<radialGradient id="paint9_radial" cx="0" cy="0" r="1" gradientUnits="userSpaceOnUse" gradientTransform="translate(29.5891 88.3724) scale(43.9529 43.9786)">
<stop stop-color="#422085"/>
<stop offset="1" stop-color="#422085" stop-opacity="0"/>
</radialGradient>
<radialGradient id="paint10_radial" cx="0" cy="0" r="1" gradientUnits="userSpaceOnUse" gradientTransform="translate(36.7018 35.992) scale(50.8135 50.8432)">
<stop offset="0.0829" stop-color="#422085"/>
<stop offset="0.7132" stop-color="#422085" stop-opacity="0"/>
</radialGradient>
<radialGradient id="paint11_radial" cx="0" cy="0" r="1" gradientUnits="userSpaceOnUse" gradientTransform="translate(35.0427 87.7157) scale(22.0233 24.3962)">
<stop stop-color="white"/>
<stop offset="1" stop-color="white" stop-opacity="0"/>
</radialGradient>
<radialGradient id="paint12_radial" cx="0" cy="0" r="1" gradientUnits="userSpaceOnUse" gradientTransform="translate(15.6486 84.1015) scale(88.9538 89.0058)">
<stop stop-color="#4C2376"/>
<stop offset="0.6989" stop-color="#301C86" stop-opacity="0"/>
</radialGradient>
<radialGradient id="paint13_radial" cx="0" cy="0" r="1" gradientUnits="userSpaceOnUse" gradientTransform="translate(6.25977 8.37768) scale(71.6406 71.6825)">
<stop stop-color="#4C2376"/>
<stop offset="1" stop-color="#301C86" stop-opacity="0"/>
</radialGradient>
<radialGradient id="paint14_radial" cx="0" cy="0" r="1" gradientUnits="userSpaceOnUse" gradientTransform="translate(21.3377 99.1906) scale(55.3333 55.3657)">
<stop stop-color="white"/>
<stop offset="1" stop-color="white" stop-opacity="0"/>
</radialGradient>
</defs>
</svg>
