<?xml version="1.0" encoding="UTF-8"?><svg id="Layer_1" xmlns="http://www.w3.org/2000/svg" xmlns:xlink="http://www.w3.org/1999/xlink" viewBox="0 0 206.04 206.04"><defs><style>.cls-1{fill:url(#linear-gradient-5);}.cls-2{fill:url(#linear-gradient-4);}.cls-3{fill:url(#linear-gradient-3);}.cls-4{fill:url(#linear-gradient-2);}.cls-5{fill:url(#linear-gradient);}.cls-6{fill:#020920;}</style><linearGradient id="linear-gradient" x1="197.83" y1="-4.29" x2="1.43" y2="215.61" gradientUnits="userSpaceOnUse"><stop offset=".38" stop-color="#020839" stop-opacity=".1"/><stop offset=".51" stop-color="#011968" stop-opacity=".33"/><stop offset=".69" stop-color="#002fa4" stop-opacity=".61"/><stop offset=".83" stop-color="#003fcf" stop-opacity=".82"/><stop offset=".94" stop-color="#0049ea" stop-opacity=".95"/><stop offset="1" stop-color="#004df5"/></linearGradient><linearGradient id="linear-gradient-2" x1="125.12" y1="975.06" x2="187.28" y2="992.35" gradientTransform="translate(0 -877.99)" gradientUnits="userSpaceOnUse"><stop offset="0" stop-color="#000987"/><stop offset=".11" stop-color="#2248be"/><stop offset=".3" stop-color="#2774d0"/><stop offset="1" stop-color="#2c90e1"/></linearGradient><linearGradient id="linear-gradient-3" x1="33.49" y1="981.01" x2="172.55" y2="981.01" gradientTransform="translate(0 -877.99)" gradientUnits="userSpaceOnUse"><stop offset="0" stop-color="#d9403e"/><stop offset=".2" stop-color="#e4af0f"/><stop offset=".28" stop-color="#e3ad0c"/><stop offset=".75" stop-color="#d96c3f"/><stop offset=".89" stop-color="#d33e3c"/><stop offset="1" stop-color="#cf3e3a"/></linearGradient><linearGradient id="linear-gradient-4" x1="59.71" y1="977.54" x2="107.23" y2="981.99" gradientTransform="translate(0 -877.99)" gradientUnits="userSpaceOnUse"><stop offset="0" stop-color="#2143bc"/><stop offset=".47" stop-color="#2c7ff7"/><stop offset="1" stop-color="#2143bc"/></linearGradient><linearGradient id="linear-gradient-5" x1="10.91" y1="977.72" x2="50.71" y2="981.38" gradientTransform="translate(0 -877.99)" gradientUnits="userSpaceOnUse"><stop offset=".56" stop-color="#2c90e2"/><stop offset=".88" stop-color="#2143bc"/><stop offset="1" stop-color="#000987"/></linearGradient></defs><rect class="cls-6" x="-3.92" y="-2.89" width="211.82" height="211.82"/><rect class="cls-5" x="-3.92" y="-2.89" width="211.82" height="211.82"/><path class="cls-4" d="M175.35,100.79l-2.8-.39c-8.72-1.09-17.53-1.87-26.26-2.42-5.3-.39-10.6-.63-15.81-.86-.39.63-.86,1.32-1.24,1.95-2.02,3.11-4.05,6.16-6.08,9.27,7.71-.23,15.43-.55,23.13-1.01,9.9-.63,37.55-3.97,41.44-4.67-4.12-.78-8.26-1.41-12.38-1.87Z"/><path class="cls-3" d="M153.22,54.22c-3.35,4.9-6.16,9.82-9.42,14.72-1.95-2.57-5.3-6.94-5.92-7.78-17.06,23.29-33.89,46.82-49.93,70.88-17.06-18.86-54.29-53.36-54.29-53.36,0,0,35.68,49.93,55.46,73.15l1.95-2.8c16.51-23.36,32.17-47.44,47.67-71.59,2.1,2.25,5.61,6.08,6.31,6.77.31-.63,6.23-9.42,8.57-13.86l19.09,26.26s-12.54-27.27-19.47-42.37h-.01Z"/><path class="cls-2" d="M105.23,96.74c-13.79,0-27.65.39-41.44,1.32-1.32.08-2.65.15-3.97.31,3.11,3.03,6.39,6.16,9.58,9.35,9.9.55,19.79.86,29.68.93.47-.63.86-1.32,1.32-1.95l7.01-9.97c-.7,0-1.48,0-2.18,0Z"/><path class="cls-1" d="M44.02,99.78c-7.25.78-18.46,1.64-25.71,2.96,8.81,1.56,21.57,2.65,30.38,3.43-1.64-2.18-3.19-4.36-4.67-6.39Z"/></svg>