<svg xmlns="http://www.w3.org/2000/svg" xmlns:xlink="http://www.w3.org/1999/xlink" viewBox="0 0 47.25 47.25"><defs><style>.cls-1{fill:url(#linear-gradient);}.cls-2,.cls-5{fill:none;stroke-miterlimit:10;}.cls-2{stroke:url(#linear-gradient-2);}.cls-3{fill:url(#linear-gradient-3);}.cls-4{fill:#231f20;}.cls-5{stroke:#e6e7e8;stroke-width:0.75px;}</style><linearGradient id="linear-gradient" x1="0.85" y1="9.96" x2="38.77" y2="32.71" gradientUnits="userSpaceOnUse"><stop offset="0" stop-color="#58595b"/><stop offset="1" stop-color="#231f20"/></linearGradient><linearGradient id="linear-gradient-2" x1="3.36" y1="11.47" x2="43.88" y2="35.78" gradientUnits="userSpaceOnUse"><stop offset="0" stop-color="#d1d3d4"/><stop offset="1" stop-color="#e6e7e8"/></linearGradient><linearGradient id="linear-gradient-3" x1="11.21" y1="18.44" x2="35.48" y2="33" gradientUnits="userSpaceOnUse"><stop offset="0.07" stop-color="#39b54a"/><stop offset="1" stop-color="#009444"/></linearGradient></defs><g id="Layer_2" data-name="Layer 2"><g id="Layer_1-2" data-name="Layer 1"><circle class="cls-1" cx="23.62" cy="23.62" r="23.12"/><circle class="cls-2" cx="23.62" cy="23.62" r="23.12"/><polygon class="cls-3" points="8.69 27.13 9.53 27.13 10.63 27.13 11.8 26.79 12.83 26.26 13.98 25.41 15.03 24.06 15.58 23.17 16.22 21.29 18.93 19.66 19.98 19.11 21.95 18.31 23.85 17.44 25.25 16.55 27.26 14.97 29.6 12.24 29.7 12.43 29.8 12.81 29.8 13.48 29.65 14.17 29.07 15.55 28.17 17.18 27.36 18.32 25.98 19.92 26.49 19.91 28.34 19.48 29.68 19.12 30.96 18.48 35.1 16.57 34.78 17.25 33.97 18.46 33.33 19.25 32.33 20.46 33.01 20.36 34.67 20.6 35.56 20.18 37.08 18.9 38.27 16.38 38.33 19.37 38.02 20.3 37.94 20.57 37.81 20.8 36.48 22.07 37.22 22.24 38.53 23.26 41.59 25.21 42.58 25.81 41.02 30.59 37.33 36.53 31.61 40.69 26 42.49 20.95 42.58 21.51 41.18 23.14 40.84 24.98 40.35 26.85 39.6 28.8 38.69 30.73 37.64 32.53 36.26 34.52 34.13 34.63 33.82 34.71 33.6 34.73 33.32 34.72 32.74 34.73 32.14 34.56 31.81 34.28 31.43 33.67 30.65 33.02 29.88 32.11 29.05 31.35 28.39 30.15 27.69 28.9 26.97 27.99 26.6 26.93 26.15 25.87 25.86 25.49 25.77 25.5 25.55 25.82 25.3 26.42 25 27.35 24.72 29.3 24.74 30.13 24.99 32.23 25.83 33.43 26.55 35.12 27.62 35.83 28.11 37.31 29.49 37.06 28.99 36.62 28.5 35.93 27.72 35.22 27.06 33.99 25.95 33.08 25.41 31.93 24.82 31.43 24.53 30.32 24.23 29.24 23.95 28.43 23.85 27.62 23.82 26.77 23.72 26.08 23.8 25.51 23.94 25.25 24 24.95 24.29 24.6 24.61 24.39 24.95 24.33 25.34 24.33 25.79 24.47 26.19 24.76 26.68 25.27 27.31 25.95 28.09 26.64 28.79 25.7 28.59 24.91 28.44 24.05 28.22 23.28 28.12 22.75 28.06 21.93 28.05 21.24 28.25 20.45 28.7 19.91 29.1 19.74 29.42 18.41 29.32 16.64 29.29 15.8 29.45 15.47 29.59 15.13 29.83 14.76 30.05 14.55 30.24 14.25 30.6 14.12 30.88 14.04 31.14 14.01 31.28 13.12 31.23 12.47 31.2 11.71 30.91 10.99 30.48 10.61 30.17 10.15 29.81 9.72 29.32 9.43 28.85 9.14 28.34 8.87 27.77 8.69 27.32 8.56 27.13 8.69 27.13"/><polygon class="cls-4" points="16.74 24.09 17.64 22.69 18.3 22.58 18.84 22.2 19.41 21.4 19.8 20.87 19.8 22.48 19.39 23.24 18.66 23.29 18.07 23.53 17.95 23.55 17.62 24 17.48 24.16 16.74 24.09"/><circle class="cls-5" cx="23.4" cy="23.4" r="19.18"/></g></g></svg>