<svg xmlns="http://www.w3.org/2000/svg" viewBox="0 0 352.4 352.5"><defs><style>.cls-1{fill:#1fde4e;}.cls-2{fill:#e190dc;}.cls-3{fill:#fb40ee;}.cls-4{fill:#ae1a63;}.cls-5{fill:#ff2ad8;}.cls-6{fill:#ff5006;}</style></defs><g id="Layer_2" data-name="Layer 2"><g id="Layer_1-2" data-name="Layer 1"><path class="cls-1" d="M352.4,176.3A176.22,176.22,0,0,1,176.2,352.5c-32.4,0-63.2-8.1-88.9-24.1-9.9-6.1-13.3-12.2-9.3-20.8,9.3-20,98-133.2,97.3-133.3,0,0-89.5,71.9-129.9,97.8-11.9,7.7-16.7.1-17.2-.6C15,254.3,0,208.9,0,176.2A176.22,176.22,0,0,1,176.2,0C273.5,0,352.4,78.9,352.4,176.3Z"/><path class="cls-2" d="M194.9,95.9a279.58,279.58,0,0,1-2.3,37.1c-8.6,11.2-14.6,21.3-17.2,28.9-2.7-7.6-8.6-17.6-17.1-28.7A284.3,284.3,0,0,1,156,95.8c0-43.4,19.5-78.7,19.5-78.7S194.9,52.5,194.9,95.9Z"/><path class="cls-2" d="M166.6,165.9c-7.1-3.5-18.4-6.4-32.2-8.3A292.63,292.63,0,0,1,106,132.5C75.3,101.8,64.1,63.1,64.1,63.1s38.7,11.2,69.4,41.9a277.4,277.4,0,0,1,24.9,28.3C160.2,147.2,163.1,158.6,166.6,165.9Z"/><path class="cls-2" d="M163.1,174.6c-7.5,2.5-17.7,8.4-29,17h0A288.53,288.53,0,0,1,96.3,194c-43.4,0-78.7-19.5-78.7-19.5S52.8,155,96.3,155a293.33,293.33,0,0,1,38.1,2.4C145.5,166.1,155.6,172.1,163.1,174.6Z"/><path class="cls-2" d="M166.4,183.4c-3.5,7.2-6.4,18.5-8.2,32.3a284.59,284.59,0,0,1-25.3,28.7c-30.7,30.7-69.4,41.9-69.4,41.9s11.2-38.7,41.9-69.4a284.59,284.59,0,0,1,28.7-25.3h0C147.9,189.8,159.2,186.9,166.4,183.4Z"/><path class="cls-2" d="M194.7,253.6c0,43.4-19.5,78.7-19.5,78.7s-19.4-35.3-19.4-78.7a288.53,288.53,0,0,1,2.4-37.8c8.6-11.4,14.6-21.6,17.1-29.1,2.5,7.6,8.4,17.8,17.1,29.1A308.15,308.15,0,0,1,194.7,253.6Z"/><path class="cls-2" d="M286.9,286.3s-38.7-11.2-69.4-41.9a284.59,284.59,0,0,1-25.3-28.7c-1.8-13.4-4.6-24.4-7.9-31.6,7.3,3.5,18.8,6.3,32.8,8.2a294.45,294.45,0,0,1,27.8,24.6C275.8,247.7,286.9,286.3,286.9,286.3Z"/><path class="cls-2" d="M332.8,175.2s-35.2,19.5-78.7,19.5a276.45,276.45,0,0,1-36.9-2.3c-11.7-9-22.3-15.2-30-17.7,7.3-2.4,17.2-8.1,28.2-16.4h0a284.26,284.26,0,0,1,38.8-2.5C297.6,155.7,332.8,175.2,332.8,175.2Z"/><path class="cls-2" d="M286.9,62.9s-11.2,38.7-41.9,69.4a299.36,299.36,0,0,1-29.6,26h0c-13.3,1.9-24.2,4.7-31.2,8,3.6-7.3,6.6-18.9,8.5-33.3a288.51,288.51,0,0,1,24.9-28.3C248.3,74.1,286.9,62.9,286.9,62.9Z"/><path class="cls-3" d="M230.5,120.9a55.44,55.44,0,0,0-11,3.3,105.21,105.21,0,0,0-30.5,19c-.3-10.7-3-23-8.1-35.4a52.91,52.91,0,0,0-5.2-9.7C191.4,74.3,221.9,64,221.9,64S236.2,93,230.5,120.9Z"/><path class="cls-3" d="M175.7,98.1a52.91,52.91,0,0,0-5.2,9.7c-5,12.2-7.7,24.2-8.1,34.8-7.8-7.3-18.3-14-30.5-19.1a58.42,58.42,0,0,0-11.1-3.3c-5.3-27.7,8.8-56,8.8-56S160,74.4,175.7,98.1Z"/><path class="cls-3" d="M142.6,161.3c-10.5.4-22.6,3.1-34.7,8.1a66.88,66.88,0,0,0-9.9,5.3c-23.3-15.8-33.4-45.8-33.4-45.8s28.4-14.1,56.1-8.7a57.26,57.26,0,0,0,3.3,11.2C129,143.3,135.5,153.6,142.6,161.3Z"/><path class="cls-3" d="M142.9,188.4c-7.1,7.7-13.6,18-18.6,30a55.44,55.44,0,0,0-3.3,11c-27.9,5.7-56.8-8.6-56.8-8.6S74.4,190.5,98,174.7a53.82,53.82,0,0,0,10.3,5.6A105.24,105.24,0,0,0,142.9,188.4Z"/><path class="cls-3" d="M175.4,252.4c-15.9,23.2-45.7,33.3-45.7,33.3s-14.1-28.5-8.7-56.3a56.63,56.63,0,0,0,10.4-3.2,100.56,100.56,0,0,0,30.3-18.9,102,102,0,0,0,8.1,34.8A67.68,67.68,0,0,0,175.4,252.4Z"/><path class="cls-3" d="M286.7,129.6s-10.1,29.9-33.3,45.7a58.4,58.4,0,0,0-10.7-5.9,104.53,104.53,0,0,0-34.1-8.1,103.74,103.74,0,0,0,18.7-30.1,65.58,65.58,0,0,0,3.2-10.4C258.3,115.5,286.7,129.6,286.7,129.6Z"/><path class="cls-3" d="M221.2,285.8s-30-10.1-45.8-33.4a61.31,61.31,0,0,0,5.7-10.4,105.07,105.07,0,0,0,8.1-34.2c7.7,7.1,18,13.6,30,18.6a51.49,51.49,0,0,0,10.8,3.2C235.3,257.3,221.2,285.8,221.2,285.8Z"/><path class="cls-3" d="M286.5,220.9s-28.7,14.2-56.5,8.7a55.44,55.44,0,0,0-3.3-11,105.61,105.61,0,0,0-18.1-29.5c10.5-.4,22.4-3.1,34.5-8.1a55,55,0,0,0,10.4-5.7C276.5,191.3,286.5,220.9,286.5,220.9Z"/><polygon class="cls-4" points="201.6 110.4 175.7 151.9 146.7 110.4 159.9 159.2 107.9 148.3 153.2 175 107.9 201.9 159.9 190.8 146.7 239.7 175.7 197.5 201.6 239.7 192.1 190.8 240.4 201.9 198.8 175 240.4 148.3 191.5 159.2 201.6 110.4"/><polygon class="cls-5" points="175.5 88.2 172 165.4 114.8 112.8 167.5 171.1 89.6 174.6 166.3 178 115.4 233.5 172 183.2 175.5 259.8 178.9 183.7 235 234.6 184 178 260.1 174.6 185.2 170.6 236.1 113.9 179.5 165.4 175.5 88.2"/><polygon class="cls-6" points="193.9 129 175.9 158.6 155.7 129 164.9 163.8 128.7 156 160.3 175.1 128.7 194.2 164.9 186.3 155.7 221.3 175.9 191.1 193.9 221.3 187.3 186.3 221 194.2 192 175.1 221 156 186.9 163.8 193.9 129"/></g></g></svg>