<svg width="23" height="24" viewBox="0 0 23 24" fill="none" xmlns="http://www.w3.org/2000/svg">
<path fill-rule="evenodd" clip-rule="evenodd" d="M0 0C1.60227 0 2.90117 1.2989 2.90117 2.90117V12.8301C2.90117 17.3968 6.6032 21.0988 11.1699 21.0988C15.7366 21.0988 19.4386 17.3968 19.4386 12.8301V2.90117C19.4386 1.2989 20.7375 0 22.3398 0V12.8301C22.3398 18.9991 17.3388 24 11.1699 24C5.00093 24 0 18.9991 0 12.8301V0Z" fill="#00D9A1"/>
<path fill-rule="evenodd" clip-rule="evenodd" d="M4.98799 4.70801C6.30886 4.70801 7.37963 5.77878 7.37963 7.09965V7.4947C8.42552 6.68239 9.73937 6.19874 11.1662 6.19874C14.5784 6.19874 17.3445 8.96485 17.3446 12.377H17.3447C17.3447 15.7893 14.5785 18.5554 11.1663 18.5554C7.75407 18.5554 4.98793 15.7893 4.98788 12.3771H4.98779C4.98779 12.3118 4.98881 12.2467 4.99082 12.1819H4.98799L4.98799 4.70801ZM7.37943 12.377H7.37952C7.37952 14.4684 9.07491 16.1638 11.1663 16.1638C13.2576 16.1638 14.953 14.4685 14.953 12.3771H14.9529C14.9529 10.2858 13.2576 8.59037 11.1662 8.59037C9.07485 8.59037 7.37948 10.2857 7.37943 12.377Z" fill="#00D9A1"/>
<path d="M17.4619 3.89332C17.4619 4.67955 16.8246 5.31691 16.0383 5.31691C15.2521 5.31691 14.6147 4.67955 14.6147 3.89332C14.6147 3.10709 15.2521 2.46973 16.0383 2.46973C16.8246 2.46973 17.4619 3.10709 17.4619 3.89332Z" fill="#00D9A1"/>
</svg>
