<svg width="100" height="32" viewBox="0 0 100 32" fill="none" xmlns="http://www.w3.org/2000/svg">
<path d="M42.2455 5.00002C44.5241 5.00002 46.27 5.5574 47.4832 6.67216C48.7127 7.77052 49.3274 9.24593 49.3274 11.0984C49.3274 12.1312 49.1061 13.1476 48.6635 14.1476C48.2373 15.1476 47.5078 15.9427 46.475 16.5328L50.6799 23.0984H46.5241L42.7127 17.3443H40.3274V23.0984H36.7618V5.00002H42.2455ZM42.8602 13.9017C43.5815 13.9017 44.1389 13.7541 44.5323 13.459C44.9422 13.1476 45.2291 12.7869 45.393 12.3771C45.5569 11.9508 45.6389 11.5656 45.6389 11.2213C45.6389 11.0246 45.6061 10.7787 45.5405 10.4836C45.4914 10.1722 45.3766 9.86068 45.1963 9.54921C45.0159 9.23773 44.7373 8.97544 44.3602 8.76232C43.9996 8.54921 43.5077 8.44265 42.8848 8.44265H40.3274V13.9017H42.8602ZM56.5212 23.6148C55.554 23.6148 54.7425 23.3197 54.0868 22.7295C53.431 22.123 53.0868 21.3443 53.054 20.3935V12.3525H56.4966V19.1148C56.5294 19.5902 56.6523 19.9754 56.8655 20.2705C57.0786 20.5492 57.4392 20.6886 57.9474 20.6886C58.7179 20.6886 59.3245 20.3197 59.7671 19.582C60.2097 18.8279 60.431 17.8771 60.431 16.7295V12.3525H63.8737V23.0984H60.7507L60.5048 21.3771C60.1442 22.0492 59.6278 22.5902 58.9556 23C58.2835 23.4099 57.472 23.6148 56.5212 23.6148ZM74.4716 23.3935C73.652 23.3935 72.947 23.2705 72.3569 23.0246C71.7831 22.7787 71.2831 22.4427 70.8569 22.0164V23.0984H67.4143V3.69675H70.8323V13.0902C71.2585 12.7295 71.8241 12.4263 72.529 12.1804C73.2339 11.9345 74.0372 11.8115 74.9388 11.8115C75.8733 11.8115 76.7257 12.0328 77.4962 12.4754C78.2667 12.9181 78.8815 13.5656 79.3405 14.4181C79.8159 15.2541 80.0536 16.2787 80.0536 17.4918C80.0536 18.7049 79.7913 19.7541 79.2667 20.6394C78.7585 21.5246 78.0782 22.2049 77.2257 22.6804C76.3733 23.1558 75.4552 23.3935 74.4716 23.3935ZM73.7093 20.4918C74.2175 20.4918 74.6847 20.3607 75.111 20.0984C75.5536 19.8361 75.9061 19.4754 76.1684 19.0164C76.4307 18.5574 76.5618 18.041 76.5618 17.4672C76.5618 16.8935 76.4307 16.3853 76.1684 15.9427C75.9061 15.5 75.5536 15.1558 75.111 14.9099C74.6847 14.6476 74.2175 14.5164 73.7093 14.5164C73.0372 14.5164 72.447 14.6722 71.9388 14.9836C71.4307 15.2951 71.07 15.7131 70.8569 16.2377V18.8689C71.447 19.9508 72.3979 20.4918 73.7093 20.4918ZM82.7591 12.3525H86.2017V23.0984H82.7591V12.3525ZM82.6853 8.54101C82.6853 8.03281 82.882 7.61478 83.2755 7.28691C83.6853 6.95904 84.1198 6.79511 84.5788 6.79511C85.0378 6.79511 85.4558 6.95904 85.8329 7.28691C86.2263 7.61478 86.423 8.03281 86.423 8.54101C86.423 9.04921 86.2263 9.46724 85.8329 9.79511C85.4558 10.1066 85.0378 10.2623 84.5788 10.2623C84.1198 10.2623 83.6853 10.1066 83.2755 9.79511C82.882 9.46724 82.6853 9.04921 82.6853 8.54101ZM98.8701 22.1394C98.3947 22.5164 97.7963 22.8197 97.075 23.0492C96.3701 23.2787 95.6734 23.3935 94.9848 23.3935C93.1488 23.3935 91.6734 22.8935 90.5586 21.8935C89.4602 20.8935 88.9111 19.5 88.9111 17.7131C88.9111 16.5164 89.1815 15.5 89.7225 14.664C90.2635 13.8115 90.9684 13.164 91.8373 12.7213C92.7225 12.2787 93.6488 12.0574 94.616 12.0574C95.5832 12.0574 96.4193 12.1886 97.1242 12.4508C97.8455 12.7131 98.4602 13.0574 98.9684 13.4836L97.2963 15.6967C97.0668 15.5164 96.7471 15.3361 96.3373 15.1558C95.9438 14.959 95.4766 14.8607 94.9356 14.8607C94.2307 14.8607 93.6242 15.1312 93.116 15.6722C92.6078 16.1967 92.3537 16.8771 92.3537 17.7131C92.3537 18.5164 92.616 19.1967 93.1406 19.7541C93.6816 20.3115 94.3947 20.5902 95.2799 20.5902C96.034 20.5902 96.657 20.3853 97.1488 19.9754L98.8701 22.1394Z" fill="white"/>
<path d="M27.0492 7.96817L13.3685 0L0.0283832 7.82485L0 23.5892L13.4536 31.5574L27.0492 23.7612V7.96817ZM13.3969 2.40765L23.5013 8.31212L13.4536 14.2166L3.34922 8.31212L13.3969 2.40765ZM12.2332 28.2899L2.07197 22.414V10.6624L12.2048 16.5669V28.2899H12.2332ZM14.8444 16.7389L24.9772 10.8344V22.5574L14.8444 28.4905V16.7389Z" fill="#25C452"/>
</svg>
