<?xml version="1.0" encoding="UTF-8"?>
<svg width="222px" height="222px" viewBox="0 0 222 222" version="1.1" xmlns="http://www.w3.org/2000/svg" xmlns:xlink="http://www.w3.org/1999/xlink">
    <title>Saros-logo-01</title>
    <defs>
        <linearGradient x1="50.005251%" y1="99.650474%" x2="50.005251%" y2="-0.131089306%" id="linearGradient-1">
            <stop stop-color="#7D5DF2" offset="0%"></stop>
            <stop stop-color="#60F9B6" offset="100%"></stop>
        </linearGradient>
    </defs>
    <g id="Landing" stroke="none" stroke-width="1" fill="none" fill-rule="evenodd">
        <path d="M110.623233,24.57 C63.1267442,24.57 24.6232327,63.0735115 24.6232327,110.57 C24.6232327,158.066488 63.1267442,196.57 110.623233,196.57 C158.119721,196.57 196.623233,158.066488 196.623233,110.57 C196.623233,87.7613819 187.562544,65.8869454 171.434416,49.7588168 C155.306287,33.6306883 133.431851,24.57 110.623233,24.57 Z M110.623233,184.360003 C80.7932335,184.368089 53.8958029,166.40569 42.4738168,138.849073 C31.0518307,111.292456 37.3547974,79.5687714 58.443502,58.471486 C79.5322067,37.3742006 111.253324,31.058329 138.814586,42.4691039 C166.375847,53.8798789 184.349187,80.77 184.353235,110.6 C184.358538,130.158796 176.593239,148.918477 162.765894,162.751448 C148.93855,176.584419 130.18203,184.357348 110.623233,184.360003 Z M110.623233,0 C65.883844,-0.00404460416 25.5477227,26.9437342 8.42483149,68.2767659 C-8.69805975,109.609798 0.76462683,157.187555 32.4001521,188.823081 C64.0356773,220.458606 111.613435,229.921292 152.946467,212.798401 C194.279498,195.67551 221.227277,155.339389 221.223233,110.6 C221.217711,49.5195941 171.703639,0.00552189182 110.623233,0 Z M110.623233,208.930002 C70.8555958,208.938089 34.9990514,184.989402 19.774096,148.251605 C4.54914066,111.513807 12.9542125,69.2221275 41.0698881,41.0978713 C69.1855638,12.973615 111.474677,4.55563865 148.217118,19.7693831 C184.959559,34.9831275 208.919187,70.8323625 208.923233,110.6 C208.923233,164.894446 164.917676,208.913435 110.623233,208.930002 Z M110.623233,24.57 C63.1267442,24.57 24.6232327,63.0735115 24.6232327,110.57 C24.6232327,158.066488 63.1267442,196.57 110.623233,196.57 C158.119721,196.57 196.623233,158.066488 196.623233,110.57 C196.623233,63.0735115 158.119721,24.57 110.623233,24.57 Z M110.623233,184.360003 C80.7932335,184.368089 53.8958029,166.40569 42.4738168,138.849073 C31.0518307,111.292456 37.3547974,79.5687714 58.443502,58.471486 C79.5322067,37.3742006 111.253324,31.058329 138.814586,42.4691039 C166.375847,53.8798789 184.349187,80.77 184.353235,110.6 C184.358538,130.158796 176.593239,148.918477 162.765894,162.751448 C148.93855,176.584419 130.18203,184.357348 110.623233,184.360003 L110.623233,184.360003 Z M110.623233,24.57 C63.1267442,24.57 24.6232327,63.0735115 24.6232327,110.57 C24.6232327,158.066488 63.1267442,196.57 110.623233,196.57 C158.119721,196.57 196.623233,158.066488 196.623233,110.57 C196.623233,63.0735115 158.119721,24.57 110.623233,24.57 Z M110.623233,184.360003 C80.7932335,184.368089 53.8958029,166.40569 42.4738168,138.849073 C31.0518307,111.292456 37.3547974,79.5687714 58.443502,58.471486 C79.5322067,37.3742006 111.253324,31.058329 138.814586,42.4691039 C166.375847,53.8798789 184.349187,80.77 184.353235,110.6 C184.358538,130.158796 176.593239,148.918477 162.765894,162.751448 C148.93855,176.584419 130.18203,184.357348 110.623233,184.360003 L110.623233,184.360003 Z" id="Saros-logo-01" fill="url(#linearGradient-1)" fill-rule="nonzero"></path>
    </g>
</svg>