<svg width="500" height="500" viewBox="0 0 500 500" fill="none" xmlns="http://www.w3.org/2000/svg">
<path fill-rule="evenodd" clip-rule="evenodd" d="M500 250C500 388.071 388.071 500 250 500C111.929 500 0 388.071 0 250C0 111.929 111.929 0 250 0C388.071 0 500 111.929 500 250Z" fill="white"/>
<path fill-rule="evenodd" clip-rule="evenodd" d="M346.33 189.654C346.33 189.771 346.329 189.888 346.328 190.005V189.46H262.94C262.155 179.132 253.527 170.997 242.998 170.997C231.953 170.997 222.999 179.951 222.999 190.997C222.999 200.906 230.205 209.132 239.663 210.72V287.92H239.769L239.665 287.92C180.756 287.92 133 243.838 133 189.46C133 135.082 180.756 91 239.665 91C298.574 91 346.33 135.082 346.33 189.46C346.33 189.525 346.33 189.589 346.33 189.654Z" fill="black"/>
<path fill-rule="evenodd" clip-rule="evenodd" d="M154.003 311.309C154.003 311.136 154.003 310.964 154.004 310.793L154.004 311.308L237.393 311.308C238.178 321.635 246.807 329.77 257.335 329.77C268.38 329.77 277.334 320.816 277.334 309.77C277.334 299.861 270.128 291.635 260.669 290.047L260.669 212.849C319.578 212.849 367.333 256.931 367.333 311.309C367.333 365.687 319.577 409.769 260.668 409.769C201.758 409.769 154.003 365.687 154.003 311.309Z" fill="black"/>
</svg>
