<svg xmlns="http://www.w3.org/2000/svg" xmlns:xlink="http://www.w3.org/1999/xlink" viewBox="0 0 394 394"><defs><style>.cls-1{fill:url(#radial-gradient);}.cls-2{fill:url(#linear-gradient);}.cls-3{fill:url(#linear-gradient-2);}.cls-4{fill:url(#linear-gradient-3);}.cls-5{fill:url(#linear-gradient-4);}.cls-6{fill:url(#linear-gradient-5);}.cls-7{fill:url(#linear-gradient-6);}.cls-8{fill:url(#linear-gradient-7);}.cls-9{fill:url(#linear-gradient-8);}.cls-10{fill:url(#linear-gradient-9);}.cls-11{fill:url(#linear-gradient-10);}.cls-12{fill:url(#linear-gradient-11);}.cls-13{fill:url(#linear-gradient-12);}.cls-14{fill:url(#linear-gradient-13);}.cls-15{fill:url(#linear-gradient-14);}.cls-16{fill:url(#linear-gradient-15);}.cls-17{fill:url(#linear-gradient-16);}.cls-18{fill:url(#linear-gradient-17);}.cls-19{fill:url(#linear-gradient-18);}.cls-20{fill:url(#linear-gradient-19);}.cls-21{fill:url(#linear-gradient-20);}</style><radialGradient id="radial-gradient" cx="197" cy="197" r="197" gradientUnits="userSpaceOnUse"><stop offset="0" stop-color="#f1f2f2" stop-opacity="0"/><stop offset="0" stop-color="#f1f2f2" stop-opacity="0.01"/><stop offset="0" stop-color="#f1f2f2" stop-opacity="0.03"/><stop offset="0" stop-color="#f2f3f3" stop-opacity="0.08"/><stop offset="0" stop-color="#f3f4f4" stop-opacity="0.15"/><stop offset="0" stop-color="#f4f5f5" stop-opacity="0.23"/><stop offset="0" stop-color="#f6f6f6" stop-opacity="0.34"/><stop offset="0" stop-color="#f8f8f8" stop-opacity="0.47"/><stop offset="0" stop-color="#fafafa" stop-opacity="0.61"/><stop offset="0" stop-color="#fcfcfc" stop-opacity="0.78"/><stop offset="0" stop-color="#feffff" stop-opacity="0.96"/><stop offset="0" stop-color="#fff"/><stop offset="0.87" stop-color="#fff"/><stop offset="1" stop-color="#fff"/></radialGradient><linearGradient id="linear-gradient" x1="410.15" y1="177.96" x2="464.3" y2="177.96" gradientUnits="userSpaceOnUse"><stop offset="0" stop-color="#ecb1cc"/><stop offset="0.49" stop-color="#26a8e0"/><stop offset="1" stop-color="#26215a"/></linearGradient><linearGradient id="linear-gradient-2" x1="421.14" y1="223.59" x2="468.28" y2="223.59" gradientUnits="userSpaceOnUse"><stop offset="0" stop-color="#26a8e0"/><stop offset="1" stop-color="#26215a"/></linearGradient><linearGradient id="linear-gradient-3" x1="466.37" y1="192.87" x2="466.4" y2="192.87" xlink:href="#linear-gradient"/><linearGradient id="linear-gradient-4" x1="386.4" y1="198.93" x2="386.96" y2="198.93" xlink:href="#linear-gradient"/><linearGradient id="linear-gradient-5" x1="380.5" y1="199.95" x2="382.47" y2="199.95" xlink:href="#linear-gradient"/><linearGradient id="linear-gradient-6" x1="345.56" y1="151.17" x2="347.81" y2="151.17" xlink:href="#linear-gradient"/><linearGradient id="linear-gradient-7" x1="354.1" y1="216.75" x2="378.36" y2="216.75" xlink:href="#linear-gradient"/><linearGradient id="linear-gradient-8" x1="483.44" y1="345.16" x2="322.97" y2="345.16" xlink:href="#linear-gradient"/><linearGradient id="linear-gradient-9" x1="308.52" y1="213.26" x2="386.51" y2="213.26" gradientUnits="userSpaceOnUse"><stop offset="0.26" stop-color="#ecb1cc"/><stop offset="1" stop-color="#26a8e0"/></linearGradient><linearGradient id="linear-gradient-10" x1="301.79" y1="394.76" x2="492.58" y2="394.76" xlink:href="#linear-gradient"/><linearGradient id="linear-gradient-11" x1="386.44" y1="372.49" x2="298.95" y2="372.49" xlink:href="#linear-gradient"/><linearGradient id="linear-gradient-12" x1="382.75" y1="216.98" x2="344.7" y2="151.09" gradientUnits="userSpaceOnUse"><stop offset="0.47" stop-color="#26a8e0"/><stop offset="1" stop-color="#26215a"/></linearGradient><linearGradient id="linear-gradient-13" x1="466.12" y1="192.81" x2="466.4" y2="192.81" xlink:href="#linear-gradient"/><linearGradient id="linear-gradient-14" x1="431.77" y1="253.23" x2="452.39" y2="253.23" xlink:href="#linear-gradient"/><linearGradient id="linear-gradient-15" x1="416.86" y1="263.26" x2="423.53" y2="263.26" xlink:href="#linear-gradient"/><linearGradient id="linear-gradient-16" x1="355.06" y1="226.63" x2="355.26" y2="226.63" xlink:href="#linear-gradient"/><linearGradient id="linear-gradient-17" x1="355.26" y1="225.26" x2="355.83" y2="225.26" xlink:href="#linear-gradient"/><linearGradient id="linear-gradient-18" x1="464.55" y1="194.24" x2="350.23" y2="194.24" xlink:href="#linear-gradient"/><linearGradient id="linear-gradient-19" x1="473.18" y1="219.03" x2="354.06" y2="219.03" xlink:href="#linear-gradient"/><linearGradient id="linear-gradient-20" x1="364.36" y1="227.55" x2="447.14" y2="227.55" xlink:href="#linear-gradient"/></defs><g id="Layer_2" data-name="Layer 2"><circle class="cls-1" cx="197" cy="197" r="197"/></g><g id="Layer_1" data-name="Layer 1"><path class="cls-2" d="M454.27,179.5a59.59,59.59,0,0,0-17.48-10,59.56,59.56,0,0,0-20.36-3.62,52.34,52.34,0,0,0-5.3.24c-.33,0-.65.06-1,.09A186.18,186.18,0,0,0,422.75,184c1.8-.05,3.59,0,5.36.07h0a36.66,36.66,0,0,1,4.25-1.27l1.09-.23c.28-.07.57-.12.85-.17s.48-.09.73-.12a1.47,1.47,0,0,1,.29-.05l.86-.12.94-.11c.29,0,.61-.06.91-.08a34.73,34.73,0,0,1,4.2-.09l.86,0,.83.06a32.49,32.49,0,0,1,3.43.45c.66.12,1.3.25,1.95.4s1.59.39,2.36.63c.4.12.79.24,1.17.38s.76.26,1.14.41c.76.27,1.51.59,2.26.93s1.46.69,2.18,1.07,1.18.65,1.76,1l.68.42c.89.57,1.77,1.17,2.61,1.82l.69.53.14.11A59,59,0,0,0,454.27,179.5Z" transform="translate(-197.4 -109)"/><path class="cls-3" d="M467.17,235.22c-.26-1.32-.56-2.64-.9-3.95a59.54,59.54,0,0,0-45.13-42.94q.09,7.21.05,14.42a37.45,37.45,0,0,1,15.47,7.78,37.29,37.29,0,0,1,12.41,36.3,35.2,35.2,0,0,0-.17-17.21,36.9,36.9,0,0,0-7-13.83l.92.65h0a59.6,59.6,0,0,1,7.3,6.28,59.44,59.44,0,0,1,15.14,26.52,60.94,60.94,0,0,1,1.74,9.6A58.88,58.88,0,0,0,467.17,235.22Z" transform="translate(-197.4 -109)"/><path class="cls-4" d="M466.38,192.89h0a.07.07,0,0,1,0,0l0,.08Z" transform="translate(-197.4 -109)"/><path class="cls-5" d="M387,198.89l-.56.07h0Z" transform="translate(-197.4 -109)"/><path class="cls-6" d="M382.47,199.68c-.67.16-1.32.35-2,.54C381.15,200,381.81,199.85,382.47,199.68Z" transform="translate(-197.4 -109)"/><path class="cls-7" d="M347.81,149.79c-.68.78-1.35,1.59-2,2.41l-.27.34.22-.33a11.78,11.78,0,0,1,.94-1.26A15,15,0,0,1,347.81,149.79Z" transform="translate(-197.4 -109)"/><path class="cls-8" d="M378.36,200.93c-.9.34-1.78.7-2.65,1.1-.25.1-.49.22-.72.33s-.63.31-.94.47a35.61,35.61,0,0,0-5.4,3.46h0c-.37.28-.72.56-1.07.86l-.59.5c-.19.15-.38.32-.57.49s-.3.26-.44.39-.52.48-.77.73-.27.27-.4.4a5,5,0,0,0-.39.41c-.14.13-.26.26-.39.4s-.44.46-.63.7-.53.59-.78.9a.81.81,0,0,0-.12.14c-.28.33-.55.67-.82,1l-.14.19c-.22.29-.44.59-.65.89a3.6,3.6,0,0,0-.28.4c-.19.26-.37.52-.54.79-.4.6-.78,1.22-1.13,1.84-.16.27-.31.55-.46.82a.21.21,0,0,0-.06.1c-.37.68-.72,1.38-1,2.09s-.61,1.35-.87,2c-.12.28-.22.56-.32.84l-.36,1.05c-.18.54-.35,1.09-.5,1.65a35.37,35.37,0,0,0-1,4.85c-.06.37-.1.74-.14,1.12,0,.22-.05.44-.07.67,0-.79.12-1.57.2-2.35a.36.36,0,0,1,0-.1,58.7,58.7,0,0,1,1.56-8.42,0,0,0,0,1,0,0,59.12,59.12,0,0,1,5.37-8.06l.51-.65a33.18,33.18,0,0,1,2.59-3,34.68,34.68,0,0,1,2.66-2.48c.22-.2.44-.38.67-.56.42-.34.85-.67,1.29-1l.78-.56.95-.65.08-.05,1-.6c1-.62,2.06-1.19,3.14-1.71l.05,0A36.71,36.71,0,0,1,378.36,200.93Z" transform="translate(-197.4 -109)"/><path class="cls-9" d="M483.44,346.59a96.87,96.87,0,0,1-96.86,96.86c-1.61,0-3.21,0-4.81-.12l-1.07-.06c-1.31-.07-2.61-.18-3.9-.31q-1.2-.12-2.4-.27c-1.71-.21-3.4-.47-5.08-.78q-1-.17-1.89-.36c-1.43-.28-2.85-.6-4.25-.95-.74-.18-1.47-.38-2.2-.58s-1.29-.36-1.93-.55l-.45-.13-2-.64c-.73-.23-1.45-.48-2.17-.73-1.43-.51-2.86-1.05-4.26-1.62l.81.3h0a95.16,95.16,0,0,0,20.15,5c1.08.15,2.15.29,3.24.4a96.95,96.95,0,0,0,54.57-10.2c1.18-.6,2.35-1.24,3.5-1.89A59.57,59.57,0,0,0,409.1,319.44l-1.72-.16-.75-.08h-.05a96.63,96.63,0,0,1-61.88-31.79,0,0,0,0,1,0,0,96.76,96.76,0,0,1-13.82-20c-.28-.53-.55-1.08-.82-1.62a95.62,95.62,0,0,1-6.81-18.23,2.42,2.42,0,0,0-.27-.64,59.64,59.64,0,0,0,63.54,25.94c1.06.14,2.14.23,3.23.27h-.22c-.59,0-1.18.08-1.77.14.62-.05,1.24-.1,1.87-.13h.12c.35,0,.7-.05,1.06-.06.74,0,1.48-.07,2.23-.09s1.44,0,2.17,0h.57c.88,0,1.77,0,2.64,0,1,0,2.07.07,3.1.14.74,0,1.47.09,2.21.15h.06c.79.07,1.58.14,2.37.23.23,0,.46,0,.68.08.59.06,1.17.13,1.75.21.36,0,.72.09,1.07.15.52.07,1,.15,1.55.24.21,0,.42.06.63.1.6.09,1.2.2,1.79.32l1.08.21c.54.1,1.07.21,1.6.33l.51.11c.55.12,1.11.24,1.66.38l1.13.28,2,.54c.66.18,1.31.37,2,.57,1.15.34,2.28.7,3.41,1.09.67.23,1.34.46,2,.71,2.23.81,4.41,1.71,6.56,2.68.56.25,1.11.5,1.66.77l.65.31c.45.21.89.43,1.33.66l.87.44c.36.18.73.38,1.09.58s.76.4,1.13.6l1,.54c.39.22.78.44,1.16.67s.62.36.93.56.86.5,1.28.77l.66.42c.45.27.9.56,1.34.85s.59.38.88.59q2.93,1.95,5.7,4.12,1,.76,1.95,1.56c.65.53,1.29,1.07,1.93,1.62s1.24,1.09,1.84,1.64,1.46,1.35,2.18,2.05c.48.46.95.93,1.42,1.41s1,1,1.45,1.49c.25.27.5.53.74.8.4.42.8.86,1.19,1.29a2.09,2.09,0,0,1,.14.17c.39.43.78.87,1.15,1.31l1.24,1.47c.5.6,1,1.2,1.46,1.81s.88,1.13,1.31,1.71c.07.08.13.17.2.26.37.5.74,1,1.09,1.51s.55.76.81,1.15.55.78.81,1.18.71,1.06,1.05,1.59l.69,1.09c.12.18.23.37.34.55.24.37.46.75.69,1.13.56.92,1.09,1.86,1.61,2.8A96.79,96.79,0,0,1,483.44,346.59Z" transform="translate(-197.4 -109)"/><path class="cls-10" d="M386.51,272.8A59.64,59.64,0,0,1,323,246.86h0a2.4,2.4,0,0,0-1.68-1.09,14.88,14.88,0,0,1-10-23.41c.39-.46.77-.93,1.13-1.4s.88-1.15,1.3-1.73a58.91,58.91,0,0,0,8.49-16.66c.08-.41.17-.82.26-1.23a.35.35,0,0,1,0-.06,0,0,0,0,0,0,0c.35-1.53.73-3,1.15-4.54,0,0,0,0,0,0,.09-.44.18-.89.26-1.34q.49-2.64.76-5.37a3.44,3.44,0,0,0-.3-1.76,7.37,7.37,0,0,0-2.87-3.18,7.58,7.58,0,0,0-.74-.4,5.06,5.06,0,0,0-.92-.37,7.45,7.45,0,0,1-3.57-3.48,2.93,2.93,0,0,1-.15-2.12c.18-.58.37-1.16.57-1.72a.42.42,0,0,1,.34-.26,2.59,2.59,0,0,0,1.75-4.18.23.23,0,0,1,0-.26,1,1,0,0,1,.13-.23,1.49,1.49,0,0,1,1.24-.66h.13a1.46,1.46,0,0,1-.27-.85,1.41,1.41,0,0,1,.26-.83,1.34,1.34,0,0,1,.63-.52,1.5,1.5,0,0,0,.88.29,1.4,1.4,0,0,0,.61-.14,1.49,1.49,0,0,0,.89-1.36,1.39,1.39,0,0,0-.13-.61,1.26,1.26,0,0,0-.13-.23,2,2,0,0,1-.23-.93v-.07a2,2,0,0,1,1.65-1.92l.1,0a.07.07,0,0,1,.06.05,2.28,2.28,0,0,0,1.9,1h.12a2.24,2.24,0,0,0,1.45-.63h0a22.32,22.32,0,0,1,17.71-12.37l-.22.33c-.06.08-.1.15-.15.23h0c-.63.82-1.23,1.66-1.81,2.51-.2.28-.39.57-.58.86-.39.58-.76,1.16-1.11,1.75q-1.17,1.9-2.18,3.89c-.27.52-.53,1.05-.78,1.58s-.51,1.09-.75,1.65l-.27.62c-.2.46-.39.93-.57,1.4-.33.82-.64,1.65-.92,2.49-.13.37-.25.74-.37,1.12-.08.23-.16.47-.22.71s-.18.58-.26.87c-.16.52-.31,1.05-.44,1.59s-.21.79-.3,1.19-.14.58-.2.87-.1.42-.14.64c-.12.57-.24,1.15-.34,1.73a.5.5,0,0,0,0,.12c-.11.59-.2,1.18-.29,1.78-.16,1.09-.3,2.2-.39,3.31,0,.28-.05.55-.07.83-.05.58-.08,1.16-.11,1.74l0,.71c0,.24,0,.48,0,.72,0,.47,0,.95,0,1.43,0,.63,0,1.26,0,1.88,0,.09,0,.19,0,.28h0c0,.53,0,1.06.08,1.58s.07,1.1.12,1.65l.06.57c0,.4.08.79.13,1.18,0,.22.05.43.08.64.05.44.11.87.19,1.3a2.7,2.7,0,0,0,0,.28c.08.57.18,1.13.29,1.69s.22,1.11.34,1.67a1.16,1.16,0,0,0,0,.18c.12.57.26,1.13.4,1.7s.27,1,.41,1.55c.09.31.18.63.28.94.21.71.43,1.41.67,2.11.08.25.17.49.26.74l.12.34c.41,1.14.85,2.25,1.33,3.35.21.48.43,1,.65,1.44s.36.77.56,1.16.42.87.66,1.3c.05.13.12.25.18.37l.55,1c.15.28.31.55.47.82l.08.14c.2.35.41.7.62,1s.55.9.84,1.34q.81,1.26,1.68,2.46c.23.32.45.63.69.94.36.48.73,1,1.1,1.43l0,0c.24.29.47.58.71.86.44.53.89,1.06,1.34,1.57l.75.82.84.89c.2.21.4.42.62.63l1,1,.53.51.54.49c.38.36.76.71,1.16,1h0l.2.17.2.18q0,.33,0,.66c0,.36,0,.71,0,1.07a37,37,0,0,0,4,16.77c.2.4.41.8.63,1.19A37.17,37.17,0,0,0,386.51,272.8Z" transform="translate(-197.4 -109)"/><path class="cls-11" d="M492.58,369.74a96.87,96.87,0,0,1-96.86,96.86q-1.14,0-2.25,0c-1.56,0-3.12-.1-4.66-.22l-1.37-.1-1.72-.16q-1.17-.12-2.34-.27c-.81-.1-1.61-.21-2.41-.34l-.15,0c-.68-.1-1.36-.22-2-.33l-.55-.1-2-.4-.2,0c-.65-.13-1.29-.27-1.94-.42-1.51-.35-3-.73-4.49-1.14l-1.39-.4,0,0c-.5-.14-1-.3-1.51-.46a95.48,95.48,0,0,1-15.34-6.32c-.51-.26-1-.54-1.54-.82l-.18-.1-1.29-.71c-1-.55-2-1.12-2.95-1.72-.46-.28-.93-.57-1.38-.87-2.19-1.38-4.32-2.86-6.39-4.41L336,446l-.26-.21c-.49-.38-1-.77-1.45-1.17-.77-.62-1.52-1.26-2.27-1.91l-1.18-1.05c-1.29-1.16-2.54-2.36-3.77-3.59-.5-.5-1-1-1.47-1.51s-.85-.91-1.27-1.36l-.77-.85c-.89-1-1.75-2-2.6-3-.57-.69-1.13-1.4-1.69-2.11l-.54-.71c-.73-.94-1.44-1.89-2.12-2.86-.4-.57-.8-1.14-1.19-1.73-1.38-2-2.69-4.14-3.91-6.29-.39-.67-.76-1.35-1.13-2s-.71-1.35-1.05-2c-.22-.42-.43-.84-.64-1.27s-.38-.78-.56-1.18-.34-.7-.49-1.05-.36-.77-.52-1.16-.32-.69-.47-1.05-.37-.88-.55-1.32-.32-.77-.47-1.15l-.24-.62c-.23-.58-.45-1.16-.66-1.75-.29-.79-.57-1.59-.84-2.39s-.54-1.63-.79-2.45-.46-1.54-.68-2.32-.42-1.56-.62-2.35a.15.15,0,0,1,0-.09,97.31,97.31,0,0,0,36.28,37,55.63,55.63,0,0,0,5.15,2.94c1.84.88,3.71,1.69,5.62,2.45l.5.19.81.32c1.4.57,2.83,1.11,4.26,1.62.72.25,1.44.5,2.17.73l2,.64.45.13c.64.19,1.29.38,1.93.55s1.46.4,2.2.58c1.4.35,2.82.67,4.25.95q.93.19,1.89.36c1.68.31,3.37.57,5.08.78q1.2.15,2.4.27c1.29.13,2.59.24,3.9.31l1.07.06c1.6.08,3.2.12,4.81.12a96.93,96.93,0,0,0,93.94-120.54l.14.24c.23.43.47.86.69,1.3.63,1.18,1.23,2.37,1.81,3.58.27.56.54,1.13.79,1.71.63,1.36,1.22,2.75,1.77,4.14.13.32.26.65.38,1s.32.84.48,1.26c.5,1.36,1,2.74,1.42,4.13.16.5.32,1,.47,1.5.38,1.25.73,2.51,1.06,3.78.17.67.34,1.33.49,2l.15.64c.15.68.3,1.36.44,2.05s.26,1.27.37,1.91c.06.29.11.58.16.87.11.66.22,1.32.32,2s.24,1.6.34,2.41.19,1.56.27,2.34q.35,3.35.45,6.75c0,.44,0,.89,0,1.33C492.57,368.46,492.58,369.1,492.58,369.74Z" transform="translate(-197.4 -109)"/><path class="cls-12" d="M338.07,430.45a58.48,58.48,0,0,1-6.71-5,59.39,59.39,0,0,1-20.59-39.75c-.09-.89-.15-1.79-.19-2.7a14.83,14.83,0,0,1,7.27-12.51l.29-.17,0,0a14.62,14.62,0,0,1,5.78-1.86,13.82,13.82,0,0,1,1.58-.09,14.76,14.76,0,0,1,4.43.67l.69.23a15.72,15.72,0,0,1,1.91.87,14.86,14.86,0,0,1,7.86,13.12,14.63,14.63,0,0,1-.58,4.11.56.56,0,0,1,0,.12,14.86,14.86,0,0,1-7.54,9.05A22.33,22.33,0,0,0,365.06,386l.06-.16a22.13,22.13,0,0,0,1.49-8,22.32,22.32,0,0,0-19.26-22.11,21,21,0,0,0-3.08-.22l-.93,0a22.35,22.35,0,0,0-4.36.61,21.56,21.56,0,0,0,4.2-1.56,22.37,22.37,0,0,0,9-8l.29-.45a22.28,22.28,0,0,0,3.23-11.59,21.85,21.85,0,0,0-.24-3.26,22.36,22.36,0,0,1,31,12.89A37.23,37.23,0,0,0,350,314.53c-.64,0-1.28,0-1.92.05-.31,0-.63,0-.94.06q-1.45.12-2.88.36l0,0a35.86,35.86,0,0,0-6,1.44c-1.68.6-3.31,1.28-4.91,2-1.26.59-2.47,1.23-3.67,1.89a59.51,59.51,0,0,0-14.14,10.86c-.73.75-1.43,1.52-2.11,2.31h0c-.81.94-1.59,1.9-2.34,2.89a59.28,59.28,0,0,0-12.15,36c0,.51,0,1,0,1.52q0,.38,0,.75l0,.69c0,.6.07,1.19.11,1.78s.08.93.13,1.39c0,.15,0,.29,0,.44s0,.43.07.64.05.42.08.63c.05.51.11,1,.17,1.53l.12,1c.08.58.16,1.15.25,1.73s.19,1.22.29,1.82c.14.81.29,1.61.45,2.41.3,1.56.65,3.11,1.05,4.66A97.31,97.31,0,0,0,338.07,430.45Z" transform="translate(-197.4 -109)"/><path class="cls-13" d="M390.91,157.4a58.53,58.53,0,0,0-9.59,4.17,59.6,59.6,0,0,0-27.68,72.21l-1.16-1-.54-.49-.53-.51-1-1c-.22-.21-.42-.42-.62-.63l-.84-.89-.75-.82c-.45-.51-.9-1-1.34-1.57-.24-.28-.47-.57-.71-.86l0,0c-.37-.47-.74-.95-1.1-1.43-.24-.31-.46-.62-.69-.94q-.87-1.2-1.68-2.46c-.29-.44-.57-.89-.84-1.34s-.42-.69-.62-1l-.08-.14c-.16-.27-.32-.54-.47-.82l-.55-1c-.06-.12-.13-.24-.18-.37-.23-.43-.45-.86-.66-1.3s-.38-.77-.56-1.16-.44-1-.65-1.44c-.48-1.1-.92-2.21-1.33-3.35l-.12-.34c-.09-.25-.18-.49-.26-.74-.24-.7-.46-1.4-.67-2.11-.1-.31-.19-.63-.28-.94-.14-.52-.28-1-.41-1.55s-.28-1.13-.4-1.7a1.16,1.16,0,0,1,0-.18c-.12-.56-.24-1.11-.34-1.67s-.2-1.12-.29-1.69a2.7,2.7,0,0,1,0-.28c-.07-.43-.14-.86-.19-1.3,0-.21-.06-.42-.08-.64-.05-.39-.09-.78-.13-1.18l-.06-.57q-.07-.82-.12-1.65c0-.52-.06-1-.08-1.58h0c0-.09,0-.19,0-.28,0-.62,0-1.25,0-1.88,0-.48,0-1,0-1.43,0-.24,0-.48,0-.72s0-.47,0-.71c0-.58.06-1.16.11-1.74,0-.28,0-.56.07-.83.09-1.11.23-2.22.39-3.31.09-.6.18-1.19.29-1.78a.5.5,0,0,1,0-.12c.1-.58.22-1.16.34-1.73,0-.22.09-.43.14-.64s.13-.58.2-.87.19-.8.3-1.19.28-1.07.44-1.59c.08-.29.17-.58.26-.87s.14-.48.22-.71c.12-.38.24-.75.37-1.12.28-.84.59-1.67.92-2.49.18-.47.37-.94.57-1.4l.27-.62q.36-.83.75-1.65c.25-.53.51-1.06.78-1.58q1-2,2.18-3.89c.36-.59.73-1.17,1.11-1.75l.58-.86c.58-.85,1.18-1.69,1.81-2.51h0c0-.08.09-.15.15-.23l.27-.34c.63-.82,1.3-1.63,2-2.41l0,0a14.87,14.87,0,0,1,10.27-4.11h.37A14.63,14.63,0,0,1,366.1,148q.48.3.93.63l.1.07c.25.2.49.39.73.61l.07.06.14.11A37.1,37.1,0,0,0,390.91,157.4Z" transform="translate(-197.4 -109)"/><path class="cls-14" d="M466.4,193c-.09-.14-.18-.28-.28-.41l.26.28h0S466.39,193,466.4,193Z" transform="translate(-197.4 -109)"/><path class="cls-15" d="M452.39,244.29a37.31,37.31,0,0,1-20.62,17.87A40.2,40.2,0,0,0,452.39,244.29Z" transform="translate(-197.4 -109)"/><path class="cls-16" d="M416.86,264.18c2.63-.65,6-1.66,6.67-1.87a57.4,57.4,0,0,1-6.17,1.9A4.19,4.19,0,0,1,416.86,264.18Z" transform="translate(-197.4 -109)"/><path class="cls-17" d="M355.26,226.23c-.08.26-.14.54-.2.81.05-.2.09-.41.14-.61Z" transform="translate(-197.4 -109)"/><path class="cls-18" d="M355.44,225.58c-.07.21-.13.43-.18.65,0-.1,0-.2.07-.3s.1-.39.17-.58c.11-.36.21-.71.33-1.07C355.69,224.71,355.56,225.14,355.44,225.58Z" transform="translate(-197.4 -109)"/><path class="cls-19" d="M464.55,190.42l-.11-.14c-.09-.11-.17-.22-.27-.33h0a2.88,2.88,0,0,0-.27-.34c-.67-.82-1.38-1.61-2.12-2.36q-.28-.3-.57-.57c-.48-.48-1-.94-1.48-1.38s-1.24-1.06-1.88-1.55-1.31-1-2-1.42c-.34-.23-.67-.45-1-.66s-.69-.43-1-.63c-.7-.41-1.43-.8-2.16-1.16s-1.19-.57-1.8-.83c-1.05-.46-2.14-.87-3.24-1.23l-.79-.24-.83-.24a34.85,34.85,0,0,0-4.11-.87c-.3-.05-.61-.1-.91-.13l-.94-.11-.86-.08-.29,0-.74-.05-.87,0-1.11,0a38.05,38.05,0,0,0-4.43.26h0a59.31,59.31,0,0,0-15.52-2.47l-1.56,0A59.57,59.57,0,0,0,354.06,233c0-.15,0-.31,0-.46s0-.45.07-.67c0-.38.08-.75.14-1.12s.1-.63.15-.95c.12-.67.25-1.33.41-2a36.7,36.7,0,0,0-.81,5.87v0c0,.13,0,.27,0,.4l-.2-.18-.2-.18a59.66,59.66,0,0,1,27.68-72.21,58.53,58.53,0,0,1,9.59-4.17,59.33,59.33,0,0,1,14.49-2.9c1.45-.11,2.91-.16,4.39-.16q2.52,0,5,.21c1.18.09,2.35.22,3.5.4q2.64.36,5.21,1a59.38,59.38,0,0,1,19,8.18,59.6,59.6,0,0,1,14.72,13.74A58.88,58.88,0,0,1,464.55,190.42Z" transform="translate(-197.4 -109)"/><path class="cls-20" d="M473.18,233.35c0,1.36-.05,2.71-.14,4.05a58.94,58.94,0,0,1-6.24,22.79,60,60,0,0,0,.79-9.72,59.14,59.14,0,0,0-2.09-15.67A58.37,58.37,0,0,0,459.77,221a59.39,59.39,0,0,0-5.44-7.95h0c-.23-.29-.47-.58-.72-.86a36.85,36.85,0,0,1,2.25,6.67,37.71,37.71,0,0,1,1,8.49A35.06,35.06,0,0,1,452.56,244l-.17.32a40.2,40.2,0,0,1-20.62,17.87,37,37,0,0,1-12.37,2.11q-1,0-2-.06a57.4,57.4,0,0,0,6.17-1.9l.07,0,0,0a37.28,37.28,0,0,0,23.23-30.19,37.88,37.88,0,0,0,.26-4.42c0-.57,0-1.13-.05-1.7,0-.39,0-.77-.06-1.15s0-.63-.09-.95-.05-.55-.09-.82-.05-.42-.08-.63,0-.33-.07-.49,0-.09,0-.13c-.05-.33-.1-.64-.17-1-.16-.89-.36-1.77-.59-2.64-.07-.25-.14-.51-.22-.76a1.17,1.17,0,0,0-.07-.25c-.05-.18-.1-.35-.16-.53h0c-.1-.34-.2-.66-.32-1s-.28-.81-.44-1.22c0-.11-.08-.22-.13-.34s-.19-.48-.29-.72q-.24-.59-.51-1.17c-.16-.34-.32-.68-.49-1s-.37-.73-.57-1.1l-.34-.62c-.31-.57-.65-1.12-1-1.67-.14-.24-.29-.47-.45-.7s-.44-.66-.68-1c-.38-.53-.77-1.05-1.18-1.56-.2-.26-.41-.52-.63-.77l-.24-.3-.27-.3-.37-.42q-.46-.51-1-1l-.68-.68c-.39-.39-.79-.76-1.2-1.12-.18-.17-.36-.33-.54-.47-.72-.63-1.46-1.22-2.23-1.78l-.85-.61c-.22-.16-.44-.31-.67-.45s-.56-.37-.84-.54l-.55-.34c-.74-.45-1.49-.86-2.26-1.25-.39-.2-.78-.4-1.18-.58h0c-.41-.2-.82-.38-1.24-.55s-.84-.34-1.27-.51h0A57.69,57.69,0,0,0,411.28,191c-.34,0-.69,0-1,0-.73,0-1.47-.05-2.21-.05-.91,0-1.82,0-2.72.07l-.58,0-1.44.09-.69.06a58.38,58.38,0,0,0-7.3,1.11c-.79.18-1.57.37-2.35.57A59.45,59.45,0,0,0,364.36,210a33.18,33.18,0,0,0-2.59,3l-.51.65a59.12,59.12,0,0,0-5.37,8.06,0,0,0,0,0,0,0,58.7,58.7,0,0,0-1.56,8.42.36.36,0,0,0,0,.1c-.08.78-.15,1.56-.2,2.35,0,.15,0,.31,0,.46a59.59,59.59,0,0,1,76.64-56.75h0a58.14,58.14,0,0,1,9.44,3.74A59.54,59.54,0,0,1,473.18,233.35Z" transform="translate(-197.4 -109)"/><path class="cls-21" d="M447.14,227.66a37.88,37.88,0,0,1-.26,4.42,37.28,37.28,0,0,1-23.23,30.19l0,0-.07,0c-.66.21-4,1.22-6.67,1.87-.48,0-.95-.07-1.42-.12a37.1,37.1,0,0,0,12.88-27.4c0-.25,0-.51,0-.77a37.16,37.16,0,0,0-10.9-26.33c-.21-.22-.42-.43-.64-.62s-.43-.42-.65-.61l-.67-.59-.51-.43c-.35-.29-.69-.57-1-.84s-.71-.54-1.07-.79l-.2-.15c-.35-.26-.71-.5-1.08-.74s-.85-.56-1.29-.81-.7-.42-1.06-.62l-.09,0-.22-.12-1-.51,0,0-.36-.18-.63-.29-.3-.14-.66-.31-.4-.16a10.86,10.86,0,0,0-1-.41L404,201l-.8-.29-.93-.31c-.63-.2-1.26-.38-1.9-.54l-1-.23c-.48-.11-1-.22-1.47-.31s-1-.18-1.48-.25l-1-.13-.45,0-.64-.06-1.09-.08a5.07,5.07,0,0,0-.55,0l-.56,0-1.11,0h-.7c-.4,0-.8,0-1.19,0s-1,.06-1.54.11l-.71.07-.55.06h0l-.17,0q-.69.09-1.38.21c-.4.07-.8.14-1.2.23s-.79.16-1.18.26a36.6,36.6,0,0,0-7.53,2.67l-.05,0a31.81,31.81,0,0,0-3.14,1.71l-1,.6-.08.05c-.32.21-.64.42-.95.65L369,206c-.44.33-.87.66-1.29,1-.23.18-.45.36-.67.56a34.68,34.68,0,0,0-2.66,2.48A59.45,59.45,0,0,1,393,192.84c.78-.2,1.56-.39,2.35-.57a58.38,58.38,0,0,1,7.3-1.11l.69-.06,1.44-.09.58,0c.9,0,1.81-.07,2.72-.07.74,0,1.48,0,2.21.05.35,0,.7,0,1,0A57.69,57.69,0,0,1,423,192.83h0c.43.17.85.33,1.27.51s.83.35,1.24.55h0c.4.18.79.38,1.18.58.77.39,1.52.8,2.26,1.25l.55.34q.42.26.84.54c.23.14.45.29.67.45l.85.61c.77.56,1.51,1.15,2.23,1.78.19.15.37.31.54.47.41.36.81.73,1.2,1.12l.68.68q.5.51,1,1l.37.42.27.3.24.3c.22.25.43.51.63.77.41.51.8,1,1.18,1.56.24.33.46.65.68,1s.31.46.45.7c.35.55.69,1.1,1,1.67l.34.62c.2.37.39.73.57,1.1s.33.68.49,1,.35.78.51,1.17c.1.24.2.48.29.72s.09.23.13.34c.16.41.3.81.44,1.22s.22.65.32,1h0c.06.18.11.35.16.53a1.17,1.17,0,0,1,.07.25c.08.25.15.51.22.76.23.87.43,1.75.59,2.64.06.32.12.64.17,1,0,0,0,.08,0,.13s.05.33.07.49.06.42.08.63.07.55.09.82.07.63.09.95.05.76.06,1.15C447.13,226.53,447.14,227.09,447.14,227.66Z" transform="translate(-197.4 -109)"/></g></svg>