<?xml version="1.0" encoding="UTF-8"?>
<svg width="75px" height="94px" viewBox="0 0 75 94" version="1.1" xmlns="http://www.w3.org/2000/svg" xmlns:xlink="http://www.w3.org/1999/xlink">
    <title>logo</title>
    <g id="Page-1" stroke="none" stroke-width="1" fill="none" fill-rule="evenodd">
        <g id="Home-Ten-" transform="translate(-393.000000, -62.000000)" fill="#EB4F45">
            <g id="logo" transform="translate(393.000000, 62.000000)">
                <polygon id="Path" fill-rule="nonzero" points="22 74 22 76.0841938 12.2225674 76.0841938 12.2225674 94 9.77743257 94 9.77743257 76.0841938 0 76.0841938 0 74"></polygon>
                <polygon id="Path" fill-rule="nonzero" points="27 93.9936478 27 74 47 74 47 76.0835318 29.4984127 76.0835318 29.4984127 82.7533746 46.1396825 82.7533746 46.1396825 84.8369065 29.4984127 84.8369065 29.4984127 91.9164682 46.984127 91.9164682 46.984127 94"></polygon>
                <polygon id="Path" fill-rule="nonzero" points="52.476712 94 50 94 50 74 54.3649295 74 72.523288 91.4996029 72.523288 74 75 74 75 94 71.6735901 94 52.476712 76.0841938"></polygon>
                <g id="Group-5" transform="translate(6.000000, 0.000000)">
                    <polygon id="Fill-1" points="31 0 0 18.000116 0 54 24.7997923 39.6001857 18.5999308 36.0002321 6.19986154 43.2001392 6.19986154 21.6000696 24.7997923 10.8002089 24.7997923 25.2000232 31 28.8003249"></polygon>
                    <polygon id="Fill-2" points="34 0 34 28.8003249 40.1999308 25.2000232 40.1999308 10.8002089 58.8000692 21.6000696 58.8000692 43.2001392 46.4002077 36.0002321 40.1999308 39.6001857 65 54 65 18.000116"></polygon>
                    <polygon id="Fill-3" points="51.1672769 22.7804661 34 32.6583662 34 52.4145065 34 59 51.1672769 49.1220999 45.4447375 45.8293532 39.7221981 49.1220999 39.7221981 35.9514531 40.3645588 35.5816994 41.3339022 35.0241775 51.1672769 29.3662998 51.1672769 35.9514531 56 38.7322594 56 20"></polygon>
                    <polygon id="Fill-4" points="9 38.7319192 13.8327231 35.9511129 13.8327231 29.3659596 23.6660978 35.0238374 24.6350999 35.5813592 25.2774606 35.9511129 25.2774606 49.1217598 19.5552625 45.8293532 13.8327231 49.1217598 31 59 31 52.4145065 31 32.6583662 13.8327231 22.7801259 9 20"></polygon>
                </g>
            </g>
        </g>
    </g>
</svg>