<svg width="900" height="900" viewBox="0 0 900 900" fill="none" xmlns="http://www.w3.org/2000/svg">
<circle cx="450" cy="450" r="450" fill="black"/>
<path d="M363.502 550.395C303.122 493.158 240.874 447.857 205.172 434.361C204.756 434.163 204.159 434.225 203.48 434.536C202.802 434.847 202.083 435.388 201.446 436.069C200.918 436.804 200.542 437.568 200.37 438.253C200.197 438.938 200.237 439.511 200.484 439.892C216.374 475.647 265.597 535.665 326.143 592.243C386.689 648.821 447.768 696.057 483.37 709.949C483.888 709.919 484.532 709.624 485.169 709.124C485.925 708.771 486.723 708.157 487.423 707.391C487.987 706.655 488.391 705.873 488.566 705.176C488.741 704.48 488.678 703.912 488.386 703.568C473.005 668.045 423.753 607.691 363.502 550.395Z" fill="white"/>
<path d="M582.24 306.691C521.86 249.453 459.612 204.153 423.91 190.657C423.494 190.459 422.896 190.521 422.218 190.832C421.539 191.143 420.821 191.684 420.184 192.364C419.656 193.1 419.28 193.864 419.107 194.549C418.935 195.234 418.975 195.807 419.221 196.188C435.112 231.943 484.335 291.961 544.881 348.539C605.426 405.117 666.505 452.353 702.108 466.244C702.626 466.215 703.269 465.92 703.906 465.42C704.663 465.067 705.461 464.453 706.161 463.687C706.725 462.95 707.129 462.168 707.304 461.472C707.479 460.776 707.416 460.208 707.124 459.863C691.743 424.341 642.491 363.987 582.24 306.691Z" fill="white"/>
<path d="M475.814 425.625C404.39 358.783 330.784 305.935 288.594 290.255C288.102 290.026 287.397 290.1 286.596 290.467C285.795 290.834 284.948 291.471 284.197 292.271C283.575 293.135 283.133 294.031 282.93 294.835C282.728 295.638 282.776 296.309 283.068 296.754C301.908 338.592 360.162 408.734 431.781 474.803C503.399 540.871 575.628 595.991 617.701 612.135C618.314 612.098 619.073 611.75 619.824 611.162C620.717 610.745 621.658 610.023 622.483 609.123C623.148 608.258 623.623 607.34 623.828 606.523C624.034 605.707 623.957 605.041 623.612 604.639C605.375 563.073 547.086 492.536 475.814 425.625Z" fill="white"/>
</svg>
