<?xml version="1.0" standalone="no"?>
<!DOCTYPE svg PUBLIC "-//W3C//DTD SVG 1.0//EN" "http://www.w3.org/TR/2001/REC-SVG-20010904/DTD/svg10.dtd">
<svg xmlns="http://www.w3.org/2000/svg" xmlns:xlink="http://www.w3.org/1999/xlink" id="body_1" width="1024" height="768">

<g transform="matrix(6.118547 0 0 6.118547 127.29637 -0)">
    <path transform="matrix(1 0 0 1 -0.25 -0.2)"  d="M126 58L126 57.37L125.94 56.75L125.880005 56.12L125.810005 55.489998L125.73 54.87L125.65 54.239998L125.560005 53.62L125.46001 53L125.36001 52.38L125.25001 51.75L125.14001 51.13L124.89001 49.9L124.75001 49.280003L124.61001 48.670002L124.46001 48.06L124.310005 47.440002L124.15 46.83L123.99 46.22L123.82 45.620003L123.64 45.010002L123.45 44.410004L123.27 43.810005L122.869995 42.610004L122.659996 42.020004L122.439995 41.430004L122.229996 40.840004L121.99999 40.250004L121.76999 39.660004L121.52999 39.08L121.28999 38.510002L121.049995 37.93L120.78999 37.35L120.27 36.21L120 35.6L119.72 35.039997L119.44 34.469997L119.15 33.909996L118.85 33.349995L118.56 32.799995L117.63 31.149996L117.299995 30.609995L116.979996 30.069994L116.649994 29.539993L115.96999 28.469994L115.27 27.469994L114.909996 26.949993L114.53999 26.429993L114.16999 25.919992L113.79999 25.419992L113.02999 24.419992L112.63999 23.919992L112.24999 23.429993L111.84999 22.939993L111.43999 22.459993L111 22L110.58 21.52L110 21L109.57 20.54L109.14 20.080002L108.28 19.160002L107.84 18.720001L107.579994 18.460001L107.13 18.01L106.68 17.58L106.23 17.14L105.770004 16.71L105.3 16.289999L104.83 15.869999L104.36 15.449999L103.88 15.039999L103.399994 14.629999L102.91999 14.23L102.42999 13.83L101.939995 13.44L101.439995 13.049999L100.939995 12.669999L100.42999 12.289999L99.92999 11.919999L99.409996 11.549999L98.899994 11.19L98.38 10.83L97.85 10.48L97.33 10.139999L96.8 9.8L95.73 9.13L95.18 8.81L94.64 8.490001L94.09 8.18L93.53999 7.8700004L93 7.57L92.44 7.27L91.88 7L91.32 6.71L90.75 6.44L90.18 6.16L89.61 5.89L88.47 5.37L87.89 5.12L87.56 5L87 4.72L86.41 4.48L85.83 4.25L85.22 4L84.630005 3.78L84 3.59L83.4 3.3899999L82.8 3.1799998L82.24 3L81.64 2.81L81 2.62L80.4 2.4399998L79.79 2.2599998L79.18 2.0999997L78 1.79L77.39 1.64L76.77 1.5L76.159996 1.37L75.53999 1.24L74.91999 1.12L73.68 0.9L73.06 0.8L72.43 0.7L71.81 0.61L71.19 0.53L70.56 0.45L69.93 0.38L69.31 0.32L68.68 0.26L68.06 0.2L58.63 0.2L57.37 0.3L56.75 0.36L56.12 0.42000002L55.489998 0.49L54.87 0.57L54.239998 0.65L53.62 0.74L53 0.84L52.38 0.94L51.75 1.05L51.13 1.16L49.9 1.41L49.280003 1.55L48.06 1.8399999L47.44 2L46.829998 2.16L46.23 2.3200002L45.62 2.4900002L45 2.66L44.4 2.8500001L43.800003 3.0300002L43.200005 3.2300003L42.600006 3.4300003L42 3.64L41.41 3.8500001L40.82 4.07L40.23 4.3L39.64 4.53L39.059998 4.77L38.51 5L37.929996 5.24L37.349995 5.5L36.779995 5.76L36.21 6L35.64 6.27L35.07 6.55L34.51 6.8300004L34 7.15L33.44 7.4500003L32.89 7.7400002L32.34 8.05L31.79 8.35L31.240002 8.67L30.65 9L30.109999 9.33L29.579998 9.66L29 10L28.47 10.34L27.949999 10.690001L27.429998 11.040001L26.909998 11.400001L26.389997 11.77L25.389997 12.51L24.389997 13.27L23.889997 13.67L23.399998 14.06L22.909998 14.46L22.429998 14.87L21.949999 15.2699995L21.47 15.679999L21 16L20.54 16.43L20.080002 16.86L19.610003 17.29L19.160002 17.720001L18.720001 18.160002L18.010002 18.860003L17.580002 19.320002L17.140001 19.770002L16.710001 20.230001L16.29 20.7L15.860001 21.16L15.450001 21.64L15.040001 22.119999L14.630001 22.599998L14.230001 23.079998L13.830002 23.569998L13.4400015 24.059998L13.050001 24.559998L12.670001 25.059998L12.290001 25.569998L11.920001 26.069998L11.550001 26.579998L11.1900015 27.099998L10.830002 27.619999L10.480001 28.14L10.140001 28.67L9.800001 29.2L9.130001 30.27L8.810001 30.82L8.490002 31.36L8.180001 31.91L7.8700013 32.46L7.570001 33.01L7.270001 33.57L7 34.12L6.71 34.68L6.44 35.25L6.16 35.82L5.89 36.39L5.37 37.53L5.12 38.11L5 38.44L4.72 39L4.48 39.59L4.25 40.170002L4 40.78L3.78 41.37L3.59 42L3.3899999 42.6L3.1799998 43.199997L3 43.75L2.81 44.35L2.61 45L2.4399998 45.6L2.2599998 46.21L2.0999997 46.82L1.9399997 47.43L1.79 48L1.64 48.61L1.5 49.23L1.37 49.84L1.24 50.46L1.12 51.079998L0.9 52.32L0.79999995 52.94L0.6999999 53.57L0.6099999 54.19L0.5299999 54.809998L0.44999993 55.44L0.37999994 56.07L0.30999994 56.69L0.30999994 57.32L0.24999994 57.94L0.24999994 68L0.30999994 68.63L0.30999994 69.25L0.44999993 70.51L0.5299999 71.130005L0.6099999 71.76L0.6999999 72.380005L0.8 73L0.90000004 73.62L1.01 74.25L1.12 74.87L1.37 76.100006L1.51 76.72001L1.65 77.33001L1.79 77.94001L1.9499999 78.56001L2.11 79.17001L2.27 79.77001L2.44 80.38001L2.6200001 80.98001L2.8100002 81.59001L2.9900002 82.19001L3.3900003 83.39001L3.6 84L3.81 84.59L4.0299997 85.17999L4.49 86.35999L4.7299995 86.939995L4.9699993 87.509995L5.209999 88.09L5.4699993 88.67L5.7299995 89.24L5.99 89.81L6.2599998 90.38L6.54 90.939995L6.82 91.509995L7.11 92.06999L7.4 92.62999L7.7000003 93.17999L8.01 93.729996L8.31 94.28L8.63 94.83L8.95 95.37L9.28 95.91L9.61 96.450005L10.29 97.51L10.64 98.03L10.990001 98.549995L11.35 99.06999L11.72 99.58999L12.09 100.09999L12.46 100.59999L12.84 101.09999L13.22 101.59999L13.610001 102.09999L14.01 102.58999L14.41 103.07999L14.809999 103.55999L15.219999 104.03999L15.629999 104.52L16.05 104.979996L16.48 105.45L16.9 105.909996L17.34 106.38L17.77 106.829994L18.210001 107.27L18.470001 107.53L18.920002 107.979996L19.370003 108.409996L19.820004 108.85L20.280003 109.28L20.750002 109.7L21.220001 110.13L21.69 110.54L22.17 110.950005L22.65 111.36001L23.13 111.76001L23.619999 112.16001L24.109999 112.55001L24.609999 112.94001L25.609999 113.70001L26.609999 114.44001L27.13 114.80001L27.65 115.16001L28.17 115.51001L28.7 115.850006L29.230001 116.19L30.300001 116.86L30.840002 117.18L31.390001 117.5L31.930002 117.81L32.49 118.119995L33.04 118.42L33.600002 118.72L34.15 119.01L34.710003 119.3L35.280003 119.57L35.850002 119.85L36.420002 120.119995L37.56 120.63999L38.140003 120.88999L38.470005 121.02999L39.050007 121.26999L39.640007 121.50999L40.22001 121.73999L40.81001 121.95999L41.40001 122.17999L41.99001 122.399994L42.590008 122.60999L43.180008 122.799995L43.79001 122.99999L44.38001 123.189995L44.99001 123.369995L45.590008 123.549995L46.81001 123.88999L47.42001 124.049995L48.03001 124.2L48.64001 124.35L49.26001 124.49L49.87001 124.619995L50.49001 124.74999L51.11001 124.869995L51.730007 124.979996L52.350006 125.09L52.970005 125.189995L53.590004 125.28999L54.220005 125.37999L54.840004 125.45999L55.470005 125.53999L56.090004 125.60999L56.720005 125.67999L57.350006 125.67999L57.970005 125.73999L68.05 125.73999L68.68 125.67999L69.3 125.67999L69.93 125.60999L70.56 125.53999L71.18 125.45999L71.81 125.37999L72.43 125.28999L73.05 125.189995L73.670006 125.09L74.3 124.979996L74.920006 124.869995L76.15001 124.619995L76.77001 124.479996L77.99001 124.2L78.610016 124.03999L79.22002 123.87999L79.820015 123.719986L80.430016 123.54999L81.040016 123.36999L81.640015 123.179985L82.24001 122.999985L83.44001 122.59998L84.03001 122.389984L84.62 122.179985L85.21 121.959984L85.799995 121.72998L86.38 121.49998L86.96999 121.25998L87.53999 121.01998L88.7 120.51998L89.84 119.999985L90.409996 119.72999L90.96999 119.44999L91.53999 119.16999L92.09999 118.87999L92.65999 118.58999L93.20999 118.289986L94.85999 117.359985L95.399994 117.039986L95.939995 116.709984L96.46999 116.37998L97.53999 115.69998L98.53999 114.999985L99.05999 114.639984L99.56999 114.26998L100.08999 113.89998L100.58999 113.529976L101.58999 112.76997L102.08999 112.379974L102.57999 111.97997L103.069984 111.57997L103.54999 111.17997L104.02999 110.769966L104.49999 110.35996L104.979996 109.939964L105.439995 109.509964L105.899994 109.089966L106.35999 108.64996L106.81999 108.21996L107.51999 107.519966L107.969986 107.06997L108.39999 106.62997L108.83999 106.16997L109.26999 105.70997L109.68999 105.23997L110.109985 104.769966L110.52998 104.299965L110.93999 103.81996L111.34999 103.33996L111.74999 102.859955L112.149994 102.36996L112.53999 101.87996L112.92999 101.37996L113.689995 100.37996L114.06 99.86996L114.43 99.359955L114.79 98.83996L115.15 98.31996L115.5 97.78996L115.84 97.269966L116.17999 96.73997L116.84999 95.66997L117.16999 95.12997L117.48999 94.57996L118.10999 93.479965L118.409996 92.92996L118.71 92.37996L119.29 91.25996L119.56 90.68996L119.84 90.12996L120.10999 89.54996L120.62999 88.40996L120.87999 87.829956L121.01999 87.499954L121.25999 86.91995L121.499985 86.329956L121.72999 85.749954L121.94999 85.15996L122.16999 84.56996L122.38999 83.979965L122.58999 83.37997L122.79999 82.77997L122.98999 82.17997L123.17999 81.58997L123.35999 80.97997L123.53999 80.36997L123.71999 79.76997L123.88 79.15997L124.189995 77.93997L124.34 77.32997L124.479996 76.70997L124.60999 76.09997L124.73999 75.479965L124.85999 74.85996L124.96999 74.23996L125.079994 73.61996L125.17999 72.999954L125.27999 72.36996L125.36999 71.749954L125.44999 71.12995L125.52999 70.499954L125.59999 69.86996L125.65999 69.249954L125.719986 68.61996L125.77998 67.999954L125.77998 65.46L125.999985 64.87L125.999985 58.59L126 58zM123 67.84L123 68.439995L122.94 69.03999L122.880005 69.62999L122.740005 70.82999L122.66 71.41998L122.58 72.00998L122.39 73.19998L122.28 73.78998L122.17 74.379974L122.06 74.96997L121.939995 75.55997L121.81 76.14996L121.67 76.729965L121.54 77.30997L121.24 78.479965L121 79L120.84 79.57L120.67 80.15L120.49 80.72L120.31 81.3L120.13 81.87L119.93 82.43L119.53 83.57L119.32 84.13L119.11 84.689995L118.89 85.24999L118.659996 85.799995L118.42999 86.35999L118.299995 86.67999L118.049995 87.229996L117.81 87.78L117.56 88.32L117.299995 88.87L117.03999 89.41L116.77999 89.94L116.49999 90.48L116.229996 91.01L115.95 91.54L115.659996 92.07L115.35999 92.59L115.06999 93.10999L114.759995 93.62999L114.45 94.14999L114.14 94.65999L113.82 95.16999L113.5 95.66999L112.83 96.66999L112.490005 97.15999L112.15001 97.65999L111.80001 98.13999L111.44001 98.62999L110.72001 99.62999L109.98001 100.56999L109.60001 101.03999L109.210014 101.49999L108.820015 101.95999L108.430016 102.40999L108.040016 102.859985L107.63001 103.30998L107.23001 103.749985L106.40001 104.62998L106 105L105.58 105.42L105.340004 105.659996L104.91 106.079994L104.47 106.49999L104.04 106.909996L103.590004 107.32L103.15 107.73L102.700005 108.12L102.25001 108.520004L101.79001 108.91L101.33001 109.29L100.87001 109.67L100.40001 110.049995L99.93001 110.42L99.450005 110.79L98.97 111.15L98.49 111.51L98 111.86L97 112.55L96.5 112.880005L95.5 113.54001L94.99 113.86001L94.479996 114.18001L93.96999 114.490005L93.45 114.8L92.93 115.090004L92.41 115.39001L91.880005 115.68001L91.36001 115.96001L90.82001 116.25001L90.29001 116.520004L89.75001 116.79L89.21001 117.05L88.670006 117.310005L88.130005 117.560005L87.58 117.810005L87.03 118.05L86.479996 118.29L85.92999 118.51L85.37999 118.740005L84.81999 118.96001L84.24999 119.170006L83.689995 119.39001L83.13 119.590004L82.56 119.79L82 120L81.43 120.18L80.86 120.37L79.71 120.71L78.549995 121.03L77.96999 121.18L77.38999 121.33L76.799995 121.46L76.21999 121.6L75.63 121.729996L75.049995 121.85L74.46 121.96L73.87 122.07L73.28001 122.18L72.090004 122.37L71.490005 122.450005L70.90001 122.53001L70.30001 122.61001L69.710014 122.670006L69.110016 122.73L68.51002 122.79L67.91002 122.79L58.2 122.79L57.600002 122.79L57.000004 122.73L56.410004 122.670006L55.810005 122.61001L55.210007 122.53001L54.620007 122.450005L54.020008 122.37L53.430008 122.270004L52.840008 122.18001L52.250008 122.07001L51.660007 121.96001L51.070007 121.850006L50.480007 121.73L49.890007 121.600006L49.310005 121.46001L48.730003 121.32001L48.140003 121.18001L47.56 121.03001L46.98 120.87L46.41 120.71L45.829998 120.54L45.26 120.36L44.679996 120.18L44.109997 120L43.549995 119.8L42.979996 119.61L42.409996 119.4L41.849995 119.19L41.289993 118.98L40.729992 118.76L40.179993 118.53L39.61999 118.299995L39.29999 118.17L38.749992 117.93L38.199993 117.68L37.659992 117.43L37.109993 117.18L36.569992 116.91L36.039993 116.65L35.499992 116.380005L34.969994 116.100006L34.439995 115.82001L33.909996 115.53001L33.389996 115.23L32.869995 114.94L32.349995 114.630005L31.829994 114.32001L31.319994 114.01001L30.809994 113.69001L30.309994 113.37001L29.309994 112.70001L28.819994 112.360016L28.319994 112.02002L27.839994 111.67002L27.349995 111.31002L26.869995 110.95002L26.389996 110.59002L25.449995 109.85002L24.979996 109.470024L24.519997 109.09003L24.059998 108.690025L23.159998 107.91003L22.709997 107.50002L22.269997 107.10002L21.389997 106.27002L20.959997 105.860016L20.539997 105.430016L20.299997 105.19002L19.879997 104.76002L19.459997 104.320015L19.049997 103.890015L18.639997 103.44002L18.229998 103.000015L17.839998 102.55002L17.439999 102.10002L17.05 101.64002L16.67 101.18002L16.28 100.720024L15.910001 100.25002L15.540001 99.78002L15.170001 99.30002L14.810001 98.820015L14.450002 98.34001L14.100001 97.86001L13.410002 96.86001L13.080002 96.36001L12.750002 95.86001L12.100002 94.86001L11.780003 94.350006L11.470002 93.840004L11.160002 93.32001L10.860002 92.80001L10.570002 92.280014L10.280002 91.750015L10 91.25L9.71 90.71L9.44 90.18L9.169999 89.64L8.909999 89.1L8.649999 88.56L8.4 88L8.15 87.45L7.91 86.899994L7.67 86.34999L7.4500003 85.79999L7.2200003 85.249985L7 84.71L6.79 84.15L6.57 83.58L6.37 83L6.17 82.43L6 81.88L5.82 81.31L5.63 80.74L5.46 80.159996L5.29 79.59L5.11 79L5 78.43L4.85 77.85L4.7 77.27L4.38 76.1L4.25 75.51L4.13 74.93L4 74.34L3.89 73.75L3.7800002 73.16L3.6800003 72.560005L3.61 72L3.53 71.41L3.45 70.810005L3.38 70.21001L3.3100002 69.62001L3.25 69L3.19 68.4L3.19 67.8L3.19 58.2L3.19 57.600002L3.25 57.000004L3.31 56.410004L3.3799999 55.810005L3.4499998 55.220005L3.5299997 54.620007L3.6099997 54.020008L3.7099996 53.430008L3.7999995 52.840008L3.9099994 52.250008L4 51.66L4.11 51.07L4.23 50.48L4.36 49.899998L4.5 49.309998L4.63 48.729996L5 47.56L5.11 47L5.27 46.43L5.44 45.85L5.62 45.28L5.7999997 44.699997L6 44.11L6.2 43.55L6.6 42.41L6.81 41.85L7 41.29L7.22 40.73L7.45 40.18L7.68 39.62L7.81 39.309998L8.05 38.749996L8.3 38.199997L8.55 37.659996L8.8 37.109997L9.070001 36.569996L9.33 36L9.61 35.46L9.88 35L10.16 34.47L10.45 33.940002L10.75 33.420002L11.04 32.9L11.35 32.38L11.660001 31.86L11.970001 31.35L12.290001 30.84L12.610001 30.34L13.280001 29.34L13.620001 28.84L14.31 27.84L14.67 27.35L15.03 26.87L15.389999 26.390001L15.759999 25.920002L16.13 25.450003L16.509998 24.980003L16.889997 24.520004L17.289997 24.060005L18.069998 23.160006L18.479998 22.710005L18.879997 22.270004L19.289997 21.830004L19.709997 21.400003L20.119997 20.960003L20.549997 20.540003L20.789997 20.300003L21.219997 19.880003L21.659998 19.460003L22.089998 19.050003L22.539999 18.640003L23 18.2L23.45 17.810001L23.900002 17.410002L24.36 17.020002L24.82 16.630003L25.279999 16.260002L25.749998 15.880002L26.219997 15.510002L26.699997 15.140002L27.179996 14.780003L27.659996 14.420003L28.149996 14.070003L28.639996 13.730002L29.129995 13.380002L30.129995 12.720002L30.629995 12.390002L31.629995 11.750002L32.139996 11.4400015L32.659996 11.130001L33.179996 10.830001L33.699997 10.540001L34.229996 10.250001L34.749996 9.970001L35.289997 9.680001L35.819996 9.410001L36.349995 9.14L36.899994 8.88L37.439995 8.62L38 8.37L38.55 8.12L39.649998 7.64L40.199997 7.42L40.749996 7.19L41.29 7L41.86 6.79L42.420002 6.57L42.980003 6.3700004L43.550003 6.1700006L44.690002 5.7900004L45.260002 5.6100006L45.840004 5.4400005L46.410004 5.2700005L47 5.08L47.58 4.92L48.160004 4.77L48.740005 4.62L49.330006 4.48L49.910007 4.35L51.080006 4.1L51.66 4L52.84 3.78L53.44 3.68L54 3.58L54.59 3.5L55.19 3.42L55.789997 3.3500001L56.379997 3.2800002L56.979996 3.2200003L57.569996 3.1600003L58.179996 3.1100004L67.8 3.1100004L68.4 3.1600003L69 3.2200003L69.59 3.2800002L70.189995 3.3500001L70.77999 3.42L71.97999 3.5800002L72.569984 3.68L73.15998 3.77L74.34 4L74.92999 4.11L75.51999 4.23L76.09999 4.36L76.68999 4.5L77.26999 4.63L78.43999 4.9300003L79.01999 5.09L79.58999 5.25L80.16999 5.42L80.73999 5.6L81.31999 5.7799997L81.88999 5.9599996L82.44999 6.1599994L83.01999 6.359999L83.58999 6.559999L84.14999 6.769999L84.709984 6.979999L85.26998 7.199999L85.819984 7.429999L86.37998 7.659999L86.68998 7.789999L87.24998 8.039999L87.79998 8.279999L88.33998 8.529999L88.889984 8.789999L89.429985 9.049999L90 9.3L90.54 9.58L91.07 9.85L91.6 10.13L92.13 10.42L92.649994 10.72L93.16999 11.01L93.68999 11.320001L94.209984 11.630001L94.719986 11.9400015L95.22999 12.260001L95.72999 12.580001L96.72999 13.250001L97.219986 13.590001L97.719986 13.930001L98.19999 14.280002L98.68999 14.640001L99.16999 15.000001L99.63999 15.360001L100.63999 16.1L101.10999 16.48L101.56999 16.869999L102.02999 17.259998L102.47999 17.649998L102.929985 18.039997L103.37998 18.449997L103.819984 18.849997L104.25999 19.259996L104.68999 19.679996L105.12999 20.089996L105.54999 20.519997L105.789986 20.759996L106.62998 21.619997L107.039986 22.059998L107.44999 22.499998L107.85999 22.949999L108.24999 23.4L108.649994 23.85L109.03999 24.31L109.41999 24.769999L109.79999 25.229998L110.179985 25.699997L110.54999 26.169996L110.91999 26.649996L111.63999 27.649996L111.98999 28.129995L112.67999 29.129995L113.009995 29.629995L113.67 30.629995L113.99 31.139996L114.31 31.649996L114.619995 32.159996L114.92999 32.679996L115.229996 33.199997L115.52 33.719997L115.81 34.249996L116.09 34.769997L116.38 35.309998L116.649994 35.839996L116.91999 36.379997L117.17999 36.92L117.439995 37.46L117.689995 38L117.939995 38.55L118.17999 39.1L118.41999 39.649998L118.63999 40.199997L118.869995 40.749996L119.09 41.309998L119.299995 41.879997L119.52 42.44L119.71999 43L119.91999 43.57L120.10999 44.14L120.299995 44.71L120.479996 45.28L120.649994 45.86L120.81999 46.43L120.979996 47.010002L121.14 47.590004L121.29 48.170006L121.44 48.750008L121.58 49.340008L121.71 49.92001L121.84 50.51001L121.96 51.09001L122.07 51.68001L122.18 52.27001L122.29 52.860012L122.39 53.46001L122.479996 54.05001L122.56 54.64001L122.64 55.24001L122.71 55.840008L122.78 56.430008L122.84 57.030006L122.899994 57.630005L122.899994 58.230003L122.899994 61.230003L123.03999 61.850002z" stroke="none" fill="#A28DC2" fill-rule="nonzero" />
    <path transform="matrix(1 0 0 1 -0.25 -0.2)"  d="M63 7C 40.350113 7 19.930481 20.643963 11.262749 41.56973C 2.5950127 62.495495 7.386135 86.58209 23.40202 102.59798C 39.417908 118.61386 63.504505 123.40498 84.43027 114.73725C 105.35603 106.06952 119 85.64989 119 63C 119 32.072052 93.92795 7 63 7zM34.09 25.3L34.47 25.3C 36.06954 20.5468 40.52488 17.345253 45.54 17.345253C 50.555122 17.345253 55.010464 20.5468 56.61 25.3L56.61 25.3L57 25.3C 63.314922 25.484821 68.3383 30.657373 68.3383 36.975C 68.3383 43.292625 63.314922 48.465176 57 48.65L57 48.65L34.09 48.65C 27.77509 48.465168 22.751724 43.292618 22.751724 36.975002C 22.751724 30.657385 27.77509 25.484837 34.09 25.300001zM14.72 72.42C 14.630844 67.03709 18.917253 62.59855 24.3 62.5C 25.805769 58.842728 29.369875 56.455772 33.324997 56.455772C 37.280117 56.455772 40.844223 58.842728 42.35 62.5C 47.57328 62.81121 51.62184 67.186165 51.52794 72.41787C 51.434036 77.649574 47.231087 81.87643 42 82L42 82L24.64 82C 19.257088 82.08916 14.818551 77.80275 14.72 72.42zM75.6 94.52C 74.77 96.659996 74.71 98.18 75.27 99.31C 75.707794 100.12109 76.3712 100.78797 77.18 101.229996C 78.224785 101.839905 79.318565 102.36171 80.45 102.78999C 81.53999 103.24999 83.71 103.85999 84.619995 104.62999C 85.079895 104.99264 85.38105 105.51965 85.45999 106.09999C 85.499985 106.55957 85.37987 107.018845 85.119995 107.399994C 84.702225 108.01898 84.00674 108.3929 83.259995 108.399994L83.259995 108.399994L50.259995 108.399994C 49.298027 108.41983 48.42991 107.82578 48.100006 106.92194C 47.770103 106.0181 48.051434 105.0045 48.799995 104.399994C 49.46869 103.95911 50.22694 103.6722 51.019997 103.56C 53.585278 103.153755 55.999016 102.08136 58.019997 100.45C 60.343452 98.670135 62.48098 96.65993 64.399994 94.45C 64.769936 94.1494 64.936714 93.664566 64.829994 93.2C 64.68345 92.77859 64.27547 92.50524 63.829994 92.53C 56.959995 92.64 43.499992 92.799995 43.499992 92.799995L43.499992 92.799995L43.54999 92.88C 38.382793 92.96099 33.649384 90.001144 31.459991 85.32L31.459991 85.32L39.569992 85.32C 40.71495 86.09291 42.068687 86.497635 43.449993 86.48L43.449993 86.48L69.71999 86.060005C 70.03652 86.057655 70.33325 85.90559 70.52 85.65C 74.6471 79.48019 72.995636 71.13335 66.83 67C 66.13646 66.54246 65.40357 66.14757 64.64 65.82L64.64 65.82L53.72 61.2C 49.419693 59.377197 45.885273 56.11846 43.72 51.98L43.72 51.98L51.49 51.98C 52.812317 53.417755 54.429043 54.55355 56.230003 55.309998L56.230003 55.309998L67.14 59.92C 71.31888 61.68784 74.76423 64.83666 76.9 68.84C 77.032616 69.11415 77.282936 69.312935 77.58 69.38C 78.08 69.49 79.05 68.71 79.05 68.71C 82.5309 65.83626 85.104645 62.01558 86.46001 57.71L86.46001 57.71L93.1 57.71C 91.57992 63.95454 88.07004 69.53525 83.1 73.61L83.1 73.61L79.59 76.49C 79.334854 76.695595 79.196625 77.01315 79.21999 77.34C 79.46 83.24 77.75 88.93 75.6 94.52zM98.74 54.43L82.1 54.43C 78.70598 54.505028 75.52974 52.763664 73.76776 49.861866C 72.00577 46.960068 71.92572 43.338688 73.557755 40.361862C 75.1898 37.38504 78.28598 35.505028 81.68 35.43C 83.16944 31.920565 86.61258 29.641468 90.425 29.641468C 94.23743 29.641468 97.680565 31.920565 99.17 35.43C 102.564026 35.506813 105.659256 37.38848 107.28974 40.366196C 108.920235 43.343914 108.83827 46.965294 107.074745 49.866196C 105.31121 52.7671 102.134026 54.506813 98.74 54.43z" stroke="none" fill="#A28DC2" fill-rule="nonzero" />
    <path transform="matrix(1 0 0 1 -0.25 -0.2)"  d="M51.93 72.41C 51.887947 74.999504 50.817375 77.46587 48.954464 79.265C 47.091553 81.064125 44.589394 82.04816 42 82L42 82L24.64 82C 21.15666 82.06074 17.90552 80.258514 16.111252 77.272224C 14.316983 74.285934 14.252179 70.56925 15.941252 67.522224C 17.630323 64.4752 20.81666 62.560738 24.3 62.5C 25.805769 58.842728 29.369875 56.455772 33.324997 56.455772C 37.280117 56.455772 40.844223 58.842728 42.35 62.5C 47.731155 62.5931 52.019127 67.02878 51.93 72.41z" stroke="none" fill="#FFFFFF" fill-rule="nonzero" />
    <path transform="matrix(1 0 0 1 -0.25 -0.2)"  d="M85.46 106.1C 85.499985 106.55958 85.379875 107.01885 85.12 107.4C 84.70223 108.01899 84.006744 108.39291 83.26 108.4L83.26 108.4L50.260002 108.4C 49.298035 108.41984 48.429916 107.82579 48.100014 106.92195C 47.77011 106.018105 48.05144 105.00451 48.800003 104.4C 49.468697 103.959114 50.226948 103.67221 51.020004 103.560005C 53.585285 103.15376 55.999023 102.081375 58.020004 100.450005C 60.34346 98.67014 62.480988 96.659935 64.4 94.450005C 64.76995 94.14941 64.93673 93.66457 64.83 93.200005C 64.68346 92.778595 64.275475 92.50525 63.83 92.53001C 56.960003 92.64001 43.5 92.8 43.5 92.8L43.5 92.8L43.55 92.880005C 38.3828 92.96099 33.64939 90.001144 31.46 85.32001L31.46 85.32001L39.57 85.32001C 40.71496 86.09292 42.068695 86.49764 43.45 86.48001L43.45 86.48001L69.72 86.06001C 70.03653 86.05766 70.33326 85.905594 70.520004 85.65001C 74.64711 79.480194 72.99564 71.13335 66.83 67C 66.13646 66.54246 65.40357 66.14757 64.64 65.82L64.64 65.82L53.72 61.2C 49.419693 59.377197 45.885273 56.11846 43.72 51.98L43.72 51.98L51.49 51.98C 52.812317 53.417755 54.429043 54.55355 56.230003 55.309998L56.230003 55.309998L67.14 59.92C 71.31888 61.68784 74.76423 64.83666 76.9 68.84C 77.032616 69.11415 77.282936 69.312935 77.58 69.38C 78.08 69.49 79.05 68.71 79.05 68.71C 82.5309 65.83626 85.104645 62.01558 86.46001 57.71L86.46001 57.71L93.1 57.71C 91.57992 63.95454 88.07004 69.53525 83.1 73.61L83.1 73.61L79.59 76.49C 79.334854 76.695595 79.196625 77.01315 79.21999 77.34C 79.45999 83.24 77.74999 88.92999 75.59999 94.52C 74.76999 96.659996 74.70999 98.18 75.26999 99.31C 75.70778 100.12109 76.37119 100.78797 77.17999 101.229996C 78.22477 101.839905 79.31855 102.36171 80.44999 102.78999C 81.539986 103.24999 83.70999 103.85999 84.61999 104.62999C 85.079895 104.99264 85.38105 105.51966 85.46 106.1z" stroke="none" fill="#FFFFFF" fill-rule="nonzero" />
    <path transform="matrix(1 0 0 1 -0.25 -0.2)"  d="M108.46 45.15C 108.40232 47.66978 107.34568 50.063362 105.522675 51.80384C 103.69968 53.544323 101.25974 54.48903 98.74 54.43L98.74 54.43L82.1 54.43C 78.70598 54.505028 75.52974 52.763664 73.76776 49.861866C 72.00577 46.960068 71.92572 43.338688 73.557755 40.361862C 75.1898 37.38504 78.28598 35.505028 81.68 35.43C 83.16944 31.920565 86.61258 29.641468 90.425 29.641468C 94.23743 29.641468 97.680565 31.920565 99.17 35.43C 104.418846 35.550148 108.57732 39.901093 108.46 45.15z" stroke="none" fill="#FFFFFF" fill-rule="nonzero" />
    <path transform="matrix(1 0 0 1 -0.25 -0.2)"  d="M68.33 37.32C 68.14742 43.500183 63.180183 48.467422 57 48.65L57 48.65L34.09 48.65C 27.77509 48.465168 22.751724 43.292618 22.751724 36.975002C 22.751724 30.657385 27.77509 25.484837 34.09 25.300001L34.09 25.300001L34.47 25.300001C 36.06954 20.5468 40.52488 17.345253 45.54 17.345253C 50.555122 17.345253 55.010464 20.5468 56.61 25.300001L56.61 25.300001L57 25.300001C 60.096413 25.391474 63.029663 26.709259 65.15446 28.963451C 67.27925 31.217644 68.42153 34.22359 68.33 37.32z" stroke="none" fill="#FFFFFF" fill-rule="nonzero" />
</g>
</svg>