<?xml version="1.0" encoding="utf-8"?>
<!-- Generator: Adobe Illustrator 25.4.1, SVG Export Plug-In . SVG Version: 6.00 Build 0)  -->
<svg version="1.1" id="Ebene_1" xmlns="http://www.w3.org/2000/svg" xmlns:xlink="http://www.w3.org/1999/xlink" x="0px" y="0px"
	 viewBox="0 0 210.448 210.448" enable-background="new 0 0 210.448 210.448" xml:space="preserve">
<g>
	<g>
		
			<rect x="76.245" y="39.46" transform="matrix(0.7071 -0.7071 0.7071 0.7071 -63.2809 97.0656)" fill="#0050FF" width="18.567" height="170.918"/>
	</g>
	<g>
		
			<rect x="115.636" y="0.069" transform="matrix(0.7071 -0.7071 0.7071 0.7071 -23.8894 113.3821)" fill="#0050FF" width="18.567" height="170.918"/>
	</g>
	<g>
		
			<rect x="11.229" y="103.187" transform="matrix(0.7071 -0.7071 0.7071 0.7071 -62.3691 74.3683)" fill="#1A1A1E" width="94.714" height="18.567"/>
	</g>
	<g>
		
			<rect x="104.479" y="88.705" transform="matrix(0.7071 -0.7071 0.7071 0.7071 -24.8116 136.0751)" fill="#1A1A1E" width="94.744" height="18.567"/>
	</g>
	<g>
		
			<rect x="112.617" y="29.626" transform="matrix(0.7071 -0.7071 0.7071 0.7071 11.1921 104.8384)" fill="#1A1A1E" width="39.06" height="18.567"/>
	</g>
	<g>
		
			<rect x="58.773" y="162.261" transform="matrix(0.7071 -0.7071 0.7071 0.7071 -98.3684 105.6068)" fill="#1A1A1E" width="39.043" height="18.567"/>
	</g>
</g>
</svg>
