<svg id="Layer_1" data-name="Layer 1" xmlns="http://www.w3.org/2000/svg" xmlns:xlink="http://www.w3.org/1999/xlink" viewBox="0 0 640 701.07"><defs><style>.cls-1{fill:#070707;}.cls-2{fill:#2e2e2e;}.cls-3{fill:#fff;opacity:0.05;}.cls-4{fill:url(#linear-gradient);}.cls-5{fill:url(#linear-gradient-2);}.cls-6{fill:url(#linear-gradient-3);}.cls-7{fill:url(#linear-gradient-4);}</style><linearGradient id="linear-gradient" x1="117.3" y1="452.72" x2="595.64" y2="126.99" gradientUnits="userSpaceOnUse"><stop offset="0" stop-color="#00e1ff"/><stop offset="1" stop-color="#007aff"/></linearGradient><linearGradient id="linear-gradient-2" x1="155.53" y1="508.85" x2="633.86" y2="183.12" xlink:href="#linear-gradient"/><linearGradient id="linear-gradient-3" x1="109.05" y1="440.6" x2="587.38" y2="114.87" xlink:href="#linear-gradient"/><linearGradient id="linear-gradient-4" x1="174.09" y1="536.11" x2="652.42" y2="210.38" xlink:href="#linear-gradient"/></defs><title>lionfinance</title><path class="cls-1" d="M640,464.49V236.58a122.64,122.64,0,0,0-61.31-106.2L381.31,16.43a122.59,122.59,0,0,0-122.62,0l-197.38,114A122.64,122.64,0,0,0,0,236.58V464.49A122.61,122.61,0,0,0,61.31,570.68l197.38,114a122.64,122.64,0,0,0,122.62,0l197.38-114A122.61,122.61,0,0,0,640,464.49Z"/><path class="cls-2" d="M320,14.75a108,108,0,0,1,53.94,14.46l197.37,114a108.17,108.17,0,0,1,53.94,93.42V464.49a108.18,108.18,0,0,1-53.94,93.42l-197.37,114a107.9,107.9,0,0,1-107.88,0l-197.37-114a108.18,108.18,0,0,1-53.94-93.42V236.58a108.17,108.17,0,0,1,53.94-93.42L266.06,29.21A108,108,0,0,1,320,14.75M320,0a122.57,122.57,0,0,0-61.31,16.43l-197.38,114A122.64,122.64,0,0,0,0,236.58V464.49a122.64,122.64,0,0,0,61.31,106.2L258.69,684.64a122.61,122.61,0,0,0,122.62,0L578.69,570.69A122.64,122.64,0,0,0,640,464.49V236.58a122.64,122.64,0,0,0-61.31-106.2L381.31,16.43A122.57,122.57,0,0,0,320,0Z"/><path class="cls-3" d="M602,451V250.12a108.07,108.07,0,0,0-54-93.58L374,56.13a108.07,108.07,0,0,0-108.06,0L92.05,156.54a108.07,108.07,0,0,0-54,93.58V451a108,108,0,0,0,54,93.57L266,644.94a108.07,108.07,0,0,0,108.06,0L548,544.52A108,108,0,0,0,602,451Z"/><path class="cls-4" d="M320.3,536.86c-13.87,0-27.79.66-41.6-.33a28,28,0,0,1-15.95-7,234.93,234.93,0,0,1-25.5-28.1c-13.19-17.22-31.65-27.11-49.27-38.47a45.27,45.27,0,0,1-14.78-15.68c-25-46.16-49.28-92.7-74.07-139-3.9-7.29-4.91-14-2.58-22.06,7.92-27.27,15.13-54.75,22.9-82.08,3.87-13.63,10.3-16.24,23.59-11.54Q190,209.18,237.3,225a22.48,22.48,0,0,0,13.34-.14c46.44-15.56,92.71-15.61,139.18,0,4.48,1.51,10.45.82,15.1-.74,30.14-10.14,60.1-20.84,90.15-31.28,17.1-5.93,22.2-3.38,27,13.8,7.53,27.07,15.24,54.11,22,81.38a28.44,28.44,0,0,1-2.11,18.35q-37.1,71.55-75.48,142.43c-2.9,5.38-7.77,10.92-13.12,13.55-31.68,15.61-53.48,41.95-76.34,67.41-3.69,4.12-11,6.41-16.87,6.86-13.2,1-26.52.31-39.8.31ZM208.05,244.29c-1.51-1.21-2.31-2.26-3.35-2.63q-28.33-10.2-56.72-20.27c-6-2.13-7.33,1.52-8.57,6.3-4.9,18.84-9.76,37.7-15.35,56.33-2.14,7.14-1.4,13,2.06,19.38,22.87,42.43,45.37,85.06,68.34,127.43,2.5,4.61,6.59,9.32,11.14,11.68,22.9,11.87,41.85,28.23,58,48.16,3.69,4.56,7.31,9.37,11.83,13,3.78,3,8.73,6.12,13.31,6.37,16.31.88,32.84-.77,49,1.06,15.83,1.8,26.54-4.15,35.68-15.79,16.7-21.23,35.13-40.42,60.09-52.31a26.23,26.23,0,0,0,11.1-10.53Q480.23,366.39,515,299.84a17.49,17.49,0,0,0,1.54-11.35c-5.06-20.07-10.91-39.94-16.08-60-1.78-6.89-4.92-8.08-11.35-5.69-16.21,6-32.64,11.49-48.95,17.26-2.64.94-5.12,2.33-8.17,3.74,11.38,9.35,21.76,17.56,31.66,26.32,1.82,1.61,3.16,6.31,2.13,8.1-3.51,6.1-8.17,11.54-12.39,17.24-5.34-4.36-7.3-5.8-9.11-7.42-70.94-63.57-172.06-65.06-244.71-3.59-10.47,8.86-10.47,8.86-20.35-1.06-8.24-8.27-8.39-8.44.69-16.19S198.35,252.16,208.05,244.29Z"/><path class="cls-5" d="M355,365.76c.51-8.91.26-17.95,1.67-26.71a37.74,37.74,0,0,1,36.53-32.12c13.87-.49,27.76,0,41.64-.22,5.71-.1,8.09,2.38,7.34,7.75-1,7.26,3.82,16.3-6.57,21-1.34.6-1.13,5.12-1.26,7.84-1.22,26.22-16,40.92-42,41.71-4.07.13-6.87,1.93-10.47,4.48-5.48,3.88-14.53,3.29-22.05,3.27-1.45,0-3.74-6-4.14-9.4-.69-5.77-.19-11.7-.19-17.56Zm52.08-23.47c.56-4.84-.28-9.19-8-9.1-10.81.13-16.17,4.82-16.54,15.32-.21,5.72,0,10.26,8,10C401.83,358.2,406.76,354.15,407.12,342.29Z"/><path class="cls-6" d="M227,306.92c6.16,0,12.33-.15,18.49,0,21.21.63,37.56,16.11,38.56,37.28.66,13.84.08,27.74.27,41.6.07,5.6-2.46,8.05-7.83,7.53-7.6-.74-16.88,3.68-21.41-7.22-.54-1.3-5.11-1.18-7.83-1.28-25.62-1-39.84-15.5-41.2-41.33-.2-3.76-4.53-7.17-5.34-11.07a97.11,97.11,0,0,1-2.12-22c0-1.27,6.38-3.06,9.93-3.39C214.67,306.51,220.87,306.91,227,306.92Zm30.31,43.13c0-12-4.49-16.56-15.3-17-6.39-.25-9.72,1.66-9.58,8.77.23,11.23,5.12,16.33,16.14,16.72C255.56,358.81,258.29,356,257.35,350.05Z"/><path class="cls-7" d="M367.3,436.34c-.92,1.62-2.05,5.5-4.61,7.75-10.89,9.52-22,18.79-33.41,27.7-7.29,5.7-14.77,5-21.83-1.19-9.26-8.14-18.8-16-28-24.17-5.18-4.59-8.13-10.37-5.33-17.35,2.55-6.36,8.18-7.73,14.46-7.72,21,0,42-.15,62.94,0C361.49,421.44,367.46,426.61,367.3,436.34Z"/></svg>