<?xml version="1.0" encoding="UTF-8"?>
<svg width="900px" height="900px" viewBox="0 0 900 900" version="1.1" xmlns="http://www.w3.org/2000/svg" xmlns:xlink="http://www.w3.org/1999/xlink">
    <title>defiplaza-logo-square-dark</title>
    <defs>
        <linearGradient x1="50%" y1="0%" x2="50%" y2="100%" id="linearGradient-1">
            <stop stop-color="#27AAE1" offset="0%"></stop>
            <stop stop-color="#2B3990" offset="100%"></stop>
        </linearGradient>
    </defs>
    <g id="Page-1" stroke="none" stroke-width="1" fill="none" fill-rule="evenodd">
        <g id="Artboard" transform="translate(-1495.000000, -1401.000000)" fill-rule="nonzero">
            <g id="defiplaza-logo-square-dark" transform="translate(1495.000000, 1401.000000)">
                <rect id="Rectangle" fill="url(#linearGradient-1)" x="0" y="0" width="900" height="900"></rect>
                <g id="Group" transform="translate(169.758621, 100.307882)" fill="#FFFFFF">
                    <polygon id="Path" points="50.9408867 606.546798 50.9408867 256.167488 3.15018947e-14 304.004926 3.15018947e-14 596.105911"></polygon>
                    <polygon id="Path" points="150.406404 626.940887 150.406404 162.820197 99.4655172 210.635468 99.4655172 616.5"></polygon>
                    <polygon id="Path" points="249.849754 647.334975 249.849754 69.4507389 198.908867 117.288177 198.908867 636.894089"></polygon>
                    <polygon id="Path" points="323.82266 662.497537 349.293103 657.288177 349.293103 23.9187192 323.82266 0 298.352217 23.9187192 298.352217 657.288177"></polygon>
                    <polygon id="Path" points="448.758621 636.894089 448.758621 117.288177 397.817734 69.4507389 397.817734 647.334975"></polygon>
                    <polygon id="Path" points="548.20197 616.5 548.20197 210.635468 497.261084 162.820197 497.261084 626.940887"></polygon>
                </g>
            </g>
        </g>
    </g>
</svg>