<svg width="32" height="32" viewBox="0 0 32 32" fill="none" xmlns="http://www.w3.org/2000/svg">
<circle cx="16" cy="16" r="16" fill="url(#paint0_linear_658_913)"/>
<g clip-path="url(#clip0_658_913)">
<path d="M19.0237 11.3278C18.4549 10.5133 17.6801 10.1001 16.7204 10.1001H13.0392V25.6731H16.766C17.4553 25.6731 18.0801 25.409 18.6238 24.8876C19.1674 24.3662 19.4455 23.7558 19.4455 23.0744V12.7216C19.4531 12.2255 19.3059 11.7389 19.0237 11.3278ZM17.0462 13.0892V22.7075C17.0462 23.0285 16.9166 23.3364 16.6861 23.5634C16.4555 23.7904 16.1428 23.9179 15.8167 23.9179H15.4223V11.8795H15.816C16.1421 11.8795 16.4547 12.0069 16.6854 12.2337C16.916 12.4606 17.0458 12.7683 17.0462 13.0892Z" fill="white"/>
<path d="M23.1989 7.82488C22.5852 6.94553 21.6143 6.5 20.3134 6.5H13.0279V25.6655H15.456V8.83733L17.6682 8.79525C18.1012 8.78327 18.5322 8.85687 18.9359 9.0117C19.3395 9.16653 19.7074 9.39945 20.018 9.6967C20.3286 9.99394 20.5756 10.3495 20.7442 10.7423C20.9129 11.1351 20.9998 11.5572 20.9999 11.9836V22.4737L21.1134 22.4509C21.6962 22.3337 22.2377 22.0371 22.7246 21.575C23.3726 20.9543 23.7018 20.2295 23.7018 19.4232V9.47252C23.7094 8.88557 23.5338 8.31048 23.1989 7.82488Z" fill="white"/>
<path d="M11.5295 12.4775C10.8458 12.6154 10.2174 12.9577 9.64441 13.5044C8.88131 14.2354 8.49976 15.0732 8.49976 16.0176V25.7H11.5295V12.4775Z" fill="white"/>
</g>
<defs>
<linearGradient id="paint0_linear_658_913" x1="-2.4" y1="38.4" x2="25.3101" y2="-4.75098" gradientUnits="userSpaceOnUse">
<stop stop-color="#F6416C"/>
<stop offset="1" stop-color="#FFF6B7"/>
</linearGradient>
<clipPath id="clip0_658_913">
<rect width="15.2" height="19.2" fill="white" transform="translate(8.5 6.5)"/>
</clipPath>
</defs>
</svg>
