<svg width="600" height="600" viewBox="0 0 600 600" fill="none" xmlns="http://www.w3.org/2000/svg">
<rect width="600" height="600" fill="#092540"/>
<path d="M230.161 461.45C219.061 461.45 211.561 458.6 207.661 452.9C203.761 447.2 201.811 440.9 201.811 434V130.7C201.811 123.8 203.761 117.65 207.661 112.25C211.561 106.55 219.061 103.7 230.161 103.7H386.761C397.861 103.7 403.711 111.2 404.311 126.2C404.911 141.5 399.061 149.15 386.761 149.15H254.911V416H394.861C405.961 416 411.661 423.35 411.961 438.05C412.561 453.65 406.861 461.45 394.861 461.45H230.161ZM370.111 275.15C370.111 285.65 366.361 294.5 358.861 301.7C351.661 308.9 342.811 312.5 332.311 312.5C322.111 312.5 313.411 308.9 306.211 301.7C299.011 294.5 295.411 285.65 295.411 275.15C295.411 264.65 299.011 255.8 306.211 248.6C313.411 241.4 322.111 237.8 332.311 237.8C342.811 237.8 351.661 241.4 358.861 248.6C366.361 255.8 370.111 264.65 370.111 275.15Z" fill="#F0C068"/>
<path d="M207.661 452.9L208.487 452.335L208.487 452.335L207.661 452.9ZM207.661 112.25L208.472 112.835L208.479 112.825L208.487 112.815L207.661 112.25ZM404.311 126.2L405.311 126.161L405.311 126.16L404.311 126.2ZM254.911 149.15V148.15H253.911V149.15H254.911ZM254.911 416H253.911V417H254.911V416ZM411.961 438.05L410.962 438.07L410.962 438.079L410.962 438.088L411.961 438.05ZM358.861 301.7L358.169 300.979L358.161 300.986L358.154 300.993L358.861 301.7ZM358.861 248.6L358.154 249.307L358.161 249.314L358.169 249.321L358.861 248.6ZM230.161 460.45C219.186 460.45 212.108 457.629 208.487 452.335L206.836 453.465C211.014 459.571 218.936 462.45 230.161 462.45V460.45ZM208.487 452.335C204.7 446.801 202.811 440.698 202.811 434H200.811C200.811 441.102 202.822 447.599 206.836 453.465L208.487 452.335ZM202.811 434V130.7H200.811V434H202.811ZM202.811 130.7C202.811 124.002 204.7 118.059 208.472 112.835L206.851 111.664C202.823 117.241 200.811 123.598 200.811 130.7H202.811ZM208.487 112.815C212.108 107.521 219.186 104.7 230.161 104.7V102.7C218.936 102.7 211.014 105.579 206.836 111.685L208.487 112.815ZM230.161 104.7H386.761V102.7H230.161V104.7ZM386.761 104.7C392.061 104.7 395.983 106.475 398.685 109.94C401.427 113.455 403.016 118.837 403.312 126.24L405.311 126.16C405.007 118.563 403.371 112.695 400.262 108.71C397.115 104.675 392.562 102.7 386.761 102.7V104.7ZM403.312 126.239C403.608 133.785 402.3 139.247 399.579 142.805C396.895 146.316 392.695 148.15 386.761 148.15V150.15C393.128 150.15 398.003 148.159 401.168 144.02C404.297 139.928 405.615 133.915 405.311 126.161L403.312 126.239ZM386.761 148.15H254.911V150.15H386.761V148.15ZM253.911 149.15V416H255.911V149.15H253.911ZM254.911 417H394.861V415H254.911V417ZM394.861 417C400.169 417 404.048 418.743 406.671 422.125C409.333 425.557 410.814 430.819 410.962 438.07L412.961 438.03C412.809 430.581 411.29 424.818 408.252 420.9C405.175 416.932 400.654 415 394.861 415V417ZM410.962 438.088C411.258 445.792 409.986 451.374 407.329 455.01C404.713 458.59 400.629 460.45 394.861 460.45V462.45C401.094 462.45 405.86 460.41 408.944 456.19C411.987 452.026 413.264 445.908 412.961 438.012L410.962 438.088ZM394.861 460.45H230.161V462.45H394.861V460.45ZM369.111 275.15C369.111 285.381 365.47 293.969 358.169 300.979L359.554 302.421C367.252 295.031 371.111 285.919 371.111 275.15H369.111ZM358.154 300.993C351.148 307.999 342.555 311.5 332.311 311.5V313.5C343.067 313.5 352.174 309.801 359.568 302.407L358.154 300.993ZM332.311 311.5C322.376 311.5 313.931 308.005 306.918 300.993L305.504 302.407C312.892 309.795 321.847 313.5 332.311 313.5V311.5ZM306.918 300.993C299.912 293.987 296.411 285.394 296.411 275.15H294.411C294.411 285.906 298.11 295.013 305.504 302.407L306.918 300.993ZM296.411 275.15C296.411 264.906 299.912 256.313 306.918 249.307L305.504 247.893C298.11 255.287 294.411 264.394 294.411 275.15H296.411ZM306.918 249.307C313.931 242.295 322.376 238.8 332.311 238.8V236.8C321.847 236.8 312.892 240.505 305.504 247.893L306.918 249.307ZM332.311 238.8C342.555 238.8 351.148 242.301 358.154 249.307L359.568 247.893C352.174 240.499 343.067 236.8 332.311 236.8V238.8ZM358.169 249.321C365.47 256.331 369.111 264.919 369.111 275.15H371.111C371.111 264.381 367.252 255.269 359.554 247.879L358.169 249.321Z" fill="#F0C068"/>
</svg>