<?xml version="1.0" encoding="UTF-8"?>
<svg width="56px" height="55px" viewBox="0 0 56 55" version="1.1" xmlns="http://www.w3.org/2000/svg" xmlns:xlink="http://www.w3.org/1999/xlink">
    <!-- Generator: Sketch 55.2 (78181) - https://sketchapp.com -->
    <title>logo</title>
    <desc>Created with Sketch.</desc>
    <g id="页面2" stroke="none" stroke-width="1" fill="none" fill-rule="evenodd">
        <g id="Staking备份-3" transform="translate(-62.000000, -46.000000)">
            <g id="左侧导航">
                <g id="logo" transform="translate(62.000000, 46.000000)">
                    <g id="编组" transform="translate(0.000000, 0.107547)">
                        <polygon id="Fill-1" fill="#2B2C34" points="3.5312194 54.5702615 6.19025388 54.5702615 6.19025388 43.9161013 3.5312194 43.9161013"></polygon>
                        <path d="M7.65441713,54.5702374 L7.65441713,46.9620113 L10.0638525,46.9620113 L10.0638525,47.7266191 C10.6810363,47.1225513 11.3048499,46.8205775 11.9350477,46.8205775 C12.4078495,46.8205775 12.779854,46.9886879 13.0511841,47.3250288 C13.3225141,47.6613697 13.4581792,48.1080218 13.4581792,48.6647447 L13.4581792,54.5702374 L11.0487438,54.5702374 L11.0487438,48.9411235 C11.0487438,48.7740946 11.0202603,48.6509258 10.963416,48.5716171 C10.906449,48.4924286 10.8079844,48.4549372 10.6678995,48.4592631 C10.4796873,48.4763265 10.2783383,48.5491463 10.0638525,48.6776023 L10.0638525,54.5702374 L7.65441713,54.5702374 Z" id="Fill-2" fill="#2B2C34"></path>
                        <path d="M17.1808397,54.7116472 C16.5068117,54.7116472 15.94328,54.5723764 15.4902448,54.2938347 C15.0372095,54.0155333 14.6443335,53.5420845 14.3117393,52.8738488 L15.9070618,52.134836 C16.086557,52.4560362 16.281399,52.7110256 16.4914649,52.899564 C16.6795544,53.0665929 16.8634695,53.1522703 17.0429648,53.1565962 C17.0692383,53.1565962 17.093302,53.1544333 17.1151557,53.1501073 C17.2202501,53.1372497 17.30877,53.092188 17.3810837,53.0151624 C17.4532747,52.9380167 17.4871603,52.8415245 17.4828632,52.7260462 C17.4828632,52.666084 17.4586768,52.6007145 17.4106722,52.5300576 C17.3624221,52.4592806 17.2913361,52.3790106 17.1972914,52.2890073 C17.1031239,52.1991241 17.0144812,52.1198155 16.9313634,52.0512014 C16.8482455,51.9828277 16.7365214,51.8928244 16.5965593,51.7813116 C16.4564744,51.6700391 16.3513801,51.5864045 16.281399,51.5307682 L15.9399651,51.2480208 C15.5329701,50.9096371 15.1892035,50.5422937 14.9092793,50.1459906 C14.6289867,49.7498077 14.4912346,49.3652807 14.4955316,48.9925299 C14.4955316,48.3800506 14.7461129,47.8647845 15.2472755,47.4470921 C15.748438,47.0292795 16.3339462,46.8205535 17.0035544,46.8205535 C17.6557287,46.8205535 18.2083335,46.9844581 18.6613687,47.3121472 C19.1144039,47.6398362 19.4458931,48.1228982 19.6560818,48.7610928 L18.106554,49.4937368 C18.0147192,49.2495621 17.8789314,49.0182452 17.6995589,48.7997858 C17.5199409,48.5812062 17.3361485,48.4656078 17.1480591,48.4527502 C17.0035544,48.4398926 16.8896203,48.4688523 16.8066252,48.5395091 C16.7233846,48.6101659 16.6795544,48.694882 16.6753801,48.7932969 C16.6708374,48.8661167 16.6883941,48.9421809 16.7279272,49.0213694 C16.7672149,49.1007983 16.8405108,49.1927243 16.9478151,49.2977482 C17.0549966,49.4027721 17.1480591,49.4906125 17.2268799,49.5612693 C17.3055779,49.6319261 17.430316,49.7358686 17.6009716,49.8728563 C17.7717499,50.0099642 17.8920682,50.1084992 17.962172,50.1684614 L18.2640728,50.4190047 C18.2859265,50.4361883 18.3166199,50.4619035 18.3560303,50.4962706 C18.5355256,50.6462361 18.6721728,50.762916 18.7664631,50.8464304 C18.8605078,50.9299449 18.981931,51.0510709 19.1308556,51.2093277 C19.2795347,51.3680653 19.392241,51.5093789 19.4688518,51.6336292 C19.5454627,51.7578795 19.6133566,51.9066433 19.6724108,52.0802813 C19.7314649,52.2536789 19.7610534,52.4304411 19.7610534,52.6103276 C19.7610534,52.9359739 19.6876347,53.2336218 19.5411656,53.5035116 C19.3944509,53.7734015 19.1986268,53.9951053 18.9534475,54.1685029 C18.7082683,54.3421409 18.4325184,54.4760043 18.1263206,54.5702134 C17.8198772,54.6643023 17.5047169,54.7116472 17.1808397,54.7116472" id="Fill-4" fill="#2B2C34"></path>
                        <path d="M22.0787154,54.7116472 C21.6103335,54.7116472 21.2404161,54.5435368 20.969086,54.2071959 C20.6976332,53.870855 20.5620909,53.4242029 20.5620909,52.8672397 L20.5620909,46.9619873 L22.9650193,46.9619873 L22.9650193,52.6811046 C22.9650193,52.998099 23.0897575,53.1565962 23.3392338,53.1565962 L23.3721372,53.1565962 C23.5252361,53.1479444 23.7025214,53.092188 23.9038704,52.9894472 L23.9038704,46.9619873 L26.3067988,46.9619873 L26.3067988,54.5702134 L23.9038704,54.5702134 L23.9038704,53.8827513 C23.3041205,54.4352685 22.6958992,54.7116472 22.0787154,54.7116472" id="Fill-6" fill="#2B2C34"></path>
                        <path d="M27.6790167,54.5702374 L27.6790167,46.9620113 L30.0885749,46.9620113 L30.0885749,48.2856252 C30.5568341,47.3431737 31.0579967,46.872008 31.5920626,46.872008 C31.701454,46.872008 31.8130554,46.8933973 31.9268667,46.9362961 L31.9268667,48.9025506 C31.8611827,48.8940189 31.7954987,48.8940189 31.7299376,48.9025506 C31.0777632,48.9453292 30.5306833,49.2774644 30.0885749,49.8985956 L30.0885749,54.5702374 L27.6790167,54.5702374 Z" id="Fill-8" fill="#2B2C34"></path>
                        <path d="M35.5247891,50.9395941 L36.5030505,50.9395941 L36.0104822,46.9619032 L35.5247891,50.9395941 Z M32.4717736,54.5702495 L34.4479403,43.9160893 L37.5468732,43.9160893 L39.5033961,54.5702495 L37.0675644,54.5702495 L36.7262533,52.4433348 L35.3146004,52.4433348 L34.9863033,54.5702495 L32.4717736,54.5702495 Z" id="Fill-10" fill="#2B2C34"></path>
                        <path d="M43.1341237,54.7116472 C42.2980343,54.7116472 41.6208141,54.4973936 41.1020949,54.0688864 C40.5834984,53.6406195 40.3240775,53.0516925 40.3240775,52.3018649 L40.3240775,49.217358 C40.3240775,48.4677708 40.5822707,47.8807664 41.09878,47.4567053 C41.6152893,47.0326441 42.2936144,46.8205535 43.1341237,46.8205535 C43.9788073,46.8205535 44.6516076,47.0123363 45.1528929,47.3956616 C45.6540555,47.7792272 45.9046368,48.3413576 45.9046368,49.0824131 L45.9046368,49.9949436 L43.5542556,49.9949436 L43.5542556,49.0053875 C43.5542556,48.7740705 43.5181601,48.6176161 43.4459691,48.5362647 C43.3736553,48.4550333 43.2696659,48.4141774 43.1341237,48.4141774 C42.8758077,48.4141774 42.7467724,48.6326367 42.7467724,49.0696756 L42.7467724,52.4496675 C42.7467724,52.8865862 42.8758077,53.1051657 43.1341237,53.1051657 C43.2653689,53.1051657 43.3681305,53.0644299 43.4426542,52.9829583 C43.5170551,52.9016068 43.5542556,52.7452726 43.5542556,52.5139556 L43.5542556,51.3958233 L45.9046368,51.3958233 L45.9046368,52.4366897 C45.9046368,53.1779855 45.6529505,53.742399 45.1497008,54.1300502 C44.6462055,54.5178216 43.9745102,54.7116472 43.1341237,54.7116472" id="Fill-12" fill="#2B2C34"></path>
                        <path d="M49.2333654,49.8599987 L50.1590797,49.8599987 L50.1590797,49.0824131 C50.1590797,48.6883931 49.992844,48.4912029 49.660127,48.4912029 C49.3755374,48.4912029 49.2333654,48.7097824 49.2333654,49.1467012 L49.2333654,49.8599987 Z M51.6397314,54.1300502 C51.15588,54.5178216 50.4960937,54.7116472 49.660127,54.7116472 C48.8240376,54.7116472 48.1468174,54.4973936 47.628221,54.0688864 C47.109379,53.6406195 46.8502036,53.0516925 46.8502036,52.3018649 L46.8502036,49.2303358 C46.8502036,48.4806284 47.109379,47.8915812 47.628221,47.4631942 C48.1468174,47.0348071 48.8240376,46.8205535 49.660127,46.8205535 C50.5048106,46.8205535 51.1669296,47.0177437 51.6461156,47.4117637 C52.1255473,47.8059038 52.3652017,48.3800506 52.3652017,49.1338436 L52.3652017,50.9267004 L49.2333654,50.9267004 L49.2333654,52.3790106 C49.2333654,52.6103276 49.2738807,52.7785582 49.3547886,52.8833418 C49.4356966,52.9883657 49.5375988,53.0408776 49.660127,53.0408776 C49.992844,53.0408776 50.1590797,52.8438076 50.1590797,52.4496675 L50.1590797,51.8455997 L52.3652017,51.8455997 L52.3652017,52.4304411 C52.3652017,53.1758226 52.1232146,53.742399 51.6397314,54.1300502 L51.6397314,54.1300502 Z" id="Fill-14" fill="#2B2C34"></path>
                        <path d="M7.155354,17.7899949 C7.77216946,18.8940679 7.77216946,20.240513 7.155354,21.3447062 C7.3487227,21.918132 7.7354601,22.5285685 8.287451,23.0688288 C8.83944191,23.6090892 9.4631327,23.9877281 10.0490092,24.1768673 C11.4866901,23.4076932 13.3260869,23.6185822 14.5432661,24.8098947 C15.7603225,26.0012073 15.9759133,27.8015144 15.1899156,29.2085225 C15.3832843,29.7819483 15.7700217,30.3923848 16.3221354,30.9327653 C16.8741263,31.4730257 17.4978171,31.8515444 18.0836935,32.0408038 C19.2118618,31.4370965 20.5874192,31.4370965 21.7155874,32.0408038 C22.3014639,31.8515444 22.9251547,31.4730257 23.4771456,30.9327653 C24.0292593,30.3923848 24.4158739,29.7819483 24.6093654,29.2085225 C23.8232449,27.8015144 24.0388356,26.0012073 25.2560149,24.8098947 C26.4731941,23.6185822 28.3127136,23.4076932 29.7502718,24.1768673 C30.3360255,23.9877281 30.9597163,23.6090892 31.5117072,23.0688288 C32.0638208,22.5285685 32.4505582,21.918132 32.6439269,21.3447062 C32.0272343,20.240513 32.0272343,18.8940679 32.6439269,17.7899949 C32.4505582,17.2165691 32.0638208,16.6061326 31.5117072,16.065752 C30.9597163,15.5254917 30.3360255,15.146973 29.7502718,14.9578338 C28.3127136,15.7270078 26.4731941,15.5159987 25.2560149,14.3248063 C24.0388356,13.1334938 23.8232449,11.3331867 24.6093654,9.92617854 C24.4158739,9.35263257 24.0292593,8.74231621 23.4771456,8.20193569 C22.9251547,7.66167533 22.3014639,7.28303646 21.7155874,7.09389727 C20.5874192,7.69760457 19.2118618,7.69760457 18.0836935,7.09389727 C17.4978171,7.28303646 16.8741263,7.66167533 16.3221354,8.20193569 C15.7700217,8.74231621 15.3832843,9.35263257 15.1899156,9.92617854 C15.9759133,11.3331867 15.7603225,13.1334938 14.5432661,14.3248063 C13.3260869,15.5159987 11.4866901,15.7270078 10.0490092,14.9578338 C9.4631327,15.146973 8.83944191,15.5254917 8.287451,16.065752 C7.7354601,16.6061326 7.3487227,17.2165691 7.155354,17.7899949 M5.64634149,16.3130509 C6.23221796,16.1237916 6.85590875,15.7452729 7.40789966,15.2050125 C7.96001334,14.664632 8.34675074,14.0543156 8.53999667,13.4807696 C7.75399894,12.0737615 7.96971247,10.2734544 9.18676893,9.0821419 C10.4039482,7.89094952 12.2433449,7.67994036 13.6809031,8.44911442 C14.2667795,8.25985506 14.8904703,7.88145651 15.442584,7.34107599 C15.9945749,6.80081564 16.3813123,6.19037911 16.574681,5.61695331 C15.7886833,4.20994518 16.004274,2.40951793 17.2214533,1.21832556 C18.7006318,-0.229418388 21.0986492,-0.229418388 22.5778277,1.21832556 C23.7950069,2.40951793 24.0105977,4.20994518 23.2245999,5.61695331 C23.4179686,6.19037911 23.804706,6.80081564 24.3566969,7.34107599 C24.9086878,7.88145651 25.5323786,8.25985506 26.1183779,8.44911442 C27.555936,7.67994036 29.3953328,7.89094952 30.612512,9.0821419 C31.8295685,10.2734544 32.0451592,12.0737615 31.2592843,13.4807696 C31.4525302,14.0543156 31.8392676,14.664632 32.3912585,15.2050125 C32.9432494,15.7452729 33.567063,16.1237916 34.1529394,16.3130509 C35.5904976,15.5437567 37.4298944,15.7547659 38.6470736,16.9460784 C40.1261293,18.3937022 40.1261293,20.7409989 38.6470736,22.1886226 C37.4298944,23.3799352 35.5904976,23.5909443 34.1529394,22.8216501 C33.567063,23.0109095 32.9432494,23.3894282 32.3912585,23.9296885 C31.8392676,24.4699489 31.4525302,25.0803854 31.2592843,25.6538112 C32.0451592,27.0609395 31.8295685,28.8612466 30.612512,30.052439 C29.3953328,31.2437515 27.555936,31.4547607 26.1183779,30.6854665 C25.5323786,30.8747258 24.9086878,31.2532445 24.3566969,31.793625 C23.804706,32.3338854 23.4179686,32.9443219 23.2245999,33.5177477 C24.0105977,34.9247559 23.7950069,36.7250629 22.5778277,37.9163755 C21.0986492,39.3641194 18.7006318,39.3641194 17.2214533,37.9163755 C16.004274,36.7250629 15.7886833,34.9247559 16.574681,33.5177477 C16.3813123,32.9443219 15.9945749,32.3338854 15.442584,31.793625 C14.8904703,31.2532445 14.2667795,30.8747258 13.6809031,30.6854665 C12.2433449,31.4547607 10.4039482,31.2437515 9.18676893,30.052439 C7.96971247,28.8612466 7.75399894,27.0609395 8.53999667,25.6538112 C8.34675074,25.0803854 7.96001334,24.4699489 7.40789966,23.9296885 C6.85590875,23.3894282 6.23221796,23.0109095 5.64634149,22.8216501 C4.20878333,23.5909443 2.36938659,23.3799352 1.15220735,22.1886226 C-0.326971125,20.7409989 -0.326971125,18.3937022 1.15220735,16.9460784 C2.36938659,15.7547659 4.20878333,15.5437567 5.64634149,16.3130509" id="Fill-16" fill="#75B943"></path>
                        <path d="M26.146137,14.9214119 C25.5603833,15.1106712 24.9365698,15.4891899 24.3845789,16.0294503 C23.8324652,16.5697106 23.4458505,17.1801472 23.2524818,17.753573 C23.8692973,18.8577661 23.8692973,20.2040911 23.2524818,21.3082842 C23.4458505,21.88171 23.8324652,22.4921466 24.3845789,23.0325271 C25.0131806,23.6477702 25.7348449,24.053326 26.3878786,24.2083384 C27.0406668,24.3633508 26.572162,25.2602599 26.1767077,25.6473103 C25.7811306,26.0343607 24.8647471,26.4930293 24.7063689,25.8539935 C24.5479908,25.2149578 24.1336293,24.5086299 23.5050275,23.8933868 C22.9530366,23.3530063 22.3293458,22.9744876 21.7434693,22.7852282 C20.3059112,23.5545224 18.4663917,23.3435133 17.2493352,22.1522007 C15.7701567,20.7045769 15.7701567,18.3574004 17.2493352,16.9096565 C18.4663917,15.718344 20.3059112,15.5073348 21.7434693,16.276629 C22.3293458,16.0874898 22.9530366,15.7088509 23.5050275,15.1685906 C24.0570184,14.6283302 24.4438786,14.0178937 24.6371245,13.4443477 C23.8512496,12.0374598 24.0667175,10.2370325 25.2840196,9.04584015 C26.501076,7.85452761 28.3404728,7.64351845 29.7780309,8.4126925 C30.3639074,8.22355331 30.987721,7.8450346 31.5397119,7.30477425 C32.0917028,6.76439372 32.4784402,6.1539572 32.6716861,5.58053139 C31.8858111,4.17352327 32.1014019,2.37321619 33.3185811,1.18190365 C34.7976368,-0.2658403 37.195777,-0.2658403 38.6749555,1.18190365 C39.8921347,2.37321619 40.1077255,4.17352327 39.321605,5.58053139 C39.5150965,6.1539572 39.9018339,6.76439372 40.4538248,7.30477425 C41.0058157,7.8450346 41.6295065,8.22355331 42.2155057,8.4126925 C43.6530639,7.64351845 45.4924606,7.85452761 46.7095171,9.04584015 C47.9266963,10.2370325 48.1422871,12.0374598 47.3564121,13.4443477 C47.5496581,14.0178937 47.9363955,14.6283302 48.4883864,15.1685906 C49.0405,15.7088509 49.6641908,16.0874898 50.2500673,16.276629 C51.6876255,15.5073348 53.527145,15.718344 54.7442014,16.9096565 C56.2232571,18.3574004 56.2232571,20.7045769 54.7442014,22.1522007 C53.527145,23.3435133 51.6876255,23.5545224 50.2500673,22.7852282 C49.6641908,22.9744876 49.0405,23.3530063 48.4883864,23.8933868 C47.9363955,24.4336471 47.5496581,25.0440837 47.3564121,25.6175095 C48.1422871,27.0245176 47.9266963,28.8248247 46.7095171,30.0161372 C45.4924606,31.2074498 43.6530639,31.4184589 42.2155057,30.6491647 C41.6295065,30.8383039 41.0058157,31.2168226 40.4538248,31.7572031 C39.9018339,32.2974635 39.5150965,32.9079 39.321605,33.4813258 C40.1077255,34.8884541 39.8921347,36.688641 38.6749555,37.8800737 C37.195777,39.3276975 34.7976368,39.3276975 33.3185811,37.8800737 C32.1014019,36.688641 31.8858111,34.8884541 32.6716861,33.4813258 C32.4784402,32.9079 32.0917028,32.2974635 31.5397119,31.7572031 C30.9109873,31.1418399 30.1894459,30.7362841 29.5364121,30.5812717 C28.8835012,30.4262592 29.3520059,29.5294703 29.747583,29.1424199 C30.1431601,28.7552493 31.0594208,28.296701 31.217799,28.9356165 C31.3763,29.5746522 31.7905387,30.2809802 32.4192632,30.8963434 C32.9712541,31.4366038 33.5949449,31.8151225 34.1806986,32.0043819 C35.3089896,31.4006746 36.684547,31.4006746 37.8125925,32.0043819 C38.3985917,31.8151225 39.0222825,31.4366038 39.5742734,30.8963434 C40.1262643,30.3560831 40.5131245,29.7456466 40.7063704,29.1722207 C39.9203727,27.7650925 40.1359635,25.9647854 41.3531427,24.773593 C42.5701992,23.5822805 44.4097187,23.3712713 45.8473996,24.1405655 C46.4331533,23.9513062 47.0568441,23.5727874 47.608835,23.0325271 C48.1609487,22.4921466 48.5476861,21.88171 48.7410548,21.3082842 C48.1242393,20.2040911 48.1242393,18.8577661 48.7410548,17.753573 C48.5476861,17.1801472 48.1609487,16.5697106 47.608835,16.0294503 C47.0568441,15.4891899 46.4331533,15.1106712 45.8473996,14.9214119 C44.4097187,15.6905859 42.5701992,15.4796969 41.3531427,14.2883844 C40.1359635,13.0970718 39.9203727,11.2967648 40.7063704,9.88975663 C40.5131245,9.31621066 40.1262643,8.7058943 39.5742734,8.16551378 C39.0222825,7.62525342 38.3985917,7.24673471 37.8125925,7.05747536 C36.684547,7.66118266 35.3089896,7.66118266 34.1806986,7.05747536 C33.5949449,7.24673471 32.9712541,7.62525342 32.4192632,8.16551378 C31.8672723,8.7058943 31.4804121,9.31621066 31.2870434,9.88975663 C32.0730412,11.2967648 31.8575732,13.0970718 30.6402712,14.2883844 C29.4230919,15.4796969 27.583818,15.6905859 26.146137,14.9214119" id="Fill-18" fill="#008845"></path>
                        <path d="M27.9222807,31.1210514 C30.0139776,31.1210514 31.7098518,29.4613369 31.7098518,27.4139713 C31.7098518,25.3666056 30.0139776,23.7068912 27.9222807,23.7068912 C25.8304611,23.7068912 24.1345869,25.3666056 24.1345869,27.4139713 C24.1345869,29.4613369 25.8304611,31.1210514 27.9222807,31.1210514" id="Fill-20" fill="#75B943"></path>
                    </g>
                </g>
            </g>
        </g>
    </g>
</svg>