<?xml version="1.0" encoding="UTF-8"?>
<svg width="311px" height="212px" viewBox="0 0 311 212" version="1.1" xmlns="http://www.w3.org/2000/svg" xmlns:xlink="http://www.w3.org/1999/xlink">
    <title>Group Copy</title>
    <g id="Page-1" stroke="none" stroke-width="1" fill="none" fill-rule="evenodd">
        <g id="Group-Copy" transform="translate(0.226000, 0.957056)" fill="#486581">
            <path d="M216.306,148.47 C208.827,141.057 198.267,134.106 192.585,130.599 C197.04,126.039 201.087,121.242 204.249,116.292 C212.718,119.898 228.219,127.995 227.817,138.864 C226.974,147.492 220.557,148.659 216.306,148.47 Z M198.204,162.936 C192.534,155.145 186.462,148.482 181.851,140.616 C185.109,137.805 188.346,134.85 191.418,131.781 C195.039,134.148 199.749,137.472 203.652,141.051 L203.46,140.904 C204.837,142.155 206.118,143.439 207.222,144.723 C207.267,144.771 207.306,144.822 207.348,144.873 C207.81,145.416 208.23,145.959 208.617,146.499 C208.716,146.634 208.812,146.766 208.905,146.901 C209.25,147.405 209.553,147.909 209.823,148.407 C210.198,149.1 210.525,149.787 210.732,150.459 C213.252,158.679 204.543,163.347 198.204,162.936 Z M164.466,187.014 C162.66,178.149 159.6,167.331 158.412,159.441 C161.223,157.158 164.595,154.56 168.297,151.665 L179.536968,141.654204 C179.545968,141.621204 180.315,142.617 180.966,143.532 C180.987,143.583 181.005,143.631 181.026,143.685 C181.284,144.045 181.572,144.393 181.839,144.75 C182.163,145.188 182.499,145.62 182.835,146.055 C183.264,146.61 183.672,147.174 184.11,147.729 C184.098,147.702 184.086,147.678 184.074,147.654 C187.05,151.41 190.203,155.184 192.798,159.843 C192.96,160.131 193.122,160.536 193.278,160.971 C193.413,161.34 193.533,161.787 193.653,162.24 C193.692,162.387 193.734,162.516 193.77,162.669 C193.872,163.098 193.95,163.578 194.028,164.055 C194.064,164.283 194.109,164.502 194.139,164.739 C194.199,165.201 194.226,165.687 194.256,166.173 C194.274,166.458 194.295,166.737 194.301,167.028 C194.31,167.499 194.283,167.976 194.253,168.453 C194.079,171.387 193.203,174.327 190.887,176.106 C187.872,178.419 184.821,177.891 182.397,176.628 C179.625,169.26 175.911,161.277 172.806,154.986 C172.707,154.998 172.605,155.022 172.509,155.022 C172.134,155.022 171.786,154.941 171.48,154.779 C171.06,154.557 170.754,154.284 170.532,153.999 C170.292,154.023 170.013,154.029 169.746,154.047 C171.795,158.322 174.024,163.305 175.647,167.829 C175.644,167.823 175.641,167.814 175.638,167.808 C176.091,169.071 176.496,170.295 176.838,171.462 C176.844,171.483 176.85,171.507 176.859,171.531 C177.015,172.065 177.153,172.584 177.282,173.091 C177.297,173.154 177.315,173.22 177.33,173.28 C177.441,173.742 177.537,174.183 177.621,174.615 C177.642,174.708 177.663,174.804 177.678,174.894 C177.753,175.287 177.804,175.656 177.852,176.022 C177.867,176.133 177.888,176.25 177.9,176.358 C177.936,176.691 177.951,177.003 177.96,177.309 C177.966,177.42 177.978,177.543 177.978,177.654 C177.978,177.948 177.954,178.215 177.93,178.476 C177.918,178.572 177.921,178.677 177.906,178.77 C177.858,179.106 177.783,179.418 177.678,179.691 C177.537,180.189 177.369,180.636 177.198,181.08 C177.042,181.458 176.883,181.821 176.712,182.166 C173.778,188.13 167.985,188.301 164.466,187.014 Z M151.296,190.578 C148.242,189.873 146.628,187.326 145.857,184.014 C147.198,176.595 148.128,168.105 148.77,160.146 C149.454,162.024 150.297,163.983 151.344,166.041 C152.349,164.661 154.278,162.876 156.792,160.776 C158.235,168.612 161.733,179.664 161.094,184.287 C161.067,184.479 161.031,184.656 160.992,184.833 C160.92,185.115 160.848,185.394 160.734,185.607 C160.374,186.279 159.987,186.879 159.579,187.422 C159.543,187.476 159.504,187.518 159.465,187.569 C159.069,188.088 158.655,188.562 158.226,188.97 C156.216,190.884 153.849,191.535 151.296,190.578 Z M132.471,125.313 C135.279,123.066 145.65,121.635 148.794,119.052 C151.125,122.169 149.664,126.774 149.664,126.774 C149.664,126.774 140.076,139.323 135.339,140.787 L135.342,140.784 C135.201,140.826 135.066,140.856 134.931,140.883 C134.7,140.922 134.469,140.961 134.268,140.934 C134.19,140.922 134.112,140.868 134.034,140.835 C131.454,139.779 129.744,127.497 132.471,125.313 Z M169.395,88.182 L169.398,88.179 C169.938,87.357 170.478,86.52 170.997,85.683 C175.344,78.684 174.525,75.039 174.252,72.789 C174.222,72.534 174.126,72.312 174.003,72.105 C173.964,72.042 173.913,71.982 173.868,71.922 C173.763,71.787 173.646,71.661 173.508,71.544 C173.481,71.52 173.463,71.49 173.436,71.469 C173.397,71.436 173.349,71.409 173.307,71.379 C173.139,71.259 172.959,71.145 172.764,71.04 C172.611,70.959 172.452,70.878 172.29,70.803 C172.209,70.767 172.131,70.731 172.053,70.695 C171.636,70.512 171.21,70.335 170.79,70.158 C170.415,69.999 170.067,69.831 169.743,69.648 C169.647,69.594 169.557,69.537 169.467,69.48 C169.134,69.264 168.834,69.03 168.648,68.736 C167.556,67.032 170.556,64.509 170.556,64.509 C170.556,64.509 169.587,64.062 168.471,63.411 C167.259,62.703 165.873,61.749 165.339,60.828 C164.316,59.052 167.319,57.756 167.319,57.756 C167.319,57.756 160.935,55.302 159.807,53.559 C159.045,52.377 159.513,51.642 160.263,51.165 C161.217,50.559 162.639,50.391 162.639,50.391 C162.639,50.391 153.753,44.718 151.809,41.955 C150.804,40.617 154.365,41.1 156.378,41.136 C156.621,41.139 156.93,41.166 157.296,41.211 C159.822,41.535 165.348,42.972 174.504,46.722 C175.05,46.944 175.542,47.133 176.118,47.373 C176.172,47.448 176.247,47.598 176.322,47.754 C176.58,48.294 176.961,49.311 177.456,50.652 C179.01,54.864 181.731,62.355 185.736,69.192 C185.868,69.417 186.006,69.636 186.141,69.858 C186.558,70.548 186.984,71.229 187.428,71.901 C187.617,72.186 187.809,72.468 188.004,72.747 C188.433,73.371 188.877,73.974 189.33,74.568 C189.525,74.823 189.714,75.078 189.912,75.327 C190.563,76.137 191.229,76.92 191.928,77.649 C191.55,77.598 191.16,77.625 190.773,77.628 C181.473,77.769 169.962,94.068 163.743,97.65 C163.071,98.262 161.19,99.492 161.19,99.492 C161.19,99.492 165.42,94.215 169.395,88.182 Z M152.544,87.558 C148.92,86.199 152.544,83.025 152.544,83.025 C152.544,83.025 143.481,84.723 142.233,83.025 C140.988,81.324 150.279,78.606 150.279,78.606 C150.279,78.606 138.606,79.626 136.68,77.811 C134.754,75.999 143.706,73.167 143.706,73.167 C143.706,73.167 130.449,74.979 129.09,73.734 C127.731,72.486 139.854,69.315 139.854,69.315 C139.854,69.315 125.916,71.694 124.671,69.993 C123.423,68.295 135.54,66.141 135.54,66.141 C135.54,66.141 114.018,65.349 112.773,63.195 C111.525,61.041 127.275,60.024 127.275,60.024 C127.275,60.024 103.482,55.602 102.462,53.223 C101.442,50.844 116.853,49.854 116.853,49.854 C116.853,49.854 90.678,43.707 91.812,40.533 C92.127,39.108 119.046,41.283 135.201,42.72 C139.725,45.711 146.436,46.956 146.436,46.956 C146.436,46.956 138.213,47.814 141.339,52.65 C143.37,55.791 154.293,56.652 154.293,56.652 C154.293,56.652 148.89,58.983 150.732,62.175 C152.574,65.367 159.693,64.752 159.693,64.752 C159.693,64.752 154.293,69.294 156.255,72.363 C158.22,75.432 163.866,72.363 164.358,76.416 C164.643,78.762 164.511,79.74 163.842,82.161 C159.972,84.999 154.716,88.371 152.544,87.558 Z M149.802,129.939 C149.157,132.228 148.326,134.709 147.633,137.448 C147.018,138.903 146.352,140.427 145.647,141.975 L145.665,141.951 C142.149,149.658 137.658,157.839 133.881,159.342 C133.89,159.327 133.899,159.309 133.908,159.294 C133.422,159.492 132.945,159.618 132.486,159.579 C132.183,159.591 131.892,159.522 131.604,159.447 C131.454,159.402 131.304,159.363 131.157,159.3 C129,158.373 127.587,154.983 128.676,150.426 C128.865,150.351 129.051,150.282 129.249,150.189 C129.462,150.087 129.69,149.955 129.912,149.832 C130.257,149.643 130.602,149.448 130.965,149.214 C131.211,149.055 131.463,148.878 131.715,148.701 C131.916,148.56 132.108,148.446 132.312,148.293 C132.288,148.302 132.267,148.305 132.243,148.314 C138.42,143.757 146.316,134.295 149.802,129.936 L149.802,129.939 Z M146.196,159.63 C145.869,163.161 145.446,166.767 144.9,170.094 C144.894,170.133 144.888,170.172 144.882,170.211 C144.15,174.639 143.199,178.557 141.963,181.122 C141.96,181.131 141.954,181.143 141.951,181.152 C141.642,181.788 141.315,182.343 140.97,182.799 C140.433,183.507 139.854,183.996 139.221,184.179 C134.763,185.463 131.751,182.37 129.45,175.464 C129.123,174.483 129.057,173.355 129.144,172.155 C129.159,172.14 129.174,172.125 129.189,172.11 C129.435,171.861 129.681,171.603 129.93,171.327 C130.053,171.192 130.176,171.054 130.299,170.913 C130.38,170.817 130.461,170.733 130.545,170.637 C130.536,170.64 130.53,170.643 130.521,170.646 C136.287,163.845 142.368,150.726 146.505,140.754 L147.066,139.956 C146.352,143.58 146.034,147.669 146.754,152.382 C146.61,154.677 146.427,157.131 146.196,159.63 Z M208.926,107.124 C211.911,97.815 211.737,92.721 211.737,92.721 C210.999,94.032 205.623,91.32 199.146,86.412 C199.173,86.433 199.197,86.457 199.221,86.478 C184.161,84.402 166.899,107.292 151.59,117.726 C151.296,116.889 150.894,116.073 150.363,115.305 C165.906,103.845 183.171,81.837 198.312,83.925 C198.291,83.907 198.273,83.886 198.252,83.871 C205.032,89.007 210.657,91.842 211.431,90.468 C214.683,80.712 209.103,67.332 225.24,49.164 C228.687,45.285 236.163,37.386 237.945,33.117 C237.591,33.174 237.393,33.207 237.393,33.207 C237.393,33.207 236.574,29.091 238.347,25.743 C228.381,31.257 222.075,43.086 216.033,41.31 C209.775,39.468 204.183,28.266 209.103,23.442 C215.334,17.328 236.148,21.861 239.094,24.612 C239.889,23.598 240.99,22.716 242.547,22.161 C242.676,22.161 242.907,22.164 243.183,22.164 C235.113,18.09 229.113,9.015 210.141,12.831 C194.613,15.579 190.608,31.308 178.458,41.055 C149.931,18.246 89.022,43.332 42.012,2.27373675e-13 C52.326,12.813 64.167,22.185 75.141,28.959 C113.91,34.914 150.642,32.067 174.3,42.873 C174.543,43.062 174.753,43.305 174.951,43.563 C174.84,43.632 174.711,43.689 174.597,43.755 C153.792,35.019 144.102,38.607 140.481,38.544 C140.442,38.544 140.4,38.541 140.361,38.541 C120.939,36.453 98.418,36.036 75.141,32.46 C49.941,28.59 23.886,21.006 0,3.504 C31.668,46.464 87.942,48.429 87.942,48.429 C87.942,48.429 65.301,49.164 69.474,53.091 C73.647,57.021 109.98,59.475 109.98,59.475 C109.98,59.475 76.593,60.456 82.731,63.402 C88.869,66.348 117.837,68.805 117.837,68.805 C117.837,68.805 94.269,68.067 97.461,70.524 C100.65,72.978 121.764,73.47 121.764,73.47 C121.764,73.47 105.93,75.249 108.507,76.845 C111.672,78.804 122.814,77.853 128.847,77.163 C129.204,77.337 129.606,77.493 130.086,77.607 C126.492,78.927 120.906,81.276 123.483,82.308 C126.816,83.64 138.171,82.563 140.292,82.344 C140.31,82.353 140.331,82.359 140.349,82.368 C138.51,82.722 128.691,84.741 132.258,86.97 C136.188,89.424 145.578,87.462 145.578,87.462 C145.578,87.462 138.519,92.496 142.2,94.152 C146.217,95.958 152.085,94.863 155.031,94.119 C156.156,93.834 156.87,93.6 156.87,93.6 C156.87,93.6 158.319,92.988 160.365,91.581 C160.671,91.56 160.965,91.53 161.265,91.494 C158.58,100.176 144.942,114.465 140.148,119.295 C136.356,120.447 132.276,121.521 128.967,122.658 C129.003,122.643 129.036,122.631 129.075,122.619 C128.553,122.691 128.061,122.874 127.599,123.153 C127.719,123.105 127.854,123.06 127.977,123.015 C127.848,123.063 127.719,123.108 127.593,123.156 C127.593,123.156 127.596,123.153 127.599,123.153 C127.485,123.195 127.368,123.237 127.26,123.279 C126.939,123.402 126.651,123.531 126.354,123.657 C126.15,123.744 125.931,123.831 125.736,123.918 C125.439,124.059 125.178,124.2 124.911,124.341 C124.758,124.422 124.587,124.5 124.446,124.581 C124.059,124.806 123.714,125.034 123.42,125.268 C121.695,126.648 121.053,130.509 121.161,134.826 C121.194,136.263 121.314,137.754 121.503,139.221 C121.599,139.953 121.71,140.679 121.839,141.39 C122.547,145.32 123.753,148.731 125.181,150.144 C124.764,150.615 124.353,151.08 123.963,151.536 C123.966,151.524 123.972,151.515 123.978,151.503 C123.582,151.962 123.234,152.391 122.871,152.832 C122.667,153.078 122.448,153.333 122.253,153.57 C121.86,154.056 121.521,154.509 121.173,154.965 C120.99,155.211 120.78,155.469 120.609,155.706 C120.282,156.156 120.021,156.561 119.751,156.972 C119.619,157.176 119.454,157.401 119.337,157.593 C118.995,158.154 118.719,158.67 118.518,159.138 C118.512,159.153 118.5,159.174 118.491,159.186 C116.358,165.132 117.081,170.031 119.064,172.776 C120.117,174.231 121.521,175.044 123.051,175.11 C123.012,175.218 122.976,175.326 122.934,175.437 C122.754,175.92 122.577,176.403 122.409,176.889 C122.31,177.183 122.217,177.474 122.124,177.768 C121.974,178.239 121.83,178.704 121.698,179.172 C121.614,179.469 121.536,179.766 121.458,180.063 C121.341,180.519 121.236,180.972 121.14,181.422 C121.077,181.719 121.017,182.01 120.963,182.304 C120.882,182.745 120.819,183.183 120.762,183.615 C120.726,183.903 120.684,184.188 120.66,184.47 C120.618,184.905 120.603,185.328 120.591,185.748 C120.585,186.009 120.567,186.276 120.573,186.531 C120.579,186.981 120.624,187.41 120.669,187.839 C120.69,188.049 120.696,188.268 120.729,188.472 C120.822,189.084 120.957,189.678 121.143,190.242 C121.146,190.248 121.146,190.257 121.149,190.263 C123.021,195.879 125.181,199.944 127.782,202.347 C128.43,202.947 129.108,203.442 129.816,203.832 C131.229,204.615 132.762,204.972 134.433,204.891 C135.27,204.852 136.14,204.702 137.046,204.441 C137.412,204.336 137.766,204.165 138.111,203.943 C138.225,203.871 138.333,203.763 138.447,203.676 C138.675,203.505 138.9,203.334 139.119,203.115 C139.245,202.986 139.368,202.827 139.494,202.683 C139.689,202.458 139.881,202.236 140.067,201.978 C140.196,201.798 140.322,201.594 140.445,201.396 C140.622,201.126 140.793,200.85 140.961,200.547 C141.087,200.322 141.207,200.082 141.327,199.842 C141.417,199.668 141.507,199.512 141.594,199.332 C142.845,204.417 145.431,208.275 150.168,209.37 C155.277,211.284 159.933,209.208 163.539,204.066 C163.842,204.381 164.151,204.678 164.481,204.903 C169.089,208.059 181.815,209.745 185.943,195.831 C186,195.861 186.051,195.897 186.111,195.927 C187.551,196.677 189.213,197.25 191.007,197.424 C191.904,197.511 192.831,197.499 193.782,197.361 C194.733,197.22 195.705,196.953 196.686,196.533 C197.175,196.32 197.67,196.071 198.162,195.78 C198.657,195.486 199.152,195.153 199.647,194.775 C201.627,193.254 203.019,191.277 203.955,189.099 C204.42,188.01 204.774,186.87 205.029,185.712 C205.413,183.975 205.572,182.196 205.569,180.483 C205.566,179.472 205.497,178.494 205.392,177.555 C214.461,178.788 228.054,172.065 224.319,159.882 C224.202,159.498 224.055,159.111 223.899,158.724 C229.401,159.09 238.284,157.845 239.418,146.259 C237.453,129.933 213.378,118.827 204.816,115.371 C206.481,112.659 207.888,109.905 208.926,107.124 Z" id="Fill-11"></path>
            <path d="M223.521,26.58 C223.521,29.019 221.544,30.999 219.102,30.999 C216.663,30.999 214.683,29.019 214.683,26.58 C214.683,24.138 216.663,22.161 219.102,22.161 C221.544,22.161 223.521,24.138 223.521,26.58 Z M213.273,26.58 C213.273,29.883 215.952,32.562 219.255,32.562 C222.561,32.562 225.24,29.883 225.24,26.58 C225.24,23.274 222.561,20.595 219.255,20.595 C215.952,20.595 213.273,23.274 213.273,26.58 L213.273,26.58 Z" id="Fill-12"></path>
            <path d="M216.861,26.37 C216.861,27.594 217.854,28.59 219.081,28.59 C220.308,28.59 221.301,27.594 221.301,26.37 C221.301,25.143 220.308,24.15 219.081,24.15 C217.854,24.15 216.861,25.143 216.861,26.37" id="Fill-13"></path>
            <path d="M240.627,26.703 C240.258,25.965 242.682,23.442 244.923,23.601 C288.006,22.161 304.824,30.999 304.824,30.999 C304.824,30.999 275.118,21.915 240.627,26.703 Z M243.696,22.161 C236.82,24.615 238.539,33.207 238.539,33.207 C238.539,33.207 279.291,26.211 309.732,33.207 C298.932,22.161 246.885,22.194 243.696,22.161 L243.696,22.161 Z" id="Fill-14"></path>
        </g>
    </g>
</svg>