<svg
  width="257"
  height="257"
  viewBox="0 0 257 257"
  fill="none"
  xmlns="http://www.w3.org/2000/svg"
>
  <path
    fill-rule="evenodd"
    clip-rule="evenodd"
    d="M219.493 38.3176C169.506 -11.6692 88.4617 -11.6692 38.4749 38.3176C-11.5118 88.3043 -11.5118 169.349 38.4749 219.336C88.4617 269.322 169.506 269.322 219.493 219.336C269.48 169.349 269.48 88.3043 219.493 38.3176ZM177.041 80.7703C150.5 54.2297 107.469 54.2297 80.9289 80.7703C54.3883 107.311 54.3883 150.342 80.9289 176.882C107.469 203.423 150.5 203.423 177.041 176.882C203.581 150.342 203.581 107.311 177.041 80.7703Z"
    fill="url(#paint0_linear)"
  />
  <path
    d="M219.495 38.3176C169.508 -11.6692 88.4633 -11.6692 38.4765 38.3176C-11.5102 88.3043 -11.5102 169.349 38.4765 219.336C88.4633 269.322 169.508 269.322 219.495 219.336C269.194 169.636 269.48 89.2351 220.352 39.1827C257.864 77.5033 257.615 138.978 219.602 176.99C181.339 215.254 119.301 215.254 81.0373 176.99C42.7737 138.727 42.7737 76.689 81.0373 38.4253C119.284 0.178412 181.284 0.161664 219.552 38.3751C219.533 38.3559 219.514 38.3367 219.495 38.3176Z"
    fill="url(#paint1_linear)"
  />
  <defs>
    <linearGradient
      id="paint0_linear"
      x1="176.452"
      y1="302.866"
      x2="2.1441"
      y2="-4.5651"
      gradientUnits="userSpaceOnUse"
    >
      <stop stop-color="#A00303" />
      <stop offset="0.962353" stop-color="#5604DC" />
    </linearGradient>
    <linearGradient
      id="paint1_linear"
      x1="173.85"
      y1="309.382"
      x2="-9.82573"
      y2="195.812"
      gradientUnits="userSpaceOnUse"
    >
      <stop offset="0.0001" stop-color="#A00345" />
      <stop offset="1" stop-color="#965FFC" />
    </linearGradient>
  </defs>
</svg>
