<svg aria-labelledby="phoenix-logo" fill="none" height="20" viewBox="0 0 104 20" width="104" xmlns="http://www.w3.org/2000/svg" class="h-6 sm:h-auto">
<g clip-path="url(#clip0_1245_5409)">
<g class="hidden sm:block">
<path d="M34.2951 3.98678C33.7206 3.69459 33.0669 3.5485 32.329 3.5485H27.6243V15.8377H29.1001V10.8879H32.329C33.0421 10.8879 33.6934 10.7467 34.2777 10.4669C34.8621 10.1846 35.3252 9.78101 35.6644 9.25607C36.016 8.71874 36.1918 8.07989 36.1918 7.34199V7.11418C36.1918 6.36638 36.0234 5.72753 35.6817 5.2001C35.3425 4.67268 34.8794 4.26906 34.2951 3.98926V3.98678ZM34.716 7.30485C34.716 8.01798 34.4882 8.57512 34.0301 8.97131C33.5745 9.35759 32.953 9.55073 32.168 9.55073H29.0951V4.88068H32.168C32.9629 4.88068 33.5844 5.07877 34.0301 5.47743C34.4857 5.86372 34.716 6.41343 34.716 7.12656V7.30237V7.30485Z" fill="currentColor"></path>
<path d="M46.3652 9.00853H40.6081V3.54858H39.1348V15.8378H40.6081V10.3432H46.3652V15.8378H47.841V3.54858H46.3652V9.00853Z" fill="currentColor"></path>
<path d="M89.2824 3.54858H87.8066V15.8378H89.2824V3.54858Z" fill="currentColor"></path>
<path d="M56.0783 3.30322C54.6149 3.30322 53.4461 3.72912 52.5671 4.5834C51.7004 5.4253 51.2671 6.6609 51.2671 8.28775V11.0957C51.2671 12.7226 51.7004 13.9631 52.5671 14.8174C53.4461 15.6593 54.6149 16.0802 56.0783 16.0802C57.5417 16.0802 58.7228 15.6593 59.5895 14.8174C60.4661 13.9631 60.9068 12.7226 60.9068 11.0957V8.28775C60.9068 6.6609 60.4685 5.4253 59.5895 4.5834C58.7228 3.72912 57.5541 3.30322 56.0783 3.30322ZM59.431 11.1502C59.431 12.2843 59.1388 13.1757 58.5545 13.8195C57.9701 14.4509 57.143 14.7679 56.0783 14.7679C55.0135 14.7679 54.2063 14.4509 53.6195 13.8195C53.0351 13.1757 52.7429 12.2868 52.7429 11.1502V8.23575C52.7429 7.09919 53.0351 6.21767 53.6195 5.58377C54.2038 4.93997 55.0234 4.61807 56.0783 4.61807C57.1331 4.61807 57.9676 4.93997 58.5545 5.58377C59.1388 6.21519 59.431 7.09919 59.431 8.23575V11.1502Z" fill="currentColor"></path>
<path d="M98.326 9.63996L102.223 3.54858H100.503L97.3603 8.62225H97.1325L94.0076 3.54858H92.2693L96.1841 9.63996L92.2173 15.8378H93.9382L97.1325 10.6601H97.3603L100.574 15.8378H102.293L98.326 9.63996Z" fill="currentColor"></path>
<path d="M65.8034 10.3259H71.4045V8.9912H65.8034V4.88324H71.8948V3.54858H64.3301V15.8378H71.9839V14.5031H65.8034V10.3259Z" fill="currentColor"></path>
<path d="M82.5551 13.4087L76.6445 3.54858H75.186V15.8378H76.6445V5.98018L82.5551 15.8378H84.0136V3.54858H82.5551V13.4087Z" fill="currentColor"></path>
</g>
<mask height="21" id="mask0_1245_5409" maskUnits="userSpaceOnUse" style="mask-type:luminance" width="18" x="-1" y="-1">
<path d="M16.4572 -0.000244141H-0.00683594V19.9998H16.4572V-0.000244141Z" fill="white"></path>
</mask>
<g mask="url(#mask0_1245_5409)">
<path d="M-0.0065918 0.0493593L8.20191 9.49098L16.4575 -0.000164032L12.2009 3.17676C9.84113 4.93731 6.60726 4.94474 4.24004 3.19162L-0.0065918 0.0493593Z" fill="currentColor"></path>
<path d="M-0.0065918 19.9503L8.20191 10.5087L16.455 19.9973L12.1984 16.8204C9.83866 15.0599 6.60478 15.0524 4.23756 16.8056L-0.0065918 19.9503Z" fill="currentColor"></path>
</g>
</g>
<defs>
<clipPath id="clip0_1245_5409">
<rect fill="white" height="20" width="103.818">
</rect></clipPath>
</defs>
</svg>