<?xml version="1.0" encoding="UTF-8"?>
<svg width="330px" height="98px" viewBox="0 0 330 98" version="1.1" xmlns="http://www.w3.org/2000/svg" xmlns:xlink="http://www.w3.org/1999/xlink">
    <title>-mockplus-</title>
    <g id="页面-1" stroke="none" stroke-width="1" fill="none" fill-rule="evenodd">
        <g id="首页" transform="translate(-122.000000, -80.000000)">
            <g id="编组-5" transform="translate(0.000000, 56.000000)">
                <g id="编组-2" transform="translate(122.000000, 24.000000)">
                    <g id="logo">
                        <polygon id="多边形" fill="#FFFFFF" points="41.5 0 83 24.5 83 73.5 41.5 98 0 73.5 0 24.5"></polygon>
                        <path d="M41.5,49 L54.8492222,56.7946923 L41.4990778,64.5895385 L33.7258273,60.0509344 L28.1488273,63.3069344 L41.5,71.1020656 L60.4262222,60.0506923 L73.7777778,67.8461538 L41.5,86.6923077 L9.22222222,67.8461538 L41.5,49 Z M41.5,11.3076923 L73.7777778,30.1538462 L41.5,49 L28.1482222,41.2046923 L41.5,33.4095192 L49.2958273,37.9609344 L54.8718273,34.7059344 L41.5,26.8979344 L22.5722222,37.9486923 L9.22222222,30.1538462 L41.5,11.3076923 Z" id="形状结合" fill="#EB3C00"></path>
                    </g>
                    <path d="M112.856,69.48 C115.032,69.48 116.976,69.096 118.688,68.328 C120.4,67.56 121.744,66.424 122.72,64.92 C123.696,63.416 124.184,61.592 124.184,59.448 C124.184,58.072 123.896,56.808 123.32,55.656 C122.744,54.504 121.992,53.512 121.064,52.68 C120.392,52.04 119.672,51.488 118.904,51.024 C118.136,50.56 117.032,49.928 115.592,49.128 C114.088,48.296 112.896,47.592 112.016,47.016 C111.136,46.44 110.408,45.76 109.832,44.976 C109.256,44.192 108.968,43.304 108.968,42.312 C108.968,40.904 109.424,39.84 110.336,39.12 C111.248,38.4 112.504,38.04 114.104,38.04 C115.352,38.04 116.528,38.272 117.632,38.736 C118.736,39.2 119.592,39.752 120.2,40.392 L120.2,40.392 L122.744,36.024 C120.44,34.136 117.64,33.192 114.344,33.192 C111.272,33.192 108.728,34 106.712,35.616 C104.696,37.232 103.688,39.56 103.688,42.6 C103.688,46.28 105.24,49.16 108.344,51.24 C109.016,51.688 110.264,52.36 112.088,53.256 C113.624,54.024 114.808,54.672 115.64,55.2 C116.472,55.728 117.176,56.392 117.752,57.192 C118.328,57.992 118.616,58.936 118.616,60.024 C118.616,61.432 118.08,62.536 117.008,63.336 C115.936,64.136 114.552,64.536 112.856,64.536 C111.544,64.536 110.176,64.208 108.752,63.552 C107.328,62.896 106.28,62.264 105.608,61.656 L105.608,61.656 L103.064,66.216 C103.896,67.048 105.256,67.8 107.144,68.472 C109.032,69.144 110.936,69.48 112.856,69.48 Z M131.96,69.48 C132.952,69.48 133.776,69.152 134.432,68.496 C135.088,67.84 135.416,67.032 135.416,66.072 C135.416,65.08 135.088,64.256 134.432,63.6 C133.776,62.944 132.952,62.616 131.96,62.616 C130.968,62.616 130.144,62.944 129.488,63.6 C128.832,64.256 128.504,65.08 128.504,66.072 C128.504,67.032 128.84,67.84 129.512,68.496 C130.184,69.152 131,69.48 131.96,69.48 Z M146.792,69 L146.792,53.064 L155.528,53.064 L155.528,48.36 L146.792,48.36 L146.792,38.376 L158.024,38.376 L158.024,33.72 L141.464,33.72 L141.464,69 L146.792,69 Z M164.456,42.84 C165.448,42.84 166.272,42.504 166.928,41.832 C167.584,41.16 167.912,40.328 167.912,39.336 C167.912,38.44 167.576,37.672 166.904,37.032 C166.232,36.392 165.416,36.072 164.456,36.072 C163.464,36.072 162.632,36.392 161.96,37.032 C161.288,37.672 160.952,38.44 160.952,39.336 C160.952,40.328 161.288,41.16 161.96,41.832 C162.632,42.504 163.464,42.84 164.456,42.84 Z M167.192,69 L167.192,46.968 L161.816,46.968 L161.816,69 L167.192,69 Z M178.376,69 L178.376,58.056 C178.376,56.552 178.704,55.24 179.36,54.12 C180.016,53 180.84,52.144 181.832,51.552 C182.824,50.96 183.8,50.664 184.76,50.664 C186.456,50.664 187.576,51.28 188.12,52.512 C188.664,53.744 188.936,55.752 188.936,58.536 L188.936,58.536 L188.936,69 L194.12,69 L194.12,58.392 C194.12,55.672 193.912,53.464 193.496,51.768 C193.08,50.072 192.264,48.752 191.048,47.808 C189.832,46.864 188.088,46.392 185.816,46.392 C184.056,46.392 182.52,46.824 181.208,47.688 C179.896,48.552 178.936,49.656 178.328,51 L178.328,51 L178.28,46.968 L173.192,46.968 L173.192,69 L178.376,69 Z M209.336,69.48 C211.128,69.48 212.744,69.04 214.184,68.16 C215.624,67.28 216.616,66.264 217.16,65.112 L217.16,65.112 L217.256,69 L222.152,69 L222.152,46.968 L217.208,46.968 L217.112,50.664 C216.856,50.024 216.344,49.376 215.576,48.72 C214.808,48.064 213.864,47.512 212.744,47.064 C211.624,46.616 210.424,46.392 209.144,46.392 C206.936,46.392 205.016,46.872 203.384,47.832 C201.752,48.792 200.496,50.136 199.616,51.864 C198.736,53.592 198.296,55.608 198.296,57.912 C198.296,60.248 198.8,62.288 199.808,64.032 C200.816,65.776 202.16,67.12 203.84,68.064 C205.52,69.008 207.352,69.48 209.336,69.48 Z M210.2,65.16 C208.12,65.16 206.528,64.496 205.424,63.168 C204.32,61.84 203.768,60.104 203.768,57.96 C203.768,55.848 204.328,54.128 205.448,52.8 C206.568,51.472 208.152,50.808 210.2,50.808 C211.384,50.808 212.472,51.112 213.464,51.72 C214.456,52.328 215.24,53.176 215.816,54.264 C216.392,55.352 216.68,56.584 216.68,57.96 L216.68,57.96 L216.68,58.296 C216.68,60.344 216.056,62 214.808,63.264 C213.56,64.528 212.024,65.16 210.2,65.16 Z M233.096,69 L233.096,58.056 C233.096,56.552 233.424,55.24 234.08,54.12 C234.736,53 235.56,52.144 236.552,51.552 C237.544,50.96 238.52,50.664 239.48,50.664 C241.176,50.664 242.296,51.28 242.84,52.512 C243.384,53.744 243.656,55.752 243.656,58.536 L243.656,58.536 L243.656,69 L248.84,69 L248.84,58.392 C248.84,55.672 248.632,53.464 248.216,51.768 C247.8,50.072 246.984,48.752 245.768,47.808 C244.552,46.864 242.808,46.392 240.536,46.392 C238.776,46.392 237.24,46.824 235.928,47.688 C234.616,48.552 233.656,49.656 233.048,51 L233.048,51 L233,46.968 L227.912,46.968 L227.912,69 L233.096,69 Z M264.584,69.48 C266.12,69.48 267.52,69.264 268.784,68.832 C270.048,68.4 271.032,67.912 271.736,67.368 L271.736,67.368 L269.864,63.72 C269.352,64.104 268.624,64.44 267.68,64.728 C266.736,65.016 265.768,65.16 264.776,65.16 C262.792,65.16 261.248,64.504 260.144,63.192 C259.04,61.88 258.488,60.04 258.488,57.672 C258.488,55.592 259.024,53.928 260.096,52.68 C261.168,51.432 262.728,50.808 264.776,50.808 C266.472,50.808 267.992,51.48 269.336,52.824 L269.336,52.824 L271.64,48.648 C270.936,48.008 269.968,47.472 268.736,47.04 C267.504,46.608 266.04,46.392 264.344,46.392 C262.104,46.392 260.128,46.856 258.416,47.784 C256.704,48.712 255.376,50.032 254.432,51.744 C253.488,53.456 253.016,55.448 253.016,57.72 C253.016,60.12 253.528,62.208 254.552,63.984 C255.576,65.76 256.96,67.12 258.704,68.064 C260.448,69.008 262.408,69.48 264.584,69.48 Z M285.896,69.48 C287.848,69.48 289.512,69.288 290.888,68.904 C292.264,68.52 293.352,68.072 294.152,67.56 L294.152,67.56 L292.568,63.864 C291.736,64.312 290.824,64.664 289.832,64.92 C288.84,65.176 287.576,65.304 286.04,65.304 C284.184,65.304 282.736,64.872 281.696,64.008 C280.656,63.144 279.96,61.736 279.608,59.784 L279.608,59.784 L295.448,59.784 C295.544,58.856 295.592,57.96 295.592,57.096 C295.592,53.704 294.768,51.072 293.12,49.2 C291.472,47.328 288.952,46.392 285.56,46.392 C283.384,46.392 281.432,46.864 279.704,47.808 C277.976,48.752 276.624,50.104 275.648,51.864 C274.672,53.624 274.184,55.672 274.184,58.008 C274.184,60.088 274.6,62 275.432,63.744 C276.264,65.488 277.56,66.88 279.32,67.92 C281.08,68.96 283.272,69.48 285.896,69.48 Z M290.552,56.184 L279.608,56.184 C280.12,52.568 282.056,50.76 285.416,50.76 C287.08,50.76 288.36,51.168 289.256,51.984 C290.152,52.8 290.584,54.2 290.552,56.184 L290.552,56.184 Z" id="S.Finance" fill-opacity="0.85" fill="#000000" fill-rule="nonzero"></path>
                </g>
            </g>
        </g>
    </g>
</svg>