<svg height="300" width="300" fill="#d83aeb" xmlns="http://www.w3.org/2000/svg" viewBox="-205 207 100 100"><switch><g><path d="M-183.3 273.1c.3 1-.2 2.1-1.2 2.4-.2.1-.4.1-.6.1-.8 0-1.5-.5-1.8-1.3-.3-1 .2-2.1 1.2-2.4 1.1-.4 2.1.2 2.4 1.2zm2.8-11.7c.4 0 .8-.1 1.1-.4.8-.6 1-1.8.4-2.6s-1.8-1-2.6-.4-1 1.8-.4 2.6c.4.5 1 .8 1.5.8zm-5.1 6.2c.2.1.4.1.6.1.8 0 1.5-.5 1.8-1.3.3-1-.2-2.1-1.2-2.4-1-.3-2.1.2-2.4 1.2-.4 1 .2 2.1 1.2 2.4zm6.3 10.9c-.8-.6-2-.4-2.6.4-.6.8-.4 2 .4 2.6.3.2.7.4 1.1.4.6 0 1.2-.3 1.5-.8.6-.8.4-2-.4-2.6zm6.3-19.6c.5 0 1-.2 1.3-.5.3-.4.6-.8.6-1.3s-.2-1-.6-1.3c-.4-.4-.8-.6-1.3-.6s-1 .2-1.3.6c-.3.3-.6.8-.6 1.3s.2 1 .6 1.3c.3.3.8.5 1.3.5zm14.4-3.7c-1 0-1.9.8-1.9 1.9 0 1 .9 1.9 1.9 1.9 1 0 1.9-.8 1.9-1.9 0-1.1-.9-1.9-1.9-1.9zm5.3 1.9c0 1 .8 1.9 1.9 1.9 1 0 1.9-.8 1.9-1.9 0-1-.8-1.9-1.9-1.9-1 0-1.9.8-1.9 1.9zm7.2 0c0 1 .8 1.9 1.9 1.9 1 0 1.9-.8 1.9-1.9 0-1-.8-1.9-1.9-1.9-1.1 0-1.9.8-1.9 1.9zm-21.6 0c0 1 .8 1.9 1.9 1.9s1.9-.8 1.9-1.9c0-1-.8-1.9-1.9-1.9s-1.9.8-1.9 1.9zm30.7-1.9c-.5 0-1 .2-1.3.6-.3.3-.6.8-.6 1.3s.2 1 .6 1.3c.3.4.8.6 1.3.6s1-.2 1.3-.6c.3-.3.6-.8.6-1.3s-.2-1-.6-1.3c-.3-.4-.8-.6-1.3-.6zm12.6-8.7c-1-.3-2.1.2-2.4 1.2-.3 1 .2 2.1 1.2 2.4.2.1.4.1.6.1.8 0 1.5-.5 1.8-1.3.4-1-.2-2.1-1.2-2.4zm-6.3 6.6c-.8.6-1 1.8-.4 2.6.4.5.9.8 1.5.8.4 0 .8-.1 1.1-.4.8-.6 1-1.8.4-2.6-.5-.8-1.7-1-2.6-.4zm0-17.5c.3.2.7.4 1.1.4.6 0 1.2-.3 1.5-.8.6-.8.4-2-.4-2.6-.8-.6-2-.4-2.6.4-.6.8-.4 2 .4 2.6zm5.8 6.7c.2 0 .4 0 .6-.1 1-.3 1.5-1.4 1.2-2.4-.3-1-1.4-1.5-2.4-1.2-1 .3-1.5 1.4-1.2 2.4.2.8 1 1.3 1.8 1.3zm-16.4 38.6l-10.7-10.7c-.7-.7-1.9-.7-2.7 0-.7.7-.7 1.9 0 2.7l7.6 7.6h-26c-1 0-1.9.8-1.9 1.9s.8 1.9 1.9 1.9h25.8l-7.4 7.4c-.7.7-.7 1.9 0 2.7.4.4.9.6 1.3.6s1-.2 1.3-.6l10.7-10.7c.4-.4.6-.9.5-1.4.2-.5 0-1-.4-1.4zm-29.7-47.8l10.7 10.7c.4.4.9.6 1.3.6s1-.2 1.3-.6c.7-.7.7-1.9 0-2.7l-7.5-7.5h28.2c1 0 1.9-.8 1.9-1.9s-.8-1.9-1.9-1.9h-28.2l7.5-7.5c.7-.7.7-1.9 0-2.7-.7-.7-1.9-.7-2.7 0l-10.7 10.7c-.4.4-.6.9-.5 1.4 0 .5.2 1 .6 1.4z"/></g></switch></svg>