<svg width="400" height="400" viewBox="0 0 400 400" fill="none" xmlns="http://www.w3.org/2000/svg">
<rect width="400" height="400" fill="white"/>
<circle cx="200.5" cy="199.5" r="199.5" fill="url(#paint0_linear)"/>
<path fill-rule="evenodd" clip-rule="evenodd" d="M56.5947 249.517V199.686C56.5947 120.536 120.758 56.3728 199.908 56.3728C238.948 56.3728 274.341 71.9833 300.189 97.3028L269.722 116.34C250.836 100.502 226.485 90.9656 199.908 90.9656C139.863 90.9656 91.1875 139.641 91.1875 199.686H125.78L56.5947 249.517ZM129.569 282.588C148.529 298.691 173.085 308.406 199.909 308.406C259.954 308.406 308.629 259.73 308.629 199.686H274.037L343.22 149.033L343.222 199.686C343.222 278.835 279.058 342.999 199.909 342.999C160.627 342.999 125.036 327.194 99.1484 301.596L129.569 282.588ZM254.885 247.251H215.351L199.909 226.391L184.468 247.251H144.933L180.749 200.508L144.93 152.121H181.994L199.909 175.503L217.825 152.121H254.888L219.07 200.508L254.885 247.251Z" fill="url(#paint1_linear)"/>
<defs>
<linearGradient id="paint0_linear" x1="200.5" y1="0" x2="200.5" y2="399" gradientUnits="userSpaceOnUse">
<stop stop-color="white"/>
<stop offset="1" stop-color="#F5F4FD"/>
</linearGradient>
<linearGradient id="paint1_linear" x1="200.111" y1="50" x2="200.111" y2="343" gradientUnits="userSpaceOnUse">
<stop stop-color="#131218"/>
<stop offset="1" stop-color="#1D184B"/>
</linearGradient>
</defs>
</svg>
