<?xml version="1.0" encoding="utf-8"?>
<!-- Generator: Adobe Illustrator 25.4.1, SVG Export Plug-In . SVG Version: 6.00 Build 0)  -->
<svg version="1.1" id="Layer_1" xmlns="http://www.w3.org/2000/svg" xmlns:xlink="http://www.w3.org/1999/xlink" x="0px" y="0px"
	 viewBox="0 0 130.9 130.9" style="enable-background:new 0 0 130.9 130.9;" xml:space="preserve">
<style type="text/css">
	.st0{fill:#F1CD18;}
	.st1{fill:#721412;}
	.st2{fill:#A72224;}
	.st3{fill:#EF4923;}
	.st4{fill:#F28721;}
	.st5{fill:#F0EEB6;}
	.st6{fill:#0D0E0E;}
</style>
<g id="Layer_1_00000174593144773412148750000007022404058104219556_">
</g>
<g id="Layer_4">
	<path class="st0" d="M125.8,66.9c0,2.2,0.4,2.6,1,3.6c0.6,1.1,1.1,1.8,0.6,4c-0.2,1.1-2.1,4.4-2.1,6.3c0,2.1,2.2,3.5,1.8,4.5
		c-0.4,2.7-4.6,0.9-5.5,2.8c-0.9,1.9-0.1,4.9-1.1,6.6c-0.5,0.9-4.6,1.5-4.9,3.3c-0.2,2.1,3.6,5.3,3,6.3c-1.2,1.8-4.4-1.1-5.6,0.5
		c-1.2,1.6,0.9,3-0.6,4.4c-0.6,0.6-4.7-1.5-6-0.6c-1.5,0.9,0.1,4.6-0.7,5.2c-1.1,0.4-4.6-1.2-6.3-0.1c-1.7,1.2-1.2,2.9-3.2,3.9
		c-1,0.6-4.5,0.5-5.6,1.8c-1,1.2,0.2,4-0.6,4.4c-1,0.4-3.3-2.2-4.5-1.2c-1.2,1-1.3,5.5-2.3,5.8c-2.1,0.6-4.3-5.1-6.4-4.7
		c-2.2,0.4-2.8,5.6-4.9,5.8c-2.1,0.2-3.8-0.2-6-0.2c-1,0-1.5-2.3-2.4-2.1c-1.2,0.4-3,3.2-4.3,3c-2.2-0.2-1.8-2.7-3.8-3
		c-2.1-0.4-2.8,2.6-4.9,1.8c-1.1-0.4-3.4-2.6-5.5-3.3c-1.9-0.7-3.6,0.1-4.6-0.2c-1.9-0.9,0.1-5.1-1.7-6.2c-1.8-1-6.9,0.5-8.6-0.6
		c-1.7-1.2,1-3.4-0.6-4.7c-0.9-0.7-5.2-1.6-4.9-0.7c0.4,0.7-0.2-3.2-1-3.8c-0.6-0.6-1.6-2.1-3.2-2.3c-2.2-0.4-5.1,0.7-6-0.4
		c-1.3-1.7,1.1-5.1,0-6.7c-1.1-1.6-3-3-4.1-4.9c-1.1-1.8-3.9-3.9-5.5-5c-2.7-1.8,1.9-3.9,1.2-6c-0.6-2.1-3.6,0.1-4.1-2.1
		c-0.2-1,1.2-1.7,1.2-3.4c0.1-2.2-1.1-2.4-1.2-3.6C2,73,1.8,71,1.8,68.7c0-1.2,2.8-0.5,3-2.9c0.1-1.1-1.5-0.9-2.2-2.3
		c-0.9-1.5-0.1-4.1,0.6-5C4.5,57,7,56.6,6.9,55.3c-0.1-1.6-4.9-1.9-4.7-2.9c0.2-1.2,0.5-2.3,0.9-3.5c0.2-1,3.5,0.1,5.1-2.6
		s0-7.4-0.7-7.7c-1.1-0.5-1.9-1.8-1-3.6c0.6-1,4.4-0.2,5.6-1.5c1-1-1.2-1.7-1.2-2.7c-0.1-2.3,0.7-5.5,2.1-7.1
		c3.6-3.9,6.9-0.7,8.8-1.7c6-3.4,1.7-8.4,3.4-9.7c1.7-1.3,3.3-0.7,6.7-0.5c3.4,0.2,3.9-2.6,3.9-2.6s0.5-2.3,2.4-3
		c1.9-0.7,4.5,0.4,6.4-0.2c1.9-0.6,1.7-5.7,6.4-5.7s7.8,4,9.8,3.8c2.2-0.2,1.8-3.8,7.1-3.8s4.9,3,7.1,3.3c2.2,0.2,1.6-1.8,3.8-1.5
		c2.2,0.5,2.2,1.2,4.3,1.8c2.8-0.5,6.7-1,8.6-0.5c3.9,1.1,3,3.6,4.9,4.7s4.4,0.2,6.1,1.5s0.5,5.6,2.1,6.9c1.6,1.2,5.2-1.2,6.7,0.4
		c1.5,1.6-1,3.6,0.4,5.2c1.3,1.6,4.4,0.4,5.6,2.1c2.8,3.6,2.6,7.5,3.6,9.4c1,1.8,3.2,3.2,3.4,6.6c0.2,2.2,2.6,2.3,2.3,5
		c-0.4,1.8,1.2,4,1.2,6.1c0.1,2.1-1.6,2.7,1.5,7.7C129.7,64.2,125.8,64.7,125.8,66.9z"/>
	<path class="st1" d="M121.2,65.3c0,2.1,1.7,2.7,2.3,3.6s-0.5,2.6-0.9,4.5c-0.2,1-1.9,2.1-3.6,4.6c0,1.9,5,3.9,4.7,4.9
		c-0.2,2.6-4.7,2.3-5.5,4.1s0.4,6.6-0.6,8.1c-0.4,0.7-2.2,0.2-2.3,1.9c-0.2,1.9-3.3,2.9-3.9,3.8c-1.1,1.7-3,2.6-4.4,3.9
		c-0.6,0.6-4.3,0.6-5,1.2c-1.1,0.4-1.2,1.6-2.8,2.7c-1.6,1.1-1.9,0.5-3.8,1.5c-1,0.5-0.1,3.2-1.2,4.5c-1,1.1-4.1-1-5.8-0.5
		s0.4,6-0.7,6.9c-1.1,1-2.3-0.5-3.4-1c-1.1-0.5-4.1-2.2-6.1-1.7c-1.9,0.4-1,7.7-3,7.9c-1.9,0.2-3.4-1.8-5.5-1.8
		c-0.9,0-2.6,1.3-3.4,1.6c-1.2,0.2-2.4-1.6-3.6-1.7c-2.1-0.2-2.7-0.2-3.9-1.7c-1.2-1.6-1.8-2.2-3.8-2.8c-1-0.4-3.4-3.2-5.6-3.2
		c-1.9,0-5.6,6.3-6.4,6c-1.8-0.7-0.9-2.6-2.6-3.4c-1.7-1-2.2-2.2-3.8-3.3s-1.6-1.8-3-3c-0.9-0.7-1-3.2-2.1-4.9
		c-1.1-1.7-2.3-3-3.8-3.2c-1.5-0.1-4.9,3.2-6.3,1.5c-1.3-1.6-0.6-3.9-1.7-5.5c-1.1-1.6-1.2-1.5-2.2-3.2c-0.4-0.7,1.1-3.4,0.5-4.7
		c-1-2.6-4.6-0.7-5.5-1.5c-2.6-1.8,1.6-3.6,2.2-5.2c0.6-1.6-0.1-4.1-0.5-6.1c-0.1-0.9-1.9-1.1-1.8-2.7c0.1-2.1-1-2.3-1.1-3.4
		c-0.2-2.1,1.2-2.4,1.2-4.5c0-1.1-5.3-2.8-5.2-5c0.1-1.1,2.8-2.3,2.6-4.5c-0.2-1.8,2.6-1.7,2.4-2.8c-0.1-1.5-2.8-3.3-2.9-5
		c-0.1-1.8,4-1.9,4.3-3.4c0.2-1.5-1.7-2.2-2.3-3.2c-0.6-0.9-0.7-5.1,0.1-6.7c0.5-1,1.8-2.3,3-3.4c1-0.9,1.3-1.7,2.8-2.6
		c1.5-0.9,7.2,1,8-1.1c0.7-2.1-1.1-8.9,1-9.6c1.9-0.7,4.4-0.1,6-1.5c1.6-1.3,1.3-6.7,3.2-7.8c1.7-1.1,4,5,6.4,4.9
		c2.3,0,3-4.5,4.9-5.2c1.8-0.7,5.6-0.4,7.4-0.9c1.8-0.6,1.1-6.2,5.5-6.2s4,2.3,6.1,2.1c2.1-0.2,1.7-3,4.7-3s2.2,2.1,4.3,2.3
		c2.1,0.2,1.8,0.1,3.5,1.3c1.9,1.5,1.2,4.5,3.2,5.1c2.2,0.5,4.6,3.2,8.6-2.2c2.3-3,3.6,4.6,5.3,5.5c1.7,1,6.3,0.4,7.9,1.5
		c1.6,1.1-3.3,7.2-1.8,8.4c1.5,1.2,7.4-4.3,8.8-2.9c1.3,1.3-1.7,3.6,1.2,3.9c1.7-0.4-1.8,5.8,0,6.6c3.3,1.5,4.3,1,6.4,2.1
		c0.9,1.1,3,2.3,3.3,5.5c0.2,2.1,0.4,4.1,0.1,6.6c-0.2,1.8-0.4,5.2-3.2,8c-1.3,1.3,1.7,2.2,5.6,3.6
		C123.7,62.3,121.2,63.2,121.2,65.3z"/>
	<path class="st2" d="M69.7,28.3c0,0,3.6-4.9,4.5-4.7c1,0.1,1.1,3.3,2.2,3.6c1.1,0.4,1.6-1.1,2.2-0.5s0.4,3.8,1,3.9s9.7,0,11.2,0
		s2.2,1.6,3.3,2.1c1.1,0.5,2.7-0.7,4.1,0c1.5,0.7-2.4,11.7-1.2,12.3c1.2,0.6,11.4-4.1,12.5-3.9c1.1,0.1,0.1-1,1.1,0.1
		c1,1.1-3.2,3.8-3.2,3.8s-6,5.5-5.6,6.3s2.8-0.5,3.8-1c1-0.5,11.3-4.5,11.3-4.5l-3.3,2.7c0,0-10.3,4.4-9.7,4.9
		c0.6,0.5,8.5,1.1,9,1.7c0.5,0.6-5.6,4.7-4.5,5.8c1.1,1.1,8.8,2.8,8.6,4.5c-0.1,1.7-18.7,1.1-18.7,1.1s13.6,6.6,14.5,7.5
		c0.7,1-8.6,0.4-8.6,1.7s7.7,12.3,7.2,13.5c-0.5,1.2-14.7-5.2-14-4.1s0.7,8.1,1.7,9.2c1,1.1,4.5,6,3.3,7.2
		c-1.2,1.2-15.1-6.1-15.1-5.2c0,0.7,2.1,15.2-4.1,14.1c-6.1-1.1-8.6-10.3-9.7-8.8c-1.1,1.6-6.1,5-5.8,6.3c0.4,1.2-1.1,6.4-3.6,6
		c-2.6-0.5-8.1-2.1-9.7-1.5c-1.6,0.6-4.1-0.6-4.3-2.1c-0.1-1.5,0.5-3.6-2.2-4.5c-2.7-1-3.6,4.4-7.2,1c-3.6-3.4-3.3-8.1-5-9.2
		c-1.7-1.1-5.5-5.3-4.9-6.6c0.6-1.2,2.2-4.9,1.5-4.5c-0.7,0.4-10.3,3.9-10.7,2.6c-0.4-1.3,1.8-5.3,1.6-7.2c-0.2-1.8,1.1-5.8-1.6-5.3
		c-2.7,0.5-7.2-1.5-7.2-1.5s15.3-3.8,15.2-5c-0.1-1.2-5.2-4.1-4.9-5.3c0.4-1.2,2.8-1.5,2.3-2.8c-0.5-1.5-11.3-6.4-9.6-9.2
		c1.7-2.8,9.4-2.2,10.2-3.3c0.7-1.1-0.5-3.2,1-3.8c1.5-0.6,4.3-1.6,3.9-3.2C32.1,41,32.1,41,32.1,41s-5.2-6.3-4.3-6.7
		c1-0.5,9.2,6.7,9.2,6.3S32.5,27.3,35.3,26c2.8-1.2,8.3-1.7,9.2-0.6c1,1.1,5.2,8.8,5.8,7.9c0.6-1-0.4-14.2,1.1-13.6
		c1.5,0.6,6.1,11.8,7.5,10.5c1.5-1.2,4.9-14.6,6.4-12.5C67.2,19.2,67.4,28.2,69.7,28.3z"/>
	<path class="st3" d="M74.7,40.3c1.6-0.5,7.4-6.3,8.3-5.2c0.9,1.1-5.8,11.3-4.1,10.9s11.2-4.5,12-3.9c0.7,0.6-5.3,8.6-2.7,8.8
		c2.7,0.1,6.7-0.6,6.7,0c0,0.6-5.6,5.6-4.9,6c0.7,0.4,7.9-0.7,7.7,0.7c-0.1,1.6-3.8,3.6-3,4.3c0.7,0.6,5.3,2.1,5.5,2.8
		c0.1,0.7-8.8-0.9-7.4,0.7c1.5,1.5,4.4,5.7,3.9,7.3c-0.5,1.6-7.9,1-8.5,3c-0.6,2.1,6.6,7.4,6.1,9c-0.5,1.6-6.9,1.6-6.9,1.6
		s-5.2-4.9-5.6-3.6c-0.4,1.2-1.2,6.7-0.5,8c0.7,1.2,2.7,4.5,1.6,4.7c-1.1,0.1-10.5-2.1-11.3-3.4c-0.7-1.5,2.8,7.2,1.6,7.1
		c-1.2-0.1-5.2-5.6-6.7-5.2c-1.6,0.5-1.1,0.7-2.8-1c-1.7-1.7-3-1.7-3.3-0.5c-0.4,1.2-8.6,19.3-8.3,17.3s3-12.4,2.2-13.6
		c-0.9-1.2-0.1-7.1-2.2-6.3c-1.9,0.9-7.3,6.4-7.4,4c-0.1-2.6,3.3-7.4,2.1-8.1s-6.4,5.2-7.1,3.2c-0.6-2.1,1-6,0-5.6
		c-1,0.4-7.2,3.9-8.3,1.7c-1.1-2.2,1.6-4.9,0-5.6c-1.6-0.7-2.9-3.4-0.2-4.5c2.7-1.1,4.9-3.2,3.8-2.1c-1.1,1-15.2,2.6-15.2,2.6
		l16.2-4.6l-8.8-0.7c0,0,0.7-3.3,2.8-4.4c2.1-1,6.9-1.3,5.6-1.8c-1.2-0.5-9.6-5.8-9.2-7.1s7.5-1.2,6.3-2.3c-1.2-1.1-1.2-1.1-1.2-1.1
		s-16.9-9-17-9.6c-0.1-0.6,18,7.1,19.6,7.1c1.6,0,8.8,1.7,8.3-0.1c-0.5-1.8-7.1-12-5-12.3c2.1-0.1,10.1,4.4,11.3,3.4
		c1.2-1,6.4-11.3,7.1-10.1c0.6,1.2,5.3,10.1,5.6,9c0.2-1.1,8.1-11.9,8.3-14.2c0.1-2.3,5.5,8.6,5.3,11.3
		C74.7,40.3,74.7,40.3,74.7,40.3z"/>
	<path class="st4" d="M65,39.5c2.1-0.5,5,3.4,6.1,2.3s4.4-5,4.7-7.9c0.4-2.8,0.7-5.6,0.7-5.6l0.7,4.9l-1.5,10.5c0,0,1.1,0,2.2,0
		c1.1,0-1.6,2.6,0,2.8c1.6,0.2,3.3,1.8,3.3,2.7c0,0.9,8,0,9.7-1.6s-3,5.6-3.6,7.5c-0.6,1.9-0.6,2.6,1.1,3s1.8,1.8,1,2.6
		c-1,0.6-2.3,1.8-1.8,3.3c0.5,1.5,0.7,5,1.8,6.9c1.1,1.8-2.6,3.6-4.4,3c-0.1,2.8-1.8,4.4-0.1,7.2s3.8,4.4,3.3,5
		c-0.5,0.6-7.5-6.4-7.9-4.9s-0.1,4.9-2.2,6.4c-2.2,1.6-4.4,0.6-5.2,1.7c-1,1.1-2.3,3.9-3.6,1.5s-3.2-4.1-4.4-3.4
		c-1.2,0.6-6,4.1-7.1,5.6c-1,1.6-1,1.6-1,1.6s-5,7.4-4.3,4.5c0.7-2.8,2.3-11.9,1.5-13.6c-1-1.7-3.9,0-5-1c-1.1-1-9.1-1.2-9.1-1.2
		s4.4-3,4.3-4.5c-0.1-1.6-0.7-2.1-0.4-4.9c0.5-2.8,0.1-4.9-1.2-5.8c-1.3-1-3.6-0.6-2.7-3.3c1-2.7,1-5.2,1-7.1s3.9-3.6,5.6-4.7
		c1.7-1.1,2.7-6,2.6-6.9c-0.1-1-0.1-1-0.1-1s2.7-3.4,6.7-1.7c4.1,1.7,5.3-0.7,7.4-2.3C65.1,39.5,65,39.5,65,39.5z"/>
	<path class="st0" d="M74.5,48.4c0,0,6-0.7,6.1,0c0.1,0.7-0.6,2.8,1.1,2.8s5.8,0,5.8,0s-4.3,3.5-3.8,4.7c0.5,1.2,1.5,1,1.7,2.3
		c0.4,1.5-1.8,3.8-1,5.2c1,1.5,2.8,3.9,2.1,5c-0.7,1.1-3,2.7-2.6,3.6c0.5,1,1.7,3.9,0.1,5.5c-1.6,1.6-3.8,5-6.3,4.5
		c-2.6-0.5-6-1.3-5.8,0c0.1,1.3,1,4-3.2,3.9c-4.1-0.1-5.3-2.1-7.1-0.6C60,86.8,55,94.5,55,94.5s1.8-7.9,0-9.4c-1.8-1.6-5-3-5-4.7
		s-4.4-2.3-3.9-5.5c0.5-3.2-1-7.5,0.6-8c1.6-0.5-2.2-2.7-1.7-4.7c1-4.5,3.9-4,4.3-6.1s-0.4-7.2,2.1-8c2.3-0.9,6.7,0,8-1.3
		s1.9-2.6,4-2.6c2.1,0,5.3,3.4,7.1,3.3C72.3,47.3,74.5,48.4,74.5,48.4z"/>
	<path class="st5" d="M83.1,60.9c-0.2-0.7-1.7-2.1-2.4-1.9c-2.3,0.1-27.1,22.4-17.3,24.2c10.6,1.9,20.2-7.5,20.2-17.6
		C83.7,64,83.5,62.4,83.1,60.9z"/>
	<path class="st6" d="M82.3,60.3c-0.2-0.7-1.7-2.1-2.4-1.9c-2.3,0.1-10.1-0.2-11.2-1.6c12.4-5.6,3-3.4,3.4-4.7
		c0.4-1.2,2.8-2.1,1.9-2.7c-2.8-1.7-6-2.7-9.5-2.7c-10.1,0-18.2,8.1-18.2,18.2s8.1,18.2,18.2,18.2S82.7,75,82.7,64.9
		C82.9,63.4,82.6,61.8,82.3,60.3z M69.1,63c-1.3,0.6-2.7,0.4-3-0.4c-0.4-0.7,0.5-1.8,1.8-2.4c1.3-0.6,2.7-0.4,3,0.4
		C71.3,61.3,70.5,62.4,69.1,63z"/>
	<ellipse transform="matrix(0.8 -0.6 0.6 0.8 -16.99 58.5417)" class="st5" cx="79.3" cy="54.8" rx="2.4" ry="1.1"/>
	<polygon class="st3" points="53.7,16.6 55.4,18.6 56,22.5 57.7,22.5 57.7,17.5 55.8,15.3 	"/>
	<polygon class="st3" points="86.4,24 88.2,25.1 88.2,27.3 85.9,28.5 83.7,26.8 	"/>
	<polygon class="st3" points="37.5,30.1 39.6,30.1 40.9,31.4 40.9,32.4 38.6,32.4 	"/>
	<polygon class="st3" points="17.5,68.8 19.8,67.5 21.6,68.8 21.6,70.2 17.5,70.2 	"/>
	<polygon class="st3" points="43.5,99.6 42,101.4 43.5,103 45.5,101.3 	"/>
	<polygon class="st3" points="60.4,104.3 60.4,107.7 62.4,110.2 62.4,106 	"/>
	<polygon class="st3" points="72.9,109.1 71.1,110.2 72.9,113.1 74.5,115.8 75.8,113.8 74.1,109.1 	"/>
	<polygon class="st3" points="93.6,94.7 93.6,96.4 94.7,98 97.5,98 95.5,94.7 	"/>
	<polygon class="st3" points="111.2,53.5 112.9,55.8 114.5,54.7 117.8,53.5 114.5,53 112.9,51.8 	"/>
	<polygon class="st6" points="19.9,53.3 23.9,53 22.4,55.1 19.5,55.1 	"/>
	<polygon class="st6" points="39.2,24 47.7,39.7 47.9,38.9 39.7,23.5 	"/>
	<polygon class="st6" points="28.4,31.8 44.6,45.1 44.6,45.9 28.4,32.4 	"/>
	<polygon class="st6" points="38.6,64.7 28.5,63.6 12.4,63.6 13,64.2 28.4,64.2 38.5,65.2 	"/>
	<path class="st6" d="M42,75.5c-1,0.1-16.8,6.2-16.8,6.2l0.2,0.4L42,75.9C42,75.9,42,75.5,42,75.5z"/>
	<polygon class="st6" points="33.5,87.9 30.5,91.9 30.8,92.3 34.5,87.9 	"/>
	<polygon class="st6" points="45.5,84.8 38.1,90.2 32.8,98 30,99.6 27.1,104.3 27.7,104.3 30.5,99.6 33.4,98 38.5,90.6 45.9,85.1 	
		"/>
	<polygon class="st6" points="65.4,97 65.4,107.2 66.3,108.5 66.3,114.9 66.9,114.9 67.1,108.3 66,106.9 65.8,97 	"/>
	<polygon class="st6" points="68.6,88.9 73.5,94.7 73.5,99.1 83.7,112.5 84.2,112 74.2,98.9 74.4,94.7 69.1,88.5 	"/>
	<polygon class="st6" points="92.2,78.6 97.2,80.5 101.5,83.1 102.2,82.9 97.5,80 91.5,77.8 	"/>
	<polygon class="st6" points="100.9,73.1 105.2,73.1 105,73.6 100.7,73.6 	"/>
	<polygon class="st6" points="98.1,67.4 104.5,67.4 105.5,68.3 114.6,68.3 114.5,68.7 105,68.7 104.1,67.7 97.9,67.7 	"/>
	<polygon class="st6" points="83.2,46.7 88.3,41 89.9,38.1 97.9,27.4 98.8,26.2 97.5,27.1 89.2,38.1 87.7,40.7 83,46.5 	"/>
	<polygon class="st6" points="65.4,9.5 65.4,31.3 64.9,31.3 65,9.5 	"/>
	<polygon class="st2" points="79.1,16.8 80.8,16.8 80.8,18.9 79.1,20.4 76.7,21.1 77.3,17.9 	"/>
	<polygon class="st2" points="110.1,77.3 110.1,79.3 108.6,80.3 108.6,81.2 117.8,81.2 113.3,77.3 	"/>
	<polygon class="st2" points="88.2,100.2 92.2,100.2 93.6,103 94.4,107.2 93.6,107.2 88.2,101.9 	"/>
	<polygon class="st2" points="27.7,94.6 27.7,96.4 22.8,98 22.8,97 24.9,94 	"/>
	<path class="st4" d="M33.5,55.1c0.9,0.4,4,0,4,0l1.7,2.1l-2.9,0.7L33.5,55.1z"/>
	<polygon class="st4" points="38.6,72.5 34.1,76 36.7,76 	"/>
	<polygon class="st4" points="101.1,90.2 102.8,89.7 105,91.9 105,94 102.1,92.7 	"/>
	<polygon class="st4" points="106.2,35.3 103.7,38.7 102.8,36.7 99.9,35.3 103,34.3 105,33.7 106.2,32.4 	"/>
	<polygon class="st4" points="61.4,32.4 61.4,36.3 63.9,35.5 63.9,32.4 	"/>
	<path class="st4" d="M91.4,70.2c0.6-0.6,3.2,0,3.2,0l1.1,1.7h-2.1L91.4,70.2z"/>
	<polygon class="st0" points="46.3,80.3 43.7,81.2 44.6,82.2 48.2,81.2 48.2,80.3 	"/>
	<polygon class="st0" points="90.9,61.3 93.6,61.3 94.4,59.2 91.4,59.2 	"/>
	<polygon class="st0" points="56.5,41.2 57.7,39.7 57.7,38.7 55.8,38.7 55.8,41.2 	"/>
</g>
</svg>
