<?xml version="1.0" encoding="utf-8"?>
<!-- Generator: Adobe Illustrator 24.3.0, SVG Export Plug-In . SVG Version: 6.00 Build 0)  -->
<svg version="1.1" id="图层_1" xmlns="http://www.w3.org/2000/svg" xmlns:xlink="http://www.w3.org/1999/xlink" x="0px" y="0px"
	 viewBox="0 0 200 200" style="enable-background:new 0 0 200 200;" xml:space="preserve">
<style type="text/css">
	.st0{fill:#0660FF;}
</style>
<path class="st0" d="M5.12,36.65C0.87,19.12,13.01,1.11,31.1,0.63c25.18-0.67,50.57-1.34,75.58,1.02
	c48.24,4.55,87.01,46.08,89.09,92.82c2.2,49.38-32.03,93.19-81.04,102.74c-9.77,1.91-20.26,2.7-30.06,1.38
	c-20.78-2.79-34.61-19.57-34.77-40.52c-0.23-28.85-0.07-57.7-0.09-86.54c0-1.5-0.16-3-0.27-4.93c-5.25,0-10.37-0.46-15.36,0.14
	c-4.48,0.54-6.96,3.91-6.97,8.48c-0.03,31.14,0.2,61.54,0.2,93.42c0.14,10.07,6.04,17.89,13.61,24.27c2.28,1.92,4.68,3.68,7.27,5.7
	c-20.02,6.28-43.54-9.79-43.85-30.24c-0.48-31.52-0.33-63.05-0.05-94.57C4.52,58.29,17.24,45.04,34,44.43
	c21.55-0.78,43.28-1.24,64.71,0.64c31.69,2.77,53.06,28.59,51.4,59.27c-1.53,28.2-26.88,51.52-57.44,51.52
	c-7.29,0-12.9,0.02-19.25,0.02c-1.75,12.23,6.89,21.57,19.52,21.88c34.31,0.84,67.2-23.38,77.08-56.76
	c9.66-32.63-4.14-67.71-33.94-86.29c-13.3-8.29-27.86-12.35-43.48-12.47c-18.92-0.14-37.84-0.01-56.76-0.04
	C24.1,22.18,14.08,25.79,6.91,35.6c-0.32,0.43-0.82,0.74-1.26,1.06C5.53,36.74,5.3,36.66,5.12,36.65z M73,133.58
	c7.68,0,14.74,0.3,21.76-0.06c16.62-0.86,30.46-13.32,32.33-28.73c2.02-16.59-7.28-31.94-23.85-36.32
	C93.7,65.96,83.41,66.26,73,65.24C73,88.84,73,110.88,73,133.58z"/>
</svg>
