<svg xmlns="http://www.w3.org/2000/svg" viewBox="0 0 569.052 605.212"><path fill="#fff" stroke="#fff" stroke-miterlimit="10" stroke-width="47.421" d="M374.976 23.71c-35.718 0-67.694 16.004-89.165 41.226-13.132-15.732-32.882-25.747-54.976-25.747-39.536 0-71.587 32.05-71.587 71.587 0 .65.032 1.295.05 1.942a70.985 70.985 0 00-11.659-.976c-39.002 0-70.618 31.618-70.618 70.62l141.19 1.935h48.08c17.275 43.089 59.423 73.522 108.685 73.522 64.647 0 117.054-52.407 117.054-117.054S439.624 23.71 374.976 23.71z"/><path fill="#fff" stroke="#fff" stroke-miterlimit="10" stroke-width="39.053" d="M518.649 227.727c54.296 123.814 2.495 269.794-119.777 330.971-126.217 63.151-279.73 12.026-342.88-114.19C20.774 374.12 21.096 295.24 50.164 228.28"/><path fill="#fff" d="M549.525 194.599c0-19.687-20.777-35.795-46.172-35.795H65.7c-25.395 0-46.172 16.107-46.172 35.794 0 19.687 20.778 35.795 46.172 35.795h437.655c25.394 0 46.171-16.107 46.171-35.794z"/><path fill="none" stroke="#fff" stroke-miterlimit="10" stroke-width="39.053" d="M549.525 194.599c0-19.687-20.777-35.795-46.172-35.795H65.7c-25.395 0-46.172 16.107-46.172 35.794 0 19.687 20.778 35.795 46.172 35.795h437.655c25.394 0 46.171-16.107 46.171-35.794z"/><path fill="#e9ad02" stroke="#e9ad03" stroke-miterlimit="10" stroke-width="7.739" d="M374.976 23.71c-35.718 0-67.694 16.004-89.165 41.226-13.132-15.732-32.882-25.747-54.976-25.747-39.536 0-71.587 32.05-71.587 71.587 0 .65.032 1.295.05 1.942a70.985 70.985 0 00-11.659-.976c-39.002 0-70.618 31.618-70.618 70.62l141.19 1.935h48.08c17.275 43.089 59.423 73.522 108.685 73.522 64.647 0 117.054-52.407 117.054-117.054S439.624 23.71 374.976 23.71z"/><path fill="#f3c70d" d="M374.976 23.71c-35.718 0-67.694 16.004-89.165 41.226-13.132-15.732-32.882-25.747-54.976-25.747-39.536 0-71.587 32.05-71.587 71.587 0 .65.032 1.295.05 1.942a70.985 70.985 0 00-11.659-.976c-39.002 0-70.618 31.618-70.618 70.62l141.19 1.935h48.08c17.275 43.089 59.423 73.522 108.685 73.522 64.647 0 117.054-52.407 117.054-117.054S439.624 23.71 374.976 23.71z"/><path fill="#e9ad03" d="M298.315 71.582c12.387-15.161 29.869-26.424 49.149-31.773 4.805-1.413 9.748-2.303 14.716-2.996l3.745-.37 1.875-.18 1.88-.078 3.764-.148 3.767.033c10.05.205 20.08 1.938 29.659 5.054 19.178 6.22 36.345 18.355 48.62 34.154 12.366 15.714 19.85 35.143 20.774 54.708-3.749-19.19-12.368-36.992-24.853-51.35-12.483-14.334-28.699-25.247-46.652-31.08a104.351 104.351 0 00-27.766-5.082l-3.545-.13-3.548.044-1.775.023-1.77.108-3.547.212-3.53.396-1.767.204-1.755.282c-1.17.19-2.347.353-3.515.564l-3.486.734c-18.564 4.177-36.017 13.476-50.44 26.67zm-115.55 10.09c5.43-12.161 16.113-22.226 29.023-27.272 12.888-5.086 27.843-5.201 40.912-.063 13.094 5.02 24.147 15.065 30.295 27.5l2.072 4.756c.615 1.61 1.1 3.272 1.608 4.91.282.813.441 1.66.607 2.504l.507 2.52c.406 1.664.479 3.386.656 5.077.06.85.162 1.695.186 2.543l-.045 2.548c-.043 1.695-.009 3.38-.253 5.055-.383 3.347-1.08 6.64-2.135 9.796.316-3.31.425-6.602.258-9.859-.063-1.63-.297-3.244-.493-4.85l-.295-2.4c-.136-.794-.348-1.577-.517-2.362-.37-1.565-.586-3.151-1.15-4.66l-.728-2.278c-.237-.76-.465-1.52-.814-2.24-.663-1.448-1.197-2.938-1.88-4.362l-2.23-4.176c-6.514-10.802-16.5-19.241-28.086-23.704-11.557-4.556-24.677-4.911-36.727-1.29-12.054 3.74-22.898 11.607-30.772 22.308zm-54.86 44.042c4.61-2.98 10.106-4.597 15.69-4.99 5.588-.384 11.35.337 16.675 2.32 2.688.924 5.215 2.25 7.649 3.685l1.76 1.185.873.597.829.66 1.646 1.323 1.538 1.445c.522.467 1.005.976 1.467 1.506.469.521.94 1.035 1.392 1.565.842 1.122 1.734 2.181 2.449 3.38l1.085 1.767c.316.62.64 1.227.932 1.854.635 1.213 1.072 2.542 1.514 3.827-4.06-3.687-7.927-7.043-12.19-9.759-2.077-1.416-4.28-2.593-6.458-3.758-1.138-.492-2.202-1.125-3.364-1.549l-1.695-.734-1.736-.629c-4.614-1.726-9.455-2.77-14.45-3.379-5.01-.632-10.14-.614-15.606-.316z" opacity=".45"/><g fill="#fbfce6"><path d="M325.139 83.869l-6.88 3.762-3.761 6.879-3.762-6.88-6.88-3.761 6.88-3.763 3.762-6.88 3.762 6.88z"/><path d="M217.805 122.645l-6.88 3.762-3.761 6.879-3.762-6.88-6.88-3.761 6.88-3.763 3.762-6.878 3.762 6.878z" opacity=".8"/><path d="M454.816 134.253l-6.88 3.763-3.762 6.879-3.762-6.88-6.88-3.762 6.88-3.762 3.762-6.88 3.763 6.88z" opacity=".95"/></g><path fill="#7daeda" stroke="#7daeda" stroke-miterlimit="10" stroke-width=".967" d="M518.649 227.727c54.296 123.814 2.495 269.794-119.777 330.971-126.217 63.151-279.73 12.026-342.88-114.19C20.774 374.12 21.096 295.24 50.164 228.28"/><path fill="#5e83a3" d="M389.93 420.688c-125.08 50.183-267.16-10.533-317.343-135.616-5.963-14.862-10.247-29.97-13.157-45.13-20.773 55.121-22.028 117.782 1.635 176.761 50.183 125.081 192.262 185.8 317.344 135.617 110.219-44.22 170.35-159.792 148.774-272.216-23.283 61.78-71.15 114.064-137.252 140.584z" opacity=".15"/><path fill="#46739d" d="M315.082 415.187c-.14.056-.284.107-.425.163.141-.055.284-.106.425-.163zm-10.99 3.53c-.3.074-.604.145-.906.216.302-.07.605-.141.906-.216zm-24.207 2.237c-.237-.014-.475-.035-.712-.051.237.016.475.037.712.05zm-3.744-.31c-.31-.032-.62-.063-.932-.099.311.036.621.067.932.1zm-4.56-.593c-.158-.025-.315-.057-.472-.083.157.026.314.058.471.083z"/><path fill="#46739d" d="M344.216 395.42c9.128-9.615 16.056-21.58 19.729-35.287 4.427-16.52 3.489-33.212-1.738-48.232-.5-.83-45.552-75.155-131.636-35.096-11.96 10.38-21.054 24.32-25.461 40.769a81.813 81.813 0 00.042 42.679c1.76 3.735 45.787 94.483 139.064 35.168zm-25.114 18.02c-.271.126-.541.253-.813.376.272-.123.542-.25.813-.376z"/><path fill="#46739d" d="M284.318 421.082c-.282-.001-.563.002-.844-.002.282.004.563 0 .844.002zm27.431-4.65c-.294.103-.587.206-.882.306.295-.1.588-.203.882-.306zm-11.629 3.16c-.148.029-.294.062-.442.09.148-.029.294-.062.442-.09zm-3.924.662c-.299.042-.6.08-.9.12.3-.04.601-.078.9-.12zm-3.853.458c-.232.022-.463.05-.695.07.232-.02.463-.048.695-.07zm-4.236.298c-.279.012-.559.018-.839.027.28-.01.56-.015.84-.027zm36.86-153.764l.08.047zm-118.043 98.772c-.066-.187-.136-.372-.2-.56.065.187.135.372.2.56zm-1.255-3.873c-.079-.266-.153-.534-.229-.801.076.268.15.535.23.8zm2.616 7.483c-.105-.26-.206-.521-.308-.781.103.26.203.52.308.78zm1.601 3.692c-.078-.168-.16-.334-.236-.502.077.168.158.334.236.502zm3.64 6.98c-.088-.151-.18-.3-.268-.452.088.152.18.3.268.452zm19.763-105.745c.198-.157.395-.315.593-.47zM211.6 376.808c-.132-.251-.259-.505-.387-.757.128.252.255.505.386.757zm31.534-108.986c.218-.127.437-.251.656-.376-.219.125-.438.249-.656.376zm10.763-5.27c.177-.071.357-.138.534-.208-.178.07-.357.137-.534.208zm3.5-1.312c.181-.064.361-.131.543-.193-.182.062-.362.129-.543.193zm3.831-1.24c.242-.072.486-.141.73-.21-.245.069-.488.138-.73.21zm-21.508 9.926c.161-.105.32-.213.482-.316-.162.103-.32.21-.482.316zm-3.085 2.099c.157-.112.317-.221.475-.332-.158.11-.318.219-.475.332zm-21.056 111.607c-.156-.242-.309-.484-.463-.727.154.243.307.486.463.726zm34.47-119.413c.227-.105.455-.212.684-.315-.229.104-.457.21-.685.315zm-18.826 137.248c-.224-.19-.447-.385-.669-.578.222.193.444.386.67.578zm16.587 10.966c-.055-.028-.112-.053-.168-.08.056.027.113.052.168.08zm4.001 1.851zm-7.36-3.629zm23.426 8.705zm-12.56-3.647l-.097-.035zm-14.552-7.234c-.073-.046-.148-.089-.22-.135.072.046.147.09.22.135zm18.87 8.726zM234.21 403.9c-.085-.066-.173-.129-.258-.195.085.066.173.13.258.195zm3.364 2.466a95.932 95.932 0 01-.732-.516c.244.172.487.345.732.516zm-17.379-16.315c-.18-.227-.358-.456-.536-.685.178.23.355.458.536.685zm5.224 5.962c-.203-.21-.403-.423-.604-.635.201.212.401.425.604.635zm96.923 15.843c-.204.105-.41.205-.615.31.205-.105.412-.205.615-.31zm-94.163-13.113c-.092-.087-.188-.17-.28-.258.092.087.188.171.28.258zm-10.374-11.852c-.093-.129-.189-.255-.28-.385.091.13.187.256.28.385zm51.051-128.758c.25-.05.498-.099.748-.145-.25.046-.499.095-.748.144zm-46.155 134.924c-.095-.108-.193-.214-.288-.323.095.11.193.215.288.323zm126.172-105.38c.101.127.205.251.305.38-.1-.128-.205-.252-.305-.38zm2.375 3.143c.15.207.295.414.442.622-.147-.208-.293-.416-.442-.622zm2.398 3.511c.043.067.083.135.126.202-.042-.067-.083-.135-.126-.202zm1.86 3.046c.122.206.244.412.362.62l-.361-.62zm-11.904-15.713c.17.176.34.35.508.527-.168-.177-.338-.35-.508-.527zm-5.735-5.394zm8.564 8.468c.138.16.273.32.41.48-.137-.16-.272-.32-.41-.48zm11.08 16.268c.1.192.195.387.294.58-.098-.194-.194-.388-.294-.58zm-16.444-21.865l.118.116zm-8.398 126.354c-.186.134-.37.273-.557.406.187-.133.37-.272.556-.406zm-3.43 2.351c-.23.15-.463.293-.695.44.232-.147.465-.29.695-.44zm6.477-4.655c-.236.186-.473.37-.71.553.237-.184.474-.367.71-.553zm-9.62 6.587c-.237.138-.47.28-.708.415.237-.136.471-.277.707-.415zm34.657-101.729c.096.237.19.474.284.711zm-22.009 92.615c-.114.1-.224.203-.338.302.114-.098.224-.201.338-.301zm20.457-96.2c.063.135.13.27.191.405-.062-.136-.128-.27-.19-.406zm-17.48 93.46c-.224.217-.45.432-.678.646.227-.215.453-.429.678-.646zm-6.976-124.187c.14.108.283.213.422.322-.139-.108-.282-.214-.422-.322zm-37.583-16.123c.2.031.4.058.6.091-.2-.033-.4-.06-.6-.09zm-24.12-.19c.19-.027.382-.05.573-.075-.19.026-.383.048-.574.075zm36.393 3.084c.252.08.505.159.756.242-.25-.082-.504-.161-.756-.242zm-16.157-3.413c.2.022.398.049.597.072-.199-.023-.398-.05-.597-.072zm-12.384-.394a65.56 65.56 0 010-.001zm-4.09.284c.196-.018.391-.041.587-.058-.196.017-.39.04-.587.058zm36.827 4.973c.193.073.382.15.574.224-.192-.074-.38-.151-.574-.224zm-24.703-5.212c.26.014.52.028.78.044-.26-.016-.52-.03-.78-.044zm12.418 1.634c.26.055.521.113.781.17-.26-.057-.52-.115-.78-.17zm19.717 6.81zm10.587 6.268c.171.12.338.243.507.363-.169-.12-.336-.244-.507-.363zm-3.559-2.347c.214.134.43.267.643.402-.214-.136-.429-.268-.643-.402zm-10.806-5.67l.53.226c-.176-.078-.354-.15-.53-.226z"/><path fill="#172734" d="M310.192 260.748zm14.856 6.544zm-10.842-5.112zm-16.444-4.476zm30.972 11.808zm-22.928-10.077zm15.956 6.106zm-19.634-6.993zm15.687 5.118zm-48.21-5.679zm-25.815 9.458zm3.089-1.687zm11.06-4.712zm-3.509 1.297zm-3.697 1.561zm-16.85 10.18zm6.319-4.476zm-9.632 7.196zm6.54-5.111zm48.179-15.075zm-3.622.054zm-4.275.253zm-15.435 2.863zm27.752-2.999zm4.167.376zm-28.493 1.712zm8.233-1.529zm58.542 14.472zm17.02 16.235zm-5.068-5.865zm11.758 15.805zm1.937 3.59zm-10.964-16.368zm6.932 9.315zm-18.604-20.473zm27.049 37.86a81.402 81.402 0 00-1.181-3.159 84.375 84.375 0 011.169 3.14.409.409 0 01.012.02zm-10.527-20.478zm-13.243-14.67zm20.945 28.097zm-18.207-25.612z" opacity=".5"/><path fill="#46739d" d="M362.205 311.9a80.954 80.954 0 00-1.169-3.14c-.094-.237-.188-.475-.284-.711a82.547 82.547 0 00-1.36-3.18c-.062-.137-.128-.27-.191-.407a83.863 83.863 0 00-1.397-2.878c-.098-.193-.194-.387-.294-.58a83.397 83.397 0 00-1.643-3.01l-.361-.619a83.245 83.245 0 00-1.733-2.844c-.043-.067-.083-.135-.126-.202a82.705 82.705 0 00-1.956-2.89c-.147-.208-.294-.416-.442-.622a82.847 82.847 0 00-2.071-2.764c-.1-.127-.204-.252-.305-.379a82.044 82.044 0 00-2.033-2.459c-.137-.16-.272-.32-.41-.48a83.323 83.323 0 00-2.32-2.547c-.168-.177-.34-.352-.508-.527a83.124 83.124 0 00-2.416-2.408l-.118-.116a81.915 81.915 0 00-2.62-2.369c-.193-.168-.386-.336-.581-.502a82.12 82.12 0 00-2.698-2.21c-.14-.11-.282-.215-.422-.323a80.434 80.434 0 00-2.588-1.916c-.17-.12-.337-.244-.507-.363a83.003 83.003 0 00-2.917-1.945 53.187 53.187 0 00-.643-.402c-1-.624-2.011-1.235-3.043-1.818l-.08-.047a81.575 81.575 0 00-3.206-1.704c-.232-.118-.464-.236-.698-.352a80.863 80.863 0 00-3.248-1.523c-.175-.077-.353-.15-.53-.226a82.705 82.705 0 00-3.08-1.26c-.191-.074-.38-.15-.573-.224a82.642 82.642 0 00-3.44-1.208c-.251-.082-.504-.162-.756-.242a83.977 83.977 0 00-3.63-1.072 84.285 84.285 0 00-3.677-.887c-.26-.057-.521-.115-.781-.17a82.35 82.35 0 00-3.585-.674c-.2-.033-.4-.06-.6-.09a82.53 82.53 0 00-3.286-.449c-.2-.023-.398-.05-.597-.072a83.15 83.15 0 00-3.57-.305c-.26-.017-.52-.03-.78-.044a82.266 82.266 0 00-3.64-.127 80.862 80.862 0 00-3.622.054c-.257.01-.515.017-.772.028-1.172.051-2.34.125-3.503.226-.196.017-.391.04-.587.058a82.75 82.75 0 00-3.19.364c-.19.026-.382.047-.573.075a80.412 80.412 0 00-3.437.565c-.25.046-.5.096-.748.144-1.164.227-2.324.47-3.474.746a81.406 81.406 0 00-3.426.911l-.73.21a81.027 81.027 0 00-3.287 1.047c-.182.062-.362.13-.543.193-.996.35-1.985.717-2.966 1.104-.178.07-.357.137-.534.208a81.715 81.715 0 00-3.164 1.354c-.23.103-.457.21-.685.315a82.602 82.602 0 00-3.17 1.54 82.398 82.398 0 00-3.088 1.686l-.656.376a81.848 81.848 0 00-2.932 1.787c-.162.104-.321.211-.482.316a81.796 81.796 0 00-2.61 1.767c-.158.111-.318.22-.475.332a83.1 83.1 0 00-2.751 2.061c-.2.155-.396.313-.593.47a81.948 81.948 0 00-2.721 2.25c86.08-40.056 131.133 34.27 131.633 35.1z"/><path fill="#172734" d="M362.205 311.9a80.954 80.954 0 00-1.169-3.14c-.094-.237-.188-.475-.284-.711a82.547 82.547 0 00-1.36-3.18c-.062-.137-.128-.27-.191-.407a83.863 83.863 0 00-1.397-2.878c-.098-.193-.194-.387-.294-.58a83.397 83.397 0 00-1.643-3.01l-.361-.619a83.245 83.245 0 00-1.733-2.844c-.043-.067-.083-.135-.126-.202a82.705 82.705 0 00-1.956-2.89c-.147-.208-.294-.416-.442-.622a82.847 82.847 0 00-2.071-2.764c-.1-.127-.204-.252-.305-.379a82.044 82.044 0 00-2.033-2.459c-.137-.16-.272-.32-.41-.48a83.323 83.323 0 00-2.32-2.547c-.168-.177-.34-.352-.508-.527a83.124 83.124 0 00-2.416-2.408l-.118-.116a81.915 81.915 0 00-2.62-2.369c-.193-.168-.386-.336-.581-.502a82.12 82.12 0 00-2.698-2.21c-.14-.11-.282-.215-.422-.323a80.434 80.434 0 00-2.588-1.916c-.17-.12-.337-.244-.507-.363a83.003 83.003 0 00-2.917-1.945 53.187 53.187 0 00-.643-.402c-1-.624-2.011-1.235-3.043-1.818l-.08-.047a81.575 81.575 0 00-3.206-1.704c-.232-.118-.464-.236-.698-.352a80.863 80.863 0 00-3.248-1.523c-.175-.077-.353-.15-.53-.226a82.705 82.705 0 00-3.08-1.26c-.191-.074-.38-.15-.573-.224a82.642 82.642 0 00-3.44-1.208c-.251-.082-.504-.162-.756-.242a83.977 83.977 0 00-3.63-1.072 84.285 84.285 0 00-3.677-.887c-.26-.057-.521-.115-.781-.17a82.35 82.35 0 00-3.585-.674c-.2-.033-.4-.06-.6-.09a82.53 82.53 0 00-3.286-.449c-.2-.023-.398-.05-.597-.072a83.15 83.15 0 00-3.57-.305c-.26-.017-.52-.03-.78-.044a82.266 82.266 0 00-3.64-.127 80.862 80.862 0 00-3.622.054c-.257.01-.515.017-.772.028-1.172.051-2.34.125-3.503.226-.196.017-.391.04-.587.058a82.75 82.75 0 00-3.19.364c-.19.026-.382.047-.573.075a80.412 80.412 0 00-3.437.565c-.25.046-.5.096-.748.144-1.164.227-2.324.47-3.474.746a81.406 81.406 0 00-3.426.911l-.73.21a81.027 81.027 0 00-3.287 1.047c-.182.062-.362.13-.543.193-.996.35-1.985.717-2.966 1.104-.178.07-.357.137-.534.208a81.715 81.715 0 00-3.164 1.354c-.23.103-.457.21-.685.315a82.602 82.602 0 00-3.17 1.54 82.398 82.398 0 00-3.088 1.686l-.656.376a81.848 81.848 0 00-2.932 1.787c-.162.104-.321.211-.482.316a81.796 81.796 0 00-2.61 1.767c-.158.111-.318.22-.475.332a83.1 83.1 0 00-2.751 2.061c-.2.155-.396.313-.593.47a81.948 81.948 0 00-2.721 2.25c86.08-40.056 131.133 34.27 131.633 35.1z" opacity=".5"/><path fill="#bab2cc" d="M318.288 413.815zm-18.61 5.866zm25.71-9.489zm-10.73 5.157zm7.07-3.185zm-10.86 4.574zm-59.903-2.826zm-28.551-21.179zm80.773 26.2zm4.32-1.125zm-59.864-5.456zm80.9-4.068zm-100.642-9.8zm15.754 11.722zm-3.111-1.862zm-6.59-4.64zm2.89 2.144zm-12.028-10.47zm119.4.043zm-5.81 5.545zm-3.4 2.778zm6.038-5.174zm-8.932 7.33zm-124.135-37.053zm1.673 3.97zm1.562 3.233zm56.664 43.31zm-48.217-29.994zm75.637 31.009zm-28.385-1.22zm-49.387-32.65zm13.03 14.384zm-17.296-21.04zm1.857 3.058zm48.13 35.365zm-56.52-52.813zm72.447 55.445zm8.097.134zm-3.795.042zm-28.256-5.401zm36.43 5.103zm-86.555-60.651c.11.407.232.809.347 1.213-.103-.362-.192-.728-.29-1.091zm70.116 60.415zm-16.473-3.631z" opacity=".25"/><path fill="#46739d" d="M271.58 420.051c1.211.195 2.421.355 3.63.494.31.036.62.066.932.1 1.012.105 2.023.192 3.032.259.237.016.475.037.712.05 1.198.07 2.395.11 3.588.126.282.004.563.001.844.002.986.003 1.97-.012 2.951-.044.28-.009.56-.015.84-.027a79.95 79.95 0 003.54-.229c.232-.02.463-.047.695-.07a85.173 85.173 0 002.953-.336c.3-.04.6-.078.9-.121a82.529 82.529 0 003.481-.572c.148-.028.294-.061.442-.09a83.068 83.068 0 003.066-.658c.302-.071.605-.142.906-.216a82.441 82.441 0 003.415-.91 81.404 81.404 0 004.241-1.375 83.114 83.114 0 002.908-1.083c.141-.056.284-.107.425-.163a82.333 82.333 0 003.206-1.372c.273-.123.544-.25.814-.376.883-.41 1.759-.835 2.627-1.276.204-.104.41-.203.615-.31a82.337 82.337 0 003.046-1.662c.237-.136.47-.277.707-.415a81.594 81.594 0 002.449-1.493c.23-.147.465-.29.695-.44a81.814 81.814 0 002.874-1.946c.187-.133.37-.27.557-.406a84.651 84.651 0 002.338-1.75c.237-.185.474-.367.709-.554a81.381 81.381 0 002.69-2.225c.115-.099.226-.202.339-.302a81.13 81.13 0 002.299-2.095 82.91 82.91 0 003.172-3.149c-93.277 59.316-137.304-31.432-139.065-35.168.098.363.187.73.29 1.091.076.267.15.535.229.801.33 1.112.679 2.218 1.055 3.313.064.187.134.372.2.56.333.95.685 1.892 1.053 2.828.102.261.203.522.308.781a82.39 82.39 0 001.365 3.19c.076.168.159.334.236.502.425.92.868 1.828 1.326 2.73.128.253.255.506.386.757a82.737 82.737 0 001.66 3.041c.087.152.18.3.268.452a83.502 83.502 0 001.589 2.607c.154.242.306.485.463.726.63.97 1.276 1.93 1.946 2.874.092.13.189.256.28.385a82.589 82.589 0 001.855 2.475c.178.23.355.458.536.685a83.462 83.462 0 002.218 2.683c.094.11.193.214.288.323a82.75 82.75 0 002.114 2.32c.2.212.4.425.604.635.81.84 1.634 1.666 2.48 2.472.092.087.187.171.28.258a82.041 82.041 0 003.043 2.725 80.774 80.774 0 002.73 2.237l.259.195a81.677 81.677 0 003.364 2.465 82.299 82.299 0 002.969 1.98c.073.046.148.09.22.135a81.9 81.9 0 002.89 1.726 80.913 80.913 0 003.989 2.147c.055.028.112.053.168.081a81.049 81.049 0 003.154 1.48 82.432 82.432 0 004.255 1.765l.097.035a83.673 83.673 0 004.318 1.491c1.192.378 2.392.74 3.612 1.066a83.677 83.677 0 004.63 1.088 80.13 80.13 0 003.233.608c.154.032.31.064.468.09z"/><path fill="#bab2cc" d="M271.58 420.051c1.211.195 2.421.355 3.63.494.31.036.62.066.932.1 1.012.105 2.023.192 3.032.259.237.016.475.037.712.05 1.198.07 2.395.11 3.588.126.282.004.563.001.844.002.986.003 1.97-.012 2.951-.044.28-.009.56-.015.84-.027a79.95 79.95 0 003.54-.229c.232-.02.463-.047.695-.07a85.173 85.173 0 002.953-.336c.3-.04.6-.078.9-.121a82.529 82.529 0 003.481-.572c.148-.028.294-.061.442-.09a83.068 83.068 0 003.066-.658c.302-.071.605-.142.906-.216a82.441 82.441 0 003.415-.91 81.404 81.404 0 004.241-1.375 83.114 83.114 0 002.908-1.083c.141-.056.284-.107.425-.163a82.333 82.333 0 003.206-1.372c.273-.123.544-.25.814-.376.883-.41 1.759-.835 2.627-1.276.204-.104.41-.203.615-.31a82.337 82.337 0 003.046-1.662c.237-.136.47-.277.707-.415a81.594 81.594 0 002.449-1.493c.23-.147.465-.29.695-.44a81.814 81.814 0 002.874-1.946c.187-.133.37-.27.557-.406a84.651 84.651 0 002.338-1.75c.237-.185.474-.367.709-.554a81.381 81.381 0 002.69-2.225c.115-.099.226-.202.339-.302a81.13 81.13 0 002.299-2.095 82.91 82.91 0 003.172-3.149c-93.277 59.316-137.304-31.432-139.065-35.168.098.363.187.73.29 1.091.076.267.15.535.229.801.33 1.112.679 2.218 1.055 3.313.064.187.134.372.2.56.333.95.685 1.892 1.053 2.828.102.261.203.522.308.781a82.39 82.39 0 001.365 3.19c.076.168.159.334.236.502.425.92.868 1.828 1.326 2.73.128.253.255.506.386.757a82.737 82.737 0 001.66 3.041c.087.152.18.3.268.452a83.502 83.502 0 001.589 2.607c.154.242.306.485.463.726.63.97 1.276 1.93 1.946 2.874.092.13.189.256.28.385a82.589 82.589 0 001.855 2.475c.178.23.355.458.536.685a83.462 83.462 0 002.218 2.683c.094.11.193.214.288.323a82.75 82.75 0 002.114 2.32c.2.212.4.425.604.635.81.84 1.634 1.666 2.48 2.472.092.087.187.171.28.258a82.041 82.041 0 003.043 2.725 80.774 80.774 0 002.73 2.237l.259.195a81.677 81.677 0 003.364 2.465 82.299 82.299 0 002.969 1.98c.073.046.148.09.22.135a81.9 81.9 0 002.89 1.726 80.913 80.913 0 003.989 2.147c.055.028.112.053.168.081a81.049 81.049 0 003.154 1.48 82.432 82.432 0 004.255 1.765l.097.035a83.673 83.673 0 004.318 1.491c1.192.378 2.392.74 3.612 1.066a83.677 83.677 0 004.63 1.088 80.13 80.13 0 003.233.608c.154.032.31.064.468.09z" opacity=".25"/><path fill="#46739d" d="M91.633 298.421zm1.907 62.082zm-.033-61.867zm-4.202-.336zm-3.53.174zm5.564 62.27zm-3.797-62.406zm9.564 1.034zm10.737 5.24zm-12.527-5.66zm11.026 4.598zm2.876 2.16zm1.29 1.15zm1.565 1.607zm-7.684-6.127zm-1.57-.822zm-13.6 59.31zm6.213-.667zm5.738-59.389zm-1.772-.682zm-40.072 39.255zm3.524 7.322zm2.389 3.194zm-1.328-1.675zm-2.141-3.302zm16.766 14.128zm-17.726-15.98zm8.834 11.077zm1.615 1.192zm-11.2-13.957zm12.805 14.988zm3.832 1.965zm-8.737-5.626zm16.006-53.952zm-9.063 58.747zm3.514-57.303zm-1.677.663zm36.52 9.015zM74.7 301.776zm12.588 59.01zm-7.22-61.172zm4.823 60.935zm-3.968-.785zM68.5 305.976zm1.76-1.409zm12.59 55.642zm-11.12-56.68zm1.472-.923zm-6.59 48.766zm50.635-35.212zm-12.195 40.233zm-1.627.914zm8.285-6.232zm-3.165 2.9zm-1.749 1.296zm3.198-2.535zm7.958-34.985zm-6.243 33.324a31.114 31.114 0 007.501-13.417 31.11 31.11 0 00-.66-18.339c-.188-.31-17.318-28.576-50.05-13.344a31.12 31.12 0 00-9.681 15.501 31.108 31.108 0 00.016 16.227c.642 1.365 17.379 35.945 52.874 13.372zm4.708-36.533zm-15.077 43.746zm12.98-47.069zm.97 1.413zM95.951 360.05z"/><path fill="#172734" d="M112.876 309.378zm-5.526-5.13zm-1.457-.998c.151.097.3.2.45.3-.15-.1-.299-.203-.45-.3zm-13.014-4.699zm15.907 6.805c.145.118.29.233.432.353-.142-.12-.288-.236-.432-.353zm-8.2-4.824zm-5.83-1.685c.187.035.373.067.559.105-.186-.038-.372-.07-.558-.105zm4.107 1.056c.18.06.357.125.535.188-.178-.063-.354-.129-.535-.188zm11.545 6.867c.032.031.067.06.1.09l-.1-.09zm-6.089-4.467l.07.037-.07-.037zm12.665 13.318zm.748 1.614c.073.172.15.343.22.516-.07-.173-.146-.344-.22-.516zm-6.01-9.154c.12.127.233.257.351.386-.117-.129-.232-.26-.351-.386zm6.831 11.246c-.022-.062-.048-.122-.07-.184.021.06.045.117.066.176zm-2.379-5.23c.084.146.162.296.243.445-.08-.149-.159-.299-.243-.446zm-2.187-3.32c.111.146.223.292.331.442-.108-.15-.22-.296-.33-.443zm1.2 1.704c.033.051.07.1.102.151-.032-.05-.068-.1-.102-.15zm-12.88-11.203c.17.08.342.157.511.24-.169-.083-.34-.16-.512-.24zm-26.06-.242c.163-.073.328-.14.492-.21-.164.07-.328.137-.491.21zm1.609-.664zm-5.113 2.514c.153-.093.305-.189.46-.28-.156.091-.307.186-.46.28zm6.817-3.11c.17-.054.339-.11.51-.163-.171.052-.34.11-.51.163zm-8.326 4.088zm-1.403 1.025c.142-.11.287-.215.43-.322-.144.107-.29.212-.43.322zm13.599-6.082c.177-.032.356-.058.534-.088-.178.03-.356.055-.534.088zm7.648-.433c.185.012.37.032.555.047-.185-.016-.37-.035-.555-.047zm-4.08 0c.18-.013.362-.028.544-.036-.182.008-.363.023-.544.035zm-1.828.17z" opacity=".5"/><path fill="#46739d" d="M118.55 319.32c-.022-.059-.046-.117-.067-.176a31.18 31.18 0 00-.53-1.393c-.072-.172-.148-.343-.222-.515a31.43 31.43 0 00-.747-1.613 32.522 32.522 0 00-.567-1.08c-.08-.148-.16-.299-.243-.446a31.07 31.07 0 00-.884-1.464l-.102-.15a30.335 30.335 0 00-.869-1.263c-.108-.149-.22-.295-.33-.443a31.245 31.245 0 00-1.113-1.398 31.45 31.45 0 00-.802-.91c-.117-.13-.232-.26-.352-.387a31.06 31.06 0 00-1.214-1.22c-.032-.032-.067-.06-.099-.09a31.589 31.589 0 00-1.19-1.062c-.14-.12-.287-.236-.43-.353a32.476 32.476 0 00-1.437-1.108c-.33-.239-.667-.47-1.008-.698-.15-.1-.297-.202-.45-.3a31.604 31.604 0 00-1.504-.91l-.069-.037a31.368 31.368 0 00-1.5-.785c-.17-.083-.342-.16-.513-.24a33.25 33.25 0 00-1.722-.746 31.099 31.099 0 00-1.186-.442c-.178-.063-.355-.128-.535-.188a32.47 32.47 0 00-1.757-.53 31.95 31.95 0 00-1.79-.42c-.186-.039-.372-.07-.558-.106a32.008 32.008 0 00-1.878-.296 31.183 31.183 0 00-1.247-.13c-.185-.016-.37-.035-.555-.047a31.016 31.016 0 00-1.773-.073c-.59-.006-1.177.01-1.763.037-.182.01-.363.023-.544.035a29.16 29.16 0 00-1.828.171c-.404.05-.805.11-1.205.175-.178.03-.357.055-.534.088a31.062 31.062 0 00-3.36.807c-.171.051-.34.108-.51.163a30.14 30.14 0 00-2.821 1.05c-.164.07-.33.136-.491.21-.522.233-1.04.477-1.547.74a31.69 31.69 0 00-1.5.83c-.154.09-.305.186-.46.28a31.371 31.371 0 00-1.507.977c-.33.227-.653.463-.974.703-.143.107-.29.212-.43.322-.452.351-.898.711-1.331 1.087 32.73-15.233 49.86 13.032 50.047 13.344z"/><path fill="#172734" d="M118.55 319.32c-.022-.059-.046-.117-.067-.176a31.18 31.18 0 00-.53-1.393c-.072-.172-.148-.343-.222-.515a31.43 31.43 0 00-.747-1.613 32.522 32.522 0 00-.567-1.08c-.08-.148-.16-.299-.243-.446a31.07 31.07 0 00-.884-1.464l-.102-.15a30.335 30.335 0 00-.869-1.263c-.108-.149-.22-.295-.33-.443a31.245 31.245 0 00-1.113-1.398 31.45 31.45 0 00-.802-.91c-.117-.13-.232-.26-.352-.387a31.06 31.06 0 00-1.214-1.22c-.032-.032-.067-.06-.099-.09a31.589 31.589 0 00-1.19-1.062c-.14-.12-.287-.236-.43-.353a32.476 32.476 0 00-1.437-1.108c-.33-.239-.667-.47-1.008-.698-.15-.1-.297-.202-.45-.3a31.604 31.604 0 00-1.504-.91l-.069-.037a31.368 31.368 0 00-1.5-.785c-.17-.083-.342-.16-.513-.24a33.25 33.25 0 00-1.722-.746 31.099 31.099 0 00-1.186-.442c-.178-.063-.355-.128-.535-.188a32.47 32.47 0 00-1.757-.53 31.95 31.95 0 00-1.79-.42c-.186-.039-.372-.07-.558-.106a32.008 32.008 0 00-1.878-.296 31.183 31.183 0 00-1.247-.13c-.185-.016-.37-.035-.555-.047a31.016 31.016 0 00-1.773-.073c-.59-.006-1.177.01-1.763.037-.182.01-.363.023-.544.035a29.16 29.16 0 00-1.828.171c-.404.05-.805.11-1.205.175-.178.03-.357.055-.534.088a31.062 31.062 0 00-3.36.807c-.171.051-.34.108-.51.163a30.14 30.14 0 00-2.821 1.05c-.164.07-.33.136-.491.21-.522.233-1.04.477-1.547.74a31.69 31.69 0 00-1.5.83c-.154.09-.305.186-.46.28a31.371 31.371 0 00-1.507.977c-.33.227-.653.463-.974.703-.143.107-.29.212-.43.322-.452.351-.898.711-1.331 1.087 32.73-15.233 49.86 13.032 50.047 13.344z" opacity=".5"/><path fill="#bab2cc" d="M77.206 358.507c-.17-.07-.342-.137-.51-.21.169.072.34.14.51.21zm1.864.693c-.18-.06-.356-.124-.534-.188.178.064.355.128.534.188zm-4.085-1.69l-.083-.044zm-5.208-3.292c-.045-.035-.088-.074-.134-.109.046.036.089.074.134.11zm3.564 2.4a25.017 25.017 0 01-.477-.285c.159.095.316.191.477.284zm-1.644-1.025c-.146-.097-.294-.192-.438-.292.144.1.292.195.438.292zm15.944 5.205c-.117-.005-.234-.006-.352-.012.117.007.234.007.352.012zm8.31-.748c-.172.039-.345.075-.52.112.175-.037.348-.072.52-.112zm5.82-1.945c-.142.064-.287.122-.43.184.143-.061.288-.12.43-.184zm-7.761 2.322c-.157.026-.313.054-.471.077.158-.023.314-.052.47-.077zm-25.641-7.384a35.992 35.992 0 01-.41-.37c.136.123.27.248.41.37zm23.317 7.679c-.115.01-.231.014-.347.022.115-.01.232-.013.347-.023zm-6.303-.105c-.163-.02-.327-.046-.491-.068.164.022.327.048.49.067zm4.394.203zm-6.372-.507c-.185-.034-.37-.067-.554-.104.185.037.369.07.554.104zm-24.592-22.655c.022.083.052.164.075.247-.02-.066-.035-.133-.053-.2a1.95 1.95 0 00-.022-.046zm8.16 14.073c-.12-.12-.241-.238-.36-.359.118.121.24.24.36.36zm43.412.65l-.39.356c.13-.119.262-.236.39-.356zm-50.961-12.728c-.035-.102-.064-.206-.098-.308.034.103.063.207.098.308zm46.095 16.455zm1.558-1.027c-.092.065-.188.126-.281.19.094-.064.189-.125.28-.19zm-7.067 3.744c-.165.062-.33.125-.495.184.166-.059.33-.122.495-.184zm3.715-1.682c-.1.054-.2.111-.3.164.102-.053.2-.11.3-.164zm-43.48-15.362c-.061-.146-.126-.29-.186-.437.06.147.125.291.187.437zm48.662 11.894c-.121.1-.24.201-.362.3.123-.099.24-.2.362-.3zm-47-8.54c-.047-.083-.09-.168-.137-.25.047.082.09.167.137.25zm2.335 3.492c-.112-.146-.221-.294-.331-.442.11.15.219.296.33.442zm-1.116-1.552c-.092-.136-.186-.27-.276-.407.09.137.184.271.276.407zm2.262 2.966c-.051-.059-.098-.12-.148-.18.05.06.097.121.148.18zm-4.336-6.51c-.083-.166-.162-.333-.242-.5.08.167.159.333.242.5z" opacity=".25"/><path fill="#46739d" d="M100.01 358.825c.447-.169.89-.348 1.33-.536.142-.062.287-.12.43-.184a32.23 32.23 0 001.655-.797c.1-.053.199-.11.3-.164a32.026 32.026 0 003.072-1.87c.093-.065.188-.126.28-.19.5-.355.99-.725 1.469-1.108.122-.098.24-.2.362-.299.37-.304.732-.617 1.088-.939.13-.118.262-.235.39-.356a31.33 31.33 0 001.324-1.305c-35.496 22.572-52.232-12.007-52.875-13.372l.053.201c.135.484.28.965.438 1.441.034.102.063.206.098.308.195.57.408 1.133.635 1.69.06.147.125.291.187.437.179.421.367.838.564 1.25.08.167.159.333.242.5.229.456.468.908.718 1.353.047.083.089.168.137.251.299.52.615 1.03.943 1.533.09.137.184.272.276.407a31.776 31.776 0 002.113 2.787c.05.06.098.121.148.18.394.456.804.898 1.225 1.331.118.122.24.24.36.36.322.32.65.633.987.94.136.123.27.248.41.37.415.365.839.721 1.275 1.066.045.036.088.074.134.11.48.374.977.733 1.482 1.082.144.1.292.195.438.292.383.255.772.501 1.167.74.159.096.317.192.477.285.51.296 1.03.581 1.56.85l.084.043c.558.28 1.13.54 1.71.787.169.072.34.14.51.21.439.177.882.346 1.33.505.179.063.356.127.535.188a31.86 31.86 0 001.854.565c.642.172 1.285.315 1.927.445.185.037.369.07.554.104.496.091.992.17 1.487.236.164.022.327.048.49.067.637.075 1.273.133 1.907.17.118.006.234.006.352.011a30.854 30.854 0 003.698-.053c.115-.009.232-.013.347-.022.622-.053 1.24-.127 1.854-.218.158-.023.314-.052.47-.077.478-.077.952-.166 1.423-.265.173-.036.347-.072.52-.112a31.514 31.514 0 003.564-1.04z"/><path fill="#bab2cc" d="M100.01 358.825c.447-.169.89-.348 1.33-.536.142-.062.287-.12.43-.184a32.23 32.23 0 001.655-.797c.1-.053.199-.11.3-.164a32.026 32.026 0 003.072-1.87c.093-.065.188-.126.28-.19.5-.355.99-.725 1.469-1.108.122-.098.24-.2.362-.299.37-.304.732-.617 1.088-.939.13-.118.262-.235.39-.356a31.33 31.33 0 001.324-1.305c-35.496 22.572-52.232-12.007-52.875-13.372l.053.201c.135.484.28.965.438 1.441.034.102.063.206.098.308.195.57.408 1.133.635 1.69.06.147.125.291.187.437.179.421.367.838.564 1.25.08.167.159.333.242.5.229.456.468.908.718 1.353.047.083.089.168.137.251.299.52.615 1.03.943 1.533.09.137.184.272.276.407a31.776 31.776 0 002.113 2.787c.05.06.098.121.148.18.394.456.804.898 1.225 1.331.118.122.24.24.36.36.322.32.65.633.987.94.136.123.27.248.41.37.415.365.839.721 1.275 1.066.045.036.088.074.134.11.48.374.977.733 1.482 1.082.144.1.292.195.438.292.383.255.772.501 1.167.74.159.096.317.192.477.285.51.296 1.03.581 1.56.85l.084.043c.558.28 1.13.54 1.71.787.169.072.34.14.51.21.439.177.882.346 1.33.505.179.063.356.127.535.188a31.86 31.86 0 001.854.565c.642.172 1.285.315 1.927.445.185.037.369.07.554.104.496.091.992.17 1.487.236.164.022.327.048.49.067.637.075 1.273.133 1.907.17.118.006.234.006.352.011a30.854 30.854 0 003.698-.053c.115-.009.232-.013.347-.022.622-.053 1.24-.127 1.854-.218.158-.023.314-.052.47-.077.478-.077.952-.166 1.423-.265.173-.036.347-.072.52-.112a31.514 31.514 0 003.564-1.04z" opacity=".25"/><path fill="#46739d" d="M371.632 449.546c-.093.033-.188.062-.282.093.095-.032.189-.06.282-.093zm-2.7-28.72zm-1.508-.153c.073.004.144.004.216.01-.072-.005-.143-.005-.215-.01zm5.256 1.253zm-2.133-.768zm-4.512-.492c.07-.003.142-.002.213-.005-.07.002-.142.001-.213.005zm-5.632 1.39c.063-.03.125-.062.189-.09-.063.03-.125.061-.19.09zm-1.194.623c.06-.035.12-.066.18-.1-.06.034-.122.065-.18.1zm5.29-1.86a6.186 6.186 0 01.001 0zm-2.752.685c.085-.03.171-.058.257-.087-.086.03-.172.057-.257.087zm18.38 7.654z"/><path fill="#46739d" d="M356.94 424.3a14.8 14.8 0 00-4.605 7.373 14.783 14.783 0 00.034 7.774c.572 1.185 8.545 16.848 25.123 6.305a14.8 14.8 0 003.568-6.382c.801-2.99.63-6.01-.317-8.728-.102-.17-8.247-13.582-23.804-6.342zm1.002-.79c.073-.053.146-.107.22-.159l-.22.16zm21.393 4.203zm-2.765 18.922zm-.91-22.973zm-1.401-.93zm2.662 1.988zm1.429 1.59zm-25.674 14.153c-.016-.044-.034-.087-.049-.13.015.043.033.086.05.13zm13.183 9.906c-.056-.003-.113-.01-.169-.015.056.004.113.012.17.015z"/><path fill="#46739d" d="M370.349 449.932c-.097.025-.193.052-.29.074.097-.023.193-.05.29-.074zm-8.79-.462a12.214 12.214 0 01-.318-.121c.107.04.213.082.319.12zm2.966.756zm2.966.14c-.11.007-.221.014-.331.017.11-.003.22-.01.33-.016zm7.94-2.815c-.044.032-.085.066-.129.097.044-.031.086-.066.13-.097zm-2.407 1.42c-.075.037-.149.075-.225.11.076-.035.15-.074.225-.11zm1.22-.642c-.094.055-.189.107-.283.16.094-.053.19-.105.282-.16zm-5.432 1.913c-.083.012-.167.019-.25.029.083-.01.167-.017.25-.03zm-14.942-7.205l-.062-.101zm.813 1.237zm-1.45-2.457c-.046-.096-.089-.193-.132-.29.043.098.086.194.131.29zm2.292 3.516l-.06-.066zm1.057 1.084a12.318 12.318 0 01-.234-.223c.078.075.155.15.234.223zm2.306 1.757c-.093-.058-.186-.116-.277-.176zm-1.283-.884c-.018-.014-.037-.026-.054-.04.017.015.036.027.054.04zm2.455 1.54l-.034-.014c.011.005.023.009.034.015z"/><path fill="#172734" d="M373.745 422.442zm-1.555-.73c.167.066.326.143.49.215-.164-.072-.323-.149-.49-.215zm4.68 2.964c.015.015.034.028.05.044-.016-.015-.034-.028-.05-.044zm-1.639-1.315c.143.1.29.196.428.301-.139-.105-.285-.2-.428-.3zm5.517 7.29c-.012-.036-.03-.069-.043-.104.011.032.027.063.038.095a.136.136 0 00.005.008zm-.86-1.957c.08.154.164.307.24.464-.076-.158-.16-.309-.24-.464zm-.862-1.462zm-9.81-6.359zm8.822 5.041c.108.128.207.263.311.395-.104-.13-.202-.266-.31-.395zm-17.447-3.948zm-2.429 1.385zm3.842-1.934zm1.231-.36zm-6.296 3.243zm2.45-1.72zm5.383-1.802zm1.476-.117zm1.391.021z" opacity=".5"/><path fill="#46739d" d="M380.743 430.644c-.01-.032-.027-.063-.038-.095a14.957 14.957 0 00-.578-1.39c-.075-.157-.159-.31-.239-.464a15.245 15.245 0 00-.861-1.462c-.213-.316-.44-.623-.676-.923-.104-.132-.203-.267-.311-.395a14.83 14.83 0 00-1.118-1.194l-.051-.044a14.923 14.923 0 00-1.21-1.014c-.14-.105-.285-.201-.428-.301a15.133 15.133 0 00-.973-.631 14.519 14.519 0 00-1.578-.804c-.163-.072-.323-.15-.49-.215a14.823 14.823 0 00-1.644-.553 14.976 14.976 0 00-1.331-.286l-.283-.048a15.05 15.05 0 00-1.292-.143c-.072-.005-.143-.005-.215-.01a14.43 14.43 0 00-1.176-.011c-.071.002-.142 0-.213.005-.424.019-.845.058-1.262.113-.091.012-.182.026-.273.04-.426.064-.85.14-1.265.239-.417.1-.826.224-1.231.36-.086.029-.172.057-.257.087-.392.139-.778.292-1.156.462-.064.029-.126.06-.19.09-.343.16-.681.335-1.012.522-.06.034-.122.066-.181.1-.358.209-.706.434-1.045.672-.074.052-.147.106-.221.159-.344.25-.681.51-1.003.789 15.555-7.238 23.7 6.174 23.802 6.345z"/><path fill="#172734" d="M380.743 430.644c-.01-.032-.027-.063-.038-.095a14.957 14.957 0 00-.578-1.39c-.075-.157-.159-.31-.239-.464a15.245 15.245 0 00-.861-1.462c-.213-.316-.44-.623-.676-.923-.104-.132-.203-.267-.311-.395a14.83 14.83 0 00-1.118-1.194l-.051-.044a14.923 14.923 0 00-1.21-1.014c-.14-.105-.285-.201-.428-.301a15.133 15.133 0 00-.973-.631 14.519 14.519 0 00-1.578-.804c-.163-.072-.323-.15-.49-.215a14.823 14.823 0 00-1.644-.553 14.976 14.976 0 00-1.331-.286l-.283-.048a15.05 15.05 0 00-1.292-.143c-.072-.005-.143-.005-.215-.01a14.43 14.43 0 00-1.176-.011c-.071.002-.142 0-.213.005-.424.019-.845.058-1.262.113-.091.012-.182.026-.273.04-.426.064-.85.14-1.265.239-.417.1-.826.224-1.231.36-.086.029-.172.057-.257.087-.392.139-.778.292-1.156.462-.064.029-.126.06-.19.09-.343.16-.681.335-1.012.522-.06.034-.122.066-.181.1-.358.209-.706.434-1.045.672-.074.052-.147.106-.221.159-.344.25-.681.51-1.003.789 15.555-7.238 23.7 6.174 23.802 6.345z" opacity=".5"/><path fill="#bab2cc" d="M354.498 444.012zm.966 1.254zm-1.656-2.33zm2.54 3.258zm-3.247-4.667zm4.45 5.723zm-5.22-7.88c.087.325.187.645.295.962-.098-.29-.176-.588-.257-.885zm23.984 7.484zm-4.965 2.784zm-1.29.367zm-1.497.265zm-1.404.112zm10.334-4.63zm-2.19 1.895zm-9.613 2.707zm-7.079-2.357zm14.187 1.082zm1.163-.59zm-9.786 1.681zm-4.149-1.356zm2.822 1.071zm-1.606-.537z" opacity=".25"/><path fill="#46739d" d="M352.368 439.447c.082.297.16.595.258.885.015.044.034.087.05.131a14.826 14.826 0 00.555 1.354c.178.38.367.755.576 1.12l.062.1a14.716 14.716 0 00.813 1.238c.248.34.505.674.781.993l.061.066a15.178 15.178 0 001.057 1.084c.311.29.631.57.968.833l.054.04a14.863 14.863 0 001.283.883c.37.228.746.445 1.138.642l.034.015a14.717 14.717 0 001.5.64c.421.153.848.297 1.29.415a15.304 15.304 0 001.675.341c.39.058.778.102 1.165.13.056.003.113.011.17.014.435.025.868.026 1.3.013.11-.003.22-.01.33-.016.36-.019.717-.05 1.072-.096.083-.01.167-.017.25-.029.42-.06.836-.14 1.247-.236.097-.023.193-.05.29-.074.338-.086.672-.183 1.001-.292.094-.03.19-.06.282-.093.396-.14.785-.294 1.167-.466.076-.034.15-.073.225-.109.318-.15.63-.31.937-.483.094-.053.19-.105.282-.16.362-.213.717-.438 1.06-.68.044-.032.085-.067.13-.098a15.145 15.145 0 001.136-.914c.318-.282.63-.573.923-.883-16.576 10.54-24.549-5.122-25.122-6.308z"/><path fill="#bab2cc" d="M352.368 439.447c.082.297.16.595.258.885.015.044.034.087.05.131a14.826 14.826 0 00.555 1.354c.178.38.367.755.576 1.12l.062.1a14.716 14.716 0 00.813 1.238c.248.34.505.674.781.993l.061.066a15.178 15.178 0 001.057 1.084c.311.29.631.57.968.833l.054.04a14.863 14.863 0 001.283.883c.37.228.746.445 1.138.642l.034.015a14.717 14.717 0 001.5.64c.421.153.848.297 1.29.415a15.304 15.304 0 001.675.341c.39.058.778.102 1.165.13.056.003.113.011.17.014.435.025.868.026 1.3.013.11-.003.22-.01.33-.016.36-.019.717-.05 1.072-.096.083-.01.167-.017.25-.029.42-.06.836-.14 1.247-.236.097-.023.193-.05.29-.074.338-.086.672-.183 1.001-.292.094-.03.19-.06.282-.093.396-.14.785-.294 1.167-.466.076-.034.15-.073.225-.109.318-.15.63-.31.937-.483.094-.053.19-.105.282-.16.362-.213.717-.438 1.06-.68.044-.032.085-.067.13-.098a15.145 15.145 0 001.136-.914c.318-.282.63-.573.923-.883-16.576 10.54-24.549-5.122-25.122-6.308z" opacity=".25"/><path fill="#46739d" d="M426.45 289.084c-.096.014-.193.022-.29.034.096-.013.193-.021.29-.034zm-14.24-4.454zm16.028 4.092c-.112.028-.223.06-.335.086.112-.026.223-.057.335-.086zm-14.445-30.763c.085-.062.17-.125.257-.185zm12.798-3.126zm-1.68 34.396c-.128.007-.256.015-.385.019.128-.004.256-.012.385-.02zm4.822-.955c-.108.038-.218.07-.326.107.108-.036.218-.07.326-.107zm-11.728-.09zm3.454.88zm-8.06-3.419l-.061-.043c.02.015.042.028.06.044zm1.496 1.03zm8.117 2.558c-.066-.004-.132-.013-.197-.017.065.004.13.013.197.017zm-6.755-1.794l-.035-.016zm19.637-28.068l.026.027a.331.331 0 00-.026-.027zm-12.677-4.724c.082-.004.165-.003.247-.005-.082.003-.165.002-.247.005zm11.292 3.55c.084.065.168.132.252.199-.084-.067-.167-.134-.253-.2zm-26.2 21.077a14.377 14.377 0 01-.152-.336l.151.336zm28.62-18.821c.07.078.14.155.206.234-.067-.08-.137-.156-.206-.234zm-27.878 20.24c-.023-.04-.049-.077-.07-.116.021.039.047.076.07.116zm-1.39-3c-.018-.048-.039-.096-.056-.146.016.05.037.097.055.147zm25.435-20.47c.068.043.138.082.205.125-.068-.043-.138-.082-.205-.124zm4.935 4.6c.05.07.096.142.145.212-.049-.07-.095-.142-.145-.211zm-8.054-6.115zm1.696.723c.077.038.151.08.228.119-.076-.04-.15-.081-.228-.12zm-6.84-1.775c.084.004.167.005.251.01-.084-.005-.167-.006-.25-.01zm-9.566 2.336c.07-.041.142-.077.212-.117-.071.039-.142.076-.211.117z"/><path fill="#46739d" d="M436.557 283.856a17.233 17.233 0 004.154-7.43 17.231 17.231 0 00-.37-10.162c-.12-.2-9.604-15.814-27.717-7.385l.002-.002a17.24 17.24 0 00-5.363 8.587 17.211 17.211 0 00.04 9.052c.668 1.38 9.952 19.616 29.254 7.34z"/><path fill="#46739d" d="M421.428 254.825c.106-.016.212-.032.32-.046-.107.013-.213.03-.32.046zm-4.769 1.44l.217-.104c-.072.033-.144.07-.217.104zm17.497 29.685c-.05.037-.098.076-.149.112.051-.036.1-.076.15-.112zm-23.176-2.582c-.023-.027-.049-.05-.072-.078.023.027.048.051.072.078zm20.371 4.236c-.087.041-.172.086-.26.125.09-.039.173-.084.26-.125zm1.422-.749c-.108.064-.218.124-.328.185.11-.06.22-.12.329-.185zm-14.55-31.232c.1-.035.201-.068.301-.102-.1.033-.2.066-.3.102zm17.258 29.261c-.097.086-.196.17-.295.254.1-.083.198-.167.295-.254zm3.416-21.728c.037.063.077.125.114.188-.036-.063-.076-.124-.114-.188zm-28.9 18.977c-.073-.1-.144-.2-.214-.303.071.102.141.203.214.303zm29.678-17.5c.045.097.09.195.132.292-.044-.098-.087-.195-.132-.292z"/><path fill="#172734" d="M423.464 254.642zm-10.836 4.235zm5.897-3.355zm6.56-.856zm1.834.222zm-5.172-.11zm-6.27 2.097zm1.4-.713zm23.47 10.11a17.045 17.045 0 00-.54-1.347c.194.44.376.884.534 1.338a.14.14 0 01.006.01zm-11.879-11.052zm3.433 1.33zm5.234 4.136zm-3.835-3.339zm1.461 1.048zm-4.473-2.572zm-16.239 1.95zm24.962 5.572zm-.835-1.31zm-2.256-2.639z" opacity=".5"/><path fill="#46739d" d="M440.342 266.264a17.344 17.344 0 00-.667-1.63 17.203 17.203 0 00-.664-1.288c-.036-.064-.076-.125-.114-.188a17.818 17.818 0 00-.72-1.122c-.05-.07-.095-.142-.145-.211a17.46 17.46 0 00-.895-1.137c-.068-.08-.137-.156-.206-.234a17.34 17.34 0 00-1.01-1.056l-.026-.027c-.36-.342-.741-.663-1.132-.974l-.253-.2a17.195 17.195 0 00-1.208-.848c-.067-.043-.137-.082-.205-.124a17.403 17.403 0 00-1.195-.674c-.076-.04-.151-.081-.228-.12a17.529 17.529 0 00-1.385-.607c-.103-.04-.207-.077-.31-.116a17.363 17.363 0 00-1.51-.487 17.86 17.86 0 00-1.55-.333 7.192 7.192 0 00-.327-.055 17.224 17.224 0 00-1.505-.167c-.084-.005-.167-.006-.251-.01a17.413 17.413 0 00-1.37-.014c-.082.002-.165.002-.247.005a17.91 17.91 0 00-1.47.13 17.282 17.282 0 00-3.223.743c-.1.034-.201.067-.301.102-.456.162-.906.34-1.346.538-.073.033-.145.07-.217.104-.402.188-.796.391-1.182.61-.07.04-.141.075-.211.116-.417.243-.822.505-1.217.782-.087.061-.172.123-.257.185-.4.291-.791.593-1.165.917l-.002.002c18.11-8.427 27.594 7.187 27.715 7.387z"/><path fill="#172734" d="M440.342 266.264a17.344 17.344 0 00-.667-1.63 17.203 17.203 0 00-.664-1.288c-.036-.064-.076-.125-.114-.188a17.818 17.818 0 00-.72-1.122c-.05-.07-.095-.142-.145-.211a17.46 17.46 0 00-.895-1.137c-.068-.08-.137-.156-.206-.234a17.34 17.34 0 00-1.01-1.056l-.026-.027c-.36-.342-.741-.663-1.132-.974l-.253-.2a17.195 17.195 0 00-1.208-.848c-.067-.043-.137-.082-.205-.124a17.403 17.403 0 00-1.195-.674c-.076-.04-.151-.081-.228-.12a17.529 17.529 0 00-1.385-.607c-.103-.04-.207-.077-.31-.116a17.363 17.363 0 00-1.51-.487 17.86 17.86 0 00-1.55-.333 7.192 7.192 0 00-.327-.055 17.224 17.224 0 00-1.505-.167c-.084-.005-.167-.006-.251-.01a17.413 17.413 0 00-1.37-.014c-.082.002-.165.002-.247.005a17.91 17.91 0 00-1.47.13 17.282 17.282 0 00-3.223.743c-.1.034-.201.067-.301.102-.456.162-.906.34-1.346.538-.073.033-.145.07-.217.104-.402.188-.796.391-1.182.61-.07.04-.141.075-.211.116-.417.243-.822.505-1.217.782-.087.061-.172.123-.257.185-.4.291-.791.593-1.165.917l-.002.002c18.11-8.427 27.594 7.187 27.715 7.387z" opacity=".5"/><path fill="#bab2cc" d="M422.815 289.214zm-15.554-12.789c.102.378.218.752.344 1.121-.116-.338-.206-.686-.301-1.03zM421.05 289zm-6.477-2.529zm-6.416-7.533zm21.249 9.443zm-1.504.427zm-18.922-8.23zm23.465 6.465zm-7.921 2.206zm1.635-.13zm7.848-3.055zm-16.371 1.98zm13.456-.314zm-17.755-2.129zm2.883 1.822zm-4.282-3.052zm-2.155-2.54zm26.773 2.026zm-17.05 4.812zm15.68-3.529zm-24.278-1.849z" opacity=".25"/><path fill="#46739d" d="M407.303 276.515c.095.346.185.693.301 1.031.017.05.038.098.055.147.15.422.317.836.497 1.244.05.112.1.225.151.336.207.443.428.88.672 1.303l.072.116c.228.39.474.768.732 1.14a17.438 17.438 0 001.124 1.459c.023.027.049.052.072.078a17.403 17.403 0 001.229 1.26c.363.337.735.665 1.128.971l.06.044c.378.292.772.564 1.175.825a17.323 17.323 0 001.647.952l.035.016a17.238 17.238 0 001.749.745c.49.18.988.347 1.5.485a17.281 17.281 0 001.953.397c.453.067.905.119 1.356.15.066.005.132.014.197.017a16.99 16.99 0 001.513.015c.129-.004.257-.012.385-.02.419-.022.836-.059 1.25-.112.096-.012.194-.02.29-.034.49-.07.974-.163 1.453-.275.113-.026.223-.057.335-.086.394-.1.784-.214 1.168-.34.109-.037.218-.07.326-.108.46-.163.915-.343 1.36-.544.088-.039.173-.084.26-.125.37-.175.736-.363 1.094-.564a17.357 17.357 0 001.562-.978c.05-.036.099-.076.149-.112a17.063 17.063 0 001.324-1.065c.371-.329.733-.668 1.076-1.029-19.299 12.277-28.583-5.958-29.25-7.339z"/><path fill="#bab2cc" d="M407.303 276.515c.095.346.185.693.301 1.031.017.05.038.098.055.147.15.422.317.836.497 1.244.05.112.1.225.151.336.207.443.428.88.672 1.303l.072.116c.228.39.474.768.732 1.14a17.438 17.438 0 001.124 1.459c.023.027.049.052.072.078a17.403 17.403 0 001.229 1.26c.363.337.735.665 1.128.971l.06.044c.378.292.772.564 1.175.825a17.323 17.323 0 001.647.952l.035.016a17.238 17.238 0 001.749.745c.49.18.988.347 1.5.485a17.281 17.281 0 001.953.397c.453.067.905.119 1.356.15.066.005.132.014.197.017a16.99 16.99 0 001.513.015c.129-.004.257-.012.385-.02.419-.022.836-.059 1.25-.112.096-.012.194-.02.29-.034.49-.07.974-.163 1.453-.275.113-.026.223-.057.335-.086.394-.1.784-.214 1.168-.34.109-.037.218-.07.326-.108.46-.163.915-.343 1.36-.544.088-.039.173-.084.26-.125.37-.175.736-.363 1.094-.564a17.357 17.357 0 001.562-.978c.05-.036.099-.076.149-.112a17.063 17.063 0 001.324-1.065c.371-.329.733-.668 1.076-1.029-19.299 12.277-28.583-5.958-29.25-7.339z" opacity=".25"/><path fill="#46739d" d="M366.596 495.741zm.764.39zm.68.452zm.61.512zm-3.916-1.894zm-3.982 13.704zm3.152-13.774zm-2.076 14.165zm7.516-11.43zm-3.784-2.498zm.027 13.914zm-.85.183zm2.648-.945zm.722-.497zm-9.145-11.132a7.179 7.179 0 00-2.233 3.575 7.156 7.156 0 00.017 3.77c.277.573 4.143 8.168 12.181 3.056a7.18 7.18 0 001.73-3.094 7.18 7.18 0 00-.154-4.232c-.048-.08-3.997-6.586-11.54-3.075zm11.243 2.355zm-6.55 10.288zm6.166-10.989zm-7.104 10.924zm-.702-14.15zm1.036-.16zm-5.15 11.457zm3.354-11.064zm-2.8 11.722zm-1.474-2.335zm9.512 4.03zm-6.694-12.694zm.72-.409zm-1.557 1.025zm-1.556 8.96zm11.521 1.441zm-9.704.695zm.735.507z"/><path fill="#172734" d="M369.192 497.675c.053.062.101.128.151.192-.05-.064-.098-.13-.15-.192zm-1.36-1.238c.069.049.14.095.207.146-.067-.051-.137-.097-.207-.146zm.794.637l.026.022zm-4.15-1.9c.086.01.172.016.258.029-.086-.013-.172-.02-.258-.03zm-1.673.007c.083-.01.166-.015.249-.022-.083.007-.167.01-.25.022zm-2.53.813zm6.837-.003zm-7.52.419c.069-.047.139-.09.209-.133-.07.044-.14.086-.208.133zm4.028-1.281zm2.739.508c.08.032.158.07.238.105-.08-.035-.157-.073-.239-.105zm3.314 2.677zm-8.647-2.67c.077-.031.153-.064.231-.092-.078.028-.154.06-.23.092zm9.065 3.379c.04.075.08.148.115.224-.035-.076-.076-.15-.115-.224zm.397.899l.018.045.002.004z" opacity=".5"/><path fill="#46739d" d="M370.205 499.247c-.036-.076-.077-.15-.115-.224a7.199 7.199 0 00-.746-1.157c-.05-.064-.099-.13-.15-.192a7.047 7.047 0 00-.543-.58l-.026-.021a7.081 7.081 0 00-.586-.491c-.067-.051-.138-.097-.207-.146a7.47 7.47 0 00-.72-.446 7.008 7.008 0 00-.517-.25c-.08-.035-.157-.072-.239-.105a7.168 7.168 0 00-.797-.268 7.104 7.104 0 00-.826-.166c-.086-.013-.172-.019-.258-.029a7.394 7.394 0 00-.859-.045 7.55 7.55 0 00-.565.03c-.083.007-.167.012-.249.022a7.114 7.114 0 00-.787.139 7.163 7.163 0 00-.76.232c-.078.028-.154.06-.23.092a7.34 7.34 0 00-.751.35 7.347 7.347 0 00-.476.282c-.07.045-.14.087-.208.133a7.31 7.31 0 00-.628.482c7.544-3.511 11.493 2.995 11.542 3.075l-.019-.045a7.389 7.389 0 00-.28-.672z"/><path fill="#172734" d="M370.205 499.247c-.036-.076-.077-.15-.115-.224a7.199 7.199 0 00-.746-1.157c-.05-.064-.099-.13-.15-.192a7.047 7.047 0 00-.543-.58l-.026-.021a7.081 7.081 0 00-.586-.491c-.067-.051-.138-.097-.207-.146a7.47 7.47 0 00-.72-.446 7.008 7.008 0 00-.517-.25c-.08-.035-.157-.072-.239-.105a7.168 7.168 0 00-.797-.268 7.104 7.104 0 00-.826-.166c-.086-.013-.172-.019-.258-.029a7.394 7.394 0 00-.859-.045 7.55 7.55 0 00-.565.03c-.083.007-.167.012-.249.022a7.114 7.114 0 00-.787.139 7.163 7.163 0 00-.76.232c-.078.028-.154.06-.23.092a7.34 7.34 0 00-.751.35 7.347 7.347 0 00-.476.282c-.07.045-.14.087-.208.133a7.31 7.31 0 00-.628.482c7.544-3.511 11.493 2.995 11.542 3.075l-.019-.045a7.389 7.389 0 00-.28-.672z" opacity=".5"/><path fill="#bab2cc" d="M356.728 504.199c.014.05.035.098.05.147l-.032-.11zm1.9 3.257c-.06-.06-.116-.121-.174-.181.058.06.114.122.174.18zm-.58-.652c-.05-.062-.1-.124-.149-.188.048.064.1.125.148.188zm-.606-.881c-.013-.023-.023-.047-.036-.07.013.023.023.047.036.07zm9.194 2.99c-.047.02-.096.037-.144.057.048-.02.097-.036.144-.057zm-9.563-3.74a6.646 6.646 0 01-.093-.233c.03.078.06.156.093.233zm8.755 4.04zm1.741-.81c-.06.039-.12.08-.183.118.062-.038.121-.08.183-.118zm.73-.53c-.063.052-.128.1-.192.15.064-.05.13-.098.192-.15zm-9.042.145l-.034-.03zm1.73.992c-.08-.032-.158-.068-.236-.103.08.034.157.07.237.103zm-.812-.392c-.073-.041-.146-.08-.217-.122.071.042.145.08.217.122zm3.701.92c-.073.002-.147-.002-.221-.002.074 0 .148.003.222.002zm-.903-.04c-.085-.01-.17-.016-.255-.028.085.012.17.02.255.028zm1.92-.061c-.052.009-.103.022-.156.03.052-.008.104-.021.156-.03z" opacity=".25"/><path fill="#46739d" d="M356.747 504.236l.032.11c.059.2.126.399.202.594.03.078.06.156.093.233.1.232.21.459.333.68.013.023.023.048.036.07.138.24.293.47.458.693.047.064.098.125.148.188.129.163.264.32.407.47.057.061.114.122.174.181.189.187.386.366.595.532l.034.03c.222.172.458.33.7.477.072.043.146.082.218.122.186.104.379.2.576.29.078.034.156.07.236.102.272.11.55.21.84.287.296.08.593.133.89.173.085.012.17.02.255.028.228.023.456.035.682.037.074 0 .149.004.222.002.29-.007.577-.03.86-.07.053-.009.104-.022.156-.03a7.327 7.327 0 00.936-.225 7.02 7.02 0 00.664-.243c.047-.02.097-.036.144-.057.258-.115.507-.248.75-.392.062-.037.122-.079.183-.118.185-.118.364-.244.538-.379.064-.05.129-.099.192-.15.219-.183.432-.373.629-.58-8.04 5.113-11.906-2.482-12.183-3.056z"/><path fill="#bab2cc" d="M356.747 504.236l.032.11c.059.2.126.399.202.594.03.078.06.156.093.233.1.232.21.459.333.68.013.023.023.048.036.07.138.24.293.47.458.693.047.064.098.125.148.188.129.163.264.32.407.47.057.061.114.122.174.181.189.187.386.366.595.532l.034.03c.222.172.458.33.7.477.072.043.146.082.218.122.186.104.379.2.576.29.078.034.156.07.236.102.272.11.55.21.84.287.296.08.593.133.89.173.085.012.17.02.255.028.228.023.456.035.682.037.074 0 .149.004.222.002.29-.007.577-.03.86-.07.053-.009.104-.022.156-.03a7.327 7.327 0 00.936-.225 7.02 7.02 0 00.664-.243c.047-.02.097-.036.144-.057.258-.115.507-.248.75-.392.062-.037.122-.079.183-.118.185-.118.364-.244.538-.379.064-.05.129-.099.192-.15.219-.183.432-.373.629-.58-8.04 5.113-11.906-2.482-12.183-3.056z" opacity=".25"/><path fill="#46739d" d="M477.303 361.178a7.18 7.18 0 001.73-3.094 7.18 7.18 0 00-.154-4.232c-.05-.083-4-6.585-11.542-3.075a7.179 7.179 0 00-2.233 3.575 7.156 7.156 0 00.017 3.769c.279.576 4.144 8.169 12.182 3.057zm-6.913-11.973zm4.476 13.65zm-6.532-.475zm7.427.025zm-6.131-12.969zm.573 13.745zm-3.373-2.02zm.769.712zm1.528.918zm8.176-1.614zm-11.52-1.437zm6.494-10.724zm6.303 4.116zm-13.225 5.692zm11.127 3.085zm1.236-10.159zm-6.29-2.707zm-5.153 11.458zm11.92-8.07zm-1.782-1.963zm-4.387 12.953zm-3.855-13.26zm8.853.82zm-3.914 12.37zm1.86-13.725zm.763.39zm-2.625-.929zm-5.772 1.69zm6.598-1.523zm.026 13.914zm-2.868.187zm-2.198-13.603z"/><path fill="#172734" d="M477.567 351.56c.052.062.1.127.15.19-.05-.064-.098-.129-.15-.19zm.478.639zm-1.046-1.24l.026.022zm-1.514-1.083zm-2.635-.817c.086.008.172.015.258.028-.087-.013-.172-.019-.258-.029zm3.356 1.262c.07.05.14.095.207.146-.067-.05-.138-.097-.207-.146zm-4.215-1.308c.096 0 .19 0 .286.003-.095-.003-.19-.003-.285-.003zm2.74.508c.082.032.16.07.24.105-.081-.035-.158-.072-.24-.105zm-6.083.357zm.752-.35c.076-.03.152-.064.229-.092-.077.028-.152.061-.23.092zm-1.435.766c.067-.047.138-.089.207-.133-.07.044-.14.086-.207.133zm10.916 3.561c-.006-.017-.015-.033-.021-.05l.019.046zm-.417-.948c.039.075.079.148.115.224-.035-.076-.076-.149-.115-.224zm-7.288-3.842c.083-.01.168-.015.25-.022-.082.007-.166.012-.25.022z" opacity=".5"/><path fill="#46739d" d="M478.878 353.853c-.005-.016-.013-.031-.019-.046a7.356 7.356 0 00-.28-.674c-.036-.076-.077-.15-.115-.224a7.199 7.199 0 00-.418-.71 6.869 6.869 0 00-.329-.447c-.05-.064-.098-.13-.15-.191a6.89 6.89 0 00-.542-.58l-.025-.021a7.081 7.081 0 00-.586-.491c-.067-.051-.138-.097-.207-.146a7.47 7.47 0 00-.721-.446 7.008 7.008 0 00-.516-.25c-.08-.034-.158-.071-.24-.104a7.168 7.168 0 00-.797-.268 7.104 7.104 0 00-.826-.166c-.086-.013-.172-.02-.258-.03a7.42 7.42 0 00-.859-.044 7.55 7.55 0 00-.564.029c-.084.008-.168.012-.25.022a7.096 7.096 0 00-.786.139 7.092 7.092 0 00-.76.232c-.078.028-.153.06-.23.092a7.156 7.156 0 00-.751.35 7.1 7.1 0 00-.476.283c-.07.044-.14.086-.207.133a7.31 7.31 0 00-.628.482c7.542-3.51 11.49 2.993 11.54 3.076z"/><path fill="#172734" d="M478.878 353.853c-.005-.016-.013-.031-.019-.046a7.356 7.356 0 00-.28-.674c-.036-.076-.077-.15-.115-.224a7.199 7.199 0 00-.418-.71 6.869 6.869 0 00-.329-.447c-.05-.064-.098-.13-.15-.191a6.89 6.89 0 00-.542-.58l-.025-.021a7.081 7.081 0 00-.586-.491c-.067-.051-.138-.097-.207-.146a7.47 7.47 0 00-.721-.446 7.008 7.008 0 00-.516-.25c-.08-.034-.158-.071-.24-.104a7.168 7.168 0 00-.797-.268 7.104 7.104 0 00-.826-.166c-.086-.013-.172-.02-.258-.03a7.42 7.42 0 00-.859-.044 7.55 7.55 0 00-.564.029c-.084.008-.168.012-.25.022a7.096 7.096 0 00-.786.139 7.092 7.092 0 00-.76.232c-.078.028-.153.06-.23.092a7.156 7.156 0 00-.751.35 7.1 7.1 0 00-.476.283c-.07.044-.14.086-.207.133a7.31 7.31 0 00-.628.482c7.542-3.51 11.49 2.993 11.54 3.076z" opacity=".5"/><path fill="#bab2cc" d="M469.361 362.894c-.08-.032-.157-.068-.235-.103.078.035.155.071.235.103zm-4.208-4.663l-.032-.11-.018-.038c.013.051.035.098.05.148zm8.113 5.09c-.052.01-.104.022-.156.03.053-.008.104-.02.156-.03zm-4.717-.819c-.072-.04-.146-.079-.216-.122.07.043.143.081.216.122zm-3.102-3.445zm8.756 4.04zm-6.572-1.195c-.012-.009-.022-.02-.033-.029l.033.03zm3.715 1.481c-.085-.009-.17-.016-.255-.028.085.011.17.02.255.028zm.905.04c-.074.001-.149-.003-.224-.003.074 0 .15.004.224.002zm4.422-1.666c-.063.052-.128.101-.192.151.064-.049.13-.098.192-.15zm-10.252-1.07c-.049-.062-.1-.123-.146-.186.046.063.097.124.146.186zm8.59 2.11c-.048.021-.098.038-.146.058.048-.02.097-.037.145-.058zm-9.195-2.99l-.034-.067c.012.022.021.045.034.067zm1.185 1.533c-.059-.058-.115-.119-.172-.18.057.061.113.122.172.18zm8.942.947c-.06.04-.12.08-.183.118.062-.037.121-.079.183-.118z" opacity=".25"/><path fill="#46739d" d="M465.354 358.825c.03.078.06.156.093.233.1.233.211.462.335.683l.034.067c.138.24.293.47.458.694.047.063.097.124.146.186.13.163.265.32.41.474.057.06.113.12.172.18.189.187.386.367.597.533.012.009.022.02.033.029.222.173.458.33.702.478.07.043.144.08.216.122.187.104.379.2.578.289.078.035.155.07.235.103.272.11.55.209.84.287.296.079.593.133.89.173.084.012.17.02.254.028.228.023.455.035.681.037.075 0 .15.004.224.002a7.21 7.21 0 00.86-.071c.052-.008.103-.021.155-.03a7.375 7.375 0 001.598-.466c.048-.02.098-.037.145-.058.258-.115.507-.247.75-.392.062-.037.122-.08.183-.118.185-.118.364-.244.538-.378a7.177 7.177 0 00.821-.731c-8.037 5.11-11.903-2.481-12.18-3.057l.031.11c.058.2.125.398.201.592z"/><path fill="#bab2cc" d="M465.354 358.825c.03.078.06.156.093.233.1.233.211.462.335.683l.034.067c.138.24.293.47.458.694.047.063.097.124.146.186.13.163.265.32.41.474.057.06.113.12.172.18.189.187.386.367.597.533.012.009.022.02.033.029.222.173.458.33.702.478.07.043.144.08.216.122.187.104.379.2.578.289.078.035.155.07.235.103.272.11.55.209.84.287.296.079.593.133.89.173.084.012.17.02.254.028.228.023.455.035.681.037.075 0 .15.004.224.002a7.21 7.21 0 00.86-.071c.052-.008.103-.021.155-.03a7.375 7.375 0 001.598-.466c.048-.02.098-.037.145-.058.258-.115.507-.247.75-.392.062-.037.122-.08.183-.118.185-.118.364-.244.538-.378a7.177 7.177 0 00.821-.731c-8.037 5.11-11.903-2.481-12.18-3.057l.031.11c.058.2.125.398.201.592z" opacity=".25"/><path fill="#46739d" d="M161.207 403.817zm1.249 1.548zm-10.697-2.423zm10.187 1.697zm-2.117-1.852zm-6.515-.618zm.81-.248zm-1.596.585zm2.702-.757zm.909-.028zm-5.27 1.875zm8.144-1.225zm-1.105-.398zm-.881-.178zm3.527 1.473zm-7.778 13.153zm4.253.598zm-3.104-.18zm1.948.255zm-1-.07zm-3.726-1.58zm.783.539zm-3.18-3.795zm-.267-4.773a7.642 7.642 0 00.018 4.022c.297.614 4.423 8.718 13.001 3.263a7.657 7.657 0 001.846-3.303 7.656 7.656 0 00-.164-4.517c-.055-.092-4.27-7.027-12.317-3.282a7.647 7.647 0 00-2.383 3.816zm1.841 7.266zm-.592-.704zm13.133-7.865zm-13.66 7.05zm9.696 3.328zm.956-.48zm.77-.53zm.875-.78zm-3.567 2.125z"/><path fill="#172734" d="M161.179 403.793l.028.024zm.606.642c.056.066.107.136.16.205-.052-.07-.104-.14-.16-.205zm-1.452-1.322c.074.052.15.1.22.156-.071-.054-.146-.104-.22-.156zm2.41 2.76c.04.08.085.159.124.24-.04-.081-.083-.16-.124-.24zm-3.18-3.236zm2.733 2.48zm.892 1.768l-.023-.055.02.05a.04.04 0 01.003.004zm-6.437-5.12c.091.01.183.017.275.03-.092-.014-.184-.02-.276-.03zm-3.684.502c.082-.033.163-.068.246-.098-.082.03-.163.065-.245.098zm5.691-.007c.087.034.17.074.254.11-.085-.037-.168-.077-.254-.11zm-6.493.38zm-1.398.958l.003-.003zm4.968-1.88zm-.87.055c.087-.011.176-.016.264-.024-.088.008-.177.013-.265.024zm-3.429 1.31c.072-.05.148-.095.222-.143-.074.049-.15.094-.222.144z" opacity=".5"/><path fill="#46739d" d="M163.185 406.88l-.02-.05a8.019 8.019 0 00-.298-.717c-.04-.081-.082-.16-.124-.24a7.677 7.677 0 00-.446-.757 7.782 7.782 0 00-.35-.477c-.054-.068-.105-.138-.161-.205a7.841 7.841 0 00-.578-.618l-.028-.024a7.49 7.49 0 00-.625-.523c-.072-.054-.148-.104-.221-.156a7.35 7.35 0 00-1.32-.742c-.085-.037-.168-.077-.254-.111a7.656 7.656 0 00-.851-.286 7.9 7.9 0 00-.881-.178c-.092-.014-.184-.02-.276-.031a7.471 7.471 0 00-1.521-.017c-.09.008-.177.013-.265.024a7.563 7.563 0 00-.84.148 7.747 7.747 0 00-.811.247c-.083.03-.164.065-.246.098a7.635 7.635 0 00-1.31.675c-.073.048-.15.093-.221.143a7.66 7.66 0 00-.67.514c8.047-3.743 12.26 3.192 12.317 3.284z"/><path fill="#172734" d="M163.185 406.88l-.02-.05a8.019 8.019 0 00-.298-.717c-.04-.081-.082-.16-.124-.24a7.677 7.677 0 00-.446-.757 7.782 7.782 0 00-.35-.477c-.054-.068-.105-.138-.161-.205a7.841 7.841 0 00-.578-.618l-.028-.024a7.49 7.49 0 00-.625-.523c-.072-.054-.148-.104-.221-.156a7.35 7.35 0 00-1.32-.742c-.085-.037-.168-.077-.254-.111a7.656 7.656 0 00-.851-.286 7.9 7.9 0 00-.881-.178c-.092-.014-.184-.02-.276-.031a7.471 7.471 0 00-1.521-.017c-.09.008-.177.013-.265.024a7.563 7.563 0 00-.84.148 7.747 7.747 0 00-.811.247c-.083.03-.164.065-.246.098a7.635 7.635 0 00-1.31.675c-.073.048-.15.093-.221.143a7.66 7.66 0 00-.67.514c8.047-3.743 12.26 3.192 12.317 3.284z" opacity=".5"/><path fill="#bab2cc" d="M151.18 415.474l-.034-.03c.013.008.023.02.035.03zm-.672-.6c-.063-.064-.123-.129-.184-.194.061.065.121.131.184.193zm1.652 1.24c-.077-.043-.156-.085-.232-.131.076.046.155.088.232.13zm-2.27-1.937c-.052-.067-.106-.132-.156-.2.048.068.102.133.155.2zm-1.04-1.74c-.035-.083-.067-.167-.1-.25.033.084.065.168.1.25zm-.368-1.04c.015.054.038.105.054.16l-.035-.12zm.762 1.84c-.014-.024-.025-.05-.038-.074.013.024.024.05.038.074zm5.902 3.816a8.371 8.371 0 01-.272-.03c.09.013.18.021.272.03zm4.905-1.168c-.065.041-.128.085-.193.124.065-.039.127-.083.192-.124zm-3.94 1.21c-.078.002-.158-.002-.237-.002.079 0 .159.004.238.002zm2.946-.667c-.051.023-.104.041-.156.062.051-.022.104-.039.155-.062zm1.774-1.109c-.066.055-.135.107-.203.16.068-.053.137-.105.203-.16zm-2.637 1.43zm-.998.238c-.056.01-.11.023-.167.032.056-.008.11-.022.167-.032zm-4.168-.455c-.085-.035-.168-.073-.252-.11.083.036.166.075.251.11z" opacity=".25"/><path fill="#46739d" d="M148.5 411.438l.035.119c.063.214.134.425.214.632.033.084.065.168.1.25.106.248.224.49.355.725.014.024.024.05.038.074.147.257.313.502.49.74.05.069.103.134.155.2.138.174.283.342.435.505.061.065.121.13.184.193.202.2.413.392.638.57l.034.029c.237.185.49.352.75.51.075.046.153.087.231.13.2.111.404.214.615.308.084.037.167.076.252.111.29.117.587.223.897.306.316.085.633.141.95.185.09.013.18.021.272.03.243.025.485.038.727.04.08 0 .16.003.238.001.31-.008.615-.032.918-.076.057-.008.112-.022.168-.032a7.474 7.474 0 00.999-.239c.24-.075.476-.16.707-.258.052-.022.105-.039.156-.062a7.51 7.51 0 00.8-.419c.066-.039.129-.083.193-.124.198-.126.39-.262.577-.406.068-.053.137-.105.203-.16a8.01 8.01 0 00.672-.619c-8.58 5.454-12.705-2.65-13.002-3.264z"/><path fill="#bab2cc" d="M148.5 411.438l.035.119c.063.214.134.425.214.632.033.084.065.168.1.25.106.248.224.49.355.725.014.024.024.05.038.074.147.257.313.502.49.74.05.069.103.134.155.2.138.174.283.342.435.505.061.065.121.13.184.193.202.2.413.392.638.57l.034.029c.237.185.49.352.75.51.075.046.153.087.231.13.2.111.404.214.615.308.084.037.167.076.252.111.29.117.587.223.897.306.316.085.633.141.95.185.09.013.18.021.272.03.243.025.485.038.727.04.08 0 .16.003.238.001.31-.008.615-.032.918-.076.057-.008.112-.022.168-.032a7.474 7.474 0 00.999-.239c.24-.075.476-.16.707-.258.052-.022.105-.039.156-.062a7.51 7.51 0 00.8-.419c.066-.039.129-.083.193-.124.198-.126.39-.262.577-.406.068-.053.137-.105.203-.16a8.01 8.01 0 00.672-.619c-8.58 5.454-12.705-2.65-13.002-3.264z" opacity=".25"/><path fill="#46739d" d="M90.637 447.682zm-31.084-8.598zm-3.234 1.177zm30.21 3.678zm2.589 2.184zm-31.171-6.506zm29.917 5.387zm3.926 4.015zm-1.508 40.055zm-3.437 3.099l.365-.286c-.121.097-.248.185-.37.279a.018.018 0 00.005.007zm8.818-37.016zm.686 1.544zm-41.99-15.527zm40.5 12.41zm-1.096-1.855zm-.943-1.373zm-12.772-10.147zm-16.715-1.994zm1.76-.238zm-10.006 4.684c.302.616.596 1.233.904 1.848a256.45 256.45 0 0030.253 46.919 61.115 61.115 0 004.04-2.357 30.228 30.228 0 007.287-13.032 30.215 30.215 0 00-.642-17.813c-.171-.285-14.464-23.855-41.842-15.565zm13.435-4.853zm7.578 1.04zm2.229.7zm-3.968-1.106zm-1.758-.307zm-1.818-.21zm12.389 3.807zm1.897 1.175zm-18.26-5.062zm21.807 52.84zm-6.97-49.751z"/><path fill="#172734" d="M91.417 448.567zm-3.97-3.905c.14.115.28.226.418.342-.138-.116-.278-.228-.417-.341zm9.486 13.57c-.021-.061-.047-.12-.07-.18.022.058.045.115.065.172a.257.257 0 01.005.008zM55.84 440.466c.159-.071.32-.137.479-.205-.16.068-.321.134-.48.205zm3.215-1.223c.166-.053.33-.11.498-.16-.167.05-.332.106-.498.16zm37.08 16.957c.072.167.146.333.215.502-.07-.17-.144-.335-.215-.502zm-33.318-17.9c.17-.031.344-.056.516-.085-.172.029-.344.054-.516.085zm-5.417 1.52zm37.222 13.33c.082.144.158.29.237.435-.08-.145-.156-.291-.237-.434zm.787 1.482zm-2.912-4.706c.108.143.218.286.323.43-.105-.146-.215-.288-.323-.43zm1.165 1.654l.1.149c-.031-.05-.067-.1-.1-.15zm-4.642-5.545c.032.03.066.057.097.087-.031-.03-.065-.059-.097-.088zm1.277 1.273c.115.122.226.248.339.372-.113-.123-.223-.249-.34-.372zm-25.79-9.264zm16.646 2.657c.165.077.332.152.495.232-.163-.08-.33-.155-.495-.232zm1.958.996l.063.034c-.021-.012-.043-.022-.063-.034zm1.525.918c.147.094.29.194.435.29-.145-.096-.288-.195-.435-.29zm1.416.97zm-6.573-3.61zm-9.236-2.097c.18.012.36.031.542.046-.181-.015-.361-.033-.542-.046zm-3.963 0c.177-.01.353-.026.53-.034-.177.008-.353.022-.53.034zm7.538.461c.18.034.362.065.543.102-.181-.038-.362-.068-.543-.102zm3.988 1.024c.176.058.349.122.523.184-.175-.06-.347-.125-.523-.184zm-5.811-1.312z" opacity=".5"/><path fill="#46739d" d="M96.929 458.224c-.02-.058-.044-.115-.064-.172a29.342 29.342 0 00-.516-1.35c-.07-.169-.143-.336-.215-.503a30.495 30.495 0 00-1.276-2.615c-.08-.144-.155-.29-.237-.434a30.661 30.661 0 00-.86-1.422l-.1-.149a31.962 31.962 0 00-.842-1.224c-.105-.145-.215-.287-.323-.43a30.653 30.653 0 00-1.08-1.359 29.782 29.782 0 00-.781-.886c-.113-.124-.224-.25-.34-.372a30.71 30.71 0 00-1.18-1.187l-.096-.088a30.55 30.55 0 00-1.156-1.03c-.137-.116-.278-.228-.417-.34a31.12 31.12 0 00-1.396-1.078 27.996 27.996 0 00-.981-.679c-.145-.097-.288-.196-.435-.29a29.854 29.854 0 00-1.462-.884l-.063-.034a30.656 30.656 0 00-1.462-.765c-.163-.08-.33-.155-.495-.232a29.666 29.666 0 00-2.825-1.154c-.174-.06-.347-.125-.523-.184a30.609 30.609 0 00-1.706-.515 31.01 31.01 0 00-1.74-.408c-.18-.037-.361-.068-.542-.102a30.193 30.193 0 00-1.823-.288 29.359 29.359 0 00-1.21-.126c-.181-.015-.361-.034-.542-.046a30.113 30.113 0 00-1.721-.07 29.556 29.556 0 00-1.712.035c-.177.008-.354.023-.53.034a29.158 29.158 0 00-2.947.337c-.172.028-.344.054-.516.085a30.286 30.286 0 00-3.264.784c-.167.05-.332.106-.498.16a28.85 28.85 0 00-2.737 1.018c-.16.068-.321.134-.48.205a31.82 31.82 0 00-1.48.708c.24.496.485.992.729 1.487 27.38-8.29 41.673 15.28 41.844 15.563z"/><path fill="#172734" d="M96.929 458.224c-.02-.058-.044-.115-.064-.172a29.342 29.342 0 00-.516-1.35c-.07-.169-.143-.336-.215-.503a30.495 30.495 0 00-1.276-2.615c-.08-.144-.155-.29-.237-.434a30.661 30.661 0 00-.86-1.422l-.1-.149a31.962 31.962 0 00-.842-1.224c-.105-.145-.215-.287-.323-.43a30.653 30.653 0 00-1.08-1.359 29.782 29.782 0 00-.781-.886c-.113-.124-.224-.25-.34-.372a30.71 30.71 0 00-1.18-1.187l-.096-.088a30.55 30.55 0 00-1.156-1.03c-.137-.116-.278-.228-.417-.34a31.12 31.12 0 00-1.396-1.078 27.996 27.996 0 00-.981-.679c-.145-.097-.288-.196-.435-.29a29.854 29.854 0 00-1.462-.884l-.063-.034a30.656 30.656 0 00-1.462-.765c-.163-.08-.33-.155-.495-.232a29.666 29.666 0 00-2.825-1.154c-.174-.06-.347-.125-.523-.184a30.609 30.609 0 00-1.706-.515 31.01 31.01 0 00-1.74-.408c-.18-.037-.361-.068-.542-.102a30.193 30.193 0 00-1.823-.288 29.359 29.359 0 00-1.21-.126c-.181-.015-.361-.034-.542-.046a30.113 30.113 0 00-1.721-.07 29.556 29.556 0 00-1.712.035c-.177.008-.354.023-.53.034a29.158 29.158 0 00-2.947.337c-.172.028-.344.054-.516.085a30.286 30.286 0 00-3.264.784c-.167.05-.332.106-.498.16a28.85 28.85 0 00-2.737 1.018c-.16.068-.321.134-.48.205a31.82 31.82 0 00-1.48.708c.24.496.485.992.729 1.487 27.38-8.29 41.673 15.28 41.844 15.563z" opacity=".5"/><path fill="#bab2cc" d="M90.285 489.07l-.003.003zm-1.286 1.266c-.126.118-.254.232-.382.348.128-.115.256-.23.382-.348zm-1.434 1.256c-.12.098-.235.198-.355.294.12-.096.237-.196.355-.294z" opacity=".25"/><path fill="#46739d" d="M86.839 492.166c.122-.095.249-.183.37-.28.12-.096.237-.196.355-.294.357-.293.708-.596 1.052-.907.128-.115.256-.23.382-.348.438-.41.868-.828 1.282-1.264l.003-.003a61.115 61.115 0 01-4.041 2.357c.2.246.397.495.597.739z"/><path fill="#bab2cc" d="M86.839 492.166c.122-.095.249-.183.37-.28.12-.096.237-.196.355-.294.357-.293.708-.596 1.052-.907.128-.115.256-.23.382-.348.438-.41.868-.828 1.282-1.264l.003-.003a61.115 61.115 0 01-4.041 2.357c.2.246.397.495.597.739z" opacity=".25"/><path fill="#46739d" d="M266.798 475.844zM207.57 453.97zm2.793-1.3zm48.383 10.464zm-53.23-8.025zm-2.013 1.26zm9.157-4.607zm50.492 17.075zm1.545 2.617zM199.08 459.72a42.605 42.605 0 00-13.256 21.226 42.597 42.597 0 00.022 22.22c.879 1.867 23.797 49.22 72.404 18.31a42.613 42.613 0 0010.272-18.371 42.61 42.61 0 00-.905-25.113c-.261-.431-23.717-39.13-68.537-18.272zm61.29 5.294zm-2.121 56.464zm3.575-54.578zm-18.008-14.307zm22.016 21.073zm-27.58-22.99zm12.648 5.721zm-15.1-6.295zm5.593 1.56zm-39.903 6.13zm54.41 65.96zm-9.826-70.137zm6.88 4.237zm-35.75-7.466zm37.634 8.968zm-32.101-9.907zm2.42-.187zm-10.233 1.747zm5.334-1.225zm13.065-.113zm23.28 11.261zm-29.034-11.72zm3.188.164zm17.467 5.366zm-45.366 72.522zm2.199 1.413zm2.789 1.552zm-9.507-6.564zm2.306 1.966zm9.66 5.738zm5.788 2.008zm5.434 1.076zm-8.704-2.106zm-16.327-10.462zm2.584-62.163zm-10.531 50.74zm-1.028-2.31zm2.347 4.856zm-3.35-7.591zm6.278 12.105zm1.817 2.292zm30.195 14.96zm29.107-9.325zm-62.571-10.005zm27.388 18.543zm14.636.402zm8.182-2.045zm5.356-2.332zm-2.858 1.345zm-8.09 2.564zm3.18-.785zm-8.783 1.582zm21.165-7.492zm-2.385 1.534zm-21.686 6.074z"/><path fill="#172734" d="M263.01 468.627c.046.07.096.138.142.209-.046-.071-.096-.14-.142-.21zm4.611 9.377c-.03-.085-.066-.168-.097-.253.03.08.062.16.09.243zm-6.255-11.712c.153.203.308.404.457.61-.149-.206-.304-.407-.457-.61zm2.996 4.548c.115.202.223.409.335.613-.112-.204-.22-.41-.335-.613zm2.133 4.299c.101.235.205.469.302.706-.097-.237-.2-.471-.302-.706zm-1.023-2.21zm-64.57-14.697c.193-.15.391-.293.587-.44-.196.147-.394.29-.587.44zm18.621-8.328c.244-.044.49-.08.734-.121-.244.04-.49.077-.734.12zm2.383-.36zm8.09-.233c.253.017.507.043.76.065-.254-.021-.507-.048-.76-.065zm-5.59-.001c.25-.016.5-.037.751-.05-.252.014-.5.034-.752.05zm-10.184 1.923c.234-.074.466-.153.701-.223-.235.07-.467.148-.7.223zm-2.333.815zm20.575-2.494zm-27.572 5.934c.208-.127.414-.257.624-.38-.21.123-.416.253-.624.38zm-2.069 1.342zm6.866-3.873c.223-.1.45-.192.674-.288-.225.096-.45.188-.674.288zm33.326-.69zm9.265 5.089zm-17.246-7.396c.255.048.511.09.766.144-.256-.053-.51-.096-.766-.144zm19.213 8.913c.197.16.396.319.59.483-.194-.164-.393-.322-.59-.483zm4.017 3.73c.164.175.321.354.482.53-.16-.177-.318-.356-.482-.53zm-1.802-1.798c.046.043.095.084.141.128-.046-.044-.095-.085-.14-.128zm-6.178-4.816c.208.133.41.273.615.41-.205-.137-.407-.277-.615-.41zm9.561 8.39zm-11.71-9.684l.088.047c-.029-.016-.059-.03-.088-.047zm-7.479-3.29c.248.082.491.172.736.258-.245-.086-.488-.176-.736-.258zm4.72 1.885c.232.109.467.214.697.327-.23-.113-.465-.218-.698-.327z" opacity=".5"/><path fill="#46739d" d="M267.615 477.993c-.028-.082-.062-.16-.09-.243a44.22 44.22 0 00-.726-1.906c-.097-.237-.201-.47-.302-.706a44.083 44.083 0 00-1.023-2.21 44.106 44.106 0 00-.775-1.476c-.112-.204-.22-.41-.335-.613a43.306 43.306 0 00-1.21-2.004c-.046-.07-.096-.139-.142-.209a42.874 42.874 0 00-1.187-1.725c-.15-.206-.304-.407-.457-.61a42.139 42.139 0 00-2.621-3.16c-.161-.176-.318-.355-.482-.529a42.88 42.88 0 00-1.661-1.67c-.046-.045-.095-.085-.141-.129a42.313 42.313 0 00-1.626-1.449c-.194-.164-.393-.322-.59-.483a42.932 42.932 0 00-1.967-1.517 42.88 42.88 0 00-1.381-.957c-.205-.136-.407-.277-.615-.41a42.711 42.711 0 00-2.061-1.247l-.089-.047a42.37 42.37 0 00-2.061-1.078c-.23-.113-.466-.218-.699-.327a41.27 41.27 0 00-3.983-1.626c-.245-.086-.488-.176-.736-.258a44.015 44.015 0 00-2.405-.727 43.195 43.195 0 00-2.45-.574c-.256-.053-.512-.096-.767-.144a44.638 44.638 0 00-2.57-.406c-.57-.072-1.138-.13-1.707-.178-.253-.022-.507-.048-.76-.065a42.072 42.072 0 00-2.428-.1 42.024 42.024 0 00-2.411.051c-.251.012-.501.032-.752.05a42.013 42.013 0 00-2.5.233c-.551.07-1.1.15-1.648.24-.245.04-.49.076-.734.121-.778.142-1.553.3-2.32.483a42.16 42.16 0 00-2.28.622c-.235.07-.467.15-.701.223a42.839 42.839 0 00-2.334.816c-.513.197-1.021.405-1.526.621-.225.096-.451.19-.674.288-.715.32-1.423.655-2.118 1.013-.696.36-1.38.742-2.054 1.138-.21.123-.416.254-.624.38a42.76 42.76 0 00-2.07 1.342c-.451.312-.895.634-1.334.962-.196.147-.394.29-.587.44-.62.481-1.23.974-1.823 1.49 44.822-20.86 68.278 17.838 68.538 18.27z"/><path fill="#172734" d="M267.615 477.993c-.028-.082-.062-.16-.09-.243a44.22 44.22 0 00-.726-1.906c-.097-.237-.201-.47-.302-.706a44.083 44.083 0 00-1.023-2.21 44.106 44.106 0 00-.775-1.476c-.112-.204-.22-.41-.335-.613a43.306 43.306 0 00-1.21-2.004c-.046-.07-.096-.139-.142-.209a42.874 42.874 0 00-1.187-1.725c-.15-.206-.304-.407-.457-.61a42.139 42.139 0 00-2.621-3.16c-.161-.176-.318-.355-.482-.529a42.88 42.88 0 00-1.661-1.67c-.046-.045-.095-.085-.141-.129a42.313 42.313 0 00-1.626-1.449c-.194-.164-.393-.322-.59-.483a42.932 42.932 0 00-1.967-1.517 42.88 42.88 0 00-1.381-.957c-.205-.136-.407-.277-.615-.41a42.711 42.711 0 00-2.061-1.247l-.089-.047a42.37 42.37 0 00-2.061-1.078c-.23-.113-.466-.218-.699-.327a41.27 41.27 0 00-3.983-1.626c-.245-.086-.488-.176-.736-.258a44.015 44.015 0 00-2.405-.727 43.195 43.195 0 00-2.45-.574c-.256-.053-.512-.096-.767-.144a44.638 44.638 0 00-2.57-.406c-.57-.072-1.138-.13-1.707-.178-.253-.022-.507-.048-.76-.065a42.072 42.072 0 00-2.428-.1 42.024 42.024 0 00-2.411.051c-.251.012-.501.032-.752.05a42.013 42.013 0 00-2.5.233c-.551.07-1.1.15-1.648.24-.245.04-.49.076-.734.121-.778.142-1.553.3-2.32.483a42.16 42.16 0 00-2.28.622c-.235.07-.467.15-.701.223a42.839 42.839 0 00-2.334.816c-.513.197-1.021.405-1.526.621-.225.096-.451.19-.674.288-.715.32-1.423.655-2.118 1.013-.696.36-1.38.742-2.054 1.138-.21.123-.416.254-.624.38a42.76 42.76 0 00-2.07 1.342c-.451.312-.895.634-1.334.962-.196.147-.394.29-.587.44-.62.481-1.23.974-1.823 1.49 44.822-20.86 68.278 17.838 68.538 18.27z" opacity=".5"/><path fill="#bab2cc" d="M249.77 528.37zm-2.458 1.418c-.136.073-.27.151-.407.222.137-.07.271-.149.407-.222zm-5.083 2.301c-.226.085-.452.172-.68.253.228-.081.453-.167.68-.252zm2.411-.987c-.195.089-.395.17-.592.255.198-.086.397-.167.593-.254zm-7.967 2.665c-.238.054-.477.103-.715.154.239-.051.478-.1.715-.154zm15.234-6.804c-.127.09-.26.173-.387.262.128-.09.259-.172.387-.262zm4.53-3.698c-.177.166-.357.327-.537.49.179-.163.36-.324.537-.49zm-2.024 1.772c-.166.137-.33.277-.498.412.169-.135.332-.275.498-.412zm-32.214 9.506c-.224-.026-.448-.061-.672-.092.224.03.448.066.672.092zM191.72 516c-.126-.186-.255-.37-.377-.557.123.188.252.37.377.557zm1.529 2.127c-.154-.2-.304-.403-.454-.606.15.203.3.405.454.606zm1.569 1.935c-.07-.081-.136-.167-.206-.25.07.082.136.168.206.25zm4.08 4.109a38.753 38.753 0 01-.56-.507c.186.17.371.34.56.507zm1.93 1.61c-.063-.048-.122-.101-.185-.15.062.049.122.102.185.15zm-3.84-3.404c-.165-.164-.333-.326-.495-.493.163.166.33.328.495.493zm-9.21-13.624c-.086-.201-.176-.4-.258-.602.082.203.171.4.257.602zm-1.964-5.648c.031.114.071.224.103.338l-.073-.275zm3.066 8.042a43.194 43.194 0 01-.332-.685c.11.229.218.458.332.685zm1.17 2.195c-.063-.11-.121-.224-.183-.335.063.11.12.225.183.335zm20.95 18.31c-.233-.095-.467-.186-.697-.285.23.1.464.19.696.286zm17.217 3.17zm-2.927-.031c-.16-.007-.322-.008-.484-.017.162.009.323.01.484.017zm-5.803-.663c-.252-.046-.505-.091-.757-.142.253.05.505.096.757.142zm-16.032-6.465c-.2-.133-.402-.263-.599-.4.197.136.4.266.6.4zm27.372 7.023c-.157.013-.316.019-.473.03.157-.012.316-.017.473-.03zm-22.868-4.395l-.116-.062c.04.02.077.042.116.062zm-2.252-1.224c-.22-.127-.436-.26-.652-.39.217.13.432.263.652.39zm28.305 5.215c-.216.035-.43.074-.647.106.217-.031.432-.071.647-.106zm-20.459-1.68c-.246-.081-.489-.17-.732-.256.244.086.486.175.732.257zm-26.903-26.764c-.048-.14-.088-.282-.135-.422.047.14.087.282.135.422z" opacity=".25"/><path fill="#46739d" d="M185.845 503.168l.073.275c.184.663.384 1.32.599 1.973.046.14.087.283.135.422.267.78.559 1.55.869 2.313.082.202.172.4.257.602a42.906 42.906 0 001.103 2.394c.314.628.642 1.248.987 1.86.062.11.12.225.183.335a42.97 42.97 0 001.292 2.1c.123.188.252.371.377.557.347.514.706 1.021 1.075 1.521.15.203.3.406.454.606a43.1 43.1 0 001.363 1.687c.07.082.135.167.206.25a41.789 41.789 0 001.676 1.82c.162.167.33.33.495.493.44.439.89.868 1.35 1.288a38.753 38.753 0 002.304 1.966c.063.049.122.102.185.15a42.629 42.629 0 002.028 1.482c.197.136.4.266.6.4a42.84 42.84 0 001.6 1.013c.216.131.432.263.651.39.7.405 1.41.795 2.136 1.162l.116.062c.765.383 1.55.738 2.344 1.078.23.098.464.19.696.285a42.2 42.2 0 001.821.693c.244.086.486.175.732.257.834.28 1.677.542 2.538.773.88.236 1.76.432 2.64.61.252.051.505.096.757.142.68.125 1.36.232 2.037.324.224.03.448.065.672.092.871.103 1.742.182 2.61.231.161.01.321.01.483.017a43.205 43.205 0 005.064-.074c.158-.012.316-.017.473-.03a41.956 41.956 0 002.54-.298c.215-.032.43-.071.646-.106.652-.106 1.3-.226 1.944-.362.24-.05.478-.1.715-.154a41.941 41.941 0 002.464-.632 42.746 42.746 0 002.412-.792c.228-.081.454-.168.68-.253a43.38 43.38 0 001.818-.733c.198-.085.397-.166.593-.254a44.036 44.036 0 002.265-1.091c.137-.071.27-.15.407-.222a42.353 42.353 0 002.46-1.418c.591-.368 1.174-.75 1.747-1.146.128-.09.26-.172.387-.262a43.958 43.958 0 002.01-1.514c.167-.134.331-.275.497-.412a43.052 43.052 0 002.023-1.772 42.976 42.976 0 001.812-1.786c-48.605 30.908-71.523-16.445-72.402-18.312z"/><path fill="#bab2cc" d="M185.845 503.168l.073.275c.184.663.384 1.32.599 1.973.046.14.087.283.135.422.267.78.559 1.55.869 2.313.082.202.172.4.257.602a42.906 42.906 0 001.103 2.394c.314.628.642 1.248.987 1.86.062.11.12.225.183.335a42.97 42.97 0 001.292 2.1c.123.188.252.371.377.557.347.514.706 1.021 1.075 1.521.15.203.3.406.454.606a43.1 43.1 0 001.363 1.687c.07.082.135.167.206.25a41.789 41.789 0 001.676 1.82c.162.167.33.33.495.493.44.439.89.868 1.35 1.288a38.753 38.753 0 002.304 1.966c.063.049.122.102.185.15a42.629 42.629 0 002.028 1.482c.197.136.4.266.6.4a42.84 42.84 0 001.6 1.013c.216.131.432.263.651.39.7.405 1.41.795 2.136 1.162l.116.062c.765.383 1.55.738 2.344 1.078.23.098.464.19.696.285a42.2 42.2 0 001.821.693c.244.086.486.175.732.257.834.28 1.677.542 2.538.773.88.236 1.76.432 2.64.61.252.051.505.096.757.142.68.125 1.36.232 2.037.324.224.03.448.065.672.092.871.103 1.742.182 2.61.231.161.01.321.01.483.017a43.205 43.205 0 005.064-.074c.158-.012.316-.017.473-.03a41.956 41.956 0 002.54-.298c.215-.032.43-.071.646-.106.652-.106 1.3-.226 1.944-.362.24-.05.478-.1.715-.154a41.941 41.941 0 002.464-.632 42.746 42.746 0 002.412-.792c.228-.081.454-.168.68-.253a43.38 43.38 0 001.818-.733c.198-.085.397-.166.593-.254a44.036 44.036 0 002.265-1.091c.137-.071.27-.15.407-.222a42.353 42.353 0 002.46-1.418c.591-.368 1.174-.75 1.747-1.146.128-.09.26-.172.387-.262a43.958 43.958 0 002.01-1.514c.167-.134.331-.275.497-.412a43.052 43.052 0 002.023-1.772 42.976 42.976 0 001.812-1.786c-48.605 30.908-71.523-16.445-72.402-18.312z" opacity=".25"/><path fill="#46739d" d="M475.935 482.293c-.088-.014-.176-.032-.265-.047zm-2.083-.389c-.182-.038-.364-.076-.546-.116.182.04.364.078.546.116zm13.77.761c-.13.012-.26.028-.392.04.131-.012.26-.027.391-.04zm-9.12-.039a29.853 29.853 0 01-.523-.054c.174.02.348.037.522.055zm-21.564-7.941zm-2.392-1.766zm26.063 9.882c-.133-.008-.267-.02-.4-.028.134.008.267.02.4.027zm-12.9-2.623zm-5.38-2.288zm2.66 1.23zm18.117 3.752h-.475c.158.002.316 0 .475 0zm2.132-.04c-.157.007-.315.01-.472.015.158-.005.315-.008.472-.015zm4.55-.425c-.167.024-.335.045-.503.068.168-.023.336-.044.503-.068zm-18.543-1.116zm-11.93-5.079zm61.364-66.78zm-17.025-14.359zm-2.44-1.104zm4.764 2.32zm2.892 1.79zm-10.274-5.117zm-6.047-1.686zm2.65.62zm15.892 7.757z"/><path fill="#46739d" d="M452.854 401.671a46.598 46.598 0 011.972-1.61 46.056 46.056 0 00-16.3 24.556 46.04 46.04 0 00.023 24.02c.79 1.677 18.01 37.24 53.91 30.136a256.217 256.217 0 0032.047-60.819c-7.419-9.654-31.672-34.888-71.652-16.283zm33.42-11.253zm26.853 10.858zm-23.259-10.469zm32.247 20.716zm1.67 2.827zm-4.677-6.958zm-4.07-4.412zm2.315 2.378zm-38.926-14.79zm-36.956 65.955zm1.424 2.745zm44.203-68.78zm-46.739 63.534zm4.132 7.883zm1.571 2.248zm4 4.716zm-2.035-2.237zm-8.753-15.568zm36.472-60.135zm-5.764 1.325zm-14.524 7.333zm-3.405 71.205zm15.481-77.725zm-9.899 4.982zm2.178-1.365zm5.238-2.636z"/><path fill="#172734" d="M486.274 390.418c.274.018.55.047.824.07-.275-.023-.55-.05-.824-.07zm5.446.701c.276.052.553.1.83.156-.276-.056-.552-.103-.83-.155zm-11.487-.702c.27-.016.54-.04.81-.051-.27.013-.54.035-.81.052zm8.711.265zm23.547 10.074c.212.173.427.344.636.52-.209-.176-.424-.346-.636-.52zm-6.609-4.517c.032.018.065.034.097.05-.032-.017-.066-.032-.097-.05zm-8.085-3.557c.27.089.533.187.8.28-.266-.093-.53-.191-.8-.28zm19.036 12.106c.177.187.346.38.52.57-.174-.19-.343-.382-.52-.57zm-8.626-7.15c.224.144.442.295.663.442-.22-.147-.439-.298-.663-.442zm6.68 5.208c.05.046.101.089.15.135-.049-.046-.1-.09-.15-.135zm5.301 5.932c.164.218.331.435.491.656-.16-.222-.327-.438-.49-.656zm-1.646-2.07zM502.9 394.72c.252.118.506.23.754.353-.248-.121-.502-.235-.753-.353zm20.526 18.973c.124.217.239.439.359.658-.12-.22-.235-.441-.36-.658zm1.554 2.988v-.003a48.952 48.952 0 000 .003zm-24.631-23.066zm21.618 17.689c.049.074.1.146.15.22-.05-.074-.102-.146-.15-.22zm-11.602-12.188zm-53.462-.57zm-2.077 1.516c.208-.162.422-.316.632-.474-.21.158-.423.313-.632.474zm4.314-2.966c.225-.137.447-.278.674-.411-.227.133-.45.274-.674.41zm18.39-6.425zm-10.827 2.707zm2.523-.882c.252-.08.503-.165.757-.241-.254.076-.505.16-.757.24zm5.73-1.436c.263-.048.528-.087.79-.13-.263.044-.527.082-.79.13zm-10.631 3.3c.24-.108.485-.208.728-.311-.243.104-.488.204-.728.31z" opacity=".5"/><path fill="#46739d" d="M523.784 414.35c-.12-.219-.236-.44-.359-.658a46.404 46.404 0 00-1.31-2.169c-.048-.075-.1-.146-.15-.22a45.884 45.884 0 00-1.287-1.87c-.16-.221-.327-.437-.49-.656a48.051 48.051 0 00-1.645-2.07 46.095 46.095 0 00-1.19-1.35c-.174-.19-.343-.383-.52-.57a46.366 46.366 0 00-1.796-1.807l-.15-.135a45.296 45.296 0 00-1.76-1.569c-.21-.177-.424-.347-.636-.52a45.537 45.537 0 00-2.126-1.642c-.49-.355-.99-.699-1.494-1.035-.221-.147-.44-.299-.663-.442a46.235 46.235 0 00-2.229-1.348c-.032-.018-.065-.034-.097-.05a46.523 46.523 0 00-2.228-1.166c-.248-.122-.502-.236-.753-.353a45.646 45.646 0 00-2.553-1.105 46.317 46.317 0 00-1.752-.652c-.266-.094-.53-.19-.799-.28a46.8 46.8 0 00-2.599-.786 47.62 47.62 0 00-2.648-.62c-.276-.058-.553-.105-.83-.157a46.162 46.162 0 00-2.777-.438 46.382 46.382 0 00-1.845-.193c-.275-.023-.55-.052-.824-.07a45.935 45.935 0 00-5.231-.053c-.271.013-.54.035-.81.052a47.084 47.084 0 00-2.703.252 46.14 46.14 0 00-1.784.26c-.264.042-.53.081-.791.13a46.206 46.206 0 00-4.973 1.193c-.254.076-.504.161-.757.241a46.64 46.64 0 00-2.523.882c-.555.213-1.105.438-1.651.671-.243.104-.487.203-.728.311a46.619 46.619 0 00-4.511 2.325c-.228.133-.45.274-.675.411a47.012 47.012 0 00-2.236 1.45 45.93 45.93 0 00-1.444 1.042c-.21.158-.424.312-.632.474-.67.52-1.33 1.053-1.972 1.61 39.98-18.605 64.234 6.628 71.651 16.283.156-.426.322-.847.475-1.274a44.846 44.846 0 00-.355-.73c-.269-.539-.55-1.07-.84-1.599z"/><path fill="#172734" d="M523.784 414.35c-.12-.219-.236-.44-.359-.658a46.404 46.404 0 00-1.31-2.169c-.048-.075-.1-.146-.15-.22a45.884 45.884 0 00-1.287-1.87c-.16-.221-.327-.437-.49-.656a48.051 48.051 0 00-1.645-2.07 46.095 46.095 0 00-1.19-1.35c-.174-.19-.343-.383-.52-.57a46.366 46.366 0 00-1.796-1.807l-.15-.135a45.296 45.296 0 00-1.76-1.569c-.21-.177-.424-.347-.636-.52a45.537 45.537 0 00-2.126-1.642c-.49-.355-.99-.699-1.494-1.035-.221-.147-.44-.299-.663-.442a46.235 46.235 0 00-2.229-1.348c-.032-.018-.065-.034-.097-.05a46.523 46.523 0 00-2.228-1.166c-.248-.122-.502-.236-.753-.353a45.646 45.646 0 00-2.553-1.105 46.317 46.317 0 00-1.752-.652c-.266-.094-.53-.19-.799-.28a46.8 46.8 0 00-2.599-.786 47.62 47.62 0 00-2.648-.62c-.276-.058-.553-.105-.83-.157a46.162 46.162 0 00-2.777-.438 46.382 46.382 0 00-1.845-.193c-.275-.023-.55-.052-.824-.07a45.935 45.935 0 00-5.231-.053c-.271.013-.54.035-.81.052a47.084 47.084 0 00-2.703.252 46.14 46.14 0 00-1.784.26c-.264.042-.53.081-.791.13a46.206 46.206 0 00-4.973 1.193c-.254.076-.504.161-.757.241a46.64 46.64 0 00-2.523.882c-.555.213-1.105.438-1.651.671-.243.104-.487.203-.728.311a46.619 46.619 0 00-4.511 2.325c-.228.133-.45.274-.675.411a47.012 47.012 0 00-2.236 1.45 45.93 45.93 0 00-1.444 1.042c-.21.158-.424.312-.632.474-.67.52-1.33 1.053-1.972 1.61 39.98-18.605 64.234 6.628 71.651 16.283.156-.426.322-.847.475-1.274a44.846 44.846 0 00-.355-.73c-.269-.539-.55-1.07-.84-1.599z" opacity=".5"/><path fill="#bab2cc" d="M457.586 475.115c-.216-.144-.434-.284-.647-.43.213.147.43.288.647.43zm20.394 7.456zm-23.234-9.489c-.068-.052-.132-.11-.2-.162.068.053.132.11.2.163zm-2.084-1.74a45.494 45.494 0 01-.607-.55c.2.185.402.369.607.55zm-12.023-16.666c-.093-.218-.19-.434-.28-.653.09.22.188.435.28.653zm7.61 12.223c-.076-.087-.146-.18-.22-.267.074.089.144.18.22.267zm-6.418-9.638zm-3.314-8.692c.033.123.077.243.11.366-.028-.1-.052-.2-.079-.298a1.417 1.417 0 01-.032-.068zm.904 2.955c-.052-.152-.096-.307-.146-.46.05.153.094.308.146.46zm7.13 13.282c-.165-.216-.326-.434-.488-.653.162.219.324.438.489.653zm-1.65-2.296c-.136-.201-.276-.4-.41-.604.134.203.274.402.41.604zm-1.805-2.874c-.07-.121-.132-.245-.2-.367.068.122.13.247.2.367zm7.498 9.763c-.177-.176-.357-.35-.531-.53.174.18.354.353.53.53zm22.713 12.39zm9.324 1.083zm-14.128-2.415c-.267-.09-.53-.185-.794-.28.265.094.528.19.794.28zm16.263 2.39zm-9.094-.6zm4.539.526zm9.075-.298zm-23.544-3.045c-.252-.102-.505-.202-.754-.308.25.106.503.205.754.308zm-3.286-1.473c-.043-.021-.083-.045-.126-.067.043.02.083.045.126.067zm-2.435-1.323c-.237-.137-.471-.28-.705-.421.235.14.468.284.705.42zm27.21 6.07zm2.6-.302v-.001l-.042.007z" opacity=".25"/><path fill="#46739d" d="M438.548 448.637l.08.298c.199.716.414 1.425.647 2.13.05.153.094.308.146.46.288.843.603 1.675.939 2.499.089.219.187.435.279.653.265.622.542 1.238.833 1.847.118.247.236.494.358.738.339.678.693 1.348 1.065 2.008.068.12.13.246.2.367.442.77.91 1.526 1.396 2.27.133.203.273.402.409.604.376.555.763 1.103 1.163 1.643.162.218.323.437.489.653.477.62.968 1.23 1.476 1.827.075.088.145.18.22.267a46.202 46.202 0 001.814 1.971c.174.18.354.353.53.53.477.474.964.939 1.46 1.393.202.183.403.367.608.548a46.825 46.825 0 001.885 1.578c.068.053.132.11.199.163a44.766 44.766 0 002.193 1.602c.213.147.43.288.647.431.567.377 1.144.743 1.73 1.097.234.141.468.284.705.421a46.56 46.56 0 002.309 1.256c.043.021.083.046.126.067.827.414 1.674.798 2.533 1.165.249.106.502.206.754.308.647.263 1.303.513 1.968.748.264.094.527.19.794.28.9.3 1.812.585 2.742.834.687.184 1.374.346 2.062.497.182.04.364.078.546.116.606.126 1.213.241 1.819.342.088.015.176.033.265.047.682.11 1.363.2 2.044.278.174.02.348.037.522.055.57.06 1.14.108 1.709.146.133.01.267.021.4.028.675.04 1.348.062 2.02.071.159.002.317.001.475.001.555.002 1.108-.007 1.66-.025.157-.005.315-.008.472-.015a45.441 45.441 0 001.993-.129c.13-.01.26-.027.39-.039a46.062 46.062 0 001.666-.19c.168-.022.336-.044.503-.068l.042-.007a254.515 254.515 0 002.625-3.627c-35.901 7.102-53.12-28.46-53.91-30.137z"/><path fill="#bab2cc" d="M438.548 448.637l.08.298c.199.716.414 1.425.647 2.13.05.153.094.308.146.46.288.843.603 1.675.939 2.499.089.219.187.435.279.653.265.622.542 1.238.833 1.847.118.247.236.494.358.738.339.678.693 1.348 1.065 2.008.068.12.13.246.2.367.442.77.91 1.526 1.396 2.27.133.203.273.402.409.604.376.555.763 1.103 1.163 1.643.162.218.323.437.489.653.477.62.968 1.23 1.476 1.827.075.088.145.18.22.267a46.202 46.202 0 001.814 1.971c.174.18.354.353.53.53.477.474.964.939 1.46 1.393.202.183.403.367.608.548a46.825 46.825 0 001.885 1.578c.068.053.132.11.199.163a44.766 44.766 0 002.193 1.602c.213.147.43.288.647.431.567.377 1.144.743 1.73 1.097.234.141.468.284.705.421a46.56 46.56 0 002.309 1.256c.043.021.083.046.126.067.827.414 1.674.798 2.533 1.165.249.106.502.206.754.308.647.263 1.303.513 1.968.748.264.094.527.19.794.28.9.3 1.812.585 2.742.834.687.184 1.374.346 2.062.497.182.04.364.078.546.116.606.126 1.213.241 1.819.342.088.015.176.033.265.047.682.11 1.363.2 2.044.278.174.02.348.037.522.055.57.06 1.14.108 1.709.146.133.01.267.021.4.028.675.04 1.348.062 2.02.071.159.002.317.001.475.001.555.002 1.108-.007 1.66-.025.157-.005.315-.008.472-.015a45.441 45.441 0 001.993-.129c.13-.01.26-.027.39-.039a46.062 46.062 0 001.666-.19c.168-.022.336-.044.503-.068l.042-.007a254.515 254.515 0 002.625-3.627c-35.901 7.102-53.12-28.46-53.91-30.137z" opacity=".25"/><path fill="#2f4d69" d="M532.68 201.285c0-18.203-19.411-33.096-43.135-33.096H75.52c-23.724 0-43.135 14.893-43.135 33.096 0 18.203 19.41 33.096 43.135 33.096h414.022c23.725-.001 43.136-14.894 43.136-33.096z" opacity=".6"/><path fill="#7daeda" d="M549.525 194.599c0-19.687-20.777-35.795-46.172-35.795H65.7c-25.395 0-46.172 16.107-46.172 35.794 0 19.687 20.778 35.795 46.172 35.795h437.655c25.394 0 46.171-16.107 46.171-35.794z"/><path fill="#b1cee9" stroke="#e5eff8" stroke-linecap="round" stroke-miterlimit="10" stroke-width="7.131" d="M365.25 174.5h19.932" opacity=".15"/><path fill="#b1cee9" stroke="#e5eff8" stroke-linecap="round" stroke-miterlimit="10" stroke-width="7.973" d="M405.613 174.5h86.539" opacity=".2"/><path fill="#b1cee9" stroke="#e5eff8" stroke-linecap="round" stroke-miterlimit="10" stroke-width="7.973" d="M69.26 174.5h276.058" opacity=".1"/></svg>