<svg xmlns="http://www.w3.org/2000/svg" xmlns:xlink="http://www.w3.org/1999/xlink" width="1346" height="1346" viewBox="0 0 1346 1346">
  <defs>
    <clipPath id="clip-path">
      <path id="Path_2935" data-name="Path 2935" d="M1157.8-838.368l-38.592,54.638,67.6,98.592,9.208-18.2,316.48-621.28ZM1119.609-978.9l-133.778-.269,98.685,135.157c7.312,9.151,21.971,9.151,29.326.075l44.108-60.118,16.526-21.837c1.832-1.826,1.832-3.635,3.687-5.462,11.083-43.76,18.5-87.518-29.119-98.542,1.813,5.462,3.637,10.959,3.626,16.415C1154.464-993.407,1139.765-978.851,1119.609-978.9ZM697-1326.271,1085.747-555.83a18.978,18.978,0,0,0,32.98.064l53.367-103.85-69.409-104.1Zm495.866,378.526,148.833-200.3-243.733-.516a34.679,34.679,0,0,1-34.744-34.706c-88,19.885-108.255,63.6-123.058,134.7l179.593.376h3.655C1216.894-1044.338,1218.6-998.736,1192.866-947.744Zm-258.2-100.834c3.848-91.153,36.984-156.772,157.952-167.463h5.494l293.213.62,47.778-65.583a18.216,18.216,0,0,0-14.61-29.2l-646.9-1.3c-14.644-.046-23.839,18.173-14.71,29.144Z" transform="translate(-697 1326.271)" fill="none" clip-rule="evenodd"/>
    </clipPath>
    <clipPath id="clip-path-2">
      <path id="Path_2934" data-name="Path 2934" d="M625,91.257H3993.372V-1327H625Z" transform="translate(-625 1327)" fill="none"/>
    </clipPath>
  </defs>
  <g id="Group_6423" data-name="Group 6423" transform="translate(-310 -465.215)">
    <g id="Group_6231" data-name="Group 6231" transform="translate(310 465.204)">
      <g id="Group_6027" data-name="Group 6027" transform="translate(0 0)">
        <g id="Group_5995" data-name="Group 5995" transform="translate(0 0)">
          <g id="Group_3951" data-name="Group 3951" transform="translate(225.034 327.288)" clip-path="url(#clip-path)">
            <g id="Group_3950" data-name="Group 3950" transform="translate(-1276.435 -12.923)" clip-path="url(#clip-path-2)">
              <path id="Path_2933" data-name="Path 2933" d="M692-1331.271h992.784v957.32H692Z" transform="translate(495.788 1255.56)" fill="#fff"/>
            </g>
          </g>
          <circle id="Ellipse_357" data-name="Ellipse 357" cx="673" cy="673" r="673" transform="translate(0 0.011)" fill="#fafafa"/>
        </g>
        <g id="Group_5994" data-name="Group 5994" transform="translate(225.092 334.545)">
          <path id="Path_2977" data-name="Path 2977" d="M1422.876,922.214l-10.931,14.733-41.322,55.508-34.455,46.339a27.015,27.015,0,0,1-43.342,0l-32.912-44.176-13.094-17.7-68.209-91.706h158.176A34.824,34.824,0,0,0,1371.7,850.3a28.2,28.2,0,0,0-.4-4.8,4.4,4.4,0,0,0,.953.07c11.805,1.144,23.163,4.043,31.472,10.931,8.729,6.615,13.1,18.438,15.39,30.935C1421.143,898.718,1421.812,910.534,1422.876,922.214Z" transform="translate(-879.703 -527.264)"/>
          <path id="Path_2978" data-name="Path 2978" d="M1470.58,1048.113a82.025,82.025,0,0,0-1.945-20.8,71.226,71.226,0,0,0-3.639-10.469c-1.909-3.243-3.528-6.895-6.218-9.654-9.932-12.3-24.391-18.852-37.973-22.974-10.391-3.306-27.066-7.554-40.168-7.554h-.82c-.133,0-.272-.061-.466-.061v.061H1172.6c4.8-20.534,10.079-40.32,19.2-59.026,9.18-18.639,20.455-36.137,34.115-51.053,13.7-14.806,29.7-26.966,47.539-34.187,15.928-6.818,33.077-9.321,50.168-8.985a25.524,25.524,0,0,0-.333,4.459,34.878,34.878,0,0,0,34.925,34.919H1630.93l-163.044,219.234C1469.1,1070.75,1470.379,1059.789,1470.58,1048.113Z" transform="translate(-926.023 -683.129)"/>
          <path id="Path_2979" data-name="Path 2979" d="M1495.954,919.265c-2.665-.025-5.319.029-7.987.26-21.053,1.839-42.027,7.686-60.29,18.617-19.538,11.209-35.423,27.408-47.883,45.25-12.35,17.957-21.533,37.613-28.42,57.731a297.182,297.182,0,0,0-13.7,62.009l-183.517-253.96c-12.89-17.833-.53-43.141,21.049-43.141h689.915c21.576,0,33.925,25.308,21.046,43.141l-50.77,70.258h-315.4C1513.318,919.43,1501.96,919.321,1495.954,919.265Z" transform="translate(-1086.02 -804.546)"/>
          <path id="Path_2980" data-name="Path 2980" d="M1199.937,879.04c-.061-.061-.125,0-.193.064l-10.881-14.581a30.75,30.75,0,0,1-2.023-3.17Z" transform="translate(-818.739 -412.55)"/>
          <path id="Path_2981" data-name="Path 2981" d="M1565.247,1370.624l104.967,137.627-1.361,2.491-52.062,97.419c-12.7,23.789-47.679,23.592-60.036-.326l-51.4-99.061-178.04-343.388-35.383-68.15L1141.326,806.7l1.494-.852,217.456,291.383,50.87,68.15,149.315,200.1A30.892,30.892,0,0,0,1565.247,1370.624Z" transform="translate(-1141.326 -805.852)"/>
          <path id="Path_2982" data-name="Path 2982" d="M1634.92,806.724,1416.171,1226l-28.968,55.517-110.3,211.457-79.291-106.511a31.023,31.023,0,0,0,6.895-6.812l73.341-98.134L1319.392,1226l175.991-235.439,29.462-39.373,108.66-145.34Z" transform="translate(-752.804 -805.852)"/>
        </g>
      </g>
    </g>
  </g>
</svg>
