<svg width="220" height="220" viewBox="0 0 220 220" fill="none" xmlns="http://www.w3.org/2000/svg">
<path fill-rule="evenodd" clip-rule="evenodd" d="M0 148.248V109.999C0 49.2484 49.2484 0 110 0C139.965 0 167.131 11.9818 186.97 31.4157L163.586 46.0279C149.089 33.8715 130.399 26.5516 110 26.5516C63.9125 26.5516 26.5516 63.9125 26.5516 109.999H53.1031L0 148.248ZM56.0112 173.631C70.5639 185.991 89.4116 193.448 110.001 193.448C156.088 193.448 193.449 156.087 193.449 110H166.897L219.998 71.1208L220 110C220 170.751 170.752 219.999 110.001 219.999C79.8499 219.999 52.5322 207.868 32.662 188.221L56.0112 173.631ZM152.198 146.508H121.853L110.001 130.497L98.1486 146.508H67.804L95.2944 110.631L67.8016 73.4916H96.2498L110.001 91.4378L123.752 73.4916H152.2L124.707 110.631L152.198 146.508Z" fill="#131218"/>
</svg>
