<svg xmlns="http://www.w3.org/2000/svg" viewBox="0 0 320.72 99.82"><defs><style>.cls-1{fill:#0d0b29;}.cls-2{fill:#65c4ff;}.cls-3{fill:#1866ed;}</style></defs><g id="Layer_2" data-name="Layer 2"><g id="Layer_1-2" data-name="Layer 1"><g id="Brand_Logo" data-name="Brand Logo"><path id="YFDAI" class="cls-1" d="M311.55,50V5.36h9.17V50Zm-18.81,0-5-11.88H275.06l3.2-8.11h6.13l-6-14.38L267.92,41.32,264.38,50h-9.49l19-44.67h9.42L302.64,50Zm-122.3,0V5.36h29.72v8.05h-20.6v9.86h19.56V31.6H179.47V50Zm-34.33,0V34.39L119,5.36h10l11.92,20.42L152.06,5.36h9.64l-16.42,29V50Zm74.08,0V5.36h17.62c14.72,0,22.18,7.11,22.18,21.15C250,42.12,242.54,50,227.81,50Zm9.18-8.11h8.44c8.75,0,13-5,13-15.41,0-8.78-4.26-13-13-13h-8.44Z"/><g id="LOGO"><path id="BOTTOM" class="cls-2" d="M55.16,86.49H84.29A49.8,49.8,0,0,1,55.16,99.82Zm-39.39,0H44.9V99.82A49.8,49.8,0,0,1,15.77,86.49ZM55.16,76.25V64.33H98a49.62,49.62,0,0,1-5.33,11.92Zm-47.76,0A50.38,50.38,0,0,1,2.08,64.33H44.92V76.25Z"/><path id="TOP" class="cls-3" d="M55.16,54.09V46.56L86.23,15.49A49.92,49.92,0,0,1,100.08,50c0,1.36-.07,2.71-.17,4.05Zm-55,0C.06,52.75,0,51.4,0,50A49.88,49.88,0,0,1,13.84,15.48L44.92,46.56v7.52ZM21.66,8.82a50.05,50.05,0,0,1,56.75,0L50,37.2Z"/></g><path id="FINANCE" class="cls-1" d="M148.94,70.46v1.3H136.89V80h11.56v1.3H136.89v9.82h-1.51V70.45Zm15.69,0V91.11h-1.52V70.45ZM180,91.11V70.46H182l13.79,18.08V70.46h1.37V91.11h-1.22l-14.52-19v19Zm31.61,0H210l9.34-20.65h1.81l9.39,20.65h-1.81l-3.06-6.93H217l.59-1.3h7.53l-4.95-11.24Zm31.79,0V70.46h1.95l13.79,18.08V70.46h1.38V91.11h-1.23l-14.52-19v19Zm47.68-.72a19.84,19.84,0,0,1-5.78.87q-10.83,0-10.84-10.76,0-10.19,10.84-10.19a19.51,19.51,0,0,1,5.78.87v1.3a18.52,18.52,0,0,0-5.49-.86q-9.6,0-9.6,8.88,0,9.47,9.6,9.46a18.21,18.21,0,0,0,5.49-.87Zm28-19.93v1.3H307.09V80h11.55v1.3H307.09v8.52h12.25v1.3H305.57V70.46Z"/></g></g></g></svg>