<svg width="46" height="58" viewBox="0 0 46 58" fill="none" xmlns="http://www.w3.org/2000/svg">
<path d="M28.7436 23.0226C28.7436 26.1999 26.1693 28.776 22.9944 28.776V34.5295C29.3442 34.5295 34.4927 29.3772 34.4927 23.0226C34.4927 16.668 29.3442 11.5156 22.9944 11.5156C20.9012 11.5156 18.9354 12.0751 17.2453 13.0561C13.8077 15.0442 11.4961 18.7628 11.4961 23.0226V51.7899L16.6654 56.9631L17.2453 57.5434V23.0226C17.2453 19.8453 19.8195 17.2691 22.9944 17.2691C26.1693 17.2691 28.7436 19.8453 28.7436 23.0226Z" fill="#E6DAFE"/>
<path d="M22.9966 0C18.8076 0 14.8812 1.12155 11.4983 3.08101C9.3323 4.33267 7.39252 5.92782 5.74916 7.7936C2.17121 11.8504 0 17.1798 0 23.0139V40.2743L5.74916 46.0278V23.0139C5.74916 17.9032 7.96977 13.3103 11.4983 10.1486C13.1573 8.66534 15.1049 7.49435 17.2475 6.73971C19.0442 6.09957 20.9814 5.75347 22.9966 5.75347C32.5214 5.75347 40.2441 13.482 40.2441 23.0139C40.2441 32.5458 32.5214 40.2743 22.9966 40.2743V46.0278C35.6989 46.0278 45.9933 35.7231 45.9933 23.0139C45.9933 10.3047 35.6989 0 22.9966 0Z" fill="#E6DAFE"/>
</svg>
